<?xml version="1.0" encoding="UTF-8" standalone="no"?>
<svg
   xmlns:dc="http://purl.org/dc/elements/1.1/"
   xmlns:cc="http://creativecommons.org/ns#"
   xmlns:rdf="http://www.w3.org/1999/02/22-rdf-syntax-ns#"
   xmlns:svg="http://www.w3.org/2000/svg"
   xmlns="http://www.w3.org/2000/svg"
   xmlns:sodipodi="http://sodipodi.sourceforge.net/DTD/sodipodi-0.dtd"
   xmlns:inkscape="http://www.inkscape.org/namespaces/inkscape"
   sodipodi:docname="logo-white.svg"
   inkscape:version="1.0 (4035a4fb49, 2020-05-01)"
   id="svg8"
   version="1.1"
   viewBox="0 0 269.39523 268.86484"
   height="268.86484mm"
   width="269.39523mm">
  <defs
     id="defs2" />
  <sodipodi:namedview
     inkscape:window-maximized="1"
     inkscape:window-y="23"
     inkscape:window-x="0"
     inkscape:window-height="1031"
     inkscape:window-width="1920"
     showgrid="false"
     inkscape:document-rotation="0"
     inkscape:current-layer="layer1"
     inkscape:document-units="mm"
     inkscape:cy="522.99848"
     inkscape:cx="592.40538"
     inkscape:zoom="1.4"
     inkscape:pageshadow="2"
     inkscape:pageopacity="0.0"
     borderopacity="1.0"
     bordercolor="#666666"
     pagecolor="#ffffff"
     id="base" />
  <metadata
     id="metadata5">
    <rdf:RDF>
      <cc:Work
         rdf:about="">
        <dc:format>image/svg+xml</dc:format>
        <dc:type
           rdf:resource="http://purl.org/dc/dcmitype/StillImage" />
        <dc:title></dc:title>
      </cc:Work>
    </rdf:RDF>
  </metadata>
  <g
     transform="translate(79.822435,-24.496419)"
     id="layer1"
     inkscape:groupmode="layer"
     inkscape:label="Layer 1">
    <path
       id="path938"
       d="m -8.5925395,49.820096 -0.79375,0.264583 c -1.1366505,-1.087331 -2.6728215,-1.589087 -4.1052755,-2.187627 -1.168929,-0.488527 -2.328333,-1.233541 -3.576108,-1.495531 -2.570427,-0.53975 -4.633118,1.880261 -4.941887,4.213648 -0.411427,3.110706 0.719667,6.378839 0.716492,9.523676 -0.0019,1.880659 -0.132292,3.490913 -1.869282,4.596607 -1.759479,1.120245 -3.963458,0.182827 -5.803105,-0.273315 -3.687762,-0.914665 -7.347743,-2.120106 -11.1125,-1.412875 l -1.322916,1.322917 c -0.233627,3.790685 0.691091,7.427647 1.640416,11.112499 0.490538,1.903412 1.435365,4.020079 0.138378,5.788289 -1.191684,1.624807 -2.848769,1.626129 -4.689211,1.618721 -3.268927,-0.01296 -6.501871,-0.930539 -9.789583,-0.430477 -3.457099,0.525992 -4.472728,3.727979 -3.078586,6.612996 0.787533,1.629833 1.545855,3.264958 2.274888,4.922837 0.876723,1.993897 1.6882,4.019817 2.920365,5.829297 v 0.264589 c -0.598488,0.85063 -1.091142,1.84441 -1.976173,2.4376 -1.31871,0.88397 -2.687955,0.68157 -4.16142,0.89853 -1.833165,0.26961 -3.667892,0.71278 -5.504074,1.01864 -2.152517,0.35825 -4.649125,0.56304 -5.869066,2.6797 -0.879528,1.52612 -0.341074,3.26655 0.529431,4.64318 1.61245,2.55031 3.555815,4.89373 5.276162,7.37234 0.84164,1.21285 2.048642,2.64478 1.544426,4.22275 -0.598303,1.87246 -2.476236,2.42412 -4.124378,3.03504 -2.352543,0.87207 -4.714504,1.73778 -7.051463,2.65033 -1.636104,0.63871 -3.285516,1.52532 -3.826616,3.32581 -0.816895,2.71833 1.269312,4.41352 3.058478,6.04679 1.580012,1.44224 3.098614,2.95249 4.646903,4.4286 1.236583,1.17871 2.777199,2.42226 2.531877,4.32858 -0.225292,1.75048 -2.011891,2.52915 -3.344994,3.36153 -2.02819,1.26683 -4.057015,2.52598 -6.094227,3.77772 -1.57892,0.97023 -3.194926,1.973 -3.439912,3.98251 -0.361153,2.96227 2.297414,4.46828 4.477105,5.76474 1.707091,1.01547 3.372008,2.11005 5.071665,3.14087 1.376468,0.83476 3.092,1.76609 3.330866,3.52875 0.259979,1.91849 -1.321938,3.1242 -2.565823,4.29868 -2.501292,2.36167 -7.997163,5.5634 -7.839525,9.47394 0.106151,2.63313 2.287217,3.55706 4.428702,4.34525 2.386541,0.87842 4.782634,1.76371 7.144966,2.70616 1.471772,0.58711 3.025405,1.08426 3.606112,2.73261 0.592826,1.68275 -0.810921,3.21416 -1.716457,4.48892 -1.317149,1.85447 -2.635938,3.70999 -3.967427,5.55387 -1.161309,1.60814 -2.441205,3.17183 -2.012421,5.29193 0.271859,1.34409 1.236848,2.38363 2.507668,2.86227 3.132402,1.17924 7.01585,1.45309 10.312505,2.0193 1.228778,0.21113 2.483961,0.12382 3.427968,1.0832 1.663435,1.69042 0.666221,3.81714 -0.174625,5.62689 -0.997823,2.1471 -1.868699,4.35293 -2.864009,6.49791 -0.859366,1.85208 -1.920875,3.70257 -0.730858,5.69277 1.236742,2.06851 3.804682,2.06216 5.8978,1.77377 2.513013,-0.34634 5.140855,-0.15928 7.672917,-0.15373 1.227931,0.003 2.543969,-0.081 3.552296,0.74534 1.889125,1.54807 1.245922,3.57796 0.742156,5.6044 -0.480748,1.93331 -0.873654,3.8944 -1.37504,5.82083 -0.512762,1.97035 -1.186391,4.11612 -0.09657,6.01663 1.042194,1.81768 3.263371,1.77376 5.11466,1.59649 2.869142,-0.27464 5.655998,-1.30042 8.466666,-1.88886 1.393296,-0.29157 2.881842,-0.69241 4.215606,0.0326 1.885157,1.02473 1.872192,2.9411 1.869282,4.82652 -0.0058,3.61792 -1.993107,8.51086 0.162454,11.77899 1.106487,1.67772 3.369733,1.73725 5.129741,1.3036 3.896254,-0.96017 7.1876715,-3.74094 11.1125005,-4.61592 l 0.264583,-0.79375 c 1.15861,0.52361 2.3495,1.1266 3.076046,2.21721 0.74929997,1.12474 0.62573897,2.33653 0.84163897,3.60362 0.331258,1.94205 0.711729,3.86689 1.007533,5.82084 0.342371,2.26377 0.614627,4.91013 3.01757303,5.93936 1.700742,0.7284 3.361531,-0.007 4.808802,-0.93159 2.3624645,-1.50892 4.5357515,-3.29645 6.8275725,-4.90697 1.088231,-0.76464 2.28891,-1.769 3.703372,-1.66819 2.150534,0.15345 2.90539,2.23229 3.577167,3.94864 0.926306,2.36643 1.766358,4.76594 2.661973,7.14401 0.532077,1.41261 1.122098,2.91015 2.53312,3.65363 1.531144,0.80963 3.260725,0.50006 4.597929,-0.52652 2.576777,-1.97908 4.766469,-4.77705 7.023365,-7.11226 1.800224,-1.86293 3.561556,-3.55018 5.841999,-1.2065 0.664369,0.68262 1.149879,1.52453 1.642269,2.33283 0.672042,1.10305 1.416844,2.13095 1.756304,3.38772 1.541727,1.59279 2.322512,3.92113 4.071144,5.30225 1.761066,1.38907 3.809206,1.12713 5.367072,-0.39952 2.421202,-2.37596 4.117181,-6.03038 5.874276,-8.91434 0.81889,-1.34408 2.1553,-3.18691 3.99309,-2.8911 1.26815,0.20399 2.23864,1.52956 3.08901,2.38733 1.73038,1.74546 3.43959,3.50071 5.09853,5.31442 1.61237,1.76478 3.54144,3.55336 6.09573,2.5109 1.8452,-0.75406 2.48153,-2.46062 3.10568,-4.19841 0.84058,-2.34024 1.59517,-4.76329 2.56408,-7.05141 0.70432,-1.66317 1.73302,-3.78804 3.86873,-3.69014 1.18613,0.0545 2.1897,0.92207 3.13002,1.55522 2.25955,1.52135 4.38547,3.23294 6.659301,4.73525 1.58591,1.04775 3.35386,2.05475 5.27262,1.23031 1.48061,-0.63606 1.96268,-1.86664 2.3868,-3.30782 0.84455,-2.86941 1.16946,-6.03938 1.70895,-8.9871 0.35216,-1.92299 0.5035,-4.03754 2.79823,-4.64159 1.29884,-0.34184 2.59795,0.54743 3.73618,1.05093 2.86703,1.26867 5.88619,3.20754 8.96805,3.82296 1.45336,0.28998 3.19987,0.17621 4.29604,-0.94112 1.89257,-1.92908 1.07183,-4.37886 0.81783,-6.69952 -0.20029,-1.83091 -0.0884,-3.71686 -0.0868,-5.55625 0.002,-1.66713 -0.0823,-3.41682 1.37901,-4.54607 1.31048,-1.01282 2.95142,-0.67521 4.44182,-0.36724 2.97286,0.6141 5.95948,1.82113 9.01039,1.97935 1.61713,0.0841 3.49567,0.14261 4.54818,-1.31075 0.75856,-1.04748 0.78158,-2.45189 0.69136,-3.69278 -0.21246,-2.92418 -1.46262,-5.87666 -2.10794,-8.73125 -0.35242,-1.55919 -0.82973,-3.31418 0.24527,-4.70641 1.00886,-1.30651 2.50058,-1.37107 4.01691,-1.37822 2.6162,-0.0124 5.3414,-0.20478 7.9375,0.1532 2.01956,0.27834 4.6011,0.30612 5.70415,-1.79494 1.52267,-2.90062 -0.84931,-6.16294 -2.01586,-8.74871 -0.47096,-1.04404 -0.81254,-2.13915 -1.30069,-3.17606 -0.73211,-1.55442 -1.8849,-3.18743 -0.98822,-4.9223 0.89244,-1.72694 2.48364,-1.71398 4.15687,-2.0537 2.98079,-0.6051 6.03858,-0.95409 8.99583,-1.64862 1.65682,-0.38894 3.12473,-1.06177 3.69649,-2.80538 0.52202,-1.59199 -0.21934,-3.05091 -1.0623,-4.3725 -1.50918,-2.36617 -3.28004,-4.56565 -4.90987,-6.84847 -0.89085,-1.24725 -2.23335,-2.8194 -1.74625,-4.47252 0.49794,-1.69016 2.31272,-2.20266 3.75602,-2.79638 2.26087,-0.93001 4.57967,-1.7743 6.87626,-2.61276 2.00713,-0.7329 4.11321,-1.54676 4.60269,-3.90446 0.57679,-2.76833 -1.8706,-4.49262 -3.6912,-6.06689 -1.50813,-1.30519 -2.9472,-2.74479 -4.37939,-4.13465 -0.97525,-0.94641 -2.5908,-2.08042 -2.46512,-3.60521 0.16378,-1.98411 1.92167,-3.08636 3.46155,-4.00315 2.1717,-1.29328 4.32514,-2.63419 6.44181,-4.01531 1.59279,-1.03849 3.14325,-2.32675 3.1697,-4.38547 0.0317,-2.37014 -1.89441,-3.54595 -3.69623,-4.63603 -1.94759,-1.17898 -3.85815,-2.422 -5.82083,-3.57717 -1.47637,-0.86889 -3.20595,-1.81663 -3.47265,-3.683 -0.3265,-2.28573 2.35373,-3.86582 3.81396,-5.19906 2.06508,-1.88515 5.75734,-4.45532 6.56432,-7.23529 0.35983,-1.24011 -0.008,-2.48841 -0.29105,-3.70179 -3.82296,-1.77879 -7.69672,-3.26363 -11.64166,-4.76276 -1.53617,-0.58394 -3.35439,-1.52929 -3.30121,-3.44038 0.036,-1.29223 0.96361,-2.46989 1.67799,-3.48112 1.55972,-2.20742 3.22024,-4.34578 4.75641,-6.57199 1.15359,-1.67164 2.13413,-3.5941 0.95541,-5.53508 -1.21893,-2.00766 -3.58748,-2.19128 -5.6761,-2.5228 -1.9349,-0.30692 -3.88567,-0.84402 -5.82083,-1.06971 -1.43299,-0.16669 -2.81888,-0.0357 -4.03437,-0.98478 -0.89906,-0.70194 -1.32318,-1.84865 -1.78647,-2.852209 1.32265,-1.53749 1.93675,-3.7047 2.77019,-5.532703 0.69797,-1.530085 1.47717,-3.00011 2.08201,-4.573851 0.32279,-0.83873 0.66542,-1.693598 0.76782,-2.593446 0.33205,-2.919942 -1.90977,-4.387321 -4.56168,-4.484158 -3.12817,-0.114565 -6.14945,0.513556 -9.26042,0.514614 -1.7735,5.29e-4 -3.43535,-0.06562 -4.45294,-1.749425 -0.77602,-1.284287 -0.41936,-2.693193 -0.14711,-4.068233 0.54637,-2.760398 1.50786,-5.44142 2.05846,-8.204464 0.41963,-2.105554 0.18018,-4.432035 -1.80181,-5.632714 -1.46156,-0.885561 -2.7895,-0.511969 -4.35187,-0.187061 -2.50269,0.5207 -4.96146,1.143794 -7.44431,1.748896 -1.48802,0.362479 -3.04853,0.832644 -4.48019,0.03969 -1.87696,-1.039548 -1.86796,-2.794529 -1.86981,-4.700059 -0.002,-1.841764 -0.1016,-3.721364 0.0807,-5.556249 0.13017,-1.312863 0.57441,-2.640277 0.46011,-3.967427 -0.21458,-2.484438 -2.35982,-4.88106 -5.02418,-4.147661 -1.18851,0.327157 -2.32516,0.972899 -3.4626,1.445127 -1.40785,0.584491 -2.8702,1.075637 -3.96028,2.172044 l -0.79375,-0.264583 c -2.41036,1.797579 -4.32726,1.982523 -7.14375,1.322917 -0.59373,-3.082184 -1.16258,-6.162887 -1.68619,-9.260417 -0.29766,-1.76223 -0.37571,-3.593173 -1.13109,-5.251158 -0.8599,-1.887432 -2.94561,-2.421202 -4.84082,-1.960245 -1.32424,0.322051 -2.3712,1.221951 -3.46313,1.986121 -1.857641,1.300295 -3.677181,2.640436 -5.499901,3.98862 -1.46949,1.086935 -3.34221,2.239989 -5.09243,1.048941 -1.08585,-0.738955 -1.48855,-2.039594 -1.96744,-3.197331 -0.96653,-2.335292 -1.8042,-4.731967 -2.68235,-7.102422 -0.54266,-1.464627 -0.99536,-3.209316 -2.55667,-3.893423 -4.71672,-2.066475 -8.62012,4.46749 -11.25669,7.320677 -1.10993,1.20142 -2.44396,2.880704 -4.27488,2.679752 -1.77138,-0.194442 -2.63181,-1.943232 -3.4671,-3.292686 -1.038486,-1.677696 -2.124866,-3.323219 -3.121816,-5.026766 -1.200149,-2.050706 -2.383631,-4.495492 -5.052218,-4.675422 -2.66065,-0.179414 -3.931708,1.89018 -5.169164,3.882837 -1.197769,1.928362 -2.414588,3.850137 -3.583252,5.79583 -0.776817,1.293494 -1.529027,2.943806 -3.161242,3.28197 -1.912937,0.396346 -3.308879,-1.338738 -4.497122,-2.549842 -2.518304,-2.566485 -5.477934,-7.876196 -9.516004,-7.786661 -3.096683,0.06869 -3.993885,3.016674 -4.849812,5.482193 -0.654844,1.886532 -1.412875,3.750522 -2.125663,5.616998 -0.579702,1.517994 -1.136385,3.243474 -2.834481,3.809259 -1.770592,0.589942 -3.2766,-0.721783 -4.623858,-1.684708 L 9.4938275,36.60773 c -1.348581,-0.960014 -2.607469,-1.976358 -4.328054,-2.082826 -5.06412503,-0.313399 -4.85563303,6.249299 -5.38559403,9.738994 -0.1905,1.254549 -0.507206,2.433347 -0.622829,3.703902 -0.28786597,3.161771 -2.79876197,4.343135 -5.55466197,3.140075 -0.803275,-0.350573 -1.504156,-0.751152 -2.195248,-1.287727 M 52.526187,48.689345 c 5.815277,-1.386046 11.182089,3.989097 9.309364,9.862053 -0.868627,2.724149 -3.700727,4.896643 -6.398947,5.503068 -4.214813,0.947208 -8.598694,-3.335602 -8.921221,-7.355152 -0.2794,-3.483768 2.665413,-7.212541 6.010804,-8.009969 m 0.264583,27.853718 -0.79375,1.5875 -3.945466,13.753835 -8.87042,28.844342 -3.588279,12.17057 h -57.679144 l -5.833004,-11.91927 -2.104495,-5.01411 c -1.207294,-1.1864 -2.421202,-3.26655 -1.892036,-5.01889 0.504296,-1.67031 2.534709,-2.80458 3.590396,-4.15528 2.827337,-3.61738 5.219964,-7.534269 8.335962,-10.931789 1.381654,-1.506798 2.493433,-3.281358 3.931708,-4.732598 9.9321935,-10.021358 22.3514695,-17.891918 35.511579,-22.881165 5.100373,-1.933575 10.48385,-3.886465 15.926593,-4.579144 3.011752,-0.383381 4.341283,1.376892 6.303169,3.353329 1.931458,1.946275 3.874558,3.881173 5.815541,5.818187 1.584854,1.581679 3.042708,3.191669 5.291666,3.704431 m 19.843746,56.356249 -3.58828,-12.17084 -8.791306,-28.589545 -4.024576,-14.008364 -0.79375,-1.5875 c 2.818606,-0.636852 4.639733,-2.795852 6.614583,-4.761441 1.736459,-1.728258 3.580609,-3.272367 5.428189,-4.872567 2.01348,-1.744133 3.29645,-3.637491 6.21401,-3.162829 8.49894,1.382448 16.89179,4.564856 24.53401,8.458994 13.175194,6.713272 24.767384,15.821289 33.766664,27.625943 1.92272,2.522269 3.80761,5.122059 5.41602,7.857329 0.61648,1.04854 1.58115,2.27409 1.64306,3.5298 0.0638,1.29672 -0.80724,2.65748 -1.27238,3.83329 -1.22317,3.09165 -2.77257,6.05154 -4.05765,9.11648 -0.82868,1.9767 -1.83039,3.89466 -2.60139,5.89253 -0.31379,0.81307 -0.46831,2.01957 -1.28296,2.50296 -1.23666,0.73369 -3.43429,0.33576 -4.81674,0.33576 h -11.1125 -41.275004 m -18.785412,-51.593749 0.264583,7.408333 v 15.874996 55.03333 l 4.596341,-6.35 7.326578,-10.58333 2.97497,-4.23254 2.13625,-2.48073 4.39711,-0.43048 h 10.05417 26.458334 l 13.75833,0.26458 v 0.26459 l -42.068754,14.32745 -28.839579,9.74963 18.785419,6.58468 7.70493,2.96942 1.84705,4.46882 3.09669,10.05416 7.40727,23.8125 4.81489,16.13958 -4.65191,-6.08541 -7.52289,-10.84792 -20.71688,-29.89791 -11.558319,-16.40417 v 20.6375 5.82083 l -0.310885,3.13399 -3.657865,3.40863 -7.937499,6.01847 L 22.363709,215.1 9.6637095,224.44509 14.330165,217.30134 23.852784,203.543 53.58454,160.68051 l -18.520832,6.3193 -5.291666,1.79864 -2.910417,0.67839 -3.96875,-2.34315 -7.937499,-6.02324 -20.9020825,-15.90489 -11.9062495,-9.39589 8.7312495,2.76278 16.139583,5.49434 46.5666635,15.81997 -11.583457,-16.66875 -4.719638,-7.40834 1.051454,-4.7625 3.299354,-10.58333 7.571846,-24.341659 4.645025,-14.81667 m -96.572912,39.606269 c 1.588559,-0.33628 3.5179,-0.29633 5.021792,0.35428 6.741847,2.91676 5.419724,13.34505 -1.582209,14.87699 -1.071827,0.23442 -2.118518,0.082 -3.174735,-0.15108 -2.183871,-0.48154 -3.913716,-1.43192 -5.148527,-3.36735 -2.792942,-4.3778 -0.250561,-10.62699 4.883679,-11.71284 m 190.499998,0.54901 c 1.4896,-0.36248 3.55494,-0.41143 5.00327,0.13044 4.08807,1.52903 5.84517,6.86779 4.06479,10.72647 -0.92736,2.01031 -3.24961,3.73592 -5.3639,4.28758 -7.69038,2.00713 -12.62459,-8.91461 -6.55505,-13.72156 0.83079,-0.65802 1.81848,-1.17184 2.85089,-1.42293 m -17.19792,14.34888 c 2.27277,4.65905 7.61603,6.03515 12.07373,8.00391 2.79903,1.2364 5.61869,2.80538 8.56377,3.63776 1.07606,4.55427 0.59081,9.63242 0.53366,14.2875 -0.0445,3.63776 0.0161,7.21651 -0.46725,10.8331 -1.73223,12.95823 -6.68734,25.55716 -13.3096,36.74189 -2.64425,4.4659 -5.70918,8.61933 -9.14506,12.51135 -1.24354,1.40864 -2.23652,3.29459 -3.93038,4.2299 -1.19724,0.66145 -2.3585,0.14314 -3.57929,-0.14023 -1.95527,-0.45403 -3.92879,-0.73449 -5.87295,-1.23587 -2.7858,-0.71808 -6.48997,-1.87272 -9.37578,-1.54014 -1.75709,0.2024 -3.24246,1.2184 -4.8596,1.83541 l -3.770574,-12.7 -8.32433,-27.03565 -3.00116,-9.62184 -1.07977,-4.59025 2.94667,-2.97127 8.1661,-6.15024 19.848514,-15.13364 14.5833,-10.96169 m -152.399996,0.26459 33.70183,25.66273 8.102335,6.11028 3.140604,2.93053 -0.850371,4.38282 -3.022864,9.62554 -7.216246,23.51934 -4.7511225,15.61042 c -1.574535,-0.25056 -2.903008,-1.19486 -4.506647,-1.29302 -1.664494,-0.10213 -3.13134403,0.40111 -4.730221,0.75512 -2.205567,0.48869 -4.434416,0.85884 -6.638131,1.35679 -2.2502815,0.50852 -5.8282415,2.02961 -7.9372355,0.58578 -2.865173,-1.96162 -4.724929,-5.36495 -6.950339,-7.95522 -11.769989,-13.69933 -17.205324,-31.68941 -19.332045,-49.27653 -0.553243,-4.57623 -0.446352,-9.14188 -0.440531,-13.75833 0.0024,-1.96215 -0.126735,-4.76515 0.945886,-6.49843 1.017322,-1.64386 3.334808,-2.01983 4.967022,-2.75538 3.423179,-1.54278 6.855619,-3.05805 10.289116,-4.57252 1.250685,-0.55166 2.325158,-1.3978 3.64146,-1.78409 l 1.5875,-2.64583 m 75.670036,58.5425 c 2.135717,-0.30957 4.705614,2.63339 6.256602,3.80523 5.428984,4.10237 10.805314,8.27088 16.233774,12.37324 5.39141,4.07432 10.73203,8.21452 16.13958,12.26714 1.33112,0.99775 2.61435,2.06005 3.96346,3.03292 0.8591,0.61939 2.03041,1.22397 2.52439,2.21007 0.43339,0.86545 0.10319,1.84891 -0.0643,2.73976 -0.35296,1.87775 -0.88953,3.70496 -1.27821,5.5708 -0.5334,2.56037 -0.87603,5.14906 -1.58644,7.67212 -0.23283,0.82709 -0.32014,1.89151 -0.86175,2.58683 -1.23507,1.58671 -4.47674,2.1762 -6.282,2.88528 -6.23093,2.44766 -13.06777,4.35716 -19.69849,5.28638 -5.01253,0.7022 -10.024268,0.61939 -15.081249,0.61939 -4.78446,0 -9.560189,0.11509 -14.288028,-0.65194 -4.106069,-0.66648 -8.135408,-1.78699 -12.170304,-2.78129 -3.323166,-0.81889 -6.442604,-2.04603 -9.619191,-3.29989 -1.503627,-0.59346 -3.2893,-1.00859 -4.334669,-2.34288 -1.027641,-1.31207 -1.029493,-3.36656 -1.340643,-4.94692 -0.611717,-3.10568 -1.493838,-6.13992 -1.990461,-9.27523 -0.220398,-1.3925 -1.1956515,-3.19828 -0.4622265,-4.56777 0.5365745,-1.00171 1.7920225,-1.6211 2.6664705,-2.28653 l 5.820304,-4.39975 c 6.727031,-5.07683 13.331295,-10.31478 20.10357,-15.33234 3.486414,-2.5826 6.920441,-5.26627 10.354732,-7.91951 1.36578,-1.05516 3.231621,-2.98953 4.995069,-3.24511 m -60.5887865,38.83316 c 4.027223,-1.33086 8.700294,1.78514 9.564423,5.81183 0.764116,3.56024 -1.685396,7.91607 -5.066506,9.11781 -4.80404,1.70762 -10.3721965,-2.12672 -10.5142775,-7.26572 -0.0971,-3.52478 2.8252215,-6.60956 6.0163605,-7.66392 m 118.0139565,0.48974 c 3.44884,-0.97049 7.61629,0.54054 9.31412,3.75893 2.17964,4.13174 -0.0254,9.79091 -4.56141,11.05773 -3.76714,1.05199 -8.02032,-0.74083 -9.60385,-4.46748 -1.6756,-3.94362 0.66834,-9.17231 4.85114,-10.34918 z"
       style="fill:#ffffff;stroke:none;stroke-width:0.264583;fill-opacity:1" />
  </g>
</svg>
