<?xml version="1.0" encoding="UTF-8" standalone="no"?>
<svg
   xmlns:dc="http://purl.org/dc/elements/1.1/"
   xmlns:cc="http://creativecommons.org/ns#"
   xmlns:rdf="http://www.w3.org/1999/02/22-rdf-syntax-ns#"
   xmlns:svg="http://www.w3.org/2000/svg"
   xmlns="http://www.w3.org/2000/svg"
   xmlns:sodipodi="http://sodipodi.sourceforge.net/DTD/sodipodi-0.dtd"
   xmlns:inkscape="http://www.inkscape.org/namespaces/inkscape"
   version="1.0"
   width="800.76239"
   height="1000.67889"
   id="map"
   sodipodi:version="0.32"
   inkscape:version="1.0.1 (3bc2e813f5, 2020-09-07)"
   sodipodi:docname="map4-regionsptl.svg">
  <metadata
     id="metadata276">
    <rdf:RDF>
      <cc:Work
         rdf:about="">
        <dc:format>image/svg+xml</dc:format>
        <dc:type
           rdf:resource="http://purl.org/dc/dcmitype/StillImage" />
        <dc:title></dc:title>
      </cc:Work>
    </rdf:RDF>
  </metadata>
  <sodipodi:namedview
     inkscape:window-height="1040"
     inkscape:window-width="1910"
     inkscape:pageshadow="2"
     inkscape:pageopacity="0.0"
     guidetolerance="10.0"
     gridtolerance="10.0"
     objecttolerance="10.0"
     borderopacity="1.0"
     bordercolor="#666666"
     pagecolor="#ffffff"
     id="base"
     inkscape:zoom="0.95303929"
     inkscape:cx="323.71332"
     inkscape:cy="430.85584"
     inkscape:window-x="4"
     inkscape:window-y="34"
     inkscape:current-layer="Regions"
     inkscape:document-rotation="0"
     showgrid="false"
     inkscape:window-maximized="0" />
  <defs
     id="defs4" />
  <g
     id="Regions"
     transform="translate(-27.068721,-169.4788)"
     style="stroke:#ffffff;stroke-opacity:1;stroke-width:1;stroke-miterlimit:4;stroke-dasharray:none; display:none;pointer-events: none;">
    <path
       id="region_2"
       style="fill:#000000;fill-opacity:0;stroke:#00ff00;stroke-opacity:1;stroke-width:8;stroke-miterlimit:4;stroke-dasharray:12,12;stroke-dashoffset:0"
       d="m 582.80114,778.18778 c -14.37176,0.21823 -28.74347,0.4397 -43.11523,0.65821 -0.0461,0.61364 0.0829,1.41518 -0.7937,1.13757 -13.35262,0.16488 -26.70523,0.33143 -40.05787,0.49524 -0.2098,13.9733 -0.41924,27.94661 -0.6289,41.91992 -6.87826,0.0872 -13.75651,0.1749 -20.63477,0.26172 0.30059,14.0931 0.6016,28.1862 0.90235,42.2793 -6.60482,0 -13.20964,0 -19.81446,0 0.11827,0.7299 -1.02485,0.22347 -1.49412,0.3775 -13.42579,0.0569 -26.85157,0.11581 -40.27736,0.17133 0.17631,13.98828 0.35288,27.97656 0.5293,41.96484 -11.72461,0.0508 -23.44922,0.10156 -35.17383,0.15234 0.0408,-6.66276 0.0834,-13.32551 0.12305,-19.98828 -6.17839,0 -12.35678,0 -18.53516,0 -4.30657,6.56186 -8.75713,13.03322 -12.9336,19.68945 -2.45677,3.98048 -3.82,8.48367 -5.66696,12.75182 -1.54481,3.87665 -3.32772,7.68091 -5.73147,11.10756 -4.4152,6.36801 -10.2427,11.80385 -17.03711,15.55469 -3.27147,1.81572 -6.63466,3.73383 -9.93946,5.59179 6.83471,0.12279 13.67003,0.22958 20.50585,0.13144 14.60808,-0.0972 29.21616,-0.19439 43.82423,-0.29159 0.9828,0.34932 2.06029,0.0742 3.08549,0.17678 13.70783,0.12476 27.41567,0.24876 41.1235,0.374 0.13643,-0.58544 1.14098,-0.15994 1.64837,-0.31339 13.73602,-0.31305 27.47153,-0.67896 41.20787,-0.95901 13.17552,0.0563 26.35105,0.11259 39.52657,0.16888 0.0597,2.37631 0.11764,4.75266 0.17969,7.12891 15.8633,-0.76118 31.72664,-1.52178 47.58984,-2.28516 -0.14142,-0.73546 1.0141,-0.28411 1.48424,-0.45994 17.68036,-0.93434 35.36091,-1.86524 53.04115,-2.80178 -0.41953,-0.75696 0.84801,-0.34337 1.27352,-0.51401 9.00456,-0.63092 18.00886,-1.26571 27.01359,-1.89419 1.01563,-1.42587 2.0352,-2.84893 3.05274,-4.27344 -1.00487,-1.80084 -2.0434,-3.61163 -3.4668,-5.12109 -0.0992,-0.50681 -0.23716,-1.14799 -0.0424,-1.60208 0.80898,-0.60989 1.68427,-1.19325 2.37653,-1.9165 0.46868,-1.07772 0.82908,-2.25035 1.36508,-3.26853 0.96552,-0.31539 2.10656,-0.3628 2.9293,-0.96735 0.91036,-1.11434 1.82105,-2.22841 2.73085,-3.3432 0.11993,-1.60936 0.23957,-3.21875 0.35938,-4.82812 1.86913,-0.27673 3.73808,-0.55472 5.60742,-0.83008 0.37433,-1.61463 0.62586,-3.2921 1.07835,-4.86753 0.5473,-0.54291 1.00474,-1.26238 1.60709,-1.69714 0.6172,-0.11268 1.34015,-0.0349 1.89311,-0.26264 1.42908,-1.8582 2.85831,-3.71629 4.28669,-5.57503 -0.80766,-0.90137 -1.61484,-1.80316 -2.42188,-2.70508 -0.16939,-0.5928 0.16826,-0.88043 0.61241,-1.17735 0.47893,-0.41938 0.82971,-1.07608 1.36259,-1.37538 0.87292,0 1.74583,-10e-6 2.61875,0 0.21882,-2.142 0.67085,-4.26717 0.74752,-6.41858 -0.23293,-5.09004 -0.3483,-10.13549 -0.49947,-15.22791 0.81585,-2.42128 1.87739,-4.88449 3.72843,-6.69672 1.64149,-1.07905 3.71042,-1.0119 5.57464,-1.39693 2.4421,-0.31822 4.98958,-1.22067 6.4779,-3.29856 1.30292,-1.55432 1.88783,-3.52139 2.5038,-5.41036 0.63418,-1.26003 1.53898,-2.38084 1.95543,-3.75072 0.29037,-0.78418 0.50911,-1.59533 0.65238,-2.41937 0.77213,-0.0443 1.54427,-0.0885 2.3164,-0.13281 -0.92092,-2.12826 -2.21886,-4.1268 -2.73669,-6.40731 -0.57501,-2.71545 0.43091,-5.83217 2.74257,-7.44458 1.09193,-0.80246 2.40545,-0.13383 3.58094,0.0393 0.7152,0.14976 1.4304,0.29951 2.1456,0.44927 -0.14558,-2.91603 -0.29002,-5.83211 -0.4375,-8.74805 -0.61422,-0.88574 -1.01359,-1.9587 -1.9082,-2.61523 1.29043,-0.13059 2.13478,-1.24103 3.18169,-1.88855 2.20314,-1.63411 4.40707,-3.26716 6.60933,-4.90247 -1.15687,-1.47087 -2.3127,-2.94255 -3.46875,-4.41406 -0.72085,-8.31509 -1.44044,-16.63029 -2.16211,-24.94531 -12.73698,0.8542 -25.47398,1.7081 -38.21094,2.5625 -0.17768,0.4846 -1.13726,0.1563 -1.61895,0.32484 -17.01439,1.27711 -34.02876,2.55443 -51.04316,3.83141 0.24477,3.65178 0.49227,7.30338 0.73828,10.95508 -4.89713,0.21028 -9.79427,0.42057 -14.69141,0.63086 -0.46247,-13.82684 -0.92839,-27.65356 -1.38867,-41.48047 -0.65429,0.01 -1.30859,0.0195 -1.96289,0.0293 z" />
    <path
       id="region_1"
       style="fill:#000000;fill-opacity:0;stroke:#ff0000;stroke-width:8;stroke-miterlimit:4;stroke-dasharray:12, 12;stroke-dashoffset:0;stroke-opacity:1"
       d="m 585.91211,606.52734 c -18.23701,0.38456 -36.47397,0.77184 -54.71094,1.15821 0.5597,18.84969 1.12291,37.69928 1.6875,56.54883 5.94079,-0.13507 11.88151,-0.27365 17.82227,-0.41016 0.1276,8.74088 0.25521,17.48177 0.38281,26.22266 -5.60677,-10e-6 -11.21354,0 -16.82031,0 -0.0595,0.65492 -0.11718,1.31001 -0.17774,1.96484 -6.8151,0 -13.63021,0 -20.44531,0 -0.155,0.62272 -1.06468,0.20383 -1.54543,0.34591 -10.58691,0.2133 -21.17755,0.47701 -31.76214,0.6588 -1.89771,-0.29265 -3.82174,-0.008 -5.73184,-0.0849 -15.03439,0.13161 -30.06878,0.26278 -45.10317,0.39467 0.0553,15.52811 0.15045,31.06055 0.1836,46.58594 -0.34811,1.91503 -0.0584,3.86857 -0.15625,5.80117 0,8.37617 0,16.75235 0,25.12852 7.46224,-0.0584 14.92447,-0.11861 22.38672,-0.17774 0.0595,7.08529 0.11669,14.17059 0.17773,21.25586 19.43098,-0.16585 38.86197,-0.32999 58.29297,-0.49414 -0.54673,-0.80371 0.68661,-0.37834 1.12986,-0.49851 13.08692,-0.24079 26.17385,-0.48111 39.26076,-0.72219 -0.37473,-0.75369 -0.16735,-1.06412 0.66945,-0.89525 7.71109,-0.10653 15.42219,-0.21306 23.13329,-0.3196 0.41492,13.53385 0.8281,27.06775 1.24414,40.60157 12.1198,-0.0991 24.23958,-0.20064 36.35937,-0.30078 -0.24995,-3.86003 -0.5,-7.72006 -0.75,-11.58008 7.60158,-0.57922 15.203,-1.16059 22.80469,-1.73828 -0.38068,-0.68344 0.93829,-0.29352 1.35883,-0.47097 12.22731,-0.93356 24.45214,-1.91094 36.68179,-2.8068 3.12257,-0.12458 6.24513,-0.24911 9.36758,-0.37653 0.42079,6.01565 0.84508,12.03107 1.26368,18.04687 1.29181,1.7634 2.5847,3.52599 3.87695,5.28907 -1.34639,1.26194 -2.2207,3.02137 -2.27291,4.87846 -0.36479,2.57567 -0.73026,5.15123 -1.09428,7.72701 1.36845,0.25176 2.85713,0.42776 4.15234,0.72461 -0.70005,2.90047 -1.01109,5.87762 -1.56293,8.80815 -0.72669,4.33473 -1.45327,8.66949 -2.17925,13.00435 5.42227,-5.03592 10.96144,-9.94505 16.36523,-15 0.59624,-0.75833 1.19778,-1.51242 1.79297,-2.27149 2.30927,0.46211 4.61879,0.92297 6.92774,1.38672 0.57256,-2.48352 1.08152,-4.98041 1.64062,-7.4668 2.16524,-2.22629 4.50197,-4.41209 5.93936,-7.20225 1.12988,-2.60625 0.77489,-5.51085 1.1386,-8.26337 0.19726,-2.69692 0.74022,-5.3642 1.65453,-7.90848 0.75052,-2.55445 0.70531,-5.26163 0.31235,-7.87079 -0.22098,-3.88505 -0.56796,-7.77307 -0.58586,-11.66331 1.03001,-1.78293 2.8073,-3.12159 3.33666,-5.1846 1.90243,-5.42672 0.91206,-11.70598 -2.41537,-16.37387 -1.44807,-2.45118 -3.16392,-4.81007 -4.04426,-7.54075 -0.8896,-3.92129 -1.77689,-7.84312 -2.66804,-11.76406 -0.42605,-0.28708 -0.31553,-1.07839 -0.49377,-1.57613 -0.65511,-3.42892 -1.21672,-6.75692 -1.69959,-10.22661 -0.17015,-1.24742 -0.37017,-2.8469 -0.50996,-4.08741 -0.50763,-4.86395 -0.59332,-9.82159 -2.01425,-14.54028 -0.92017,-3.10459 -2.45795,-5.9919 -3.26892,-9.13535 -0.93227,-3.26506 -1.28861,-6.6584 -1.67912,-10.02135 -0.45784,-4.49518 -0.60442,-9.01358 -0.83244,-13.5242 -0.48884,-0.0817 -1.53675,0.58774 -1.50713,-0.19042 -0.72502,-4.54723 -1.48577,-9.13071 -3.01807,-13.48622 -1.27018,-2.96404 -3.54513,-5.33228 -5.06464,-8.15734 -1.27945,-2.12137 -2.22544,-4.41779 -3.31666,-6.63249 -2.59879,-4.57562 -7.19734,-7.5008 -11.7505,-9.86691 -1.80758,-0.92214 -3.70952,-1.62738 -5.49925,-2.58459 -1.00761,-2.01583 -1.9396,-4.06883 -2.9414,-6.08789 -2.36703,1.4228 -4.73437,2.84507 -7.10157,4.26758 -1.88476,0.0958 -3.76959,0.19012 -5.65429,0.28711 -0.36614,0.49605 -0.60082,1.22423 -1.04727,1.57812 -1.11575,0 -2.23151,0 -3.34726,0 -0.98321,2.02606 -1.53742,4.24953 -2.70508,6.1836 -0.39654,0.29043 -1.04577,0.22691 -1.53872,0.40852 -2.87751,0.58893 -5.46568,2.09578 -8.33042,2.72624 -1.68,-0.68715 -3.40065,-1.27679 -5.09375,-1.93554 -1.71158,2.69106 -3.8096,5.13648 -5.31153,7.95599 -0.25816,0.54058 -0.30284,1.2967 -0.68111,1.70985 -2.34597,0.51356 -4.7844,0.59966 -7.10473,1.18428 -1.31575,0.4641 -1.70933,2.14469 -1.1022,3.31697 0.53529,1.95855 1.07227,3.93725 1.60191,5.90126 -0.72351,0.7701 -1.78276,1.1217 -2.44531,1.97461 -1.28864,1.38898 -2.06776,3.21645 -2.26758,5.09375 -1.16435,0.98429 -1.98093,2.36834 -2.13281,3.89649 -0.28517,1.15536 -0.26498,2.46842 -1.16783,3.36177 -0.32061,0.59944 -1.1591,0.2349 -1.72529,0.37723 -2.15021,0.0935 -4.30042,0.18705 -6.45063,0.28053 -0.14593,2.35152 -0.2904,4.70312 -0.43555,7.05469 -1.63507,1.93573 -3.22725,3.91405 -4.62891,6.02734 -2.50268,-1.23088 -5.16721,-2.08742 -7.72157,-3.20254 -2.02546,-0.85582 -4.094,-1.58259 -6.06752,-2.55979 -0.6516,-0.54565 -1.51707,-0.97456 -1.88669,-1.76892 0.11081,-1.58624 1.73161,-2.59553 1.86914,-4.19336 0.19055,-3.75664 0.27132,-7.52881 0.42125,-11.29165 0.14413,-0.55246 -0.22624,-1.40813 0.3125,-1.72804 0.61135,-0.42999 1.42142,-0.73084 1.91127,-1.23972 0.20199,-1.56176 0.39668,-3.35579 0.57569,-4.7777 -0.13817,-0.80364 0.80086,-0.47439 1.29315,-0.60796 4.91195,-0.34436 9.83864,-0.14183 14.75763,-0.20454 0.0542,-2.62026 0.0362,-5.24188 0.12304,-7.86133 2.77761,-0.832 5.6708,-1.17017 8.49024,-1.83007 0.0543,-2.21131 0.0395,-4.42321 0.0645,-6.63477 0.92053,-1.69496 1.73677,-3.53502 1.65916,-5.50619 0.35267,-4.69715 0.70373,-9.39441 1.05764,-14.09147 -9.50393,0.22806 -19.00781,0.4585 -28.51172,0.6875 -0.47565,-13.97006 -0.95347,-27.94004 -1.42773,-41.91015 -0.65756,0.0137 -1.31511,0.0273 -1.97266,0.041 z" />
    <path
       id="region_4"
       style="fill:#000000;fill-opacity:0;stroke:#ff00ff;stroke-opacity:1;stroke-width:8;stroke-miterlimit:4;stroke-dasharray:7.21200013,7.21200013;stroke-dashoffset:0&quot;"
       d="m 499.8363,457.55888 c -1.71791,1.37142 -3.4319,2.74788 -5.14844,4.12109 0.49678,0.67306 1.20256,1.40498 1.57031,2.04102 -2.11285,-0.32913 -4.2157,-0.99279 -6.3517,-1.29338 -3.36365,-0.22585 -6.72019,-0.64316 -10.09166,-0.69743 -3.29882,0.004 -6.59765,0.009 -9.89648,0.0142 3.32848,2.1546 6.58248,4.42734 9.95484,6.51182 1.05375,0.67052 2.31658,1.09663 3.23071,1.93154 -1.24379,1.51194 -2.30694,3.18729 -3.82576,4.45108 -1.63641,1.76374 -3.82069,2.84895 -5.68585,4.32239 -3.49606,4.13447 -5.53362,9.8202 -4.33656,15.21842 0.59298,2.87177 2.16403,5.4119 3.96927,7.67749 1.46752,1.93699 2.81832,4.07406 4.73358,5.62592 1.22006,0.9432 2.79248,1.05731 4.26841,1.16942 0.88537,0.0652 0.75359,0.19905 -0.0808,0.34862 -1.68352,0.40992 -3.43456,0.93291 -5.15749,0.81752 -0.0801,-0.74609 -0.16015,-1.49218 -0.24023,-2.23828 -3.47352,0.81599 -6.97328,1.54693 -10.42786,2.42451 -1.79767,0.9057 -3.68561,1.67818 -5.41769,2.68528 -0.97442,1.1651 -1.94514,2.33329 -2.91812,3.49959 -0.94011,0 -1.88021,0 -2.82032,0 -2.31015,2.23217 -4.62167,4.46294 -6.93164,6.69531 -0.32614,1.92286 -0.6565,3.84501 -0.98437,5.76758 -0.87176,-0.24457 -0.92953,0.25853 -0.74347,0.98558 0.0983,1.1241 0.33048,2.2533 0.003,3.36194 -0.11896,0.69471 -0.23791,1.38941 -0.35687,2.08412 0.82485,-0.19717 1.04134,0.26055 0.98061,1.01669 0.24284,2.67598 0.56378,5.35293 0.73731,8.03029 -0.30521,3.94857 -0.2858,7.93961 -0.43472,11.8456 -0.0267,0.48501 -0.0711,1.3248 -0.12109,1.9414 -0.54264,5.82539 -2.12284,11.6077 -4.97331,16.73094 -0.13875,0.59707 -0.2799,1.32192 0.20378,1.81008 0.45135,1.00349 1.71075,1.13798 2.69062,1.03906 0.84401,0 1.68803,0 2.53204,0 0.264,0.70806 0.35106,1.57283 0.72265,2.18615 1.23225,0.55173 2.49466,1.03583 3.71094,1.62244 0.0768,10.94922 0.15365,21.89844 0.23047,32.84766 -0.33745,0.99079 -0.0514,2.08106 -0.13861,3.11679 0.0616,14.65443 0.12481,29.30885 0.18548,43.96329 7.26694,0.0297 14.53386,0.0627 21.80078,0.0937 0.11996,13.96614 0.23853,27.9323 0.35938,41.89844 16.33073,-0.068 32.66146,-0.13709 48.99219,-0.20703 -0.36998,-0.91351 0.54463,-0.63962 1.14136,-0.65956 6.45353,0.0558 12.90706,0.11129 19.36059,0.16737 0,-0.76042 0,-1.52084 0,-2.28125 5.90821,0.11896 11.81638,0.23973 17.72461,0.35742 -0.20899,-15.70703 -0.41624,-31.41409 -0.62695,-47.12109 -6.02346,0.053 -12.04688,0.10947 -18.07032,0.16406 -0.30208,-11.83659 -0.60416,-23.67318 -0.90625,-35.50977 11.76888,-0.2513 23.53776,-0.5026 35.30664,-0.7539 0.4187,13.8164 0.83674,27.63282 1.25586,41.44922 11.40235,-0.29161 22.80471,-0.58242 34.20703,-0.875 0.3235,-3.97526 0.38332,-8.03116 1.52735,-11.88086 0.5592,-0.69506 1.32111,-1.24394 1.97851,-1.85743 0.63833,-0.007 1.23334,0.0619 1.47995,0.73767 0.28247,0.63541 0.74986,0.9118 1.43959,0.75648 1.45976,0 2.91953,-10e-6 4.37929,0 0.40891,-2.18446 0.44165,-4.59299 1.78711,-6.4629 1.44576,-1.3797 3.44402,-1.83619 5.26172,-2.49804 1.00857,-0.55592 1.2481,-1.78131 1.11328,-2.83399 0.0274,-2.01693 -0.0684,-4.05255 0.0538,-6.05804 0.46716,-1.20068 0.93296,-2.40188 1.40126,-3.60211 -0.30604,-1.14399 -0.87287,-2.24671 -1.03451,-3.41028 0.31812,-3.90035 0.63701,-7.80064 0.95443,-11.70105 -0.72131,0.1657 -0.17208,-1.0122 -0.30772,-1.46584 0.10973,-3.06868 0.21947,-6.13736 0.32921,-9.20604 0.58487,-1.12627 1.34171,-2.20139 1.75634,-3.39215 0.17611,-1.53772 0.33155,-3.12829 0.52065,-4.56328 0.51295,-1.16018 1.13434,-2.2872 1.68785,-3.43519 -0.99767,-1.09356 -2.18195,-2.03708 -3.08114,-3.20644 -0.38112,-0.56563 -0.64782,-1.17327 -0.55835,-1.87072 -0.113,-3.1696 -0.22607,-6.33919 -0.33903,-9.50878 -0.60311,-0.80683 -1.46751,-1.44333 -1.93359,-2.33398 -0.59782,-1.0134 -0.2509,-2.21956 -0.3418,-3.33399 0,-0.59245 0,-1.18489 0,-1.77734 -2.10134,-0.48874 -4.10586,-1.31647 -5.94531,-2.44336 -1.1964,-0.71005 -2.59955,-1.51218 -3.8219,-2.34224 -1.87738,-1.28314 -2.36864,-3.73806 -2.49605,-5.86558 -0.0709,-1.46444 0.008,-2.9366 0.24373,-4.38398 0.42814,-0.3162 0.69044,-1.01838 1.22266,-1.09375 1.26965,0.92535 2.5763,1.81392 4.06527,2.34948 3.29612,1.60582 6.84283,2.5677 10.29606,3.7638 1.65494,0.55209 3.30989,1.10417 4.96484,1.65625 -2.26347,-3.96403 -4.52833,-7.92726 -6.79297,-11.89062 -0.0821,-1.20421 -0.05,-2.44589 -0.28845,-3.6205 -0.67068,-1.18643 -1.51999,-2.29577 -2.07174,-3.53514 -0.30969,-1.13855 -0.47231,-2.36914 -0.8737,-3.45036 -1.34259,-1.14374 -2.81024,-2.17109 -4.08251,-3.37838 0.83138,-0.0397 1.66276,-0.0794 2.49414,-0.11914 -1.822,-1.81904 -3.62612,-3.65623 -5.49805,-5.42187 0.63197,-0.19804 1.13392,-0.47881 0.90625,-1.22383 0,-2.19492 0,-4.38984 0,-6.58477 -1.41384,-0.62085 -2.92057,-1.12441 -4.27685,-1.81771 -1.91154,-2.67801 -3.82389,-5.35544 -5.73487,-8.03385 -1.70638,0 -3.41276,0 -5.11914,0 -0.43926,0.39717 -1.19528,0.0762 -1.76406,0.17969 -0.92015,0.0447 -1.90393,-0.0879 -2.7858,0.0636 -0.31191,0.37823 -0.77324,0.63746 -1.18089,0.24043 -4.36586,-3.02766 -8.73098,-6.05639 -13.09738,-9.08329 -0.40156,0.55909 -0.79918,1.12933 -1.20312,1.68164 -1.13901,-0.13912 -2.33123,-0.14032 -3.43727,-0.36488 -2.39366,-1.74447 -4.64653,-3.66656 -6.8953,-5.58936 -2.12504,-1.73976 -4.73952,-3.29105 -7.59209,-2.99835 -2.52008,0.13859 -5.04601,-0.007 -7.56753,-0.0533 -0.41136,0.24117 -0.78104,0.71676 -1.21679,0.82422 -0.5106,-0.4471 -1.24068,-0.73679 -1.29297,-1.50586 -0.33682,-1.11677 -0.14958,-2.33006 -0.7126,-3.38728 -1.08296,-2.47857 -2.85169,-4.5751 -4.47578,-6.71271 -1.19935,-1.53429 -2.474,-3.00747 -3.72959,-4.49571 -0.54622,-0.0773 -0.44709,-1.23014 -1.21348,-1.0632 -1.79214,-0.36558 -3.64478,-0.50696 -5.39127,-1.05022 -2.59998,-0.987 -5.34076,-1.58506 -8.10619,-1.8358 -2.41143,-0.31404 -4.85321,-0.78255 -7.28822,-0.49449 -0.74105,0.0158 -1.13672,0.64366 -1.6278,1.10387 -5.29795,-3.55605 -10.55369,-7.19369 -16.05854,-10.42702 -1.31553,-0.71467 -2.79419,-1.1503 -3.89815,-2.21238 -0.73106,-0.52076 -1.22498,-1.47766 -2.21422,-1.47701 -0.79647,-0.14924 -1.64313,-0.17656 -2.25982,-0.77699 -0.76762,-0.51086 -1.53477,-1.02243 -2.30169,-1.53434 -0.38021,0.30339 -0.76041,0.60677 -1.14062,0.91016 z m -65.74414,6.29883 c -0.73024,0.41772 -1.46052,0.83536 -2.19141,1.25195 -0.12147,2.10495 -0.24755,4.20963 -0.37109,6.31445 -0.63108,0.52475 -1.28214,1.03402 -1.53982,1.84721 -0.36642,0.85765 -0.95431,1.65862 -1.1822,2.55188 -0.0848,1.63483 -0.0652,3.29505 -0.21528,4.91396 -0.52663,1.206 -1.21832,2.39071 -1.6444,3.60955 0.20433,1.12215 0.40871,2.2443 0.61295,3.36647 1.40173,0.83658 2.76434,1.8131 4.19179,2.56054 2.23425,0 4.46849,0 6.70274,0 0.433,-1.10236 0.7442,-2.29298 1.25275,-3.3407 1.15924,-0.90205 2.31881,-1.80368 3.47772,-2.70617 -0.0782,-2.41925 -0.15691,-4.83848 -0.23242,-7.25782 -0.39366,-0.604 -1.24335,-1.03117 -1.08902,-1.84775 -0.0839,-1.65603 -0.0406,-3.34696 -0.20187,-4.98177 -0.77404,-1.32825 -1.45319,-2.74118 -2.28354,-4.01839 -1.39781,-0.96391 -2.79763,-1.9249 -4.19706,-2.88646 -0.36328,0.20768 -0.72656,0.41536 -1.08984,0.62305 z m 40.46679,50.97265 c 0.61919,0.28745 0.7891,0.85334 0.84978,1.48693 0.31538,0.4811 -0.0318,1.37057 -0.36985,1.42162 -0.36636,-0.95845 -0.73271,-1.9169 -1.09907,-2.87534 0.20186,0.002 0.4297,-0.13613 0.61914,-0.0332 z" />
    <path
       id="region_3"
       style="fill:#000000;fill-opacity:0;stroke:#0000ff;stroke-opacity:1;stroke-width:8;stroke-miterlimit:4;stroke-dasharray:12,12;stroke-dashoffset:0"
       d="m 437.64684,528.2581 c -1.2645,0.42074 -2.65263,0.61374 -3.81262,1.25723 -0.78768,1.03212 -1.57544,2.06418 -2.36316,3.09628 -1.4545,-0.14436 -2.89385,0.39407 -3.9414,1.4043 -2.83167,2.76414 -4.04082,6.64641 -5.59766,10.17969 -0.18711,0.61976 -0.57555,1.0894 -1.14258,1.40039 -2.15206,1.92421 -4.15236,4.09413 -5.58459,6.6154 -1.02554,1.83577 -1.0185,3.99721 -1.73767,5.93343 -0.49821,1.26663 -1.20389,2.43749 -1.93946,3.57812 -0.57003,0.0881 -0.74892,-0.672 -1.18702,-0.93473 -2.6429,-2.72702 -7.5568,-2.85663 -10.15949,-0.009 -1.21135,1.40776 -2.02468,3.107 -2.79606,4.78338 -1.00374,-0.76199 -2.34859,-0.66652 -3.51793,-1.0036 -0.58471,-0.13221 -1.19517,-0.3736 -1.60868,0.21873 -1.16285,0.90488 -2.32552,1.81 -3.48863,2.71456 -0.19538,5.65571 -0.39764,11.31118 -0.5957,16.9668 -0.33138,0.66211 -0.66276,1.32422 -0.99414,1.98633 -1.08984,-0.0516 -2.17963,-0.10423 -3.26953,-0.1543 -0.65814,0.73137 -1.20556,1.62102 -1.90544,2.27689 -3.22111,0.86046 -6.28374,2.20961 -9.43245,3.29342 0.1152,3.02543 0.11201,6.07002 0.33944,9.08051 0.93159,2.29992 1.97095,4.56727 2.77188,6.91363 0.0842,1.94283 -1.01458,3.69533 -1.01294,5.63206 -0.0952,0.65272 0.0252,1.39962 -0.59692,1.82207 -0.40185,0.44066 -0.8891,0.84935 -0.71401,1.50952 -0.0451,4.38292 -0.031,8.77367 -0.25425,13.14963 -0.63742,3.53766 -2.22474,6.81026 -3.72804,10.0461 -2.23224,4.66512 -4.76955,9.18145 -7.43407,13.61015 -1.00737,0.41322 -1.29866,1.51074 -1.53906,2.4668 -0.63683,1.2484 -1.50127,2.37376 -2.22656,3.57422 0.86163,-0.13374 0.91855,0.21534 0.44335,0.86133 -1.34258,2.55551 -3.22478,5.03688 -5.91211,6.25976 -0.84016,0.30947 -1.71136,0.5235 -2.5664,0.78711 0,2.86654 0,5.73308 0,8.59961 2.15575,3.58332 4.33707,7.2526 5.41068,11.32802 1.02743,4.63635 1.31429,9.39589 1.65182,14.1212 -1.11954,3.53509 -3.07984,6.73091 -5.01874,9.867 -1.63703,2.60507 -3.37664,5.14394 -5.17657,7.63886 0.35607,4.34879 1.06661,8.73809 2.90181,12.73193 0.98681,2.38631 2.27048,4.64411 3.35188,6.9777 0.20262,0.69968 0.35961,1.3816 0.34592,2.09896 0.55877,1.88818 1.2619,3.75657 1.86812,5.64076 2.25551,6.67751 4.46976,13.37206 6.75102,20.03893 2.49857,5.13133 5.01921,10.28628 7.41406,15.41406 -0.76051,-0.0942 0.26165,0.91953 0.31927,1.3338 1.37848,2.70859 2.87707,5.40384 3.52951,8.4025 1.58641,6.30901 2.05799,12.83237 2.39807,19.30876 0.30375,6.38229 0.2603,12.7754 0.0559,19.16002 0.61356,8.6e-4 0.14599,1.11037 0.29053,1.59219 -0.0197,6.07882 -0.31176,12.17779 -1.04183,18.25978 -0.22772,1.93291 -0.53983,4.03305 -0.85026,5.84139 -0.51364,2.93162 -1.12503,5.78797 -2.00391,8.66992 -0.22725,0.60536 -0.28395,1.31032 -0.8229,1.72298 -0.64453,0.92355 -0.55209,2.12992 -0.86406,3.1803 -0.49015,2.46124 -1.05708,4.78337 -1.79405,7.2068 -1.23476,3.88525 -2.72306,7.77461 -5.12677,11.10058 -1.75397,2.13339 -3.69666,4.10842 -5.51826,6.18576 -0.38096,0.44844 1.0205,0.0903 1.40754,0.19115 5.29287,-0.0722 10.58577,-0.14298 15.87866,-0.21452 0,6.903 0,13.80599 0,20.70898 16.16082,-0.20536 32.32161,-0.41306 48.48242,-0.61914 -0.12048,-14.01952 -0.23807,-28.03906 -0.35742,-42.05859 4.08138,-0.0111 8.16276,-0.0221 12.24414,-0.0332 1.78095,0.0599 3.71198,-0.0412 5.55156,-0.0157 12.7361,-0.20223 25.60356,-0.32769 38.39124,-0.49946 1.88039,-0.0235 3.76079,-0.047 5.64119,-0.0707 -0.29875,-14.01823 -0.59767,-28.03646 -0.89649,-42.05469 6.88216,-0.0885 13.76432,-0.17711 20.64649,-0.26562 0,-16.27018 0,-32.54037 0,-48.81055 -14.16146,0.17957 -28.32292,0.35802 -42.48438,0.53711 -0.0784,-6.96484 -0.15424,-13.92971 -0.23437,-20.89453 -7.43293,0.0955 -14.86589,0.18743 -22.29883,0.28125 -0.10677,-18.75977 -0.21354,-37.51953 -0.32031,-56.2793 13.80729,-0.11927 27.61459,-0.23744 41.42187,-0.35742 -0.0668,-16.13673 -0.13822,-32.27343 -0.20508,-48.41016 -7.3763,-0.0291 -14.7526,-0.0586 -22.1289,-0.0879 0,-11.92122 0,-23.84244 0,-35.76367 0.43063,-0.19952 0.073,-1.18348 0.18509,-1.69998 -0.064,-13.04272 -0.13023,-26.08542 -0.19291,-39.12814 -1.24085,-0.95148 -2.40516,-2.02699 -3.71261,-2.8756 -0.5283,-0.2204 -1.39361,-0.16612 -1.21827,-0.9597 -0.13079,-1.30487 -0.26131,-2.60976 -0.39138,-3.9147 -2.86387,0.12194 -5.72787,0.24072 -8.5918,0.36132 0.009,-1.68042 0.009,-3.36123 0.0605,-5.04101 0.60142,-0.0913 1.33059,-0.0445 1.25912,-0.86282 0.42167,-1.68987 0.84524,-3.37927 1.26822,-5.06882 -1.49426,-2.09301 -2.99061,-4.18454 -4.48242,-6.2793 -2.32817,1.42181 -4.65678,2.84289 -6.98438,4.26563 -0.45583,1.68172 -0.95067,3.35213 -1.40039,5.03515 0.0401,-1.99349 0.0828,-3.98694 0.1211,-5.98047 -0.5992,-0.36528 0.11874,-0.95752 0.18945,-1.43945 0.44898,-0.99712 1.37769,-1.68393 2.02551,-2.5548 0.48898,-0.5649 0.97867,-1.1292 1.46863,-1.69325 -1.12555,-3.09552 -2.49064,-6.09514 -3.91016,-9.06445 1.00506,-0.1927 2.09097,-0.23088 3.04472,-0.5224 1.42294,-1.52871 2.84293,-3.06017 4.26583,-4.58893 -0.76657,-3.19555 -1.53489,-6.39069 -2.30273,-9.58594 -0.66927,0.19206 -1.33854,0.38412 -2.00782,0.57618 z m -40.56445,8.61523 c -2.12435,0.55077 -4.24882,1.10107 -6.37305,1.65235 0.0875,2.55398 0.17238,5.10805 0.25782,7.6621 2.24585,2.49402 4.31133,5.13708 6.38281,7.7754 1.73516,-0.79973 3.46945,-1.60136 5.20313,-2.4043 -0.36263,-1.53364 -0.60606,-3.1247 -1.03871,-4.62363 -0.65233,-0.4149 -0.065,-1.01836 0.0968,-1.55653 0.26346,-0.84731 0.0434,-1.79161 0.11573,-2.67726 0,-1.17839 0,-2.35677 0,-3.53516 -1.25892,-0.83948 -2.51839,-1.67814 -3.77734,-2.51758 -0.28906,0.0749 -0.57813,0.14974 -0.86719,0.22461 z m -7.27734,12.79297 c -1.46484,0.0743 -2.92982,0.14598 -4.39453,0.22266 -0.92659,1.0137 -1.84908,2.03114 -2.77344,3.04687 -0.29831,2.48696 -0.59613,4.97399 -0.89453,7.46094 2.09705,-0.13969 4.22567,-0.16387 6.30303,-0.37723 1.08737,-0.58291 2.17304,-1.16897 3.25947,-1.75363 0.62172,-1.51265 1.24624,-3.02414 1.86719,-4.53711 -0.68622,-1.37629 -1.37507,-2.75127 -2.0625,-4.12695 -0.4349,0.0215 -0.8698,0.043 -1.30469,0.0644 z m 42.8457,23.02344 c 0.051,0.51747 0.48097,1.06408 0.32615,1.47681 -0.52855,1.24702 -1.06427,2.49103 -1.5742,3.74584 -0.10881,-1.51121 -0.36248,-3.02202 -0.4707,-4.52343 0.22673,-0.94412 0.68313,-1.81379 1.16016,-2.65039 0.1862,0.65039 0.37239,1.30078 0.55859,1.95117 z" />
    <path
       id="region_6"
       style="fill:#000000;fill-opacity:0;stroke:#800000;stroke-width:8;stroke-miterlimit:4;stroke-dasharray:12, 12;stroke-dashoffset:0;stroke-opacity:1"
       d="m 461.53356,341.19364 c -7.70631,3.28228 -15.38681,6.63073 -23.11878,9.84823 -3.06306,0.82817 -6.27888,0.54838 -9.41611,0.56144 -4.18408,-0.0738 -8.40936,0.045 -12.52758,-0.82831 -1.66812,-0.26956 -3.38156,-0.12763 -5.06824,-0.22893 -2.27543,-0.0564 -4.55087,-0.1129 -6.82632,-0.16883 0.40564,0.73389 -0.58953,0.36749 -1.01172,0.45117 -1.11662,0.0605 -2.28197,-0.11896 -3.36718,0.14062 -1.95838,0.74634 -3.95826,1.36605 -6.01004,1.79674 -1.76286,0.43411 -3.52933,0.84933 -5.28489,1.31264 -0.50142,-0.51785 -0.90234,-1.2508 -1.46523,-1.63867 -1.96341,0 -3.92682,0 -5.89023,0 -2.99165,2.48352 -5.91335,5.06187 -8.96671,7.46462 -2.96623,1.84546 -5.89477,3.76619 -8.89215,5.55236 -1.19656,0.33853 -2.36582,0.86011 -3.58718,1.06003 -1.77249,-0.10062 -3.76221,0.16594 -4.97358,1.60527 -1.92667,1.95889 -3.66537,4.09382 -5.48663,6.14975 -0.34049,-0.21179 -1.48001,0.48743 -1.40235,-0.18477 0,-1.38632 0,-2.77265 0,-4.15898 -1.30688,-1.30705 -2.61499,-2.61288 -3.92187,-3.91992 -1.72162,0.0633 -3.47131,-0.12122 -5.17398,0.1242 -2.11929,0.62111 -3.28142,2.69294 -4.24971,4.51394 -0.48325,1.21469 0.24758,2.42647 0.42334,3.63183 0.0415,0.479 0.43622,1.23912 0.26949,1.55425 -2.34427,0 -4.68854,0 -7.03281,0 -0.73602,1.63199 -1.72341,3.16431 -2.28516,4.86523 -0.41266,-0.86782 -0.61867,-1.92771 -1.51953,-2.42743 -0.92643,-0.74033 -1.85304,-1.48045 -2.7793,-2.22101 -0.68476,0.23406 -0.99912,0.0624 -0.88228,-0.6624 0.0479,-0.7287 -0.22125,-1.36399 -0.6149,-1.96196 -0.54633,-0.94779 -0.96429,-2.0367 -1.69468,-2.83701 -1.46925,-0.94415 -2.93741,-1.89001 -4.4058,-2.8355 -1.70446,0.68155 -3.40859,1.36392 -5.11328,2.04492 -0.4067,0.34868 -0.58479,1.13333 -1.1582,1.16602 -0.82857,0.1138 -1.79538,-0.0244 -2.4178,0.63955 -1.66735,1.25104 -3.33501,2.50167 -5.00212,3.75302 0,12.86589 0,25.73177 0,38.59766 -3.69076,-0.0417 -7.38153,-0.0821 -11.07227,-0.125 0,7.01367 0,14.02734 0,21.04101 -2.01569,0.0399 -4.04717,0.17954 -6.05305,0.15747 -1.16712,-0.16634 -2.36836,-0.048 -3.55054,-0.11927 -7.45375,-0.12803 -14.90751,-0.25548 -22.36125,-0.3839 0,3.47201 0,6.94401 0,10.41602 -2.07357,0 -4.14714,0 -6.2207,0 -0.0616,7.08332 -0.11956,14.16667 -0.17969,21.25 -5.3763,0 -10.75261,0 -16.12891,0 2.37536,2.56904 4.78334,5.10828 7.13477,7.69922 -1.16423,0.62079 -2.32832,1.24183 -3.49219,1.86328 1.03685,2.14867 1.97958,4.35218 3.09103,6.45825 0.5394,0.69063 1.2565,1.31396 1.68785,2.04603 0.21859,0.71739 -0.72687,0.52872 -1.16307,0.73449 -1.71962,0.40922 -3.43922,0.81855 -5.15878,1.22802 1.19881,2.1304 2.28147,4.34073 3.56624,6.41291 0.35489,0.43609 1.17291,0.70165 0.89895,1.37033 -0.20391,1.31082 -0.25843,2.68995 -0.55359,3.95905 -1.21823,1.31631 -2.3162,2.77391 -3.85247,3.74346 -0.35189,0.39768 -1.20039,0.54817 -1.05718,1.19355 -0.0331,1.82633 0.0657,3.68681 -0.0486,5.49211 -0.78331,1.4103 -1.56696,2.82041 -2.34987,4.23094 1.20801,1.66234 2.41882,3.32265 3.625,4.98633 4.06679,0.21669 8.13764,0.29543 12.20976,0.24804 0.67851,0.20248 1.0296,-0.30028 1.39001,-0.78335 0.82756,-0.9732 1.74874,-2.07642 2.51937,-2.96079 0.12355,0.70265 -0.0871,1.3858 -0.12078,2.11028 -1.10139,1.85755 -2.39888,3.63404 -3.46041,5.51791 -0.64276,2.38594 -1.16246,4.8177 -1.90025,7.17009 -0.7731,1.47676 -1.54649,2.95336 -2.31934,4.43024 0.60074,1.80908 1.20317,3.6176 1.80664,5.42578 1.53892,1.38118 3.23351,2.62467 4.53515,4.24023 0.39229,1.37853 0.78687,2.7564 1.17969,4.13477 3.42383,0 6.84766,0 10.27149,0 0.1645,-2.37632 0.32941,-4.75261 0.49414,-7.12891 4.63539,-5.14518 9.36688,-10.22227 13.60723,-15.70371 1.24819,-1.72784 2.41512,-3.71254 2.44355,-5.90371 0.82559,-0.83275 1.63776,-1.71409 1.97674,-2.86495 0.55177,-1.18122 0.88034,-2.50626 1.85768,-3.42818 1.35935,-1.63135 2.71753,-3.26369 4.07769,-4.89437 0.10055,-1.59679 0.0562,-3.2251 0.2607,-4.80175 1.56674,-3.03614 3.13349,-6.07227 4.70023,-9.10841 0.70096,-0.71068 0.99679,-1.72043 1.5503,-2.54538 1.83113,-3.29726 3.62378,-6.62028 5.74418,-9.74435 0.20782,-0.34486 0.58983,-0.9564 1.09083,-1.18179 3.12172,-2.34824 6.52779,-4.26701 9.84126,-6.3234 0.31089,1.49852 0.91196,2.96038 1.33424,4.44485 0.48184,1.52464 0.96231,3.04971 1.4431,4.57468 2.53108,-2.21298 5.06127,-4.427 7.5918,-6.64062 2.32052,-0.68922 4.645,-1.3824 6.83497,-2.43011 0.56661,-0.24298 1.13341,-0.4855 1.70018,-0.72809 0.26488,-1.9843 0.52862,-3.96876 0.79297,-5.95313 1.57737,-1.32565 3.15624,-2.6495 4.73242,-3.97656 -0.0662,-1.52022 -0.13412,-3.04037 -0.20117,-4.56055 1.0819,0.55082 2.1316,1.2501 3.27348,1.62842 0.67096,0.0295 1.49419,-0.40221 1.95346,0.27059 1.02794,0.57521 -0.11304,0.42206 -0.0219,1.17593 -0.11867,1.68408 -0.23968,3.368 -0.35938,5.05201 -0.7969,0.51233 -1.59389,1.02451 -2.39062,1.53711 -0.14672,1.07224 -0.29299,2.14453 -0.43945,3.2168 -0.66803,0.2199 -1.46443,0.26613 -2.05724,0.58579 -0.81751,1.36541 -1.63861,2.72868 -2.45643,4.0939 0.45052,1.68732 0.90124,3.3746 1.3496,5.0625 2.22824,1.90862 4.54029,3.71491 6.86329,5.50586 2.46552,0.52785 4.93094,1.05621 7.39648,1.58398 -0.0682,-2.42322 -0.13894,-4.84636 -0.20898,-7.26953 0.55412,-0.0983 1.27731,0.0453 1.72876,-0.19741 0.54244,-1.26903 1.08574,-2.53768 1.62866,-3.8065 0.50473,0.72007 0.90284,0.34501 1.2788,-0.25748 1.33163,-1.57426 2.66414,-3.14777 3.99463,-4.72298 0.19923,-0.50466 0.0119,-1.3981 0.47853,-1.63253 1.49806,-0.25001 2.99614,-0.4999 4.49413,-0.75029 0.0138,-0.66926 0.0259,-1.33857 0.041,-2.00781 0.57379,-0.20319 0.59368,-1.02859 0.93109,-1.4985 0.33853,-0.45712 0.33015,-1.46111 1.09039,-1.25345 1.17578,0 2.35156,0 3.52734,0 0.69997,-0.75873 1.55328,-1.44269 2.15642,-2.24773 0.17404,-1.45393 0.34889,-2.90776 0.52327,-4.36165 0.48183,-0.55283 1.16082,-1.02399 1.52539,-1.62539 0,-2.19518 0,-4.39036 0,-6.58554 1.30274,-1.48894 2.60547,-2.97787 3.90821,-4.4668 1.33854,0 2.67708,0 4.01562,0 0.30152,-0.45729 0.22914,-1.4415 0.99168,-1.24911 3.59665,-0.1429 7.19101,-0.33318 10.78567,-0.51847 2.51636,0.83807 5.09246,1.51736 7.48831,2.67575 1.86268,0.76495 3.68607,1.6722 5.57326,2.3484 1.68976,0.22242 3.37952,0.44484 5.06928,0.66726 -1.1707,-1.41062 -2.23909,-2.92871 -3.47292,-4.27302 0.0665,-0.56892 0.14459,-1.20174 0.8334,-1.31347 1.01572,-0.62145 2.27304,-0.40849 3.40758,-0.62009 0.63736,-0.14169 1.41788,0.21213 1.84978,-0.4301 0.44091,-0.22494 0.94577,-1.14945 1.34258,-0.90014 0.32753,0.54398 0.73042,0.93133 1.40404,0.75557 0.90184,0.0566 1.85777,-0.11548 2.72452,0.0896 0.67464,0.34569 1.3294,0.77652 2.12157,0.62526 2.36732,0 4.73464,0 7.10195,0 2.82532,-4.22177 5.56996,-8.51319 8.72734,-12.49809 1.40716,-1.52688 3.14925,-2.81132 5.10665,-3.52925 0.66317,-0.22406 0.77223,0.75281 1.07491,1.12171 0.33784,0.3228 0.49253,1.60296 0.97065,1.19249 1.14016,-0.96299 2.27987,-1.9265 3.41928,-2.89037 0.29733,0.59417 0.59391,1.18872 0.89063,1.7832 1.46745,0 2.93489,0 4.40234,0 0.48151,-0.21192 0.96827,-1.03454 1.4473,-0.84448 1.20759,0.89043 2.36062,1.90914 3.60077,2.72285 1.51991,0.26754 3.09857,0.40595 4.58147,0.75598 0.76555,0.63865 1.53214,1.27605 2.29624,1.91643 1.64239,-0.19179 3.28517,-0.38009 4.92774,-0.57031 2.36054,1.21366 4.87344,2.07139 7.33203,3.05468 3.84918,2.09949 7.15803,5.04929 10.21875,8.15821 -1.08933,-0.19557 -0.55888,0.267 0.007,0.74378 1.15953,1.02991 2.20447,2.21629 3.43735,3.14604 1.20694,0.7102 2.51406,1.31773 3.65952,2.09092 0.61639,0.95713 1.08963,2.03687 1.79562,2.91727 1.1883,0.97534 2.33543,2.00924 3.72711,2.69146 1.16146,0.63783 2.28641,1.41252 3.46995,1.96717 1.25638,0 2.51276,0 3.76914,0 1.1387,-1.13865 2.27819,-2.2765 3.41797,-3.41406 -0.7092,-1.42856 -1.57631,-2.80293 -2.18723,-4.2653 -0.01,-0.58494 -0.41855,-1.27164 -0.16443,-1.78934 0.58934,-0.73691 1.17851,-1.47395 1.76768,-2.21099 -0.84297,-0.99621 -1.68613,-1.99225 -2.5293,-2.98828 0.0295,-0.49199 0.18104,-1.03495 0.75331,-1.10884 1.15086,-0.54213 2.24362,-1.19708 3.30333,-1.89897 0.0614,-2.56836 0.12238,-5.13672 0.18359,-7.70508 0.63464,0.34937 1.28085,1.04223 1.91993,1.52344 0.67239,0.44892 1.31132,1.04032 2.0218,1.37713 1.41071,-0.0526 2.8214,-0.10561 4.2321,-0.15838 0.28235,0.61007 0.88908,1.15226 0.95542,1.80754 -0.32524,2.38573 -0.6501,4.77151 -0.97495,7.1573 2.01173,-1.20831 4.02382,-2.41604 6.03516,-3.625 0.92825,0.67531 1.85663,1.35045 2.78515,2.02539 0.42296,-0.69889 0.74705,-0.5178 1.25572,-0.007 1.76111,1.32068 3.52233,2.64123 5.28335,3.96204 1.59908,-1.11469 3.1992,-2.22789 4.79882,-3.3418 2.38542,-0.0625 4.77084,-0.12487 7.15625,-0.1875 0.29705,-0.61547 0.77021,-0.90247 1.45525,-0.79424 2.08002,-0.11558 4.15993,-0.23303 6.24007,-0.34638 0.18911,-0.49808 -0.13269,-1.52925 0.68508,-1.37138 0.88156,-0.13645 1.75771,-0.1791 2.61453,0.11238 2.9365,0.74298 5.95653,1.01467 8.94648,1.45626 0.58259,-0.37525 1.0092,-1.17799 1.79336,-0.99609 0.72184,0.099 1.29178,0.73441 1.95268,1.0486 0.50519,0.2611 0.98046,0.86687 1.54941,0.38892 1.23436,-0.4617 2.45747,-1.03498 3.62084,-1.60064 0.92717,0.11497 1.94768,0.17418 2.63184,0.89257 1.04057,0.75494 1.99461,1.65869 3.25001,2.04181 1.20794,0.51825 2.41667,1.03463 3.62374,1.55491 0.94728,-0.47246 1.86142,-1.07543 2.82851,-1.46875 2.2961,0 4.59219,0 6.88828,0 0.52509,-0.5269 1.04079,-0.29207 1.55511,0.11742 1.68331,1.03775 3.56683,1.69436 5.33942,2.56227 1.88802,0 3.77605,0 5.66407,0 1.10533,-1.40063 2.34152,-2.71789 3.36132,-4.17383 0.70025,-1.52492 1.50302,-3.02369 2.14015,-4.5647 0.0973,-1.82605 0.19379,-3.65214 0.28954,-5.47827 -1.24097,-0.25177 -2.54103,-0.33165 -3.74583,-0.68767 -0.78872,-0.3611 -1.49093,-0.83162 -2.00037,-1.546 -0.39558,-0.57742 -0.25673,-1.4048 -0.43739,-2.08273 0.0355,-0.87226 -0.85854,-1.3068 -1.30697,-1.95065 -1.24169,-1.19651 -1.89598,-2.83581 -3.05134,-4.10846 -0.36148,-0.59142 -0.85424,-1.01691 -1.52352,-1.22049 -0.82825,-0.32061 -1.60773,-0.86356 -2.46661,-1.04462 -2.9724,0 -5.94479,0 -8.91719,0 -0.52242,0.69574 -1.04438,1.39184 -1.5664,2.08789 -0.71687,-0.0957 -1.556,0.1327 -2.06408,-0.51649 -0.72307,-0.51116 -1.38859,-1.20377 -2.14712,-1.60331 -2.27728,0.11883 -4.55453,0.23847 -6.83177,0.35808 0.7805,1.87339 1.45728,3.80107 2.30273,5.64062 0.86463,1.2962 1.72856,2.59286 2.59375,3.88867 0.57098,0.12232 1.14194,0.24474 1.71289,0.36719 0,0.60287 0,1.20573 0,1.8086 -0.56735,-0.56304 -0.85488,-1.54639 -1.75781,-1.60352 -1.31247,-0.35881 -2.62498,-0.71754 -3.9375,-1.07617 -0.27603,0.95539 -0.41949,1.98944 -0.77876,2.89573 -0.42033,0.66985 -0.95795,0.5631 -1.54087,0.15638 -1.55252,-0.59058 -2.71562,-1.87121 -4.12305,-2.68193 -1.49903,-0.2216 -2.99783,-0.44481 -4.49677,-0.66706 -1.25781,-1.40234 -2.51563,-2.80468 -3.77344,-4.20703 0.0421,-0.55433 -0.55715,-1.3653 0.0796,-1.68166 0.85214,-0.51648 1.48007,-1.25714 2.02924,-2.07658 0.41891,-0.55772 0.83762,-1.1156 1.25642,-1.6734 -0.92135,-1.0716 -1.84064,-2.14496 -2.76171,-3.21679 -1.17627,0.0225 -2.4056,0.21879 -3.54873,0.13136 -0.79848,-0.53888 -1.53036,-1.14439 -2.03273,-1.97945 -0.48274,-0.69572 -0.97822,-1.37792 -1.77283,-1.73664 -0.67741,-0.35525 -1.27259,-0.96015 -2.00148,-1.15966 -1.27796,-0.0902 -2.55589,-0.18082 -3.83369,-0.27319 -0.85198,1.0347 -1.70441,2.06902 -2.55664,3.10351 -0.62719,0.0708 -0.61413,-0.89359 -0.95898,-1.27929 0.0868,-0.66005 -0.0276,-1.42452 0.18211,-2.02082 0.63679,-0.45487 1.17146,-1.16664 2.03651,-1.04738 1.09682,-0.0637 2.21248,-0.37134 3.2706,0.0666 0.78416,0.14449 1.60086,0.49797 2.36539,0.51543 1.20928,-0.74695 2.42131,-1.48945 3.63172,-2.23457 0.41239,-1.54697 0.82484,-3.09393 1.23828,-4.64062 -0.60873,-0.54166 -1.21746,-1.08333 -1.82617,-1.625 0.0391,-1.14909 0.0781,-2.29818 0.11718,-3.44727 0.54037,-0.54036 1.08073,-1.08073 1.6211,-1.62109 -1.0093,-1.65958 -2.05335,-3.30108 -2.7603,-5.11888 -0.94887,-1.95949 -1.3233,-4.13038 -1.99556,-6.19167 0.39749,-2.13519 0.70472,-4.30359 1.15814,-6.41821 0.67775,-1.15161 1.35552,-2.30322 2.03326,-3.45484 -0.68791,-1.86289 -1.37325,-3.72672 -2.06054,-5.58984 -1.40886,0 -2.81771,0 -4.22657,0 -0.57564,-0.39498 -0.99533,-1.15314 -1.78125,-1.05859 -1.53646,-0.16206 -3.07302,-0.32324 -4.60937,-0.48633 -1.06739,1.58421 -2.05109,3.25693 -3.17238,4.78465 -0.52711,0.31065 -1.0328,0.75707 -1.66208,0.42038 -2.27016,-0.39552 -4.44651,-1.14404 -6.63624,-1.84175 -1.79377,0.93665 -3.69329,1.63785 -5.57242,2.37072 -1.65762,0.81497 -3.00087,2.27945 -3.75378,3.94014 -0.0364,0.92117 -0.0756,1.84223 -0.11326,2.76336 -0.8298,0.0163 -1.70378,-0.14797 -2.39941,0.41382 -1.19777,0.60748 -2.3986,1.23726 -3.6377,1.74438 -1.20451,-0.76781 -2.16743,-1.88624 -2.99912,-3.0268 -0.52898,-1.36084 -1.05815,-2.72161 -1.58681,-4.08257 -2.31966,-0.083 -4.63937,-0.16421 -6.95899,-0.24805 -1.738,1.13349 -3.4407,2.34189 -5.19952,3.43034 -1.69838,0.50136 -3.4044,0.97721 -5.0954,1.50325 -0.86825,-0.81021 -1.66046,-1.77254 -2.57553,-2.48895 -1.39708,-0.20218 -2.79473,-0.40038 -4.19205,-0.60089 -0.23826,-0.5044 -0.005,-1.45446 -0.70087,-1.52838 -1.01855,-0.29283 -2.03764,-0.58377 -3.05694,-0.87396 -0.62902,0.49733 -1.1912,1.14997 -1.86127,1.55246 -0.96786,0.0228 -1.9629,0.32969 -2.91289,0.1657 -0.54638,-0.2122 -1.21976,-0.25818 -1.69232,-0.567 -0.32363,-0.55135 -0.82186,-1.05883 -0.60329,-1.74641 -0.18665,-0.73156 0.43917,-0.99674 0.95768,-1.32352 1.34891,-0.89896 2.69723,-1.79879 4.04568,-2.69842 -1.03378,-0.6466 -2.06848,-1.29174 -3.10156,-1.93945 0.054,-5.30079 0.10807,-10.60157 0.16211,-15.90235 0.77748,-1.42134 1.43475,-2.92805 2.28775,-4.29576 1.79966,-1.90491 3.59957,-3.80958 5.39975,-5.714 -2.85091,-0.37174 -5.7023,-0.73985 -8.55273,-1.11524 -1.15001,0.48247 -2.27736,1.07179 -3.4418,1.48633 -3.88719,-0.005 -7.77531,0.0477 -11.65977,-0.13086 0.005,-0.68164 0.009,-1.36328 0.0137,-2.04492 -0.93554,0.40104 -1.87109,0.80208 -2.80664,1.20312 z m 48.33789,107.52149 c -0.0337,1.4583 -0.21005,2.94817 -0.15628,4.38718 0.66796,1.18487 1.23523,2.4632 1.96892,3.58877 0.86761,0.61233 1.86636,1.08702 2.64736,1.79031 0.63262,0.82505 1.17408,1.76382 1.86241,2.51918 0.85299,0.32089 1.67288,0.69504 2.30124,1.37677 1.54558,1.17112 2.64954,2.7836 3.93885,4.21084 0.0935,1.0234 0.18641,2.04685 0.2793,3.07031 3.56575,0.15506 7.13145,0.3114 10.69727,0.46484 0.85805,-0.70524 1.81341,-1.33351 2.61047,-2.08679 0.69314,-1.44266 1.24793,-2.96644 2.29249,-4.20415 0.37414,-0.52346 0.74828,-1.04692 1.12243,-1.57039 -1.55711,-0.91714 -3.20381,-1.7161 -4.70588,-2.70587 -1.69049,-1.69049 -3.38098,-3.38098 -5.07147,-5.07147 -0.29825,1.2936 -0.59584,2.58736 -0.89453,3.88086 -1.09883,-0.14476 -1.83566,-1.09599 -2.81762,-1.53858 -0.93733,-0.65258 -2.06917,-0.78222 -3.17834,-0.81924 -1.15696,-0.15557 -2.38305,-0.16683 -3.49573,-0.43241 -0.67185,-0.63171 -1.468,-1.17087 -1.74329,-2.09792 -0.84288,-1.73912 -1.68593,-3.47815 -2.52869,-5.21732 -1.65921,-0.92058 -3.31775,-1.84236 -4.97656,-2.76367 -0.0508,1.07291 -0.10156,2.14583 -0.15235,3.21875 z m -160.4414,5.3164 c -0.56094,0.71144 -1.27565,1.37257 -1.63071,2.19851 -0.18755,0.67198 -0.15552,1.48027 -0.47281,2.07103 -0.51924,0.37804 -0.93843,0.91775 -1.10742,1.54101 -0.5362,-0.18651 -0.99547,-0.27865 -0.43749,-0.80039 0.54997,-0.74694 0.98703,-1.55408 1.1147,-2.48401 0.15954,-0.68268 0.24047,-1.41937 0.87322,-1.8432 0.5535,-0.57595 1.107,-1.15191 1.66051,-1.72787 0,0.34831 0,0.69662 0,1.04492 z m -37.98633,8.47657 c 0.50803,1.03072 0.11096,2.18991 0.14582,3.28775 -0.0577,1.12934 -0.11544,2.25869 -0.17316,3.38803 -0.0371,-2.35417 -0.0742,-4.70834 -0.11133,-7.0625 0.0462,0.1289 0.0924,0.25781 0.13867,0.38672 z" />
    <path
       id="region_5"
       style="fill:#000000;fill-opacity:0;stroke:#d3a5ff;stroke-width:8.00125984;stroke-miterlimit:4;stroke-dasharray:12.00188976, 12.00188975999999919;stroke-dashoffset:0;stroke-opacity:1"
       d="m 197.78161,168.56669 c -0.36299,0.63348 -1.00798,0.58616 -1.64883,0.54883 -0.54922,0.0569 -1.19871,-0.10868 -1.69085,0.0749 -0.45927,0.51852 -0.9171,1.03832 -1.37516,1.5579 -0.96771,-0.56357 -2.15991,-0.46938 -3.22854,-0.73714 -0.8008,-0.13373 -1.60159,-0.26743 -2.40232,-0.40153 -1.03709,0.90932 -1.95414,1.98439 -3.06687,2.78872 -1.60224,0.89259 -3.27168,1.70276 -4.83289,2.64569 -0.57686,0.6216 -1.05863,1.41325 -1.69511,1.93081 -0.95483,0.18271 -1.98614,0.15113 -2.77421,0.79972 -1.18617,0.7303 -2.4554,1.37251 -3.59119,2.15621 -0.68916,1.01874 -1.38083,2.03578 -2.07098,3.05385 -1.07569,0.13986 -2.18664,0.17025 -3.24118,0.37568 -2.0222,1.17013 -4.11819,2.22087 -5.98442,3.63787 -1.03436,0.90293 -2.45454,0.89644 -3.71247,1.27638 -2.11568,0.37567 -3.92696,1.5884 -5.86267,2.44664 -5.20947,2.54464 -10.45106,5.02408 -15.63481,7.62085 -0.753,1.15205 -1.67524,2.22646 -2.31736,3.43004 0.0302,0.5568 -0.41911,0.69118 -0.83811,0.8847 -0.69579,0.38462 -1.34002,0.85252 -2.00078,1.29268 0.0933,1.20246 0.18577,2.40498 0.2793,3.60742 1.08579,0.93243 2.12181,1.94635 3.23576,2.83122 0.58592,0.27939 1.3122,0.40801 1.81267,0.7788 0.37636,0.79995 0.75275,1.59989 1.1293,2.39975 2.45512,0.16281 4.91009,0.32787 7.36524,0.49023 5.2837,-2.45751 10.63811,-4.7675 15.81524,-7.44729 1.55407,-0.76028 3.11801,-1.50371 4.49744,-2.56173 1.15684,-0.78671 2.31368,-1.57341 3.47052,-2.36012 -2.26236,-0.0444 -4.52954,-0.25607 -6.78874,-0.19064 -0.3917,-0.0289 -1.84318,0.37269 -0.92872,-0.18674 1.01103,-0.76405 2.28816,-1.094 3.40937,-1.67831 2.32563,-1.00534 4.62243,-2.09732 6.9827,-3.01081 2.92534,-0.88243 5.87786,-1.70187 8.78648,-2.62304 2.3265,-1.40667 4.69741,-2.75711 6.99524,-4.2006 1.29352,-1.34103 2.58417,-2.68481 3.87765,-4.02587 0.12489,-0.7616 0.0743,-1.62046 0.31409,-2.3207 1.98424,-1.66956 4.10658,-3.18345 5.99336,-4.96288 1.20337,-1.11954 2.33634,-2.37136 3.58339,-3.40885 1.1074,-0.2325 2.21476,-0.46518 3.32205,-0.6982 0,-2.13411 0,-4.26823 0,-6.40234 -1.53255,0 -3.0651,0 -4.59765,0 -0.19531,0.19596 -0.39063,0.39193 -0.58594,0.58789 z m 33.9082,84.95703 c -3.64354,0.50605 -7.25142,1.33797 -10.93563,1.54217 -1.26936,0.15073 -2.59873,0.15323 -3.83172,0.39358 -1.32611,1.02843 -2.5929,2.15655 -3.96591,3.11036 -2.42563,0.8918 -4.97076,1.51406 -7.22085,2.8212 -3.3557,1.73191 -6.71215,3.46236 -10.06737,5.19519 -1.49227,2.12269 -2.88889,4.32205 -4.45978,6.38361 -1.12362,1.14472 -2.2795,2.26667 -3.42499,3.37616 -1.75059,1.84844 -3.5876,3.63715 -5.39747,5.43159 -0.79483,0.65376 -1.9155,0.56093 -2.86234,0.86486 -1.48572,0.35651 -3.03615,0.58703 -4.48225,1.02071 -2.99342,2.76356 -6.14582,5.36433 -8.86829,8.40683 -0.83467,0.22403 -1.80835,0.17958 -2.61225,0.46427 -1.0495,1.07865 -2.02074,2.25352 -3.1266,3.26466 -1.13032,0.60489 -2.35863,1.10073 -3.42939,1.77188 -1.18928,1.91809 -2.50331,3.76915 -3.59641,5.73809 -0.41529,1.15532 -0.84583,2.30452 -1.25195,3.46289 -1.5013,1.02734 -3.0026,2.05469 -4.50391,3.08203 -0.91298,-0.18199 -1.85031,-0.55555 -2.74804,-0.61831 -0.76866,0.41744 -1.53775,0.8341 -2.30664,1.25112 -0.13088,-0.82111 -0.79009,-0.71598 -1.44485,-0.61866 -1.62906,0.11571 -3.25798,0.23341 -4.88718,0.34718 -3.1966,3.26236 -6.39605,6.52193 -9.59375,9.7832 -4.53841,2.24219 -9.07683,4.48438 -13.61524,6.72656 -2.762,0.0197 -5.53648,-0.0509 -8.29063,0.0517 -2.68457,0.96457 -5.526327,1.29702 -8.307024,1.87015 -0.97981,-0.74936 -1.960681,-1.49733 -2.939453,-2.24805 -2.540507,0.36148 -5.114997,0.56954 -7.627989,1.06898 -2.208184,0.75706 -4.487747,1.3574 -6.527268,2.52623 -1.135496,0.60484 -2.359348,1.09456 -3.419758,1.81184 -2.255244,2.28418 -4.524688,4.55693 -6.976601,6.6334 -2.088339,1.83417 -4.133095,3.73109 -6.264548,5.50786 -1.544543,0.79394 -3.085463,1.6152 -4.784146,2.03369 -4.400249,1.3716 -8.741927,2.83495 -13.154269,4.10985 -3.524734,0.8875 -7.081554,1.68912 -10.579041,2.65482 -3.000136,1.80151 -6.001065,3.60172 -9.002318,5.40138 1.283188,3.07368 2.56311,6.14872 3.845703,9.22265 1.893336,-0.18773 3.786465,-0.37754 5.679688,-0.5664 0.123322,0.6424 0.244972,1.28512 0.367187,1.92773 0.914772,0.20287 1.829472,0.40605 2.744141,0.60938 0,0.89844 0,1.79687 0,2.69531 1.504427,-0.32223 3.008941,-0.64404 4.513672,-0.96484 1.266389,1.62118 2.632325,3.18866 3.922576,4.77313 0.495243,1.56171 0.891018,3.16501 1.241361,4.67941 0.853149,3.60964 1.635788,7.23563 2.406376,10.86386 28.548162,9.27083 57.094951,18.5459 85.642581,27.81836 4.10573,2.26514 8.25984,4.45227 12.33531,6.76622 3.72179,2.61406 7.44172,5.23078 11.16469,7.84316 1.99197,0.27094 4.02544,0.32801 5.98645,0.76881 1.21137,0.35252 2.42589,0.69385 3.65026,0.99877 0.14784,1.06437 1.14573,1.7089 2.11483,1.9552 2.37123,0.98759 4.74221,1.97578 7.11369,2.96276 0.77678,-1.28918 1.51926,-2.63765 2.31641,-3.89062 0.87779,-0.005 1.80238,0.0646 2.53243,-0.50975 0.513,-0.2897 1.00934,-0.6669 1.63163,-0.49025 0.34508,0.86327 0.69016,1.72654 1.03516,2.58984 1.05001,0.14274 2.16697,0.11376 3.17878,0.33146 0.96773,0.84657 1.93589,1.69265 2.90325,2.53964 1.91536,0 3.83073,0 5.74609,0 0.42817,-0.60327 0.8003,0.44554 1.2101,0.65991 0.69651,0.63018 1.31452,1.43799 2.05971,1.95818 1.93412,0.0934 3.86835,0.1847 5.80246,0.27839 0.47493,-0.34442 0.92629,-0.42626 1.44075,-0.13795 1.5502,0.49918 3.15282,0.79415 4.77018,0.9817 1.11989,0.98817 2.23794,1.97844 3.35938,2.96485 0.86973,-0.23764 -0.0747,0.82336 -0.11556,1.23736 -0.59204,0.68693 0.42207,0.87906 0.86014,1.24865 0.28349,0.33639 1.47918,0.53245 0.84614,1.01 -1.71189,2.04299 -3.42482,4.08511 -5.13564,6.12899 2.5927,2.59284 5.18641,5.18467 7.77929,7.77734 1.96745,0 3.9349,0 5.90235,0 -0.26819,0.79931 0.56052,0.87077 1.10569,1.13036 1.71164,0.68974 3.39181,1.50683 5.13688,2.08253 1.30847,0 2.61693,0 3.9254,0 1.25264,1.50322 2.51973,2.99402 3.7832,4.48828 5.97459,-0.0836 11.94922,-0.16361 17.92383,-0.24609 -0.0613,-7.03905 -0.11961,-14.07813 -0.17969,-21.11719 2.10612,-0.0586 4.21224,-0.11714 6.31836,-0.17578 0.0963,-3.73825 0.19001,-7.47657 0.28515,-11.21485 10.20834,0.11658 20.41667,0.23279 30.625,0.34961 -0.0608,-7.12955 -0.11966,-14.25911 -0.17968,-21.38867 3.74739,0.11919 7.49482,0.23735 11.24218,0.35742 -0.0647,-14.20051 -0.12757,-28.40104 -0.1914,-42.60156 -1.02102,-0.91776 -2.04131,-1.83634 -3.0625,-2.7539 -1.83992,0.0962 -3.67979,0.19336 -5.51953,0.29296 -0.11231,0.66146 -0.50133,1.08018 -1.19894,1.06834 -2.52759,0.31428 -5.11134,0.1358 -7.61297,-0.30345 -2.07737,-0.39076 -4.22145,-1.74101 -4.64077,-3.95268 -0.23273,-1.66204 -0.0422,-3.35868 -0.10396,-5.03447 0,-1.31263 0,-2.62526 0,-3.93789 -1.78602,-0.41512 -3.57164,-0.83193 -5.35743,-1.24805 0.0535,-0.59495 0.0328,-1.16167 -0.50585,-1.53125 -0.84135,-0.92842 -1.5889,-1.96542 -2.72941,-2.55008 -0.70252,-0.34893 -1.18584,-0.91702 -1.55956,-1.59468 -0.74703,-1.04324 -0.90163,-2.37633 -1.38096,-3.55055 -0.27324,-0.84502 -1.12551,-1.34917 -1.64869,-2.04721 -0.84431,-0.9146 -1.68863,-1.8292 -2.53295,-2.74381 0,-1.80143 0,-3.60286 0,-5.40429 -1.45922,-1.41113 -2.8304,-2.92839 -4.34621,-4.2713 -1.85024,-1.22981 -3.64127,-2.64524 -5.67164,-3.5286 -0.8339,0.04 -1.66779,0.0801 -2.50168,0.12021 -0.24154,-1.20964 -0.48329,-2.41923 -0.72461,-3.62891 -1.64428,-0.97313 -3.22453,-2.08404 -4.9082,-2.97265 -1.10109,-0.30197 -2.16168,-0.85383 -3.28828,-0.99805 -1.0508,-0.0413 -2.15766,0.0822 -3.17378,-0.061 -0.7872,-0.5545 -1.51873,-1.27189 -2.34107,-1.72416 -1.70262,-0.0426 -3.42399,0.0858 -5.11474,-0.065 -2.20115,-0.46156 -4.37429,-1.09563 -6.63152,-1.2135 -0.66953,0.0558 -1.18008,-0.26453 -1.62883,-0.73101 -0.53556,-0.71615 -1.45964,-0.42457 -2.23115,-0.52831 -1.35117,-0.0538 -2.70235,-0.10754 -4.05352,-0.1614 0.39114,-0.46425 0.98496,-0.84456 1.25781,-1.35781 0,-1.38594 0,-2.77187 0,-4.15781 -1.52344,0 -3.04687,0 -4.57031,0 -3.63866,2.44237 -7.31255,4.84321 -10.92869,7.31232 -1.85301,1.90907 -3.70784,3.81639 -5.56155,5.72479 -0.98177,0 -1.96354,0 -2.94531,0 -0.46744,1.36381 -0.78735,2.8014 -1.35065,4.1178 -0.86098,1.20487 -1.72196,2.40975 -2.58294,3.61462 -0.8054,0.15507 -0.67847,-0.79821 -0.92221,-1.31084 -0.22223,-0.93561 -0.75105,-1.84351 -0.47502,-2.82416 0.22203,-1.75029 0.31787,-3.52975 0.61751,-5.26209 0.44741,-1.23873 0.89481,-2.47746 1.34222,-3.71619 0.94075,0 1.88151,0 2.82226,0 0.067,-1.2487 0.13404,-2.4974 0.20118,-3.7461 0.85973,-0.13358 1.2405,-1.05524 1.86802,-1.57191 0.8978,-1.01906 1.95953,-1.92872 2.71401,-3.05309 0.80501,-1.75714 1.7536,-3.46468 2.44531,-5.26367 0.24284,-1.17317 0.48568,-2.34635 0.72851,-3.51953 1.00193,-0.40175 2.00512,-0.80037 3.00586,-1.20508 0.93233,-1.67865 1.87498,-3.34909 2.79493,-5.0332 1.37044,0 2.74088,0 4.11132,0 0.1306,-2.58719 0.25915,-5.17448 0.38868,-7.76172 1.24801,-0.31287 2.61997,-0.25699 3.67968,-1.0918 1.85665,-1.31825 3.16462,-3.23196 4.74267,-4.84695 1.53184,-1.69557 3.06097,-3.39401 4.63624,-5.04953 0.76804,-0.0447 1.59892,0.0868 2.3294,-0.0633 1.38858,-1.13682 2.72789,-2.35251 4.34305,-3.16746 2.14374,-1.27262 4.28894,-2.54277 6.43107,-3.81811 -0.66747,-1.34205 -1.33054,-2.68636 -2.01172,-4.02148 1.09035,0.052 2.22417,-0.11893 3.28624,0.0885 1.27936,0.64929 2.76046,0.5423 4.15126,0.67127 1.85368,0.0886 3.57814,-0.69961 5.19531,-1.50976 2.36588,-0.09 4.73171,-0.18115 7.09766,-0.26953 0,-2.76237 0,-5.52474 0,-8.28711 -1.54488,-1.57299 -2.98452,-3.27706 -4.60399,-4.75927 -2.05815,-0.85665 -4.0989,-1.82501 -6.31008,-2.38526 -1.29729,-0.40818 -2.60693,-0.90329 -3.99062,-0.75225 -4.53634,-0.005 -9.07266,0.002 -13.60899,0.012 z m -1.28711,90.10352 c -0.70755,-0.43773 -0.60669,-0.85218 0.0723,-1.25 -0.0241,0.41666 -0.0482,0.83333 -0.0723,1.25 z" />
  </g>
  <foreignobject
     x="00"
     y="400"
     width="300"
     height="150">
    <body>
      <div
         style="font-size:32px;">
        <b
           id="map-county-info">Texas, USA</b>
        <br />
      </div>
      <div
         color="white"
         id="map-owner-info" />
      <br />
      <div
         class="action-container">
        <button
           id="attack-button"
           class="disp-button"
           disabled="">Attack</button>
        <button
           id="defend-button"
           class="disp-button"
           disabled="">Defend</button>
        <button
           id="visit-button"
           class="disp-button"
           disabled="">History</button>
        <button
           id="hover-button"
           class="hover-button disp-button"
           onclick="returnHover();"
           disabled="">Hover</button>
      </div>
    </body>
  </foreignobject>
</svg>
