<?xml version="1.0" encoding="UTF-8" standalone="no"?>
<svg
   xmlns:dc="http://purl.org/dc/elements/1.1/"
   xmlns:cc="http://creativecommons.org/ns#"
   xmlns:rdf="http://www.w3.org/1999/02/22-rdf-syntax-ns#"
   xmlns:svg="http://www.w3.org/2000/svg"
   xmlns="http://www.w3.org/2000/svg"
   xmlns:sodipodi="http://sodipodi.sourceforge.net/DTD/sodipodi-0.dtd"
   xmlns:inkscape="http://www.inkscape.org/namespaces/inkscape"
   width="208.22708mm"
   height="203.2mm"
   viewBox="0 0 208.22708 203.2"
   version="1.1"
   id="svg8"
   inkscape:version="1.0.1 (3bc2e813f5, 2020-09-07)"
   sodipodi:docname="corpus christi.svg">
  <defs
     id="defs2" />
  <sodipodi:namedview
     id="base"
     pagecolor="#ffffff"
     bordercolor="#666666"
     borderopacity="1.0"
     inkscape:pageopacity="0.0"
     inkscape:pageshadow="2"
     inkscape:zoom="0.54"
     inkscape:cx="587.29028"
     inkscape:cy="320.19183"
     inkscape:document-units="mm"
     inkscape:current-layer="g865"
     inkscape:document-rotation="0"
     showgrid="false"
     inkscape:window-width="1920"
     inkscape:window-height="1032"
     inkscape:window-x="0"
     inkscape:window-y="0"
     inkscape:window-maximized="0" />
  <metadata
     id="metadata5">
    <rdf:RDF>
      <cc:Work
         rdf:about="">
        <dc:format>image/svg+xml</dc:format>
        <dc:type
           rdf:resource="http://purl.org/dc/dcmitype/StillImage" />
        <dc:title></dc:title>
      </cc:Work>
    </rdf:RDF>
  </metadata>
  <g
     inkscape:label="Layer 1"
     inkscape:groupmode="layer"
     id="layer1"
     transform="translate(-177.8567,-144.08452)">
    <g
       id="g865">
      <path
         id="path877"
         style="fill:rgb(176,183,188);stroke-width:0.999999"
         d="M 439 152 C 437.68824 152 438.42317 154.56575 440.26172 156.4043 C 441.1888 157.33134 442.4547 159.98219 443.07617 162.29492 C 443.69764 164.60769 444.7229 166.83031 445.35352 167.23438 C 445.98409 167.63856 449.14773 167.97682 452.38281 167.98438 C 453.57088 167.98746 454.61461 168.04106 455.57227 168.14258 C 455.31874 168.16645 455.05999 168.2135 454.8125 168.3125 C 454.01476 168.63168 454.25105 168.86997 455.41602 168.91797 C 456.46997 168.9614 457.06074 168.7248 456.72852 168.39258 C 456.67047 168.33454 456.57903 168.29759 456.49219 168.25781 C 458.55465 168.57413 460.1836 169.1861 461.8418 170.21094 C 464.70286 171.97919 466.96461 172.4307 473.12891 172.46094 C 479.52164 172.49299 481.23696 172.85909 483.16992 174.60156 C 484.86593 176.13043 485.9529 176.9989 486.93359 177.23828 C 487.50689 177.69628 488.02301 177.99609 488.32031 177.99609 C 488.87677 177.99609 489.14505 177.87957 488.91602 177.73633 C 488.86048 177.70158 488.37726 177.31705 488.20898 177.19141 C 489.05476 176.92323 489.98463 176.19666 491.31641 175.02734 L 494.75195 172.00977 L 497.14062 172.49414 C 496.15061 172.87221 494.75432 173.76059 493.44727 174.9082 C 491.51234 176.6071 490.31774 177.99609 490.79102 177.99609 C 491.26425 177.99609 492.70827 176.87112 494 175.49609 C 495.29177 174.1211 497.05722 172.96143 497.92383 172.91797 C 498.30083 172.89908 498.55146 172.86173 498.68555 172.80664 L 501.00195 173.27539 C 501.23971 173.32351 501.41633 173.36273 501.63672 173.4082 C 501.12342 173.67596 501.37688 173.87515 502.41602 173.91797 C 502.8882 173.93742 503.24729 173.89274 503.49219 173.81641 C 506.97968 174.64355 507.50061 175.31416 508.375 178.01953 C 509.22914 180.66218 510.28216 181.73049 512.75 182.45703 C 515.56155 183.28475 516 183.85599 516 186.69336 C 516 189.52392 516.50051 190.18176 519.66016 191.50195 C 524.26381 193.42547 526.01525 192.85967 530.67578 187.94141 C 533.33581 185.13429 535.36431 183.88923 536.84766 184.18164 C 536.2686 184.50795 535.27703 185.34964 534.21875 186.46289 L 531.5 189.32422 L 534.61719 186.91016 C 535.99143 185.84625 537.03727 184.81921 537.29102 184.32227 C 537.99987 184.6385 538.56729 185.36189 539 186.5 C 539.58913 188.04955 540.32596 188.71857 541.82617 188.92188 C 541.53676 189.25696 542.88594 189.89735 545.5 190.26953 C 545.85308 190.3198 546.11833 190.36742 546.44531 190.41797 C 546.69546 190.82798 546.92075 191.34125 547.15039 192 C 548.37662 195.51757 551.02407 195.90772 556.16797 193.33008 C 562.08323 190.36576 562.77537 190.10935 563.32812 190.66211 C 563.62735 190.9613 563.4971 192.19176 563.03906 193.39648 C 562.50959 194.78913 562.70846 196.77907 563.58398 198.86133 C 564.73307 201.59438 565.41873 202.08406 567.72266 201.81836 C 569.52151 201.61097 570.58256 200.83537 570.84961 199.54492 C 570.93902 199.44283 571 199.33304 571 199.21289 C 571 199.17487 570.98561 199.13817 570.97266 199.10156 C 571.35615 197.92168 572.50557 196.00075 573.7207 194.55664 C 575.083 192.93764 576.59191 190.57513 577.07422 189.30664 C 577.95034 187.0022 578.9421 186.52175 580.06445 187.85742 C 579.69298 188.13313 579.38247 188.5324 579.25586 188.99609 C 578.89189 190.32944 578.96727 190.32944 579.92383 188.99609 C 580.12301 188.71846 580.27781 188.53311 580.42773 188.37109 C 580.68072 188.74967 580.93722 189.18348 581.20312 189.73828 C 581.92483 191.24408 583.41198 192.61634 584.50781 192.78906 C 585.60361 192.96164 587.49249 193.5941 588.70508 194.19531 C 590.41361 195.04249 591.44161 194.9405 593.27344 193.74023 C 595.50022 192.28119 595.95137 192.38864 601.06836 195.57422 C 602.93937 196.73904 604.71486 197.72499 605.97656 198.33984 C 606.47605 198.73204 606.96464 198.99805 607.28906 198.99805 C 607.40242 198.99805 607.49311 198.98963 607.58203 198.98047 C 608.18221 199.01636 609.93492 200.36626 611.50391 202.00391 L 614.38086 205.00977 L 614.94141 204.47266 C 615.26284 204.79504 615.51638 204.99805 615.62109 204.99805 C 616.17344 204.99805 616.06937 204.6049 615.46875 203.9668 L 616.99414 202.50586 C 618.43168 201.1286 620.55918 200.00195 621.7207 200.00195 C 622.88223 200.00195 624.65764 198.94519 625.66602 197.6543 C 627.54649 195.24695 636.24457 192.40249 640.33594 192.40625 C 640.56766 192.53135 641.11533 192.71473 642 192.99805 C 642.32885 193.10336 642.36917 193.11591 642.67188 193.21289 C 643.25182 193.68259 643.86498 193.9292 644.73828 193.87695 C 644.74386 193.87875 644.80435 193.89707 644.80859 193.89844 C 644.83813 193.90798 644.84601 193.88773 644.85742 193.87109 C 646.34737 193.74054 648.58815 192.82931 652.63867 190.93555 C 658.84314 188.03472 659.29759 187.96229 661.07227 189.56836 C 661.55995 190.00972 662.33718 190.39134 663.37109 190.71484 C 663.65704 190.87244 663.83591 190.92899 663.875 190.85742 C 664.47105 191.02028 665.14163 191.16546 665.88672 191.29297 C 665.86231 191.30189 665.83662 191.30481 665.8125 191.31445 C 665.01476 191.63363 665.25105 191.86997 666.41602 191.91797 C 667.27476 191.95335 667.81547 191.80107 667.81055 191.56445 C 668.48465 191.6416 669.18796 191.71115 669.94922 191.76562 C 676.81575 192.25693 677.0073 192.20501 679.96289 189.04102 L 682.97656 185.81445 L 684.01367 186.63672 C 683.9194 186.71439 683.82358 186.78121 683.73242 186.87305 C 682.75216 187.86068 682.86778 187.97434 684.29297 187.43164 C 684.46429 187.36641 684.60305 187.29083 684.74609 187.2168 L 686.88086 188.9082 C 688.57252 190.24804 690.32998 191.38516 691.31445 191.8125 C 691.45108 191.92358 691.5627 191.99609 691.62109 191.99609 C 691.69052 191.99609 691.73681 191.98219 691.78711 191.9707 C 691.83625 191.98042 691.89777 192.00195 691.93555 192.00195 C 692.56745 192.00195 695.21327 193.99267 697.81445 196.42578 C 699.50553 198.00759 701.49951 199.52008 703.09961 200.49414 C 703.41687 200.79169 703.65471 200.99805 703.70312 200.99805 C 703.79413 200.99805 703.86002 200.9856 703.9043 200.95703 C 704.42481 201.23449 704.88239 201.4361 705.23047 201.52344 C 706.70819 201.89432 708.4402 202.82859 709.08008 203.59961 C 709.71999 204.37067 710.69906 205.00195 711.25586 205.00195 C 711.38156 205.00195 711.46346 204.97906 711.51953 204.94336 C 711.55127 204.9585 711.60034 204.99805 711.62109 204.99805 C 712.08959 204.99805 712.07517 204.71039 711.70703 204.24023 C 711.92858 204.34759 712.14364 204.46242 712.36914 204.56055 C 713.26671 204.95116 714.05372 205.25103 714.73828 205.47266 C 713.23466 205.15748 713.00454 205.28143 714 205.95508 C 714.825 206.51335 716.23181 206.97682 717.12695 206.98438 C 718.02213 206.9928 719.31534 207.675 720 208.5 C 720.49719 209.09909 721.43381 209.61129 722.35742 209.85156 C 722.4764 209.9446 722.56795 209.99805 722.62109 209.99805 C 722.72397 209.99805 722.80616 209.98594 722.86719 209.96094 C 723.04003 209.98568 723.21046 210.00186 723.37305 210.00195 C 724.54319 210.00263 726.80819 211.12764 728.40625 212.50195 L 728.40625 212.5 C 731.357 215.03769 734.88322 215.55944 738.5 213.99219 C 739.81614 213.42186 738.92197 213.31654 735.88281 213.68164 C 732.90711 214.03915 731.00997 213.82424 730.54883 213.07812 C 730.53 213.04765 730.52177 213.02473 730.50586 212.99609 C 730.94271 213.51583 736.94403 213.58825 742.15625 213.38281 L 745.5 213.89258 L 747.69141 214.22461 C 746.76034 214.17072 745.763 214.14197 744.68945 214.17188 L 738.5 214.34375 L 745 214.99805 C 746.73086 215.1724 748.31237 215.34888 749.5332 215.49609 L 750.12305 233 C 750.46532 243.17498 750.80275 267.97204 750.87305 288.10547 L 751 324.71289 L 754.54688 329.35547 C 756.49707 331.90956 758.46482 334 758.92188 334 C 759.37897 334 760.78456 336.36248 762.04492 339.25 C 763.73286 343.11699 764.28614 346.10781 764.14062 350.60352 C 763.99734 355.03505 764.35937 357.05326 765.46484 357.9707 C 768.71437 360.66759 773 369.71007 773 373.86914 L 773 377.91211 C 772.82261 377.94083 772.55738 377.9668 772.33398 377.99414 L 605.75 378.25 L 438.5 378.50586 L 606.14258 378.75391 C 709.41752 378.90611 749.79986 378.89357 765.22852 378.42188 C 749.73477 378.9462 709.09824 379.09216 605.96289 379.24805 L 438.5 379.5 L 438.38867 533.94336 L 438.27734 688.38672 L 439.2832 690.42773 C 438.42364 689.29622 438 689.14965 438 690.07812 C 438 690.91552 438.5328 692.13237 439.18359 692.7832 C 440.13542 693.73503 440.67676 693.8681 440.75781 693.44727 C 441.95195 695.94413 443.36884 699.43288 444.01172 701.5 C 444.01666 701.51588 444.02238 701.53483 444.02734 701.55078 C 442.79757 698.04567 441.59139 695.07658 441.31445 695.35352 C 441.09585 695.57212 441.54528 697.49388 442.31445 699.625 C 444.8111 706.5421 446 710.60977 446 712.23633 C 446 713.11307 447.0071 714.9615 448.23828 716.34375 C 449.29033 717.52485 450.31625 718.37355 450.74219 718.44922 C 450.97092 719.09091 451.13696 719.74573 451.19531 720.34375 C 451.46082 723.06724 451.95827 723.55183 455 724.05273 C 455.0086 724.05415 455.01871 724.05716 455.02734 724.05859 C 454.95583 724.05508 454.86692 724.03602 454.79883 724.03516 C 453.31366 724.01565 451.61125 723.21249 451.01367 722.25 C 450.02034 720.65024 449.95255 720.67192 450.22656 722.5 C 450.45129 723.99828 451.52698 724.63909 454.51367 725.05469 C 456.70644 725.35981 459.48227 726.14731 460.68359 726.80469 C 461.88495 727.46206 463.96477 728 465.30469 728 C 466.82406 728 469.17003 729.47123 471.53711 731.91016 C 474.13546 734.58742 476.46254 735.97946 478.91602 736.32227 C 482.45855 736.81698 484.84443 737.28773 487.16211 738.26562 C 486.97757 738.31306 487.1663 738.38017 487.65039 738.48633 C 490.47715 739.77161 493.31539 741.86323 498.14844 745.75 C 500.3711 747.53749 503.1583 748.95519 504.34375 748.90039 C 506.43814 748.80356 506.44207 748.78225 504.46484 748.15039 C 504.39863 748.12923 504.29366 748.07524 504.21875 748.04688 C 506.19289 748.50839 508.94197 748.52433 514.5 748.54883 C 516.77005 748.55884 518.84391 748.63227 520.82617 748.73438 C 521.33888 748.84916 522.00024 748.97635 522.82812 749.11523 C 521.93573 749.11454 521.01115 749.16825 520.26367 749.28125 L 520.26367 749.2832 C 518.74362 749.51296 519.75002 749.70728 522.5 749.71484 C 523.90993 749.71868 524.91479 749.67113 525.40234 749.5918 C 527.2527 749.96511 528.66438 750.33039 528.85156 750.51758 C 529.11643 750.7826 530.49518 750.96093 531.91602 750.91406 C 533.3814 750.86583 532.39407 750.35141 529.54297 749.60547 C 531.94541 750.014 533.91534 750.53834 535.42578 751.16992 C 534.7475 751.09784 533.92783 751.13505 533.26953 751.30664 L 533.26953 751.30859 C 532.29653 751.56209 532.85001 751.78774 534.5 751.80664 C 535.24201 751.8158 535.77882 751.77337 536.11914 751.70508 C 537.55172 753.81563 543.97412 760.14262 547 762.19727 C 550.4763 764.55781 553 764.46388 553 761.97461 C 553 759.83619 555.74356 758.31247 562 756.97656 C 564.95646 756.34515 565.0928 756.21237 562.87305 756.11523 C 560.99326 756.03297 558.56854 756.6801 556.50586 757.61914 C 558.53752 756.67828 560.93396 755.99532 562.87305 755.98438 C 564.70092 755.97373 565.92473 755.86783 566.70898 755.28125 C 566.6999 755.28846 566.6907 755.30409 566.68164 755.31055 C 565.86515 755.89316 565.96294 756.02773 567 755.74805 C 568.05524 755.46364 568.53183 753.88434 568.60742 750.42188 L 568.71484 745.5 L 568.28906 749.98438 C 568.19534 750.96943 568.01073 751.90781 567.79688 752.75195 C 567.97744 750.88702 567.71806 747.96083 567.2168 743.32227 C 566.25451 734.41716 564.269 725.18291 559.48438 707.61914 C 559.54316 707.69521 559.59362 707.73841 559.62891 707.70312 C 559.85126 707.48078 559.49896 704.98437 558.8457 702.1543 C 558.19245 699.32419 557.45982 697.2062 557.2168 697.44922 C 557.09939 697.56661 557.12621 698.22916 557.25586 699.17969 C 556.99606 697.99607 556.75693 696.75503 556.54297 695.46289 C 556.57905 695.42457 556.615 695.36663 556.6543 695.26953 C 556.92907 694.5925 556.94697 693.2425 556.69336 692.26953 C 556.45447 691.35263 556.24673 691.82915 556.20703 693.26367 C 554.97075 684.44725 554.7755 674.10993 555.93164 667.43164 C 556.14794 666.18222 556.49845 664.61057 556.89062 662.96289 C 556.69832 663.91048 556.53244 664.79932 556.44336 665.5 C 556.16367 667.69999 557.02253 665.45001 558.35156 660.5 C 559.6806 655.54999 560.62465 651.34397 560.45117 651.15234 C 560.43303 651.1323 560.41086 651.12922 560.38672 651.13672 C 560.74756 650.16325 561.12882 649.17185 561.55469 648.12109 C 561.40714 648.9761 563.21554 645.72147 565.77344 640.5 C 568.46779 635.00003 571.82064 629.14686 573.22266 627.49219 C 574.62467 625.83751 576.49588 622.75078 577.38086 620.63281 C 579.32694 615.97511 592.30346 602.4126 599.66602 597.3418 C 603.59775 594.63389 605.71332 592.77323 604.81836 593.07031 C 608.46984 590.49178 612.75351 587.02293 615.4375 584.4043 C 617.7656 582.1329 619.99968 580.28549 622.8125 578.4043 C 620.01858 580.27778 617.80943 582.11705 615.48242 584.4043 C 612.0714 587.75708 608.43056 591.07081 607.39062 591.76953 C 605.80526 592.83483 605.90376 592.85045 608 591.85742 C 609.37499 591.20602 613.15641 588.04365 616.40234 584.83203 C 620.91442 580.36777 625.3316 577.45384 635.16211 572.45508 C 642.23413 568.85901 652.10852 563.42707 657.10547 560.38281 C 662.10246 557.33859 668.06068 554.03498 670.3457 553.04297 C 674.29542 551.32823 682.12892 544.30091 690.18555 535.24414 C 693.31904 531.7217 693.5073 531.2672 691.45312 532.20312 C 691.33083 532.25885 691.20978 532.32726 691.08789 532.39453 C 691.46656 532.13511 691.85974 531.89245 692.25977 531.68555 C 693.28322 531.15618 695.34379 529.83813 697.66797 528.26758 C 696.41467 529.20891 695.56018 529.90272 695.41797 530.13281 C 695.09206 530.66013 698.2791 528.70754 702.5 525.79492 C 706.72086 522.88234 711.48579 519.85706 713.08789 519.07031 C 715.42961 517.92032 716 516.99093 716 514.33203 C 716 511.21411 716.4441 510.79758 723.75 507.0625 C 728.01251 504.88334 731.05 503.09337 730.5 503.08203 C 730.40923 503.08036 730.20919 503.13889 729.96484 503.22266 C 731.52774 502.48907 733.11597 501.74513 735.02539 500.85547 C 736.20557 500.30559 737.19514 499.85126 738.2168 499.38086 C 737.81113 499.58669 737.41532 499.78059 737 500 C 733.97502 501.5981 731.94997 502.90625 732.5 502.90625 C 733.05 502.90625 735.97498 501.5981 739 500 C 742.02498 498.4019 744.05 497.09375 743.5 497.09375 C 743.4081 497.09375 743.22954 497.14266 743.01562 497.21094 C 744.43403 496.58835 745.68079 496.06479 746.77344 495.63672 C 743.8352 497.35236 744.99463 497.33653 749.13477 495.53906 C 750.59913 494.90296 751.41548 494.36282 751.28906 494.16211 C 752.74715 493.81645 754.07333 493.67093 755.53711 493.61328 L 757.5 493.9707 C 757.88883 494.04151 758.0389 494.05818 758.42773 494.12695 C 757.66425 494.14074 756.89975 494.18509 756.26367 494.28125 L 756.26367 494.2832 C 754.74362 494.51292 755.74998 494.70728 758.5 494.71484 C 759.81983 494.71846 760.76624 494.67585 761.28516 494.60547 C 761.6978 494.67053 762.5582 494.82652 762.75 494.84961 C 764.81362 495.09758 764.16513 491.13694 761.5 487.21484 C 758.33234 482.55348 758.36456 481.31524 761.75 477.55469 L 764.5 474.5 L 761.25 477.4375 C 758.84433 479.61153 757.88402 480.99416 758.25977 482.85742 C 757.88073 481.02129 758.76815 479.63826 761 477.5 C 762.64999 475.91921 764 473.89852 764 473.00977 C 764 472.99976 764.0055 472.98311 764.00586 472.97266 C 764.02668 473.77569 764.80275 473.05628 765.75195 471.3418 C 766.71362 469.60484 768.3703 466.9711 769.43359 465.48828 C 770.97632 463.33663 771.33497 461.27661 771.21289 455.28516 C 771.12868 451.15617 770.54751 447.15855 769.91992 446.40234 C 769.20499 445.54072 769.04004 443.62225 769.48047 441.26367 C 769.867 439.19359 770.27157 435.25002 770.37891 432.5 C 770.57627 427.44137 772.14819 422.97938 774.88672 419.70703 C 776.74375 417.48803 778.92639 411.79028 779.94531 406.5 C 780.369 404.30001 780.85203 402.05 781.01758 401.5 C 781.18312 400.95 780.97071 399.70581 780.54688 398.73633 C 780.11034 397.73808 780.25851 396.39212 780.88867 395.63281 C 782.35936 393.86074 781.1825 385.28418 779.37305 384.58984 C 778.58165 384.28616 778 382.62063 778 380.6543 C 778 378.76699 777.29488 376.65972 776.41992 375.93359 C 775.45301 375.13101 775.02217 373.66508 775.31055 372.15625 C 775.58037 370.74467 774.97487 368.3654 773.89453 366.59375 C 772.85652 364.89156 772.00591 362.51217 772.00391 361.30469 C 772.00149 359.89821 771.01175 358.63398 769.25 357.78906 C 766.69659 356.56438 766.48939 356.00851 766.34766 349.98633 C 766.16269 342.12824 762.6258 333.52738 758.26562 330.33398 C 751.89754 325.6699 751.99949 326.7193 751.98438 267.34961 C 751.97764 243.69826 751.75956 223.38772 751.4668 215.76172 C 751.58944 215.78394 751.78563 215.81336 751.80859 215.82617 C 751.97841 215.92111 751.83978 215.54804 751.5 214.99805 C 751.4889 214.98009 751.45042 214.96484 751.43359 214.94727 C 751.36967 213.52643 751.30351 212.48966 751.23438 212.38477 C 750.83031 211.77165 747.79998 211.01979 744.5 210.71289 L 738.5 210.1543 L 744.5 211.46875 L 744.92188 211.56055 C 741.6966 211.402 737.92485 211.50471 736.96289 212.01953 C 736.57271 212.22838 736.07024 212.37636 735.54102 212.49219 C 735.97704 212.38043 736.37376 212.23278 736.67773 212.04297 C 736.77132 211.98453 736.80386 211.96045 736.88672 211.9082 C 737.62198 211.87014 738.00467 211.67068 737.72852 211.39453 C 737.71937 211.38538 737.70135 211.38174 737.69141 211.37305 C 737.98633 211.14775 737.90285 211.10767 737.41602 211.21484 C 736.99962 211.06623 736.36728 211.09449 735.8125 211.31641 C 735.50444 211.43966 735.35326 211.54999 735.34766 211.64258 C 732.45443 211.84861 728.83629 210.0883 728.28711 207.98828 C 727.96853 206.77006 726.92194 206 725.58398 206 C 724.38315 206 722.97174 205.60789 722.44922 205.12891 C 721.92674 204.64993 720.14999 203.99225 718.5 203.66797 C 716.85016 203.34369 716.0625 203.32409 716.75 203.62305 C 717.91446 204.12949 718.24924 204.74161 717.98828 205.17578 C 717.99308 205.13325 718 205.09311 718 205.04688 C 718 204.52273 716.37093 203.64517 714.38086 203.0957 C 714.2027 203.04651 714.01484 202.9732 713.83203 202.91602 C 713.84831 202.91578 713.86905 202.92069 713.88477 202.91992 C 715.24668 202.85336 715.26471 202.75239 714 202.27148 C 713.175 201.95775 711.42692 200.86747 710.11523 199.84961 C 708.80359 198.83171 706.77857 198.05136 705.61523 198.11523 C 703.59867 198.22582 703.5934 198.25519 705.49609 198.73633 C 706.59367 199.01386 708.56676 200.08548 709.88086 201.11914 C 710.06654 201.26519 710.27535 201.39394 710.47656 201.5293 C 709.92258 201.234 709.42893 200.93987 709.13086 200.68164 C 707.37566 199.16245 703.38686 198.01531 702.29102 198.51758 C 702.49144 196.75336 696.94423 191.00195 694.95312 191.00195 C 694.00477 191.00195 692.54793 189.96085 691.71484 188.68945 C 689.65606 185.54734 682.80526 183.503 679.75586 185.12109 C 678.51508 185.77949 676.91204 187.14747 676.19336 188.16016 C 674.33988 190.77196 669.63975 190.47433 663.9668 187.38672 C 659.44682 184.92662 659.02814 184.86765 656.85938 186.38672 C 655.59183 187.27453 653.73915 188.00195 652.74219 188.00195 C 651.74522 188.00195 649.81519 188.73254 648.45312 189.625 C 646.75888 190.73516 644.95373 191.04097 642.73828 190.5957 C 640.98231 190.24279 636.51331 190.51591 632.73438 191.19727 C 632.08139 191.07657 631.28572 191.11978 630.75 191.33594 C 630.48373 191.44345 630.40887 191.54295 630.49219 191.625 C 629.18158 191.89412 628.21082 192.14144 627.45117 192.41406 C 627.35668 192.3479 627.20085 192.37447 626.98828 192.50586 C 626.90187 192.55926 626.82417 192.63555 626.74414 192.70508 C 625.55982 193.27471 625.07073 194.00394 624.59961 195.25195 C 623.83292 197.28299 623.07694 197.88718 620.93164 197.98242 C 621.58077 197.69614 621.69404 197.39684 621.13672 197.21094 C 620.41528 196.97045 619.34868 197.24898 618.76758 197.83008 C 618.62631 197.97138 618.54064 198.08439 618.48242 198.18164 C 617.37992 198.4191 616.59955 198.88144 616.36133 199.50195 C 616.30592 199.64633 616.232 199.75262 616.16602 199.875 C 615.30526 199.37223 614.19426 198.55793 613.32031 197.76367 C 612.12213 196.67483 610.54712 196.02185 609.82031 196.3125 C 608.87789 196.68913 608.95611 196.86361 610.09375 196.91992 C 610.97102 196.96335 612.50451 197.89805 613.5 198.99805 C 614.1079 199.66977 614.90573 200.2254 615.64258 200.56836 C 614.66922 201.36332 613.15507 200.83081 611.5 199.00195 C 610.50447 197.90196 609.17198 197.00195 608.53906 197.00195 C 606.73388 197.00195 600.59109 192.13099 599.8418 190.10547 C 599.22824 188.44691 597.8577 187.60887 596.53125 187.64453 C 596.49865 187.37879 596.32429 187.29624 595.98828 187.50391 C 595.85089 187.58883 595.7188 187.69592 595.59961 187.81836 C 594.85739 188.0902 594.19589 188.67006 593.78125 189.58008 C 592.66625 192.02725 589.63779 192.84296 588.5 191.00195 C 588.16007 190.45196 586.82581 190.00195 585.53711 190.00195 C 583.83266 190.00195 582.90918 189.18421 582.14844 187.00195 C 580.64539 182.69027 575 183.1269 575 187.55469 C 575 189.12107 574.09207 190.32454 572.25 191.20312 C 570.07564 192.24027 569.43386 193.31264 569.18555 196.32031 C 569.11031 197.2317 569.00967 197.91442 568.875 198.44531 C 567.94457 198.48985 567.38224 198.8108 567.63086 199.21289 C 567.73554 199.38221 567.94884 199.53146 568.19727 199.66016 C 567.93184 199.83339 567.60727 199.87548 567.18555 199.79297 C 565.86388 199.53441 565.5 198.34572 565.5 194.28711 C 565.5 193.27629 565.44129 192.41138 565.35742 191.61328 C 566.12441 191.51171 566.06663 191.21553 565.24023 190.66797 C 564.6925 187.36582 563.26058 186.35828 560.98828 187.77734 C 559.90949 188.45108 558.41522 189.00195 557.66797 189.00195 C 556.92076 189.00195 555.49549 189.90196 554.5 191.00195 C 552.02872 193.7327 550.3523 193.51225 548.79688 190.25195 C 547.89134 188.35384 546.58159 187.39776 544.57031 187.16797 C 543.2895 187.02163 541.65687 186.19916 540.51562 185.19727 C 540.4031 185.03975 540.27586 184.88215 540.12305 184.73047 C 539.93494 184.54376 539.80791 184.43389 539.68164 184.32812 C 538.74047 183.15132 537.87226 182.45077 536.90625 182.25195 C 537.32242 182.01591 537.71346 181.81049 538 181.70508 C 539.27329 181.2371 539.25809 181.14307 537.9043 181.07617 C 537.25311 181.04394 536.21789 181.57595 535.29883 182.35742 C 533.82192 182.79991 532.00955 184.14593 529.44336 186.50195 C 526.74754 188.97694 524.002 191.00195 523.3418 191.00195 C 521.07718 191.00195 519 187.85617 519 184.42969 C 519 181.30198 518.74138 181.00195 516.05859 181.00195 C 514.44107 181.00195 512.83373 180.54337 512.48828 179.98438 C 512.14283 179.4255 511.47399 179.20904 511 179.50195 C 510.52601 179.79487 509.81205 179.50724 509.41406 178.86328 C 508.99593 178.18686 509.12122 177.95987 509.71094 178.32422 C 510.7703 178.97845 510.78438 171.45235 509.72656 170.39453 C 509.42148 170.08945 508.21069 170.35239 507.03711 170.98047 C 506.89962 171.0539 506.75494 171.11311 506.61133 171.17383 C 505.98386 171.08095 505.25151 171.13161 504.75 171.33398 C 504.50602 171.43236 504.42527 171.52371 504.47656 171.60156 C 503.20948 171.64366 501.58633 171.43269 499.24805 170.94727 C 493.71603 169.79882 493.54592 169.83066 491.50781 172.38672 C 490.37271 173.81037 489.19781 174.61915 487.98242 174.82227 C 487.99687 174.48129 487.15975 173.60347 485.25 171.91992 L 482.5 169.49609 L 484.92383 172.24609 C 486.06264 173.53788 487.08898 174.57819 487.48828 174.86914 C 486.02572 174.91489 484.50521 174.10013 482.92383 172.41016 C 480.7585 170.09599 479.99064 169.88534 475.73633 170.44531 C 470.9875 171.07041 464.45172 169.77417 460.5 167.42383 C 459.40001 166.76959 455.92374 165.98961 452.77539 165.69141 C 445.70004 165.02103 445 164.60065 445 161.01758 C 445 158.30388 440.80571 152 439 152 z M 447.38281 162.32227 C 447.34395 162.33259 447.30813 162.35393 447.27539 162.38672 C 447.01328 162.64883 447.09653 163.3431 447.45898 163.92969 C 448.44495 165.52518 449.01995 165.21525 448.34375 163.45312 C 448.05878 162.71042 447.65482 162.25003 447.38281 162.32227 z M 458.91602 165.11914 C 458.56862 165.10483 458.17343 165.16812 457.8125 165.3125 C 457.01476 165.63168 457.25105 165.86997 458.41602 165.91797 C 459.46997 165.9614 460.06074 165.7248 459.72852 165.39258 C 459.56239 165.22647 459.26341 165.13346 458.91602 165.11914 z M 463.875 167.45312 C 463.4031 167.38277 463.24309 167.58267 463.50586 168.00781 C 463.84186 168.5515 464.54106 168.99609 465.05859 168.99609 C 466.49704 168.99609 466.17969 168.28002 464.44727 167.61523 C 464.22478 167.52985 464.0323 167.47658 463.875 167.45312 z M 480 169.12695 C 479.54687 169.12695 479.09375 169.19528 478.75 169.33398 C 478.0625 169.61159 478.62501 169.83789 480 169.83789 C 481.37511 169.83789 481.9375 169.6114 481.25 169.33398 C 480.90625 169.19528 480.45313 169.12695 480 169.12695 z M 509.13086 171.58594 C 509.6084 171.7449 510 172.08503 510 172.55859 C 510 172.68273 509.81386 172.79271 509.51953 172.87305 C 510.19125 172.66057 510.07973 172.19131 509.13086 171.58594 z M 473.91602 173.11914 C 473.56862 173.10483 473.17343 173.16812 472.8125 173.3125 C 472.01476 173.63168 472.25105 173.86997 473.41602 173.91797 C 474.46997 173.9614 475.06074 173.7248 474.72852 173.39258 C 474.56239 173.22647 474.26341 173.13346 473.91602 173.11914 z M 512.36328 174.3418 C 512.21171 174.31885 512.10812 174.68596 512.07812 175.41406 C 512.03474 176.46802 512.2713 177.05878 512.60352 176.72656 C 512.93574 176.39427 512.9704 175.53048 512.68164 174.80859 C 512.56195 174.50945 512.45422 174.35557 512.36328 174.3418 z M 518.91602 180.11914 C 518.56862 180.10483 518.17343 180.16812 517.8125 180.3125 C 517.01476 180.63168 517.25105 180.86997 518.41602 180.91797 C 519.46997 180.9614 520.06074 180.7248 519.72852 180.39258 C 519.56239 180.22647 519.26341 180.13346 518.91602 180.11914 z M 540 181.99609 C 539.94838 182.04771 540.24915 182.45305 540.87109 183.24609 C 542.17745 184.91181 543 185.44217 543 184.61914 C 543 184.41149 542.21249 183.62399 541.25 182.86914 C 540.45696 182.2472 540.05162 181.94447 540 181.99609 z M 521.51172 182.84375 C 521.3477 182.7494 521.23047 183.55232 521.23047 184.99609 C 521.23047 186.92108 521.43774 187.70859 521.68945 186.74609 C 521.94117 185.7836 521.94117 184.20859 521.68945 183.24609 C 521.62652 183.00546 521.56639 182.8752 521.51172 182.84375 z M 517.35938 186.35742 C 517.39876 186.35246 517.44115 186.36265 517.48438 186.38477 C 517.39795 186.34055 517.31822 186.34965 517.25 186.41797 C 517.19184 186.47609 517.15482 186.57589 517.125 186.68555 C 517.15041 186.57228 517.19058 186.47797 517.25 186.41797 C 517.25 186.41797 517.25 186.41602 517.25 186.41602 C 517.28414 186.38188 517.31999 186.36238 517.35938 186.35742 z M 688.31055 187 C 688.64464 187 689.02214 187.12558 689.39648 187.3418 C 689.77083 187.55801 690.14173 187.86406 690.45703 188.22266 C 690.14173 187.86406 689.77083 187.55801 689.39648 187.3418 C 689.02214 187.12558 688.64464 187 688.31055 187 z M 687.8418 187.01367 C 687.57559 187.03341 687.40116 187.0784 687.32031 187.16797 C 687.32031 187.16797 687.32031 187.16602 687.32031 187.16602 C 687.40115 187.07645 687.57561 187.0334 687.8418 187.01367 z M 679.42578 187.11328 C 679.28906 187.10155 679.125 187.12504 678.9375 187.1875 C 679.12497 187.12501 679.28908 187.10156 679.42578 187.11328 z M 601.58789 188.41797 C 601.40684 188.49737 601.4586 189.03854 601.73047 190.07812 C 602.08408 191.43025 602.53728 191.88372 602.78711 191.13477 C 603.0276 190.41333 602.74907 189.34868 602.16797 188.76758 C 601.88963 188.4893 601.69652 188.37033 601.58789 188.41797 z M 663.22266 188.57812 C 663.46172 188.59462 663.725 188.63708 664 188.70898 C 664.275 188.7809 664.53828 188.86138 664.77734 188.94336 C 664.53828 188.86138 664.275 188.78284 664 188.71094 C 663.725 188.63902 663.46172 188.59462 663.22266 188.57812 z M 663.22266 188.57812 C 662.78255 188.54777 662.4298 188.6127 662.2168 188.75 C 662.21607 188.74942 662.21557 188.74863 662.21484 188.74805 C 662.42766 188.61011 662.78159 188.54769 663.22266 188.57812 z M 517.44336 188.68359 C 518.13194 190.34448 518.6717 190.3088 518.4668 188.88086 C 518.56504 189.53591 518.5436 190 518.375 190 C 518.06016 190 517.70293 189.39527 517.44336 188.68359 z M 682.98242 188.99023 C 682.8981 188.9522 682.425 189.28634 681.5 189.96484 C 680.40001 190.7717 679.31107 191.55913 679.08203 191.71484 C 678.85288 191.87056 679.1366 191.99609 679.71094 191.99609 C 680.28527 191.99609 681.37211 191.20859 682.12695 190.24609 C 682.76171 189.43665 683.06675 189.02827 682.98242 188.99023 z M 641.91602 189.11914 C 641.56862 189.10483 641.17344 189.16812 640.8125 189.3125 C 640.01479 189.63168 640.25105 189.86997 641.41602 189.91797 C 642.46997 189.9614 643.06074 189.7248 642.72852 189.39258 C 642.56239 189.22647 642.26342 189.13346 641.91602 189.11914 z M 598.2207 189.28125 C 598.32439 189.34389 598.41893 189.41852 598.50195 189.50195 C 598.41893 189.41852 598.32439 189.34389 598.2207 189.28125 z M 665.8418 189.42578 C 665.89258 189.46197 665.93223 189.4974 665.95898 189.5293 C 665.93223 189.4974 665.89258 189.46197 665.8418 189.42578 z M 695.26562 189.57422 C 694.63335 189.52467 694.32562 189.71581 694.55664 190.08984 C 694.86486 190.58855 695.76606 190.99609 696.55859 190.99609 C 698.62838 190.99609 698.33304 190.31765 695.99805 189.70703 C 695.72284 189.63507 695.47638 189.59073 695.26562 189.57422 z M 559.25 190.33789 C 559.33594 190.37259 559.40149 190.40668 559.44922 190.43945 C 559.40149 190.4067 559.33594 190.37257 559.25 190.33789 z M 698.5 190.49805 L 700.4043 192.74805 C 701.45206 193.98554 702.46456 194.99805 702.6543 194.99805 C 703.45454 194.99805 702.86442 194.19455 700.75 192.4043 L 698.5 190.49805 z M 568.43555 191.51172 C 568.21074 191.58051 567.95157 192.07284 567.73047 192.91797 C 567.29552 194.58119 567.4259 194.97254 568.16797 194.23047 C 568.74911 193.64937 569.02749 192.58276 568.78711 191.86133 C 568.6935 191.58047 568.57043 191.47044 568.43555 191.51172 z M 560.91602 192.12305 C 560.56862 192.10873 560.17344 192.17203 559.8125 192.31641 C 559.01479 192.63559 559.25105 192.87192 560.41602 192.91992 C 561.46997 192.96335 562.06074 192.72675 561.72852 192.39453 C 561.56239 192.22842 561.26342 192.13736 560.91602 192.12305 z M 605 192.99805 C 604.94838 193.04967 605.24915 193.45503 605.87109 194.24805 C 606.62594 195.21054 607.4136 195.99805 607.62109 195.99805 C 608.44412 195.99805 607.91575 195.17745 606.25 193.87109 C 605.45696 193.24917 605.05162 192.94643 605 192.99805 z M 627.50781 193 C 627.91705 193.00059 628.28854 193.04448 628.55859 193.11523 C 628.28854 193.04447 627.91705 193.00059 627.50781 193 z M 553 195.12891 C 552.54687 195.12891 552.09375 195.19723 551.75 195.33594 C 551.0625 195.61317 551.62501 195.8418 553 195.8418 C 554.37511 195.8418 554.9375 195.61335 554.25 195.33594 C 553.90625 195.19723 553.45313 195.12891 553 195.12891 z M 573.36328 197.3457 C 573.21171 197.32275 573.10812 197.68794 573.07812 198.41602 C 573.0347 199.47001 573.2713 200.06074 573.60352 199.72852 C 573.93574 199.39622 573.9704 198.53244 573.68164 197.81055 C 573.56195 197.51139 573.45422 197.35947 573.36328 197.3457 z M 627.92773 197.99805 C 627.79663 198.05125 627.4894 198.27576 627 198.65234 C 626.175 199.28712 624.37503 200.01473 623 200.26758 L 620.5 200.72656 L 623.12695 200.86328 C 624.57531 200.93834 626.37044 200.21266 627.12695 199.24805 C 627.87339 198.29641 628.14625 197.90938 627.92773 197.99805 z M 703.35742 199.96484 C 703.83364 200.17039 704.37399 200.36315 704.98828 200.49805 C 706.63196 200.85907 708.26204 201.61377 708.60938 202.17578 C 708.66653 202.26825 708.7704 202.37773 708.89453 202.49414 C 707.47898 201.60202 705.81395 200.74128 704.62695 200.44336 C 704.14967 200.32358 703.72447 200.15747 703.36328 199.9707 C 703.3619 199.96916 703.35881 199.96639 703.35742 199.96484 z M 571.38672 201.64453 C 571.11836 201.6575 570.80834 201.69485 570.46875 201.75977 C 569.11039 202.01942 568 202.40434 568 202.61523 C 568 203.38898 571.89811 202.97113 572.41016 202.14258 C 572.62828 201.78981 572.1918 201.60562 571.38672 201.64453 z M 620 201.99805 C 619.94838 201.94643 619.54304 202.24915 618.75 202.87109 C 617.78751 203.62594 617 204.4136 617 204.62109 C 617 205.44412 617.8206 204.9138 619.12695 203.24805 C 619.74889 202.45501 620.05162 202.04967 620 201.99805 z M 730.36328 206.3457 C 730.21171 206.32275 730.10812 206.68794 730.07812 207.41602 C 730.0347 208.47039 730.2713 209.06074 730.60352 208.72852 C 730.93574 208.39622 730.9704 207.53244 730.68164 206.81055 C 730.56195 206.51139 730.45422 206.35947 730.36328 206.3457 z M 730.86719 212.30664 C 731.13027 212.30216 731.54643 212.37849 732.02734 212.48633 C 731.10815 212.28275 730.54581 212.27939 730.40625 212.49805 C 730.46349 212.37994 730.60623 212.31109 730.86719 212.30664 z M 749.6582 212.59766 L 750.5 212.78125 L 748.45898 212.89648 C 749.0358 212.80502 749.45783 212.70545 749.6582 212.59766 z M 754.60938 253.79102 C 754.51867 254.38737 754.45703 263.92775 754.45703 279.99805 C 754.45703 303.37306 754.58817 312.93556 754.74805 301.24805 C 754.90792 289.56054 754.90792 270.43556 754.74805 258.74805 C 754.69797 255.0957 754.6506 253.51994 754.60938 253.79102 z M 752.60938 261.61523 C 752.51769 262.06393 752.45333 270.75118 752.45312 285.49805 L 752.45508 285.49805 C 752.4547 306.94804 752.58628 315.86553 752.74805 305.31445 C 752.90996 294.76337 752.90943 277.2134 752.74805 266.31445 C 752.6975 262.90854 752.65105 261.41128 752.60938 261.61523 z M 756.5 326.49805 L 758.4043 328.74805 C 760.19451 330.86243 761 331.45454 761 330.6543 C 761 330.46453 759.98749 329.45202 758.75 328.4043 L 756.5 326.49805 z M 765.37695 337.21289 C 765.33144 337.32136 765.59894 337.97302 766.14453 339.24805 L 766.14258 339.24805 C 767.31998 341.99951 768 342.70935 768 341.18945 C 768 340.74456 767.31637 339.50709 766.48242 338.43945 C 765.77947 337.53945 765.42246 337.10442 765.37695 337.21289 z M 768.46484 348.46094 C 768.284 348.39355 768.15625 348.96677 768.15625 349.99805 C 768.15625 351.37315 768.38469 351.93554 768.66211 351.24805 C 768.93953 350.56051 768.93953 349.43554 768.66211 348.74805 C 768.5928 348.57617 768.52512 348.4834 768.46484 348.46094 z M 768 354.99805 C 767.94838 355.04967 768.24915 355.45503 768.87109 356.24805 C 769.62594 357.21054 770.4136 357.99805 770.62109 357.99805 C 771.44412 357.99805 770.91575 357.17745 769.25 355.87109 C 768.45696 355.24917 768.05162 354.94643 768 354.99805 z M 769.25 360.68164 C 769.25346 360.68441 769.25828 360.69063 769.26172 360.69336 C 769.27994 360.73384 769.30064 360.7716 769.32031 360.81055 C 769.29665 360.76771 769.27147 360.72665 769.25 360.68164 z M 770.84961 361.48242 C 770.6311 361.70093 770.35727 361.70837 770.08789 361.58984 C 770.37105 361.69123 770.6632 361.66883 770.84961 361.48242 z M 774.36914 363.10352 C 774.14207 363.02311 774.22526 363.40223 774.56445 364.29297 C 774.93999 365.27912 775.49861 365.83342 775.80664 365.52539 C 776.11456 365.21751 775.80646 364.41073 775.12305 363.73242 C 774.75269 363.36483 774.50538 363.15176 774.36914 363.10352 z M 776 366.99805 C 775.94838 367.04967 776.24915 367.45503 776.87109 368.24805 C 777.62594 369.21054 778.4136 369.99805 778.62109 369.99805 C 779.44412 369.99805 778.91575 369.17745 777.25 367.87109 C 776.45696 367.24917 776.05162 366.94643 776 366.99805 z M 777 373.99805 C 776.94838 374.04967 777.24915 374.45501 777.87109 375.24805 C 778.62594 376.21054 779.4136 376.99805 779.62109 376.99805 C 780.44412 376.99805 779.91575 376.17745 778.25 374.87109 C 777.45696 374.24915 777.05162 373.94643 777 373.99805 z M 775.44531 376.26172 C 775.61651 376.2701 775.78348 376.37039 775.94336 376.53711 C 775.54417 376.21938 775.06678 376.35315 774.57812 377.00781 C 774.85075 376.48159 775.15131 376.24732 775.44531 376.26172 z M 782.36328 406.3457 C 782.21171 406.32275 782.10812 406.68791 782.07812 407.41602 C 782.0347 408.47001 782.2713 409.06074 782.60352 408.72852 C 782.93574 408.39622 782.9704 407.5324 782.68164 406.81055 C 782.56195 406.51139 782.45422 406.35948 782.36328 406.3457 z M 778.80859 417.99805 C 778.5336 417.99805 777.49549 418.89805 776.5 419.99805 C 775.50447 421.09804 774.9143 421.99805 775.18945 421.99805 C 775.46445 421.99805 776.50451 421.09804 777.5 419.99805 C 778.49553 418.89805 779.08374 417.99805 778.80859 417.99805 z M 773.36328 433.3457 C 773.21171 433.32275 773.10812 433.68791 773.07812 434.41602 C 773.0347 435.47001 773.2713 436.06074 773.60352 435.72852 C 773.93574 435.39622 773.9704 434.5324 773.68164 433.81055 C 773.56195 433.51139 773.45422 433.35948 773.36328 433.3457 z M 773.36328 448.3457 C 773.21171 448.32275 773.10812 448.68791 773.07812 449.41602 C 773.0347 450.47001 773.2713 451.06074 773.60352 450.72852 C 773.93574 450.39622 773.9704 449.5324 773.68164 448.81055 C 773.56195 448.51139 773.45422 448.35948 773.36328 448.3457 z M 765.84766 475.99805 C 765.57266 475.99805 764.29177 477.12305 763 478.49805 C 761.70823 479.87308 760.87524 480.99805 761.15039 480.99805 C 761.42539 480.99805 762.70827 479.87308 764 478.49805 C 765.29177 477.12305 766.12281 475.99805 765.84766 475.99805 z M 758.27539 482.95312 C 758.30384 483.0799 758.34611 483.21201 758.38672 483.34375 C 758.34587 483.2123 758.30436 483.07973 758.27539 482.95312 z M 758.44531 483.54102 C 758.47708 483.63254 758.52124 483.72991 758.55859 483.82422 C 758.52109 483.7298 758.4773 483.63269 758.44531 483.54102 z M 762.72461 491.06445 C 763.44265 493.00581 762.34171 493.54659 759.24805 493.49414 C 762.28801 493.3149 763.30228 492.7622 762.72461 491.06445 z M 766.62891 492.39844 C 766.53233 492.42223 766.41261 492.62219 766.26953 492.99805 C 765.95549 493.82304 765.20464 494.83027 764.59961 495.23438 C 763.92107 495.68765 764.17057 495.97682 765.25 495.98438 C 766.42574 495.99466 766.97284 495.25971 766.91992 493.74805 C 766.88697 492.80841 766.78987 492.35879 766.62891 492.39844 z M 721.35938 507.39844 C 716.31275 510.13543 715.41541 511.10178 715.00586 513.76562 C 715.03291 511.46484 715.62167 510.36741 721.35938 507.39844 z M 718.94141 510.59961 C 718.89539 510.58546 718.8454 510.59532 718.79102 510.62891 C 718.35603 510.89778 718 512.44103 718 514.05859 C 718 518.05828 718.69102 517.77108 719.18164 513.56836 C 719.37434 511.91776 719.26349 510.69866 718.94141 510.59961 z M 712.62695 518.12109 C 712.54586 518.17822 712.46553 518.24374 712.38281 518.29102 C 710.8279 519.17982 708.15623 520.94592 705.41406 522.80859 C 708.62517 520.54514 711.55481 518.63027 712.62695 518.12109 z M 714.29883 519.03711 C 713.91971 518.98844 713.05532 519.55257 712.22461 520.41992 C 710.5753 522.14184 710.59683 522.16333 712.70312 520.89844 C 713.91564 520.17027 714.69274 519.35876 714.42969 519.0957 C 714.3968 519.06282 714.35299 519.04406 714.29883 519.03711 z M 691 536.99805 C 690.94839 536.94643 690.54304 537.24917 689.75 537.87109 C 688.78751 538.62594 688 539.4136 688 539.62109 C 688 540.44416 688.82056 539.9138 690.12695 538.24805 C 690.74887 537.45501 691.05161 537.04966 691 536.99805 z M 677.81055 546.70898 C 676.35604 547.96434 674.92715 549.11622 673.6543 550.04297 C 674.92669 549.11609 676.35551 547.96424 677.81055 546.70898 z M 680.84766 546.99805 C 680.57266 546.99805 679.29173 548.12305 678 549.49805 C 676.70823 550.87304 675.87524 551.99805 676.15039 551.99805 C 676.42539 551.99805 677.70823 550.87304 679 549.49805 C 680.29177 548.12305 681.12281 546.99805 680.84766 546.99805 z M 619 583.99805 C 618.94839 583.94643 618.54304 584.24915 617.75 584.87109 C 616.78751 585.62594 616 586.4136 616 586.62109 C 616 587.44412 616.82056 586.9138 618.12695 585.24805 C 618.74887 584.45501 619.05161 584.04967 619 583.99805 z M 616 587.99805 C 615.94839 587.94643 615.54304 588.24917 614.75 588.87109 C 613.78751 589.62594 613 590.4136 613 590.62109 C 613 591.44416 613.82056 590.9138 615.12695 589.24805 C 615.74887 588.45501 616.05161 588.04966 616 587.99805 z M 597.80859 599.99805 C 597.5336 599.99805 596.49549 600.89802 595.5 601.99805 C 594.50447 603.09804 593.9143 603.99805 594.18945 603.99805 C 594.46445 603.99805 595.50451 603.09804 596.5 601.99805 C 597.49549 600.89802 598.08374 599.99805 597.80859 599.99805 z M 585 612.99805 C 584.94838 612.94643 584.54302 613.24915 583.75 613.87109 C 582.78751 614.62594 582 615.4136 582 615.62109 C 582 616.44412 582.8206 615.9138 584.12695 614.24805 C 584.74887 613.45501 585.05162 613.04967 585 612.99805 z M 579.54297 615.61523 C 579.3889 615.82744 579.23719 616.0402 579.08984 616.25 C 579.24 616.03886 579.38422 615.83029 579.54297 615.61523 z M 578.625 616.91797 C 578.36335 617.30497 578.11905 617.68389 577.88281 618.06055 C 578.11475 617.68717 578.35914 617.30855 578.625 616.91797 z M 577.5332 618.625 C 577.44978 618.7638 577.37845 618.8961 577.29883 619.0332 C 577.37475 618.89796 577.45198 618.76314 577.5332 618.625 z M 575.94141 621.66406 C 574.97968 623.83201 573.4762 626.18934 572.54883 626.95898 C 571.67839 627.68139 569.40386 631.55939 567.13867 635.85742 C 569.37245 631.4377 571.4382 627.88039 572.45898 627.0332 C 573.21033 626.40966 574.6512 624.14804 575.94141 621.66406 z M 577.80859 624.99805 C 577.5336 624.99805 576.49549 625.89805 575.5 626.99805 C 574.50447 628.09804 573.9143 628.99805 574.18945 628.99805 C 574.46445 628.99805 575.50451 628.09804 576.5 626.99805 C 577.49553 625.89805 578.08374 624.99805 577.80859 624.99805 z M 558.46484 669.46094 C 558.28399 669.39355 558.15625 669.96677 558.15625 670.99805 C 558.15625 672.37315 558.38469 672.93554 558.66211 672.24805 C 558.93953 671.56051 558.93953 670.43554 558.66211 669.74805 C 558.59279 669.57617 558.52513 669.4834 558.46484 669.46094 z M 555.5625 673.52539 C 555.448 673.67273 555.36914 676.02968 555.36914 680 C 555.36914 685.775 555.53645 688.13748 555.73828 685.25 C 555.94011 682.36248 555.94011 677.63752 555.73828 674.75 C 555.67509 673.84766 555.61454 673.45842 555.5625 673.52539 z M 558.42969 686.79492 C 558.30003 686.86468 558.20712 687.4668 558.19531 688.49805 L 558.19336 688.49805 C 558.17299 690.14804 558.38028 690.9446 558.6543 690.26758 C 558.92907 689.59055 558.94697 688.24054 558.69336 687.26758 C 558.5983 686.90272 558.50748 686.75306 558.42969 686.79492 z M 559.36523 694.3457 C 559.21366 694.32275 559.10812 694.68791 559.07812 695.41602 C 559.0347 696.47001 559.2713 697.06074 559.60352 696.72852 C 559.93574 696.39622 559.97235 695.5324 559.68359 694.81055 C 559.5639 694.51139 559.45618 694.35948 559.36523 694.3457 z M 445.54102 706.125 C 445.74903 706.72429 445.9836 707.41928 446.12695 707.79688 C 446.60661 709.06026 447 710.9037 447 711.89258 C 447 712.01311 447.01234 712.14283 447.03711 712.2793 C 447.01606 712.18097 447 712.08542 447 712.00586 C 447 711.1744 446.36916 708.80297 445.54102 706.125 z M 560.49805 709.96094 C 560.42216 709.91625 560.43407 710.0875 560.55469 710.5 C 560.87625 711.59999 561.42578 713.85001 561.77539 715.5 C 562.14291 717.23469 562.5563 717.81124 562.75586 716.86719 C 562.94563 715.96921 562.39613 713.71923 561.53516 711.86719 C 560.99709 710.70968 560.62452 710.03541 560.49805 709.96094 z M 447.03906 712.29297 C 447.04538 712.3268 447.06063 712.36382 447.06836 712.39844 C 447.05851 712.36259 447.0466 712.32688 447.03906 712.29297 z M 449.21484 715.73242 C 449.27932 715.80368 449.34288 715.87411 449.40625 715.95312 C 449.33932 715.87851 449.28485 715.80759 449.21484 715.73242 z M 563.36523 719.3457 C 563.21366 719.32275 563.10812 719.68794 563.07812 720.41602 C 563.0347 721.47001 563.2713 722.06074 563.60352 721.72852 C 563.93574 721.39622 563.97235 720.53439 563.68359 719.8125 C 563.5639 719.51335 563.45618 719.35947 563.36523 719.3457 z M 564.41797 723.33594 C 564.37994 723.31599 564.34697 723.321 564.31641 723.35156 C 564.07187 723.59598 564.17825 725.4385 564.55469 727.44531 C 564.93117 729.45217 565.43906 730.89297 565.68359 730.64844 C 565.92813 730.40398 565.82175 728.56154 565.44531 726.55469 C 565.11589 724.79869 564.68416 723.47557 564.41797 723.33594 z M 460.35547 725.66602 C 460.457 725.71493 460.59578 725.76681 460.68359 725.81445 C 460.88763 725.92516 461.14943 726.02511 461.40039 726.12695 C 461.01701 725.98417 460.67796 725.82872 460.35547 725.66602 z M 466.10938 727.0625 C 466.17575 727.07464 466.24806 727.09956 466.31641 727.11523 C 466.24772 727.09882 466.17682 727.07593 466.10938 727.0625 z M 466.81641 727.24805 C 466.89968 727.27546 466.98872 727.31386 467.07422 727.3457 C 466.98872 727.31412 466.90034 727.27561 466.81641 727.24805 z M 473.00391 731.51758 C 475.13708 733.28668 477.81028 734.85663 479.33398 735.1875 C 481.78832 735.72045 483.52206 736.1014 485.00195 736.5293 C 483.5749 736.1507 481.79498 735.73607 479.33398 735.19531 C 477.81028 734.8605 475.13708 733.28744 473.00391 731.51758 z M 566.4668 732.46289 C 566.2859 732.3955 566.1582 732.96873 566.1582 734 C 566.1582 735.37511 566.38469 735.9375 566.66211 735.25 C 566.93953 734.56247 566.93953 733.4375 566.66211 732.75 C 566.59271 732.57813 566.5271 732.48535 566.4668 732.46289 z M 567.53711 738.23242 C 567.38171 738.11113 567.27148 739.14376 567.27148 741 C 567.27148 743.47487 567.46659 744.48749 567.70508 743.25 C 567.94357 742.01251 567.94357 739.98749 567.70508 738.75 C 567.64549 738.44063 567.58891 738.27285 567.53711 738.23242 z M 493.30859 740.98047 C 494.47412 741.81527 495.863 742.83583 497.49805 744.04883 C 496.17701 743.14393 494.79067 742.15226 493.40625 741.11523 C 493.37411 741.07058 493.34398 741.02765 493.30859 740.98047 z M 570.42969 741.79492 C 570.30003 741.8647 570.20712 742.4668 570.19531 743.49805 L 570.19336 743.49805 C 570.17299 745.148 570.38028 745.94464 570.6543 745.26758 C 570.92907 744.59055 570.94697 743.24058 570.69336 742.26758 C 570.5983 741.90272 570.50748 741.75306 570.42969 741.79492 z M 571.42969 748.51953 C 571.32123 748.62798 571.19454 749.66462 570.95117 751.72461 C 570.6767 754.04777 570.83311 755.56728 571.29883 755.10156 C 571.76386 754.63581 571.99007 752.7344 571.79883 750.87695 C 571.62924 749.22995 571.53814 748.41108 571.42969 748.51953 z M 508.86914 749.11914 C 508.14414 749.11564 507.38366 749.17335 506.76172 749.29297 L 506.76172 749.29102 C 505.5178 749.53026 506.30001 749.73476 508.5 749.74609 C 509.74808 749.7524 510.59688 749.69082 510.93945 749.5918 C 511.17603 749.69788 511.89065 749.76758 513 749.76758 C 514.92503 749.76758 515.71249 749.56226 514.75 749.31055 C 513.78747 749.05921 512.21253 749.05921 511.25 749.31055 C 511.14233 749.33867 511.06473 749.36582 511 749.39258 C 510.94139 749.36628 510.86816 749.34035 510.76172 749.3125 C 510.28367 749.18796 509.59414 749.12264 508.86914 749.11914 z M 538.23438 752.99023 C 538.32363 753.09213 538.42245 753.19174 538.49609 753.29688 C 539.11395 754.17902 540.8281 755.87665 542.73828 757.53906 C 540.78376 755.88008 539.07612 754.23833 538.4375 753.26367 C 538.37414 753.16697 538.30109 753.08383 538.23438 752.99023 z M 556.32617 757.69531 C 556.1405 757.78225 555.97927 757.88132 555.80078 757.97266 C 555.9788 757.88048 556.14076 757.78349 556.32617 757.69531 z M 556.33789 759.38086 C 556.24779 759.37859 556.12999 759.42022 555.98828 759.50781 C 555.4446 759.84385 555 760.54106 555 761.05859 C 555 762.49704 555.71604 762.17969 556.38086 760.44727 C 556.63697 759.77979 556.60818 759.38766 556.33789 759.38086 z M 551.375 762.66016 C 551.16339 762.85698 550.94623 763 550.74219 763 C 550.56903 763 550.29063 762.90067 549.95312 762.74023 C 549.96106 762.72088 549.94987 762.69682 549.95117 762.67578 C 550.56269 762.88916 551.02194 762.87984 551.375 762.66016 z M 553.91602 764.12305 C 553.56862 764.10873 553.17344 764.17203 552.8125 764.31641 C 552.01479 764.63559 552.25109 764.87387 553.41602 764.92188 C 554.47039 764.9653 555.06074 764.7287 554.72852 764.39648 C 554.56237 764.23037 554.26341 764.13736 553.91602 764.12305 z "
         transform="matrix(0.26458333,0,0,0.26458333,177.8567,144.08452)" />
      <path
         id="path875"
         style="fill:rgb(7,130,223);stroke-width:0.999999"
         d="M 272.96094 2.2050781 C 240.95087 2.2285153 218.16714 2.4324997 217.85547 2.7441406 C 217.43987 3.1595107 257.4657 3.2751496 306.80078 3 L 396.5 2.5 L 307.55469 2.2441406 C 295.32482 2.2090005 283.63096 2.1972657 272.96094 2.2050781 z M 217.49805 3.5 L 217.49023 110.5 L 217.48828 110.5 L 217.48047 217.5 L 217.99023 111 L 218.49805 4.5 L 218.5 4.5 L 217.77344 163 C 217.37364 250.17503 216.80211 322.51251 216.50391 323.75 L 216.41992 324.09766 C 216.73322 321.96326 216.88986 298.98281 216.76367 271.66797 L 216.52734 220.5 L 216.01367 272.5 L 215.5 324.5 L 111 325.00781 L 6.5 325.51367 L 111.14258 325.75781 C 202.82575 325.97076 215.13183 325.85675 216.31055 324.54883 L 215.96094 326 L 111.03906 326 C 53.332026 326 5.9184269 326.3375 5.6757812 326.75 C 5.5628194 326.94192 5.3925275 327.43889 5.2070312 328.07227 C 5.3961864 327.0746 5.4016995 326.31129 5.2050781 326.07812 C 5.4164088 325.87417 5.6376196 325.72765 5.8691406 325.66602 C 7.0276792 325.35727 6.889081 325.19763 5.3867188 325.11523 C 3.599418 325.01719 3.1707115 325.73425 2.6152344 329.75 C 1.9705982 334.4105 2.0431322 334.58012 6.5078125 338.75 C 9.1486062 341.21648 12.031113 343 13.375 343 C 16.340984 343 17.677568 344.6239 23.263672 355.00781 C 26.762834 361.51242 28.742111 364.03782 31.669922 365.73438 C 33.776177 366.95486 35.950003 367.94493 36.5 367.93359 C 36.954564 367.92397 36.20544 367.3234 34.835938 366.5332 C 36.113632 367.11988 37.520261 367.60206 39.150391 368.04102 C 39.195281 368.0531 39.232812 368.06774 39.277344 368.08008 C 39.255797 368.08036 39.232082 368.07715 39.210938 368.07812 C 37.829218 368.14189 37.788321 368.26595 39 368.7207 C 40.807861 369.39917 53 381.90941 53 383.08594 C 53 383.54224 54.987669 385.0808 57.416016 386.50391 C 59.844362 387.92701 62.373084 389.74487 63.037109 390.54492 C 63.697339 391.34052 64.516726 391.97448 64.865234 391.9668 C 65.194767 392.4393 65.48151 392.90623 65.699219 393.3418 C 66.778044 395.50025 70.023476 398.94514 73.619141 402.14258 C 70.1468 399.18211 67.041718 396.12491 66.1875 394.5 C 65.609194 393.39997 65.106155 393.03384 65.068359 393.68555 C 64.982337 395.19173 77.676548 407.74741 81 409.44336 C 82.374992 410.14499 84.62497 410.99206 86 411.32617 C 88.177008 411.85538 96.606167 417.94123 99.5 421.07227 C 100.05 421.66735 101.73269 423.37395 103.24023 424.86523 C 105.15052 426.75496 106.33565 429.384 107.14844 433.53906 C 107.98572 437.81953 109.6792 441.49276 113.15625 446.56836 C 117.34907 452.68885 118.02529 454.36663 118.18555 459.06836 L 118.36914 464.5 L 118.74414 459.04102 C 119.0201 455.01881 118.90439 453.68764 116.67188 450.16406 C 117.8143 451.77217 118.67152 452.94409 118.75 452.95703 C 118.85533 452.97499 118.92805 452.95819 118.98438 452.92188 C 119.146 453.41989 119.27583 453.93335 119.38672 454.46094 L 118.98438 459.20312 C 118.71822 462.33983 118.86475 464.53922 119.31055 464.0918 C 119.63033 463.77085 119.82501 462.34274 119.84766 460.57812 C 119.84722 461.21799 119.85168 461.8338 119.83789 462.55859 C 119.70659 469.46549 120.00314 470.63797 123.6875 477.77148 C 123.75457 477.90134 123.81598 478.03351 123.88281 478.16406 C 121.47957 473.59439 120.18471 471.52717 120.08398 471.80078 C 119.78293 470.95356 119.53152 470.1672 119.35352 469.5 L 119.3418 469.45508 C 119.4294 469.60097 119.53968 469.55341 119.66211 469.25 C 119.93953 468.5625 119.93953 467.4375 119.66211 466.75 C 119.38488 466.0625 119.1582 466.62501 119.1582 468 C 119.1582 468.46647 119.19098 468.79819 119.23633 469.06055 L 118.01953 464.5 L 118.58203 469.33008 C 118.9014 472.06604 120.47124 476.40193 122.20117 479.33008 C 123.88098 482.17338 125.87066 486.29997 126.62305 488.5 C 127.48319 491.01509 129.94222 494.25858 133.24609 497.23828 C 136.13607 499.84472 138.8872 501.98072 139.35938 501.98828 C 139.83159 501.99437 137.69701 499.88048 134.61719 497.29102 C 133.60603 496.44085 132.70155 495.60206 131.89062 494.7793 C 135.11425 497.87954 139.48393 501.27419 141.5 501.81641 C 141.88299 501.9194 142.30269 502.10418 142.73633 502.33789 C 142.6429 502.30736 142.54387 502.26833 142.46289 502.25781 C 140.78697 502.03973 140.82156 502.14039 142.70312 502.95117 C 143.91477 503.47328 146.10819 505.71822 147.57812 507.93945 C 149.04806 510.16064 152.29664 513.33221 154.79688 514.98828 C 157.29711 516.64436 159.77824 518 160.31055 518 C 160.84289 518 158.8528 516.37462 155.88867 514.38867 C 155.48347 514.11719 155.06143 513.81472 154.63281 513.49414 C 157.5556 515.55269 160.80317 517.18313 163.99805 518.13672 C 163.63046 518.10662 163.20463 518.15956 162.8125 518.31641 C 162.01479 518.63559 162.25105 518.87387 163.41602 518.92188 C 164.46997 518.9653 165.06074 518.7287 164.72852 518.39648 C 164.6839 518.35188 164.60898 518.32681 164.54688 518.29297 C 164.85958 518.3788 165.17154 518.46484 165.48242 518.53711 C 166.18171 518.69966 166.84537 518.89104 167.49219 519.09766 C 165.7498 519.17352 165.8176 519.26796 168.02734 519.93945 C 169.41715 520.36178 171.93753 522.09183 173.62891 523.7832 C 175.45279 525.60709 178.91605 527.50202 182.14062 528.43945 C 185.75907 529.49137 188.67889 531.18757 190.87109 533.51172 C 192.68273 535.4324 195.36512 537.28869 196.83203 537.63867 C 198.29894 537.98854 200.0864 538.73927 200.80273 539.30469 C 201.51907 539.87014 203.76908 540.6245 205.80273 540.98242 C 210.65572 541.83675 211.75669 541.36852 213.6875 537.63477 C 216.2408 532.69723 220.22072 528.10266 223.77344 525.98828 C 226.57017 524.32382 226.94959 523.64885 226.37695 521.36719 C 225.92624 519.5715 226.37755 517.35312 227.75391 514.59766 C 228.8799 512.34343 230.52843 508.02502 231.41602 505 C 232.30364 501.97502 234.48423 496.8339 236.26367 493.57617 C 239.24545 488.11706 239.93094 487.51037 245 485.83203 C 248.02498 484.83061 251.40325 484.21577 252.50781 484.46484 C 255.07063 485.04243 256.23345 484.19998 257.80664 480.625 C 258.95819 478.00802 259.40437 477.80255 262.78516 478.3457 C 265.11657 478.72038 265.8794 478.65433 265.21289 478.14062 C 266.01183 478.50613 266.88007 478.95634 267.85156 479.51172 C 268.4531 479.8556 268.81539 480.03807 269.30859 480.30859 C 268.02 479.75754 267.26886 479.62634 267.54688 480.07617 C 267.92774 480.69242 269.64768 481.81137 271.36914 482.56055 C 274.9651 484.12535 275 484.13482 275 483.60156 C 275 483.42762 273.83277 482.67538 272.24023 481.79102 C 273.11151 482.10759 272.75831 481.62582 271.02539 480.29297 C 272.18183 480.83791 274.14651 481.177 277.33203 481.36328 C 276.38722 481.46782 275.61829 481.59403 275.34961 481.76562 C 275.05531 481.95353 275.77661 482.12361 277.14648 482.25391 L 275.5 482.16797 L 285 483.18359 C 290.22501 483.74262 298.20164 484.27408 302.72656 484.36328 C 308.4883 484.47693 311.40665 484.96985 312.46484 486.01172 C 315.76222 489.25803 320 494.82741 320 495.91406 C 320 496.54623 320.675 497.32195 321.5 497.63867 C 322.325 497.95525 323 499.0224 323 500.00977 C 323 501.02566 324.19382 502.29749 325.75 502.94141 C 330.99504 505.11161 334.04486 507.13868 335.57031 509.4668 C 336.41356 510.75376 340.45423 514.61286 344.55078 518.04297 C 348.64737 521.47308 352 524.98245 352 525.8418 C 352 526.70115 353.34576 528.79357 354.99023 530.49023 C 357.16785 532.73697 358.15358 534.92271 358.61914 538.53711 C 358.98715 541.39409 360.45929 545.34838 362.08789 547.85742 C 363.64381 550.25451 365.43078 553.77351 366.05859 555.67578 C 366.68641 557.57802 367.42646 558.90752 367.70312 558.63086 C 368.07516 558.25882 366.01312 553.46624 363.5918 548.79688 C 365.10242 551.2531 366.7388 554.74794 367.42383 557.05469 C 368.1301 559.43298 369.88035 563.00845 371.47461 565.39648 C 369.56196 562.71235 368.01844 561.18448 368.04102 562.00391 C 368.06335 562.82716 369.41336 565.05865 371.04102 566.96289 C 372.66867 568.86709 374 571.17391 374 572.08984 C 374 573.00577 374.675 574.3153 375.5 575 C 376.325 575.68466 377.06188 577.20291 377.13672 578.37305 C 377.26182 580.32774 377.30872 580.31089 377.7168 578.16797 C 377.96292 576.87548 377.45579 575.05556 376.58008 574.08789 C 376.57293 574.07999 376.56767 574.07044 376.56055 574.0625 C 377.35738 574.79481 378 576.76534 378 578.52344 C 378 580.41937 378.59805 582.73206 379.55664 585.11523 C 378.44054 582.79339 377.50547 581.16055 377.33984 581.32617 C 376.58919 582.07682 382.27052 593.17195 384.83984 595.97266 C 386.30263 597.56716 388.70531 599.32861 390.17773 599.88477 C 391.75176 600.47929 393.99151 602.87358 395.61523 605.69727 C 397.13411 608.33863 399.40538 611.75741 400.66211 613.29492 C 401.91888 614.83243 403.42608 617.86992 404.01172 620.04492 C 405.14059 624.23749 406.25316 625.35207 405.50391 621.8418 C 406.36425 624.94125 411.08298 630.088 416.10156 633.80078 C 414.18857 632.4326 412.27105 630.88699 410.81641 629.5 L 405.57227 624.5 L 410.03711 629.57227 C 414.18525 634.28594 415.96832 635.56275 423.25 639.0293 C 425.27379 639.99277 426 641.06941 426 643.10938 C 426 644.63396 426.45 646.16022 427 646.5 C 427.55 646.83989 428.07537 649.22857 428.16797 651.80859 C 428.33374 656.43402 428.34274 656.446 428.74023 652.56836 C 428.96198 650.40541 428.67961 647.70543 428.11328 646.56836 C 427.54699 645.43129 426.95127 643.37499 426.79102 642 C 426.95142 643.37499 427.57961 645.49006 428.18555 646.70117 C 428.85792 648.04536 429.03066 651.07491 428.63086 654.47656 C 428.15853 658.49551 428.24627 659.97589 429.41406 661.88672 C 428.58653 660.62511 427.93713 659.17244 427.88477 658.3418 C 427.77981 656.67503 427.72526 656.66592 427.3125 658.24414 C 427.06158 659.20346 427.85872 661.39767 429.08594 663.12109 C 430.36682 664.91996 431.55324 668.43644 431.87109 671.37695 C 432.10016 673.49601 432.36607 674.67107 432.57812 674.67188 C 432.6639 677.58974 432.97497 679.83157 433.70703 681.79688 C 433.67221 681.73206 433.62987 681.66605 433.5957 681.60156 C 432.16818 678.90714 431 677.46143 431 678.39062 C 431 680.07645 433.7293 684.49051 437.40625 688.75 C 438.47453 689.98749 439.49468 691 439.67383 691 C 440.22291 691 440.05713 690.47135 439.35156 689.61719 C 439.94236 690.09416 440 689.70833 440 688.5 C 440 687.67497 439.35432 687 438.56641 687 C 437.77845 687 436.8247 685.98749 436.44531 684.75 C 436.8247 685.98749 437.84806 687 438.71875 687 C 440.1606 687 440.23826 663.2127 439.58984 420.25 C 439.54496 403.43297 439.4899 390.37672 439.44141 374.92188 C 439.49204 376.94447 439.54747 378.26174 439.60742 378.41797 C 439.94127 379.28798 440.27881 379.99996 440.35742 380 C 440.42835 380.00003 440.48128 336.54045 440.49219 283.04297 C 440.51416 330.52647 440.61867 349.43236 440.75 322.32617 C 440.89672 291.98091 440.89702 242.03094 440.75 211.32617 C 440.61111 182.31965 440.49865 204.10723 440.48633 257.93945 C 440.45216 200.7253 440.13993 155.00004 439.75 155 C 439.30764 154.99996 439.05052 209.9378 439.01367 265.32422 C 438.67321 196.25592 438.29946 153.38262 437.93555 152.58008 C 438.09626 152.68368 438.26512 152.80524 438.45508 152.96289 C 439.30449 153.66766 440 153.84835 440 153.36328 C 440 153.0432 439.58475 152.51511 438.99805 151.99414 C 439.03618 151.93073 438.73814 151.52932 438.12695 150.75 C 436.22929 148.33027 435.11834 148.55734 433.96094 151.60156 C 433.22419 153.53952 432.52942 154.02089 431.23633 153.48828 C 430.28151 153.09498 428.59999 152.56283 427.5 152.30469 C 426.11397 151.97944 426.14784 152.17276 427.55273 153.03906 C 427.26217 153.18017 427.61888 153.71887 428.43945 154.36719 C 426.13632 152.85814 425.81397 152.85814 424.14648 154.36719 C 423.86644 154.62061 423.47919 154.85772 423.03906 155.07227 C 423.61655 154.72753 424.13662 154.28993 424.59375 153.75 C 426.4967 151.50228 426.49655 151.50174 424.41992 153.25 C 422.54173 154.83115 420.83965 155.44602 418.83984 154.94727 C 419.09028 154.97673 419.34093 155 419.60156 155 C 421.33648 155 423.3153 154.325 424 153.5 C 424.78497 152.5541 424.85224 152 424.18164 152 C 423.59676 152 422.83978 152.45 422.5 153 C 422.16007 153.55 420.62013 154 419.07812 154 C 416.899 154 414.81109 152.44067 409.70703 147 C 405.67488 142.702 402.34148 140 401.07031 140 L 399 140 L 399 72.058594 C 399 34.691085 398.6625 3.909415 398.25 3.6542969 C 397.83762 3.3992544 397.61892 34.198116 397.76367 72.095703 L 398.02734 141 L 398.01172 141 L 397.75586 72.25 L 397.49805 3.5 L 307.49805 3.5 L 217.49805 3.5 z M 215.5 324.5 L 215.51367 276 L 215.5293 227.5 L 215.25586 275.74609 L 214.98047 323.99023 L 113.99023 324.25195 L 113.99023 324.25391 L 13 324.51562 L 114.25 324.50781 L 215.5 324.5 z M 216.62305 46.091797 C 216.53964 47.614273 216.48242 71.973439 216.48242 113 C 216.48242 172.675 216.60298 197.08752 216.75 167.25 C 216.89702 137.41252 216.89702 88.587518 216.75 58.75 C 216.70394 49.425787 216.66096 45.399762 216.62305 46.091797 z M 400.2832 141 L 400.29102 141 C 400.4736 141 400.68285 141.03897 400.91797 141.11328 C 401.15565 141.1884 401.41928 141.30137 401.70898 141.45117 C 401.41941 141.30159 401.15613 141.18863 400.91797 141.11328 C 400.67981 141.03793 400.46847 141 400.2832 141 z M 436.46289 150.41992 C 436.73032 150.44087 437.05042 150.61966 437.44727 150.90625 C 436.1476 150.19252 435.73283 150.51169 434.86523 152.39844 C 434.85117 152.42903 434.84049 152.451 434.82617 152.48242 C 434.73233 152.68839 434.62057 152.87926 434.50391 153.0625 C 434.62618 152.85197 434.75134 152.64841 434.86523 152.39844 C 435.51571 150.97084 435.89758 150.37564 436.46289 150.41992 z M 437.10352 152.30859 C 436.61819 152.42827 436.05468 152.91893 435.46289 153.75391 C 436.14458 152.79235 436.60829 152.34109 437.10352 152.30859 z M 435.29102 153.9707 C 434.27628 155.35005 433.26247 155.98915 431.98242 155.88477 C 433.23527 155.90347 434.34455 155.25652 435.29102 153.9707 z M 429.62305 154.16406 C 430.81081 154.70164 431.77133 154.90333 432.55664 154.72656 C 431.45679 155.1876 430.29834 155.06393 429.62305 154.16406 z M 416.97266 155.58203 C 417.09484 155.62888 417.22066 155.69318 417.3418 155.73047 C 417.22151 155.69216 417.09476 155.63024 416.97266 155.58203 z M 417.5293 155.77539 C 418.08458 155.9254 418.64329 155.99147 419.25781 155.99609 C 419.22722 155.99653 419.19437 156 419.16406 156 C 418.59455 156 418.06544 155.92507 417.5293 155.77539 z M 321.68359 286.47266 C 322.02467 286.5124 322.36557 286.75636 322.73047 287.20703 C 322.73985 287.21861 322.77159 287.30173 322.7832 287.32031 C 322.77505 287.30874 322.75948 287.27124 322.75195 287.26172 C 322.30775 286.69971 321.84789 286.45124 321.38672 286.49609 C 321.4862 286.4734 321.58473 286.46114 321.68359 286.47266 z M 321.52734 288.5 C 322.06169 288.5 324.73853 295.11085 327.47461 303.19141 C 330.21072 311.272 332.6195 317.71254 332.82812 317.50391 C 332.95193 317.38011 332.49425 315.64012 331.75195 313.15039 C 332.31582 314.86882 332.84714 316.46007 333.42773 318.25 L 339.60547 337.29492 L 338.83398 334.95703 C 336.46637 327.78319 334.40225 322.2911 334.24805 322.75391 C 334.09377 323.21667 335.88808 329.20025 338.23438 336.04883 L 342.5 348.5 L 338.31836 336.5 C 336.01833 329.9 334.10615 324.9733 334.06836 325.55273 C 333.95565 327.29555 340.85486 347.12052 342.09375 348.61328 C 343.02896 349.73992 349.05754 350 374.34375 350 C 405.16489 350 405.4272 350.01673 403.47266 351.94531 C 402.38793 353.0156 391.15 361.38319 378.5 370.53906 C 365.85 379.69493 355.37132 387.93243 355.21484 388.84375 C 355.0583 389.75507 358.99582 403.05521 363.96484 418.40039 C 368.9339 433.74561 373 446.7317 373 447.25781 C 373 449.01091 370.22984 447.20393 346.62109 430.04688 C 333.71998 420.67138 322.46738 413 321.61328 413 C 320.75918 413 308.90816 421.10028 295.2793 431 C 281.65043 440.89972 270.35417 448.56046 270.17578 448.02539 C 269.99731 447.49029 273.93484 434.48404 278.92578 419.12109 C 283.91676 403.75815 288 390.34195 288 389.30859 C 288 388.00522 280.63181 382.09175 263.94531 370.00195 C 250.71557 360.41662 239.41178 351.99513 238.82422 351.28711 C 237.95704 350.24233 243.56714 349.99571 268.62695 349.98438 C 285.60682 349.97595 300.0486 349.62115 300.71875 349.19531 C 301.94521 348.41605 315.47215 308.13817 314.75 307.41602 C 314.59229 307.25831 312.88118 312.02573 310.58984 318.9043 C 313.51976 309.83577 315.96464 301.94838 315.90039 301.38086 C 315.84551 300.89621 312.29313 311.075 308.00586 324 L 301.99609 342.11523 L 309.91797 317.75586 C 312.84243 308.76142 315.53372 300.79175 317.53516 295.10156 C 317.64923 295.32298 318.04248 294.74856 318.74609 293 C 319.68922 290.65615 320.85424 288.73814 321.42969 288.53906 C 320.27491 288.95623 316.10708 299.48796 316.13672 302 C 316.14696 302.825 317.14632 300.65431 318.35547 297.17578 C 319.56465 293.69726 320.95767 290.77216 321.45312 290.67578 C 321.94855 290.57929 324.85717 298.05246 327.91602 307.2832 C 330.97486 316.51394 333.60153 323.69673 333.75195 323.24609 C 334.24593 321.76408 322.56898 288.63307 321.51172 288.50586 C 321.51631 288.50557 321.52285 288.5 321.52734 288.5 z M 307.4082 328.62891 C 304.15901 338.64765 301.20817 347.10377 300.71289 347.75 C 300.5303 347.98823 299.9135 348.1858 298.71875 348.34766 C 299.90713 348.18595 300.52123 347.98789 300.70117 347.75 C 301.16816 347.13265 304.18962 338.34816 307.4082 328.62891 z M 3.7773438 329.22852 C 3.7196985 329.50525 3.6609743 329.77536 3.6113281 330.07031 C 3.661998 329.7784 3.7161461 329.49588 3.7773438 329.22852 z M 4.5605469 330.65039 C 3.9929797 333.30967 4.3765981 334.20045 7.4667969 337.1543 C 5.571503 335.56086 4 333.91438 4 333.17969 C 4 332.90572 4.2493697 331.84788 4.5605469 330.65039 z M 3.3730469 331.63086 C 3.3480545 331.83222 3.3431306 331.99502 3.328125 332.17578 C 3.3431066 331.99529 3.3480608 331.83183 3.3730469 331.63086 z M 3.2832031 332.72656 C 3.2800225 332.88362 3.3036135 333.01592 3.3125 333.16016 C 3.3034761 333.01602 3.2801182 332.8834 3.2832031 332.72656 z M 13.658203 340.97656 C 13.686442 340.97816 13.72314 340.99015 13.75 340.99023 C 13.937963 340.99096 14.123953 341.00321 14.308594 341.02539 C 14.123953 341.00322 13.937963 340.9929 13.75 340.99219 C 13.723631 340.99209 13.686406 340.97867 13.658203 340.97656 z M 14.859375 341.125 C 15.223324 341.21413 15.583401 341.35057 15.943359 341.53516 C 15.582861 341.35014 15.223871 341.21425 14.859375 341.125 z M 16.486328 341.84961 C 16.847615 342.08548 17.209686 342.37326 17.578125 342.7168 C 17.209686 342.37326 16.847615 342.08548 16.486328 341.84961 z M 17.013672 343.68164 C 17.255473 343.90487 17.496919 344.12198 17.744141 344.39062 C 17.496049 344.11914 17.255352 343.90622 17.013672 343.68164 z M 17.748047 344.39648 C 18.858053 345.60374 20.024644 347.27418 21.263672 349.41797 C 20.004262 347.26204 18.842897 345.5956 17.748047 344.39648 z M 403.71094 348.31445 C 404.85256 348.38988 405.78222 348.47731 406.38867 348.59375 C 405.78186 348.47729 404.85336 348.38986 403.71094 348.31445 z M 390.31641 348.94922 C 396.3352 349.05763 400.35962 349.19991 402.95117 349.39453 C 400.35539 349.20022 396.32098 349.05789 390.31641 348.94922 z M 268.43555 349 C 259.45203 349.00002 251.56133 349.09782 245.87695 349.26172 C 251.56179 349.09781 259.45116 349 268.43555 349 z M 236.54883 349.91992 C 236.54898 349.91967 236.55062 349.92017 236.55078 349.91992 C 236.53125 349.95152 236.5541 350.01423 236.62109 350.10742 C 236.5541 350.01423 236.52929 349.95152 236.54883 349.91992 z M 406.75391 350.23633 C 406.7535 350.23762 406.75434 350.23894 406.75391 350.24023 C 406.53171 350.90691 395.48873 359.33843 382.21484 368.97656 C 381.18462 369.72461 380.52078 370.22106 379.51758 370.95117 C 380.18016 370.46726 380.75263 370.03331 381.42773 369.54297 C 395.12424 359.59506 406.51134 350.91407 406.75391 350.23633 z M 23.220703 351.10742 C 25.02418 354.49864 27.102584 358.36619 27.837891 359.70312 C 27.938367 359.88581 28.049885 360.0689 28.173828 360.25195 C 28.050263 360.06937 27.936155 359.88729 27.835938 359.70508 C 27.10063 358.36815 25.02418 354.49864 23.220703 351.10742 z M 23.345703 353.20508 C 26.814945 359.59863 29.334454 363.10438 32.542969 365.25391 C 29.0606 363.23741 27.689031 361.33197 23.345703 353.20508 z M 30.806641 362.94336 C 31.692934 363.6323 32.708371 364.28748 33.8125 364.88086 C 35.468694 365.77093 37.322551 366.5222 39.232422 367.04492 C 39.745701 367.18541 40.262913 367.36885 40.757812 367.57812 C 40.262913 367.36885 39.745701 367.18736 39.232422 367.04688 C 37.322551 366.52415 35.468694 365.77093 33.8125 364.88086 C 32.708371 364.28748 31.692934 363.6323 30.806641 362.94336 z M 41.376953 368.81641 C 42.334439 369.23026 43 369.651 43 369.93359 C 43 370.18781 43.808919 371.18623 44.982422 372.50391 C 43.786883 371.25818 42.759063 370.16524 42.210938 369.51953 C 41.98859 369.25758 41.692936 369.02597 41.376953 368.81641 z M 261.0625 369.02539 C 274.85728 379.02836 286.40398 387.88756 286.7207 388.71289 C 286.7225 388.71759 286.72112 388.73473 286.72266 388.74023 C 286.26208 387.79537 274.77362 378.96769 261.0625 369.02539 z M 43.65625 369.41797 C 43.768466 369.54308 43.859857 369.66523 43.925781 369.7832 C 44.037939 369.98392 44.187397 370.21808 44.373047 370.48047 C 44.187397 370.21808 44.035986 369.98392 43.923828 369.7832 C 43.857904 369.66523 43.768466 369.54308 43.65625 369.41797 z M 382.4043 369.9668 C 368.90713 379.72582 357.81989 388.31379 357.07227 389.57031 L 356.85938 388.43359 L 382.4043 369.9668 z M 268.25 375.41406 C 275.94656 380.97167 281.54281 385.34173 284.2168 387.82617 C 281.43951 385.28616 275.59511 380.71791 268.25 375.41406 z M 51.833984 378.69922 C 53.644888 380.49456 55.514295 382.25825 57.158203 383.70898 C 55.514295 382.25825 53.644888 380.49456 51.833984 378.69922 z M 59.419922 385.61523 C 60.09411 386.14935 60.677068 386.57096 61.132812 386.84375 C 60.677068 386.57096 60.09411 386.14935 59.419922 385.61523 z M 59.734375 387.05273 C 60.402268 387.61966 60.969702 388.0728 61.371094 388.3418 C 62.183779 388.88644 63.110372 389.79355 63.939453 390.78125 C 63.463554 390.33064 62.878852 389.80888 62.152344 389.21875 C 61.634134 388.79781 60.747953 387.99327 59.734375 387.05273 z M 63.369141 388.5625 C 63.606477 388.78447 63.836705 389.01396 64.056641 389.24609 C 63.836705 389.01396 63.606477 388.78447 63.369141 388.5625 z M 356.37109 388.86719 C 356.32425 389.08999 356.29574 389.33519 356.2793 389.5918 C 356.23446 389.35177 356.20794 389.16386 356.2207 389.09766 C 356.22986 389.05022 356.28468 388.96976 356.37109 388.86719 z M 285.98828 389.88672 C 285.98925 389.89613 286 389.91116 286 389.91992 C 286 390.84802 284.42499 396.28388 282.5 402 C 280.57501 407.71612 279.03869 412.86783 279.08594 413.44727 C 279.12651 413.94487 280.54213 410.25026 282.35547 405.01367 C 281.10301 409.12867 279.7226 413.56657 278.14844 418.41992 C 273.65948 432.2601 269.92091 444.43218 269.16211 447.61133 C 269.43799 445.55194 270.51593 441.89153 272.5 436 C 274.42499 430.28388 275.96578 425.13214 275.92383 424.55273 C 275.88574 424.02902 274.19596 428.47079 272.07617 434.58984 C 273.38115 430.36275 274.82147 425.78748 276.46094 420.75 C 281.67141 404.74008 285.92939 390.94122 285.98828 389.88672 z M 357.41406 391.39258 C 358.24931 394.41018 360.39661 401.32817 363.02344 409.48828 C 360.40646 401.75147 358.4165 396.24952 358.25391 396.41211 C 358.21365 396.45236 358.31677 396.92462 358.48828 397.59375 C 358.17182 396.52835 357.948 395.73219 357.69336 394.8457 C 357.84107 394.56299 357.81201 393.51535 357.47461 391.7168 L 357.41406 391.39258 z M 71.404297 398.65625 C 74.059521 401.33899 77.206289 404.14282 79.767578 406.07031 C 77.206289 404.14282 74.059521 401.33899 71.404297 398.65625 z M 80.994141 406.95703 C 81.773 407.49301 82.467787 407.91209 83.037109 408.17969 C 82.467787 407.91209 81.773 407.49301 80.994141 406.95703 z M 85.335938 410.02344 C 86.611019 410.50442 88.121502 411.3229 89.763672 412.36914 C 88.336254 411.46843 86.712599 410.59759 85.335938 410.02344 z M 91.265625 412.24414 C 92.992095 413.36487 94.688606 414.60449 96.0625 415.79102 C 96.124842 415.84486 96.254907 415.97032 96.322266 416.0293 C 94.641409 414.64635 92.928805 413.36278 91.265625 412.24414 z M 90.1875 412.63086 C 91.954469 413.78655 93.877087 415.23219 95.867188 416.88281 C 94.584874 415.94235 93.083939 414.81098 91.757812 413.75195 C 91.3055 413.39075 90.766416 413.01 90.1875 412.63086 z M 365.12109 418.81445 C 368.62244 429.40416 371.58228 437.7517 371.7832 437.55078 C 371.89921 437.43477 371.02449 434.37429 369.64258 429.88867 C 371.22905 434.7686 373.62439 442.1171 374.14258 443.72656 C 374.84033 445.89372 375.25317 447.51974 375.4375 448.75391 C 375.23798 447.55942 374.81044 446.00804 374.0918 443.98242 C 373.02211 440.9673 372.11233 439.00667 372.07227 439.625 C 372.05395 439.90689 372.19222 440.59132 372.41016 441.44336 C 370.66617 435.97502 368.22493 428.39339 365.4707 419.9082 C 365.34622 419.52471 365.24431 419.19523 365.12109 418.81445 z M 103.22461 422.49414 C 105.80013 424.99052 108 427.19967 108 427.35547 C 108 427.42859 108.33784 429.28852 108.52148 430.3418 C 108.05641 428.3583 106.01316 425.50035 103.22461 422.49414 z M 104.46484 425.08789 C 106.27542 427.26609 107.29391 429.25876 107.63281 431.2832 C 107.67285 431.52237 107.72012 431.71978 107.76367 431.94141 C 107.07438 429.58605 105.94449 427.25112 104.46484 425.08789 z M 108.69922 431.35352 C 108.86721 432.29891 108.87319 432.40367 109.08594 433.56641 C 109.25842 434.50912 109.46662 435.38644 109.70703 436.23438 C 109.619 436.18745 109.50066 436.51119 109.32227 437.1875 C 109.29449 437.29273 109.30338 437.44511 109.32812 437.61914 C 108.86437 436.36951 108.50262 435.1268 108.23633 433.8418 C 108.43433 434.41295 108.62293 434.71105 108.75391 434.58008 C 108.98323 434.35075 108.94184 432.96917 108.69922 431.35352 z M 109.82812 436.66992 C 110.68459 439.49059 111.99547 441.92429 114.10352 444.72852 C 115.18695 446.16974 116.03265 447.3737 116.75781 448.49805 C 116.12851 447.59211 115.4047 446.58574 114.52734 445.42383 C 112.06698 442.16546 109.98877 438.59999 109.91016 437.5 C 109.88424 437.13662 109.85703 436.87649 109.82812 436.66992 z M 356.18555 439.20898 C 365.12691 445.62766 371.96091 450.43661 372.87109 450.92969 C 372.85191 450.91958 372.8358 450.91272 372.81641 450.90234 C 371.96607 450.44726 365.13547 445.63585 356.18555 439.20898 z M 374.125 446.85742 C 374.61185 448.31867 375 449.55198 375 449.74219 C 375 449.74394 374.99806 449.74435 374.99805 449.74609 C 374.99711 449.67294 374.66455 448.58002 374.125 446.85742 z M 369.17969 447.19922 C 369.86449 447.64563 370.3697 447.94798 370.91992 448.28516 C 370.37016 447.94843 369.86408 447.64526 369.17969 447.19922 z M 269.27539 449.49023 C 269.28609 449.50381 269.29727 449.51671 269.30859 449.5293 C 269.29824 449.51505 269.28502 449.50574 269.27539 449.49023 z M 269.40234 449.625 C 269.58546 449.76532 269.8282 449.81005 270.13086 449.75 C 269.81668 449.82024 269.57587 449.7798 269.40234 449.625 z M 267.51367 450.87695 C 267.63456 451.16517 267.78766 451.37349 268.0625 451.44336 C 267.81733 451.39007 267.65317 451.24626 267.52148 451.0332 C 267.50858 451.01233 267.51347 450.93716 267.51367 450.87695 z M 269.43555 451.13086 C 269.40066 451.14659 269.36363 451.16515 269.33008 451.17969 C 269.36342 451.1654 269.40088 451.14634 269.43555 451.13086 z M 268.8457 451.35938 C 268.79327 451.37579 268.73966 451.39185 268.69141 451.4043 C 268.73946 451.39235 268.79341 451.37538 268.8457 451.35938 z M 268.39062 451.45703 C 268.32315 451.46365 268.25913 451.46612 268.20117 451.46289 C 268.25795 451.46747 268.32411 451.46253 268.39062 451.45703 z M 119.62695 455.85742 C 119.78549 457.08806 119.84141 458.50237 119.84961 460.13477 C 119.84712 459.57082 119.83485 458.98672 119.79492 458.38867 L 119.62695 455.85742 z M 260.72852 476.23633 C 261.68255 476.20944 262.82271 476.39651 264.00195 476.71484 C 264.36365 476.81248 264.7237 476.91441 265.08984 477.03906 C 264.72254 476.915 264.35918 476.8073 264.00195 476.71484 C 262.06779 476.21427 260.31348 476.18889 258.96289 476.63867 C 259.19078 476.52604 259.41932 476.43005 259.64648 476.37305 C 259.97011 476.29182 260.33313 476.24747 260.72852 476.23633 z M 121.9043 476.26953 C 122.41371 477.34932 123.00088 478.56447 123.73047 480.01953 C 123.72699 480.01321 123.72223 480.00631 123.71875 480 C 123.12475 478.92215 122.50465 477.6128 121.9043 476.26953 z M 265.35352 477.13867 C 266.01211 477.37399 266.66173 477.6459 267.29297 477.95508 C 266.63979 477.63483 265.99126 477.36584 265.35352 477.13867 z M 260.34961 477.23242 C 259.05172 477.70917 257.86523 478.8099 256.84961 480.53125 C 256.56183 481.019 256.29453 481.42281 256.03516 481.78711 C 256.3158 481.38693 256.59835 480.95564 256.86719 480.5 C 257.94658 478.67056 259.00775 477.59342 260.34961 477.23242 z M 267.43945 478.02539 C 267.71064 478.16126 267.96922 478.30371 268.22852 478.45117 C 267.96552 478.30494 267.70194 478.15677 267.43945 478.02539 z M 256.44141 479.14258 C 256.27299 479.62319 256.005 480.17163 255.68359 480.71289 C 255.779 480.50936 255.87373 480.30132 255.97266 480.0625 C 256.10531 479.74223 256.26785 479.43849 256.44141 479.14258 z M 305.95117 481.36719 C 306.46424 481.3634 306.91332 481.55428 307.39062 481.92188 C 306.9253 481.57496 306.35453 481.38733 305.81836 481.38086 C 305.86199 481.37797 305.9085 481.3675 305.95117 481.36719 z M 304.79297 481.63867 C 304.70011 481.69682 304.49862 481.76706 304.3457 481.83203 C 304.50168 481.75749 304.6506 481.69494 304.79297 481.63867 z M 255.93555 481.92578 C 255.83024 482.06917 255.7269 482.20255 255.625 482.32617 C 255.72976 482.1894 255.8292 482.07433 255.93555 481.92578 z M 292.2207 482.02734 C 293.9918 482.16406 295.59286 482.30954 296.60352 482.46094 C 298.46123 482.73923 300.02296 482.81603 301.30664 482.70703 C 300.56284 482.87116 299.78954 483.02624 299.00781 483.14844 C 295.16704 483.10078 290.26482 482.94488 285 482.66797 L 280.85156 482.44922 C 281.84854 482.4772 282.90023 482.5 284.06641 482.5 C 288.44351 482.5 291.6292 482.30046 292.2207 482.02734 z M 254.37305 482.48242 C 254.36981 482.48568 254.36652 482.49091 254.36328 482.49414 C 253.93594 482.92157 253.66855 483.30726 253.58008 483.58203 C 253.38039 483.58026 253.17862 483.55684 252.96875 483.49023 C 252.03158 483.19278 248.65202 483.80212 245.28906 484.83789 C 248.17922 483.92182 250.52637 483.03608 251.33008 482.58203 C 251.91491 482.53763 252.37828 482.5464 252.66406 482.62109 C 253.36613 482.80468 253.90189 482.77253 254.37305 482.48242 z M 125.13281 482.72266 C 126.56938 485.40159 127.6732 487.15095 127.79883 486.87109 C 127.82459 486.81372 127.79054 486.64715 127.73047 486.43359 C 128.0268 487.17763 128.24259 487.78218 128.33594 488.16016 C 128.86941 490.3195 132.3694 494.32962 135.7832 497.23828 C 133.03455 495.00714 130.20804 492.18885 129.0918 490.27148 C 128.53395 489.31326 128.19431 489.09435 128.08203 489.54297 C 128.0138 489.37516 127.93452 489.20246 127.88281 489.04102 C 127.43404 487.63983 126.33301 485.14064 125.13281 482.72266 z M 305.89648 483.02734 C 305.95474 483.02702 306.00235 483.03095 306.05859 483.03125 C 305.78901 483.03866 305.52063 483.03481 305.25 483.06055 C 304.82043 483.1014 304.18748 483.12723 303.4707 483.14648 C 304.51635 483.07238 305.2789 483.03078 305.89648 483.02734 z M 309.37109 483.38086 C 309.4233 483.38883 309.44589 483.3902 309.5 483.39844 C 310.91792 483.61424 312.52291 484.51719 313.71094 485.70117 C 312.59432 484.61837 311.07267 483.81691 309.37109 483.38086 z M 242.49023 485.72266 L 238.29492 487.07812 L 238.3125 487.04102 L 242.49023 485.72266 z M 313.77148 485.76367 C 314.03598 486.03282 314.28687 486.3106 314.5 486.60352 C 314.28451 486.30735 314.03815 486.02839 313.77148 485.76367 z M 316.89062 487.93359 C 317.22688 488.33755 317.50486 488.71293 317.69922 489.03516 C 317.50482 488.71293 317.22689 488.33755 316.89062 487.93359 z M 317.92578 489.47656 C 317.978 489.60856 318.00687 489.72321 318.00781 489.82031 C 318.00828 489.86698 318.0329 489.92995 318.08008 490.00586 C 318.0329 489.92995 318.00633 489.86699 318.00586 489.82031 C 318.00488 489.72321 317.97803 489.60856 317.92578 489.47656 z M 235.23828 491.53711 L 233.42969 495.25195 C 232.33162 497.50809 231.28745 499.88576 230.41406 502.02539 C 231.43724 499.46632 232.76879 496.44811 234.07617 493.84766 L 235.23828 491.53711 z M 325.18164 499.5332 C 325.25903 499.76333 325.36759 499.97821 325.52148 500.18945 C 325.59843 500.29508 325.68826 500.40101 325.78906 500.50586 C 325.78906 500.50586 325.78711 500.50586 325.78711 500.50586 C 325.68631 500.40101 325.59843 500.29508 325.52148 500.18945 C 325.36759 499.97821 325.25903 499.76333 325.18164 499.5332 z M 145.72461 503.11133 C 146.10855 503.44022 146.49405 503.80013 146.88086 504.18945 C 146.49434 503.80032 146.10842 503.4405 145.72461 503.11133 z M 229.91211 503.2832 C 229.79069 503.59416 229.69578 503.85776 229.58594 504.15039 C 229.68496 503.87551 229.79864 503.58227 229.91211 503.2832 z M 146.72656 505.71094 C 146.99461 506.02399 147.25478 506.34445 147.5 506.67578 C 147.71733 506.96943 147.94784 507.26016 148.18164 507.54883 C 147.91226 507.23213 147.67174 506.93061 147.46289 506.64648 C 147.22776 506.32659 146.97976 506.01473 146.72656 505.71094 z M 229.70312 506.78516 C 229.56002 507.26149 229.44207 507.69049 229.38477 508 C 229.07871 509.65255 228.16198 512.09883 227.21875 513.91992 C 228.01917 512.27011 228.81314 510.2598 229.16602 508.64648 C 229.2695 508.17336 229.46354 507.52057 229.70312 506.78516 z M 228.32031 508.12695 C 227.93113 510.07362 227.07561 512.42961 226.35742 513.47266 C 226.31429 513.5353 226.27846 513.60384 226.23633 513.66797 C 226.93623 512.02086 227.70856 509.97723 228.32031 508.12695 z M 150.92969 509.2168 C 151.13351 509.46412 151.35579 509.71268 151.5918 509.96094 C 151.35544 509.71235 151.13378 509.46444 150.92969 509.2168 z M 152.34375 510.70508 C 153.66763 511.94093 155.32832 513.14987 157.11523 514.20703 C 155.32878 513.15015 153.66746 511.94059 152.34375 510.70508 z M 226.24219 515.73633 C 225.29131 517.62428 225.01612 519.33254 225.37109 521.10742 C 225.41467 521.32531 225.44319 521.5086 225.47461 521.69922 C 225.44549 521.56186 225.4231 521.43868 225.38672 521.28711 C 225.0474 519.87343 224.74154 518.9248 224.50391 518.44141 C 224.64272 517.86988 224.81948 517.26851 225.02539 516.66211 C 225.12095 517.23273 225.61641 516.74759 226.24219 515.73633 z M 167.98242 518.08984 C 168.34029 518.19883 168.69152 518.32161 169.03906 518.45703 C 168.69169 518.32185 168.33972 518.19874 167.98242 518.08984 z M 348.36523 519.81641 C 350.49391 521.57097 352 522.95805 352 523.24023 C 352 523.65848 352.22485 524 352.5 524 C 352.80117 524 352.98004 523.9262 353.06055 523.79297 C 353.24426 524.11576 353.38951 524.41843 353.45508 524.67969 C 353.7671 525.92294 354.98567 527.85968 356.32031 529.31055 C 355.09753 528.05412 354.01174 526.68478 353.74414 526 C 353.26165 524.76462 353.14313 524.79643 353.07812 526.17773 C 353.07478 526.24886 353.09157 526.33089 353.10156 526.41016 C 352.89604 525.96766 352.74518 525.54833 352.66992 525.18359 C 352.39289 523.84106 350.9955 522.09675 348.36523 519.81641 z M 224.16016 520.58203 C 224.20548 520.99544 224.22158 521.35326 224.2168 521.67969 C 224.21255 521.51983 224.2043 521.35578 224.17969 521.18164 C 224.15573 521.01199 224.15209 520.80788 224.16016 520.58203 z M 172.85156 521.6875 C 173.60613 522.20622 174.3338 522.77904 175.04102 523.41797 C 175.21191 523.57236 175.38265 523.70431 175.55469 523.85352 C 175.1743 523.56118 174.8017 523.2621 174.44922 522.95703 C 173.93172 522.50914 173.39267 522.08656 172.85156 521.6875 z M 224.21484 521.89453 C 224.21048 521.97295 224.20349 522.05105 224.19531 522.125 C 224.20377 522.04945 224.21207 521.97332 224.21484 521.89453 z M 224.14062 522.45117 C 224.11551 522.56885 224.08121 522.68205 224.04297 522.78906 C 223.74954 523.61012 223.06791 524.15058 221.75781 524.78125 C 220.62676 525.3257 219.39599 526.27046 218.61914 527.14258 C 218.61914 527.14258 218.61914 527.14062 218.61914 527.14062 C 219.39599 526.26741 220.62676 525.32086 221.75781 524.77344 C 223.00685 524.1689 223.73178 523.56219 224.04297 522.78906 C 224.08642 522.68112 224.11301 522.56603 224.14062 522.45117 z M 176.98828 524.04297 C 179.74223 526.09958 181.88472 527 183.90039 527 C 184.70983 527 186.61223 528.06808 188.65625 529.59375 C 186.55183 528.03216 184.66686 527.04906 183.7168 527.08594 C 181.82851 527.15915 181.91658 527.29642 184.3125 528.01562 C 185.85935 528.47998 189.11068 530.69134 191.53906 532.92969 C 191.90365 533.26576 192.28046 533.56601 192.6543 533.87891 C 192.15216 533.47663 191.6472 533.07404 191.15039 532.63281 C 188.175 529.9902 184.80895 527.99917 182.62695 527.58984 C 182.04028 527.47978 181.32609 527.22663 180.55469 526.88477 C 180.74284 526.71296 180.35477 526.2955 179.5 525.81445 C 178.94282 525.50086 178.01993 524.84253 176.98828 524.04297 z M 355.33984 529.67969 C 355.41083 529.73964 355.47811 529.80417 355.55078 529.86133 C 355.962 530.1848 356.34597 530.59123 356.71484 531.03125 C 356.50437 530.81225 356.2841 530.59571 356.04297 530.38086 C 355.80582 530.16957 355.57124 529.92925 355.33984 529.67969 z M 216.83594 531.06836 C 214.84463 533.48832 213.0971 536.11738 212.54297 537.86328 C 212.52576 537.91749 212.49568 537.96415 212.47656 538.01758 C 212.50697 537.93197 212.54339 537.86246 212.57227 537.77148 C 213.11521 536.06084 214.85191 533.46688 216.83594 531.06836 z M 191 531.5 C 192.39336 532.73751 193.85538 533.86211 195.08984 534.67773 C 193.85538 533.86211 192.39336 532.73751 191 531.5 z M 359.48047 533.53125 C 359.55947 533.7237 359.64089 533.9131 359.71094 534.11719 C 359.93596 534.77283 360.1185 535.49155 360.26562 536.29883 C 360.11821 535.49515 359.93559 534.77391 359.71094 534.11719 C 359.64087 533.91236 359.5592 533.72434 359.48047 533.53125 z M 359.04492 535.36133 C 359.58817 536.95922 359.92113 538.70649 359.98828 540.4707 C 359.76973 539.53348 359.57658 538.58397 359.46484 537.69531 C 359.35554 536.82603 359.21927 536.05789 359.04492 535.36133 z M 197.81055 536 C 198.53001 536 199.65747 536.35491 200.64062 536.85742 C 200.96834 537.02492 201.28154 537.20771 201.55664 537.40039 C 201.69419 537.49674 201.85213 537.59378 202.02734 537.68945 C 201.85213 537.59378 201.69223 537.49869 201.55469 537.40234 C 201.27959 537.20965 200.96834 537.02493 200.64062 536.85742 C 199.65747 536.3549 198.53001 536 197.81055 536 z M 202.59961 537.97266 C 203.83272 538.52832 205.54512 539.00667 206.94141 539.15039 C 207.67841 539.2263 208.27295 539.26027 208.77539 539.22266 C 208.27258 539.26047 207.67927 539.22833 206.94141 539.15234 C 205.54512 539.00854 203.83272 538.52829 202.59961 537.97266 z M 201.64258 538.45312 C 201.8438 538.58958 202.09612 538.72353 202.35547 538.85742 C 202.08984 538.72975 201.8547 538.59496 201.64258 538.45312 z M 211.74219 539.36523 C 211.67063 539.45361 211.59757 539.51294 211.52344 539.58789 C 211.59997 539.51904 211.67322 539.44438 211.74219 539.36523 z M 211.35938 539.74219 C 211.12845 539.93873 210.89532 540.08635 210.68164 540.10547 C 210.66889 540.10661 210.65535 540.10631 210.64258 540.10742 C 210.90974 540.01255 211.15231 539.89686 211.35938 539.74219 z M 372.88086 567.45508 C 373.21094 567.95514 373.50139 568.42063 373.77148 568.87695 C 373.50103 568.42955 373.21399 567.96474 372.88086 567.45508 z M 374.02539 569.29688 C 374.0808 569.39428 374.12436 569.47686 374.17578 569.57031 C 374.11931 569.47114 374.0869 569.40185 374.02539 569.29688 z M 381.95117 589.94727 C 384.46256 594.20789 387.74473 597.93252 390.52344 599.00586 C 387.56942 597.84516 384.5421 594.60025 381.95117 589.94727 z M 400.36328 611.19727 C 401.8218 612.8152 403.26544 615.35666 404.29102 617.95703 C 403.23823 615.35134 401.75831 612.74476 400.36328 611.19727 z M 440.54102 619.32617 C 440.41683 619.33953 440.33072 620.85311 440.32812 623.5 C 440.3237 627.35017 440.50193 629.04669 440.72266 627.27148 C 440.943 625.49624 440.94704 622.34626 440.73047 620.27148 C 440.66283 619.62313 440.59746 619.3201 440.54102 619.32617 z M 424.78906 637.30078 C 425.0533 637.50585 425.30572 637.72927 425.54492 637.9707 C 425.30571 637.72927 425.0533 637.50585 424.78906 637.30078 z M 440.42969 649.79492 C 440.30003 649.86468 440.20712 650.46876 440.19531 651.5 L 440.19336 651.5 C 440.17299 653.14999 440.38028 653.94656 440.6543 653.26953 C 440.92907 652.5925 440.94697 651.2425 440.69336 650.26953 C 440.5983 649.90467 440.50748 649.75306 440.42969 649.79492 z M 430.7793 663.89844 C 431.26914 664.66306 431.62546 665.43445 431.88672 666.32227 C 431.57557 665.45413 431.20529 664.6314 430.7793 663.89844 z M 440.51758 666.60742 C 440.38775 666.6846 440.29883 667.92032 440.29883 670 C 440.29883 673.02517 440.48776 674.26249 440.7168 672.75 C 440.94584 671.23751 440.94584 668.76249 440.7168 667.25 C 440.6452 666.77735 440.57659 666.57234 440.51758 666.60742 z M 433.60156 675.38867 C 433.68846 676.79514 433.83218 678.08155 434.01172 679.08789 C 433.83199 678.08155 433.68835 676.79514 433.60156 675.38867 z "
         transform="matrix(0.26458333,0,0,0.26458333,177.8567,144.08452)" />
    </g>
  </g>
</svg>
