<?xml version="1.0" encoding="UTF-8" standalone="no"?>
<svg
   xmlns:dc="http://purl.org/dc/elements/1.1/"
   xmlns:cc="http://creativecommons.org/ns#"
   xmlns:rdf="http://www.w3.org/1999/02/22-rdf-syntax-ns#"
   xmlns:svg="http://www.w3.org/2000/svg"
   xmlns="http://www.w3.org/2000/svg"
   xmlns:sodipodi="http://sodipodi.sourceforge.net/DTD/sodipodi-0.dtd"
   xmlns:inkscape="http://www.inkscape.org/namespaces/inkscape"
   id="map"
   width="700"
   height="800"
   version="1.1"
   sodipodi:docname="map3-region-boundaries.svg"
   inkscape:version="1.0.1 (3bc2e813f5, 2020-09-07)">
  <metadata
     id="metadata1451">
    <rdf:RDF>
      <cc:Work
         rdf:about="">
        <dc:format>image/svg+xml</dc:format>
        <dc:type
           rdf:resource="http://purl.org/dc/dcmitype/StillImage" />
        <dc:title></dc:title>
      </cc:Work>
    </rdf:RDF>
  </metadata>
  <defs
     id="defs1449" />
  <sodipodi:namedview
     pagecolor="#ffffff"
     bordercolor="#666666"
     borderopacity="1"
     objecttolerance="10"
     gridtolerance="10"
     guidetolerance="10"
     inkscape:pageopacity="0"
     inkscape:pageshadow="2"
     inkscape:window-width="914"
     inkscape:window-height="1016"
     id="namedview1447"
     showgrid="false"
     inkscape:zoom="0.90028971"
     inkscape:cx="284.68147"
     inkscape:cy="380.47863"
     inkscape:window-x="964"
     inkscape:window-y="8"
     inkscape:window-maximized="0"
     inkscape:current-layer="Counties"
     inkscape:document-rotation="0" />
  <g
     id="Regions"
     transform="matrix(0.92389576,0,0,1.0016048,26.189916,-0.62569899)">
    <path
       id="Region1"
       style="fill:#ff0000;fill-opacity:0;stroke:#ff0000;stroke-width:15.71584809;stroke-miterlimit:4;stroke-dasharray:15.71584809,15.71584809;stroke-opacity:1;stroke-dashoffset:0"
       d="m 291.32701,80.071419 c -2.83527,2.458974 -5.3244,5.230376 -7.99802,7.835271 -5.20753,5.24372 -10.47817,10.43578 -15.55266,15.78922 -4.45615,4.61356 -9.35364,8.85337 -13.70541,13.55536 -0.4648,0.46273 -0.91246,0.99613 -1.42607,1.38326 -4.69888,0.13809 -9.38672,0.3176 -14.08269,0.48945 -0.76546,-0.059 -1.31661,0.12667 -2.03241,0.12285 -0.12904,0 -0.76542,0.0185 -1.07814,0.0312 -4.64991,0.13159 -9.46183,0.33943 -14.1829,0.53625 -1.66653,0.029 -3.31846,0.0611 -4.96639,0.24558 -1.25865,0.0839 -2.35568,0.0866 -3.65329,0.15742 -5.59796,0.27934 -11.20234,0.44886 -16.80408,0.63039 -2.29541,0.21066 -4.74738,0.10478 -7.11085,0.29845 -4.49732,0.11994 -9.01347,0.44403 -13.52738,0.45859 -2.62176,0.11025 -5.26947,0.24476 -7.80543,0.32548 -7.30405,0.32317 -14.63808,0.70325 -21.91662,0.85987 -4.53255,0.1876 -9.08474,0.36661 -13.64493,0.52836 -1.09663,0.0255 -2.36991,0.0641 -3.46329,0.0936 -1.33145,0.0312 -2.33805,0.0613 -3.65253,0.10183 -4.43565,0.14305 -8.87075,0.33591 -13.31086,0.39681 -4.8458,0.15443 -9.69461,0.3114 -14.543273,0.40442 -5.344445,0.18821 -10.484365,0.26045 -15.795884,0.50682 -2.971403,0.13655 -5.99458,0.263 -9.003569,0.40951 0.01021,1.8411 -0.0063,3.70181 -0.03527,5.5011 0.09658,4.25173 0.01971,8.49916 0.08812,12.75086 0.09775,9.16467 0.170719,18.48505 0.207173,27.71763 0.03023,9.24412 -0.03238,18.49815 0.05285,27.74414 0.0337,13.596 -0.005,27.194 0.05211,40.79469 -0.01422,5.30131 -0.0089,10.64516 0.01612,15.91056 0.04917,10.86518 0.157154,21.7682 0.09335,32.64939 0.04552,2.29587 0.01143,4.59654 -0.003,6.8952 9.914725,0.0229 19.828776,0.1746 29.742433,0.054 4.98399,-0.036 9.96838,-0.0637 14.95197,-0.0638 0.0137,2.45623 -0.0111,4.91263 -0.006,7.36903 6.47424,0.0899 12.94449,-0.0413 19.41929,-0.0175 0.228,-0.22301 0.90165,-0.0334 1.29801,-0.1092 3.13504,0.008 6.28949,-0.0449 9.40946,-0.0468 -0.24791,0.50776 0.10692,1.24655 0.0106,1.8603 -0.004,1.02637 -0.0208,2.05269 -0.0296,3.07904 4.9606,-0.0137 9.92244,-0.0239 14.85727,-0.12089 0.003,0.84422 0.002,1.68867 0.002,2.53304 6.9841,-0.21178 13.9691,-0.23188 20.95618,-0.25935 2.80129,-0.0423 5.60314,-0.0476 8.4053,-0.0741 -0.0229,6.32513 0.0106,12.64412 0.0782,18.96761 3.76359,0.44262 7.55595,0.60921 11.33109,0.94964 3.46995,0.24909 7.17473,0.60923 10.75416,0.86007 2.8406,0.20469 5.88011,0.44872 8.79515,0.68971 4.06683,0.28665 8.12692,0.68751 12.18389,1.05053 1.05126,0.10724 2.10528,0.19174 3.15642,0.29934 0.11285,0.44417 -0.55648,1.645 0.28063,1.38851 1.58388,-0.28834 3.18743,-0.33604 4.79674,-0.32092 4.06694,-0.0523 8.13494,-0.14026 12.20255,-0.19399 0.20947,-1.27531 0.62385,-2.531 0.76739,-3.80639 -0.18769,-3.64019 -0.37654,-7.2685 -0.50455,-10.87578 -0.0611,-1.69777 -0.14279,-3.15409 -0.13679,-4.85133 -0.0296,-3.79721 0.13285,-7.59189 0.0663,-11.38954 4.43925,0.01 8.88105,-0.046 13.31826,0.041 0.64076,-0.22257 1.0395,-0.76772 1.53689,-1.19145 0.11955,-0.39842 -0.22251,-1.21113 0.15432,-1.37865 4.28355,-0.0579 8.56646,-0.0152 12.84936,-0.004 3.7797,-0.0438 7.55835,-0.14108 11.34126,-0.13088 0.0995,0.63309 1.04631,0.13644 1.50729,0.0683 1.10727,-0.13534 2.24494,-0.0662 3.36423,-0.1092 4.55779,0.0313 9.11615,-0.0849 13.67257,-0.041 2.69539,-0.27655 5.41022,-0.16038 8.11864,-0.24602 0.7467,0.0119 1.49335,-0.009 2.24001,-0.0133 -0.0312,1.82141 -0.0423,3.65144 -0.0909,5.46584 -0.0511,0.10905 0.11656,0.64158 -0.30865,0.4992 -2.62067,0.0594 -5.13486,0.0684 -7.79263,0.15058 -1.54613,0.0281 -3.09186,0.0711 -4.63774,0.10878 0.0338,8.8184 -0.0588,17.6491 -0.0613,26.46339 -2.02342,0.27515 -4.04578,0.55719 -6.07355,0.80534 -0.365,0.32756 -1.67199,-0.0806 -1.47981,0.68211 -0.0401,3.4582 -0.42717,6.90667 -0.5543,10.3633 -0.0839,1.29202 -0.16836,2.584 -0.25325,3.87596 3.45859,0.28893 6.92162,0.5625 10.39458,0.64155 0.63341,-0.0735 1.4529,0.061 2.16264,0.0702 -0.21428,3.20873 -0.41438,6.41793 -0.61941,9.62713 6.1403,0.41021 12.30448,0.74252 18.37225,1.1338 1.70735,0.0632 3.38046,0.24443 5.06789,0.2975 1.05401,0.0569 2.32951,0.14317 3.47333,0.20474 1.30265,0.0887 2.52846,0.14014 3.87075,0.23401 1.67428,0.0956 3.36185,0.23327 5.09958,0.30794 1.66278,0.0918 3.31993,0.2201 4.9906,0.33361 0.29239,-5.42169 0.68144,-10.78823 0.92908,-16.21935 0.12796,-2.50179 0.27385,-5.05088 0.37671,-7.57348 0.23976,-3.66312 0.43133,-7.30006 0.72153,-10.92099 -0.45386,0.0233 -1.84225,0.48284 -1.34832,-0.1585 5.75044,-0.0212 11.50324,-0.0482 17.25076,-0.15311 5.11916,-0.0161 10.24114,-0.0403 15.35885,-0.0479 6.04283,-0.86564 12.10352,-1.73412 18.11565,-2.65329 1.25425,-0.20031 2.51264,-0.39314 3.77351,-0.5928 -0.0288,-5.53233 -0.0722,-11.06202 -0.074,-16.59447 1.6889,0.0696 3.29993,-0.0818 4.99454,-0.0614 1.24867,0.0139 2.53412,-0.0573 3.7517,0.007 1.14143,-0.10401 2.30792,-0.0374 3.45794,-0.0836 -0.0129,-3.29879 -0.0162,-6.59742 -0.0296,-9.89622 0.14533,-0.54033 -0.01,-1.35192 0.0201,-1.99631 -0.063,-4.51422 -0.0811,-9.03174 -0.1382,-13.54421 0.16602,-3.87961 0.22457,-7.78199 0.26824,-11.68338 0.0288,-1.14662 0.0675,-2.48902 -0.13654,-3.69592 -0.35459,-1.71938 -0.17997,-3.39409 -0.27695,-5.11292 0.0324,-1.43524 0.0853,-2.86976 -10e-4,-4.307 -0.0868,-2.96843 -0.12027,-5.93794 -0.13271,-8.9074 -1.88722,-0.0175 -3.7741,-0.0528 -5.66132,-0.0605 0.0895,-4.05612 0.1936,-8.11169 0.26848,-12.16797 -5.62924,-0.20441 -11.26683,-0.16501 -16.89457,-0.40743 -1.4922,-0.0414 -2.98538,-0.0332 -4.47807,-0.0489 -0.0815,-2.36486 -0.0369,-4.7435 -0.20506,-7.09993 -0.21436,-1.40477 -0.32305,-2.60597 -0.28943,-4.02556 -0.0484,-2.70493 -0.0117,-5.41577 -0.11434,-8.11707 -0.28831,-1.14313 -0.38448,-2.30072 -0.32134,-3.47098 0.0393,-2.51879 -0.12257,-5.0454 0.26929,-7.54801 0.0641,-1.85972 -0.052,-3.73395 -0.0642,-5.60472 -0.0469,-0.98477 -0.0576,-2.06806 -0.0795,-2.95099 -0.0475,-1.15526 -0.0937,-2.38522 -0.12586,-3.44373 -0.0186,-2.25223 -0.18758,-4.50576 -0.15903,-6.75017 0.18803,-2.19548 -0.2885,-4.39156 -0.15355,-6.59296 -0.0753,-0.97853 -0.0467,-1.95997 -0.0507,-2.94059 -0.23372,-0.2078 -0.0807,-0.77146 -0.15852,-1.12764 -0.0538,-1.0785 -0.0312,-2.41189 -0.0325,-3.59447 0.0304,-15.86725 0.003,-31.75286 0.003,-47.63138 -3.09777,1.95867 -6.17113,3.95045 -9.29953,5.86754 -10.87063,-0.0279 -21.74364,-0.0508 -32.61284,0.0341 -1.9407,0.32178 -3.77448,-0.55765 -5.23865,-1.65103 -2.7501,-1.90841 -5.54973,-3.7563 -8.31702,-5.64258 -1.05463,-0.67216 -2.04102,-1.32692 -3.01591,-1.97306 -11.6492,-7.46852 -23.22746,-15.02577 -34.88554,-22.476338 -1.60109,-5.045305 -3.40198,-10.036236 -5.08165,-15.060151 -0.4433,-1.300559 -0.88677,-2.601071 -1.33014,-3.901607 -0.83927,0.742299 -1.67853,1.484597 -2.51779,2.226895 z" />
    <path
       id="Region2"
       style="fill:#ffff00;fill-opacity:0;stroke:#ffff00;stroke-width:15.71584809;stroke-miterlimit:4;stroke-dasharray:15.71584809,15.71584809;stroke-opacity:1;stroke-dashoffset:0"
       d="m 627.00223,15.548014 c -5.04075,1.025601 -10.08276,2.048552 -15.09638,3.180957 -5.11849,1.075726 -10.25898,2.058785 -15.36208,3.196648 -10.14743,2.045874 -20.22016,4.261646 -30.33601,6.404187 -0.98947,0.27967 -2.03043,0.208837 -3.015,0.521232 -0.82881,0.164783 -1.69155,0.06587 -2.50577,0.352284 -5.30666,1.141363 -10.60503,2.297009 -15.95661,3.250325 -4.153,0.749239 -8.27146,1.646236 -12.39987,2.500723 -10.68936,7.122236 -21.34358,14.2917 -32.16985,21.236197 -4.37526,3.057835 -8.77557,6.085389 -13.16087,9.131085 -0.28125,-0.09584 -1.03108,0.657314 -1.48791,0.879591 -3.10962,2.086695 -6.21901,4.173699 -9.32948,6.259343 -0.98652,0.03906 -2.02393,-0.07666 -2.97985,0.05545 -10.32837,6.364365 -20.52347,12.902762 -30.79498,19.339438 -5.74792,3.632121 -11.45618,7.317171 -17.22127,10.926836 -11.28176,7.14481 -22.59441,14.24906 -33.90334,21.3573 -0.6549,0.41745 -1.30994,0.83472 -1.96523,1.25166 0.0113,16.00685 0.001,31.99771 0.004,47.99523 0.0236,2.13633 0.2892,4.26177 0.23043,6.40574 0.0505,1.67296 0.33385,3.40735 0.12261,5.10314 0.11435,3.61978 0.22228,7.21917 0.33402,10.82715 0.0473,1.4072 0.08,2.72539 0.10781,4.13126 -0.0206,1.07306 0.11848,2.30496 0,3.43785 -0.41697,2.85153 -0.17348,5.73126 -0.25447,8.59869 -0.11985,1.40051 0.51469,2.74122 0.37691,4.14529 0.0575,2.95636 6.6e-4,5.91965 0.12913,8.87172 0.26646,1.6355 0.35451,3.28172 0.34793,4.93457 0.0538,2.24478 0.0889,4.40245 0.15449,6.58495 0.0163,0.6165 -0.18192,1.43602 0.79008,1.14765 4.06506,-0.0197 8.13127,0.0238 12.19065,0.1989 2.75111,0.0468 5.5019,0.0973 8.2531,0.1443 -0.0717,4.09234 -0.24014,8.1836 -0.1966,12.27717 1.9006,-0.004 3.80099,0.006 5.70148,0.0156 -2.8e-4,2.63903 0.1754,5.27966 0.12663,7.91623 -0.0578,2.51452 0.0952,5.03316 0.0465,7.55074 0.40232,-0.01 0.37317,0.46772 0.36592,0.82329 -0.0515,2.88426 -0.0448,5.76822 -0.13741,8.65213 -0.002,0.19135 -0.0598,0.73521 -0.0254,1.0335 -0.0883,2.2726 -0.16981,4.54949 -0.0951,6.86788 0.0958,7.46993 0.0864,14.94057 0.11628,22.41132 0.6948,-0.008 1.3896,-0.0156 2.08441,-0.0234 0.28853,0.27543 1.26808,0.003 1.81611,0.0732 1.93912,-0.0535 3.87497,-0.0512 5.75838,-0.1005 3.5281,-0.04 7.05099,0.0947 10.57851,0.0877 1.80407,0.0642 3.53674,-0.0384 5.28754,0.0785 2.30169,0.0379 4.67901,0.16073 7.0308,0.17111 0.29256,-0.23751 1.00066,-0.0369 1.43617,-0.12475 5.416,-0.0724 10.84126,-0.0662 16.2581,-0.13655 2.60673,-0.076 5.28367,0.0119 7.91908,-0.006 1.07762,0.0239 2.15447,-0.0719 3.23232,-0.0488 -0.004,0.64499 0.038,1.28957 0.0507,1.93439 -0.7977,0.11955 -1.59537,0.2392 -2.39306,0.3588 -0.1018,1.46575 -0.18723,2.93181 -0.15009,4.40114 0.79754,-0.14244 0.94327,0.24722 0.79698,0.8814 -0.0598,2.15866 -0.19996,4.40712 -0.23889,6.53443 -0.10178,3.19543 -0.1722,6.49776 -0.24099,9.77533 -0.005,1.60395 -0.15584,3.20798 -0.13324,4.8126 -0.13112,1.77578 -0.0855,3.60236 -0.16485,5.34883 -0.92383,0.0185 -1.80889,-0.10404 -2.74398,-0.0799 -0.75963,-0.0826 -1.51927,-0.1651 -2.2789,-0.24765 -0.0749,1.16912 -0.16595,2.38928 -0.18815,3.48269 -0.0634,3.58047 -0.26095,7.17091 -0.33945,10.78211 -0.0437,0.78346 -0.009,1.56879 -0.0199,2.35306 1.9858,0.17427 3.98515,0.14799 5.96785,0.28471 2.11562,0.0584 4.23593,0.14318 6.3526,0.23984 -0.0935,2.32119 -0.16666,4.63627 -0.18392,6.95953 -0.0881,2.56703 -0.12998,5.32416 -0.27915,7.96777 -0.1197,3.31547 -0.22417,6.65269 -0.38465,9.98585 3.99356,-0.049 7.95454,0.25704 11.93359,0.29834 1.87266,0.0897 3.57401,0.11755 5.47952,0.17746 2.75281,0.14989 5.51519,0.176 8.27184,0.31244 2.68326,0.0969 5.28407,0.1741 7.99969,0.2589 2.51983,0.0669 4.91865,0.15797 7.44978,0.23986 0.0974,-3.26808 0.13285,-6.53451 0.25578,-9.80069 0.0663,-1.73232 0.0911,-3.65329 0.1649,-5.45219 2.56708,0.0286 5.12485,0.13791 7.69289,0.0975 0.0281,-2.56119 0.11423,-5.00053 0.20294,-7.49773 0.0722,-2.92509 0.21225,-5.79117 0.29232,-8.73283 0.0904,-1.86437 0.12668,-3.84147 0.1939,-5.73029 2.47889,0.13748 4.95814,0.24575 7.44132,0.33344 -0.16346,-0.60861 0.67983,-0.25816 1.06969,-0.3159 1.66844,0.067 3.46965,0.10861 5.20038,0.17378 1.30026,0.055 2.60209,0.0821 3.90255,0.12068 -0.079,0.66876 1.13326,0.20359 1.61821,0.37711 3.17639,0.10005 6.18815,0.27509 9.34118,0.33617 4.0463,0.14461 8.09015,0.37582 12.14039,0.40601 1.85989,0.0445 3.8462,0.12446 5.73954,0.18135 0.41695,0.25531 1.49188,0.0767 1.36566,0.6903 -0.0162,0.91286 -0.0409,1.90777 -0.0613,2.75925 -0.83882,-0.20573 -0.38351,0.92832 -0.5866,1.38073 -0.15512,1.47298 -0.25,2.95024 -0.3626,4.42636 0.41409,-0.083 0.0801,0.75025 0.14799,1.11734 -0.12442,3.77421 -0.30404,7.54559 -0.43338,11.31777 -0.0237,0.4776 -0.0436,0.85236 -0.0698,1.404 -0.0736,1.58752 -0.13616,3.47231 -0.21986,4.87109 -0.0602,1.17202 -0.0992,2.38617 -0.13741,3.48074 -0.0496,1.26059 -0.0593,2.57559 -0.12473,3.75179 -0.0445,1.13545 -0.10399,2.55956 -0.16391,3.81478 -0.0293,0.52162 -0.0391,1.05156 -0.0707,1.56722 -2.57034,-0.10173 -5.09324,-0.28128 -7.61986,-0.36199 -2.35649,-0.0858 -4.66022,-0.22156 -7.01754,-0.30491 -3.55072,-0.17807 -7.09598,-0.36626 -10.64404,-0.54601 0.34893,-0.90549 -0.6508,-0.61206 -1.27559,-0.65194 -2.8642,0.0133 -5.65323,9.7e-4 -8.49959,-0.10075 -2.49246,-0.052 -4.93634,-0.1197 -7.37893,-0.18906 -0.57821,0.0526 -1.4598,-0.19478 -1.86055,0.0334 -0.23447,7.41277 -0.44566,14.82113 -0.64564,22.23936 -0.0154,1.30472 -0.0799,2.80419 -0.12014,4.15187 -0.13391,3.33484 -0.18385,6.67111 -0.309,10.00509 -0.0222,1.41483 -0.0835,2.98639 -0.14164,4.4655 -0.0601,1.57829 -0.0356,3.24482 -0.26002,4.87109 0.20557,1.05811 -0.0278,2.22599 0.006,3.32635 -0.0579,2.08052 -0.0956,4.16146 -0.13885,6.24227 4.74946,0.10748 9.48868,0.27896 14.26323,0.43485 0.84955,0.18074 1.97007,0.2791 2.86132,0.31276 1.16801,0.04 2.62788,0.11482 3.60543,0.14549 1.63942,0.0813 3.38967,0.14033 4.85216,0.23116 0.94711,0.048 1.8937,0.10482 2.84072,0.15494 0.005,0.61363 1.2009,0.21178 1.72257,0.38488 0.95088,0.10763 1.95341,-0.0317 2.8585,0.29567 0.75043,-0.29063 1.56464,0.0276 2.37928,-0.0193 2.50897,0.13153 5.01449,0.33343 7.52486,0.48337 0.71095,0.0437 1.79046,0.11478 2.64961,0.17188 3.07862,0.21811 6.19664,0.31711 9.30088,0.44432 0.65534,-0.0582 1.43823,0.21095 2.00467,-0.0728 0.45653,-0.4182 0.92206,-0.8004 1.54899,-0.95097 0.63426,-0.36802 1.27034,-0.68565 1.93643,-1.02375 0.43883,-0.66135 1.22679,-1.15505 1.45668,-1.95869 0.44726,-0.98973 0.30509,-2.07462 -0.013,-3.07376 -0.19605,-1.02167 -0.67637,-1.94255 -1.40986,-2.70904 -0.3809,-0.51606 -0.65164,-1.13441 -0.79488,-1.73939 0.69265,0.15673 1.11642,0.8311 1.75675,1.1271 1.33994,0.76226 3.37765,0.89198 4.42087,-0.37066 0.91795,-1.13462 0.9737,-2.65671 0.53809,-3.97314 -0.32879,-0.50502 -0.57596,-1.10967 -0.58021,-1.73132 -0.0719,-0.73296 -0.3405,-1.48836 -0.2362,-2.21644 0.74011,0.0854 1.30383,0.0179 1.05368,-0.80634 -0.0106,-0.42513 0.63329,-0.54867 0.84138,-0.90362 0.50032,-0.48349 1.26544,-0.93693 1.18173,-1.70235 -0.0447,-0.71563 0.0984,-1.41187 0.21986,-2.12355 -0.0442,-0.74725 -0.15961,-1.48656 -0.21352,-2.2347 -0.18091,-0.63074 -0.24613,-1.28682 -0.25579,-1.94024 0.0849,-0.5396 0.34894,-0.99077 0.40145,-1.5557 0.25621,-0.67484 0.079,-1.4631 0.51675,-2.08378 0.46578,-0.92724 0.52402,-1.96022 0.53413,-2.96515 -0.0465,-0.43938 0.0794,-0.87998 -0.19238,-1.27725 0.0322,-0.83283 -0.15201,-1.59628 -0.62998,-2.30099 -0.1082,-0.40413 -0.15465,-0.94753 -0.0397,-1.33225 0.10865,-0.54537 0.68445,-0.96191 1.15382,-1.30806 0.90536,-0.57885 1.77593,-1.23262 2.32671,-2.13085 0.31035,-0.85913 0.37773,-1.78227 0.48704,-2.69538 -0.0239,-0.50927 -0.008,-0.97536 -0.21564,-1.4235 -0.23038,-0.79134 -0.33338,-1.59928 -0.21139,-2.41994 -0.0246,-0.66033 0.35787,-1.25137 0.42914,-1.90125 0.47965,-0.39827 1.05073,-0.77708 0.45028,-1.28114 0.20304,-0.74634 0.74509,-1.35154 1.02953,-2.04555 0.41924,-0.55982 0.65599,-1.19984 0.93862,-1.81545 0.71769,-0.53404 1.3101,-1.26616 1.83004,-1.97139 0.57037,-1.03334 0.93325,-2.13608 1.04712,-3.29164 0.30909,-0.59864 0.20176,-1.31036 0.34459,-1.97925 -0.10407,-0.55204 0.22345,-1.11073 0.30818,-1.65794 0.56507,-0.80949 0.6189,-1.97952 1.66612,-2.43247 0.94728,-0.66321 1.99226,-1.24593 2.85183,-1.98796 0.6375,-0.69618 0.91959,-1.5419 1.17343,-2.40606 0.22429,-0.75482 0.0296,-1.30215 0.0402,-2.03579 -0.13137,-1.06671 0.53509,-1.97934 1.01472,-2.89185 0.31918,-0.36469 0.73799,-0.71646 0.74837,-1.29285 0.14531,-0.98703 0.60319,-1.95326 0.31287,-2.95619 -0.21339,-1.25793 -0.78906,-2.3988 -1.33817,-3.55289 -0.47328,-0.88654 -0.0249,-1.81707 0.26425,-2.68514 0.0678,-0.92426 0.37156,-1.84719 -0.0592,-2.74365 -0.13938,-0.56775 -0.33957,-1.10825 -0.86463,-1.4703 -0.24474,-0.27346 -0.49991,-0.5391 -0.79275,-0.77024 0.40365,-0.60578 0.97669,-1.16103 1.27897,-1.79634 0.0115,-0.90172 -0.10195,-1.75772 10e-4,-2.65609 0.0952,-1.05176 -0.14769,-2.11541 0.0454,-3.14866 0.24249,-0.74943 0.94807,-1.32259 0.98514,-2.12355 0.68097,-1.17649 1.16797,-2.47765 1.20709,-3.80834 0.1709,-1.22016 -0.38022,-2.42399 -0.92462,-3.49834 -0.55824,-0.66668 -1.52441,-1.09499 -1.54665,-2.04745 -0.0905,-0.61658 -0.57745,-1.09641 -0.76041,-1.64863 -0.30308,-0.99505 -0.21098,-2.08349 -0.6581,-3.05671 -0.18503,-1.01139 -0.32099,-2.14576 -1.25784,-2.82554 -0.53801,-0.45292 -0.86563,-1.07362 -1.24023,-1.64124 -0.81609,-1.24802 -1.40988,-2.70908 -2.69605,-3.61985 -0.30054,-0.35485 -0.47809,-0.80109 -0.15221,-1.19729 0.58594,-0.51171 1.38608,-0.83057 1.78211,-1.50735 0.78783,-0.68512 1.01147,-1.71053 1.77366,-2.42384 0.20222,-0.50049 0.99695,-0.24905 1.41004,-0.54991 0.49152,-0.25238 1.20202,-0.59296 1.56015,-0.002 0.86657,1.24751 2.76189,1.67849 4.18557,1.02999 0.75191,-0.25072 1.3753,-0.78723 1.89009,-1.35759 0.48305,-0.88324 1.6112,-1.03378 2.43534,-1.54634 0.61688,-0.0781 0.87056,-0.58228 1.45787,-0.56666 1.03656,-0.16482 1.74772,-0.88325 2.55663,-1.43404 -0.008,-7.87896 0.0339,-15.76288 -0.038,-23.63668 0.0108,-4.45618 -0.0185,-8.99552 -0.004,-13.39374 0.0641,-1.70625 0.12825,-3.41249 0.19237,-5.11874 -0.35663,0.45254 -0.12441,-0.40453 -0.19026,-0.58695 0.006,-2.55741 -0.0552,-5.11642 0.002,-7.67128 0.005,-6.10397 -0.006,-12.21211 0.004,-18.31069 -0.0118,-3.14675 0.0177,-6.29642 -0.0109,-9.4436 -0.0336,-1.80028 0.0199,-3.77046 0.004,-5.64173 -0.0195,-4.77228 0.009,-9.55276 0,-14.31647 0.0557,-2.20782 -0.0438,-4.41771 -0.006,-6.62999 0.10203,-1.2113 0.009,-2.47509 0.0167,-3.70171 -0.0392,-4.45437 -0.0191,-8.92402 -0.0259,-13.38415 -0.0285,-6.1221 0.0526,-12.24704 -0.007,-18.38104 -0.0245,-4.36821 -0.004,-8.79422 -9.8e-4,-13.18549 -0.0684,-7.836 -6.6e-4,-15.67473 -0.0338,-23.51109 0.41118,-0.38276 -0.16153,-1.00501 0.002,-1.51125 -0.004,-12.02106 0.0167,-24.04768 -0.002,-36.051909 0.0539,-15.496538 -0.0765,-30.996705 -0.0281,-46.500766 0.0431,-11.101479 -0.052,-22.202808 -0.029,-33.304366 -0.87379,0.17485 -1.74758,0.349699 -2.62137,0.52455 z M 605.02498,395.26482 c 9.2e-4,0.0125 -0.0107,-0.0323 0,0 z m 0.002,0.008 c 0.004,0.0112 -0.006,-0.008 0,0 z" />
    <path
       id="Region4"
       style="fill:#00ff00;fill-opacity:0;stroke:#00ff00;stroke-width:15.71584809;stroke-miterlimit:4;stroke-dasharray:15.71584809, 15.71584808999999971;stroke-opacity:1;stroke-dashoffset:0"
       d="m 284.23028,390.64917 c -0.8108,0.055 -1.2054,0.39863 -0.9953,1.16181 0.004,1.54873 0.0199,3.09673 -0.005,4.64529 -3.31866,-0.11719 -6.78626,-0.11921 -10.13879,-0.25936 -4.1486,-0.13866 -8.53007,-0.1699 -12.7796,-0.21051 -6.14287,-0.11685 -12.2895,-0.14857 -18.43122,-0.2402 -0.51577,0.15145 -1.69963,-0.35944 -1.59779,0.40432 -0.31291,3.98649 -0.62533,7.97466 -1.08172,11.94847 -0.252,2.86258 -0.55414,5.72164 -0.85131,8.58068 0.89126,-0.19672 0.27722,0.63128 0.24522,1.05884 -0.59893,2.01393 -1.14471,4.22951 -1.64324,6.33908 -0.60472,2.54167 -1.11742,5.12225 -2.06633,7.57567 -0.57991,1.31737 -0.75669,2.7551 -1.15385,4.12922 -0.87154,3.8506 -1.91615,7.66935 -2.64982,11.54695 -0.51269,1.96547 -0.83921,3.96877 -1.35926,5.9341 -2.53391,-0.23572 -5.06741,-0.47306 -7.60198,-0.7059 -0.32864,1.3867 -0.81458,2.75983 -0.71178,4.19653 -0.56456,7.00314 -1.03883,13.93809 -1.66335,20.93595 -0.19798,3.0653 -0.44903,6.06531 -0.68547,9.12809 -0.0916,0.95449 -0.16893,1.92558 -0.2183,2.78766 -0.12514,1.42504 -0.20073,2.85343 -0.30435,4.27998 4.04941,0.3923 8.08531,0.58636 12.11751,0.9672 -0.24375,3.61636 -0.58286,7.34507 -0.78434,11.03764 -0.31746,4.61951 -0.54913,9.27407 -0.93223,13.86966 -4.10259,3.05598 -8.08268,6.15132 -12.11627,9.30217 -3.95224,3.15273 -7.97211,6.21796 -11.95385,9.33978 -0.67164,0.23326 -1.24104,0.52395 -0.9957,1.27257 -0.14904,0.45042 -0.24641,0.92481 -0.60549,1.33361 -0.16427,0.51194 -0.43311,1.00852 -0.59316,1.52782 -0.44765,-0.005 -0.97868,1.34593 -0.90037,0.68164 0.0345,-0.70168 0.0674,-1.40343 0.10127,-2.10514 -6.15207,-0.39272 -12.29808,-0.85203 -18.44473,-1.2675 -0.68851,-0.0529 -1.71081,-0.11853 -2.51783,-0.17614 -1.26083,-0.13856 -2.52897,-0.13612 -3.79672,-0.12415 -0.29957,3.483 -0.45574,6.9739 -0.59246,10.46397 -0.30949,3.97573 -0.73027,7.97122 -1.09452,11.92197 -0.42795,3.02554 -0.60428,6.13203 -1.02503,9.17661 -0.2502,2.39867 -0.51425,4.74672 -0.75709,7.14486 -0.17139,1.70811 -0.37793,3.6216 -0.59402,5.41318 -0.19443,0.46171 -0.0553,1.0662 -0.18654,1.58493 -0.30662,3.03453 -0.51865,6.05427 -0.9191,9.06439 -0.38711,3.62336 -0.61938,7.28622 -1.0422,10.93909 -0.11928,1.04666 -0.24932,2.23726 -0.34459,3.20189 -0.33474,3.16202 -0.65081,6.34652 -0.96398,9.49063 -0.0583,0.53662 -0.10815,1.09694 -0.16067,1.63799 -0.1396,1.59364 -0.34659,3.12577 -0.55598,4.73264 0.9899,-0.12675 1.98703,-0.49525 2.97229,-0.46605 1.26579,0.24667 2.47891,-0.4326 3.69364,-0.67233 0.87576,-0.22114 1.67751,-0.64345 2.51732,-0.93251 1.05908,-0.19304 2.09265,-0.47948 3.02515,-0.975 0.87065,-0.23362 1.79173,-0.12529 2.66789,0.0136 0.68853,0.13749 1.16331,0.69187 1.64617,1.1142 0.38962,1.07193 1.7232,1.30796 2.75942,1.60214 0.86396,0.0335 1.70326,0.18184 2.53892,0.3939 0.68794,0.1694 1.40566,0.23182 2.04893,0.5019 0.37172,0.22545 1.14535,0.19104 1.38212,0.3717 0.68042,0.29897 1.2377,0.80029 1.62356,1.38255 0.72439,1.59198 0.33056,3.51873 1.53537,4.93062 0.56502,0.85564 1.61893,1.20694 2.35018,1.90411 0.96095,0.58744 2.10986,0.83106 3.2154,1.0335 0.44766,0.25346 1.26936,0.23538 1.30646,0.86775 0.63662,1.99696 0.58201,4.16422 1.53995,6.07524 0.59416,1.12751 1.81882,1.90245 3.14346,2.11019 1.39247,0.44418 2.85427,0.66385 4.32228,0.7358 0.51107,0.39674 1.02652,0.85425 1.67852,0.99059 0.65986,0.15868 1.21997,0.4593 1.7922,0.80278 1.20992,0.64091 2.4932,1.14411 3.77923,1.58312 1.62524,0.21955 3.34649,-0.31396 4.58325,-1.29562 1.02178,-0.9868 1.33572,-2.35212 1.67955,-3.62137 0.15533,-0.7172 0.32567,-1.44575 0.3319,-2.16644 0.0927,-0.71115 0.16718,-1.52413 0.88785,-1.95192 0.42144,-0.24974 0.83524,-0.66608 1.36568,-0.41342 0.83923,0.17713 1.57781,-0.28635 2.17109,-0.77415 0.51364,-0.28254 1.1691,-0.23364 1.71235,-0.4836 0.83151,-0.13079 1.71158,-0.43791 2.40998,-0.79365 1.5488,-0.4912 3.13682,-1.27893 4.81782,-0.99255 1.38645,0.39214 2.5246,1.30292 3.45641,2.30295 0.31295,0.34348 0.7198,0.904 1.09083,1.27334 0.76399,0.7939 1.93779,0.98014 3.00824,1.19925 1.18056,0.69194 2.61735,0.73398 3.97644,0.75074 0.42961,0.42532 1.12166,0.26694 1.67219,0.4602 0.79161,-0.0464 1.60017,0.0737 2.36769,0.3003 0.99006,0.0882 1.9445,0.33563 2.86025,0.6903 0.81529,0.26905 1.34578,0.97343 2.13727,1.287 0.60413,0.42646 1.26703,0.77018 1.81594,1.26555 0.38057,0.23484 0.64259,0.58814 0.53484,1.0335 0.42693,0.0625 0.45226,0.66639 0.4524,0.78195 0.0176,1.38949 0.23111,2.88865 1.33741,3.9262 1.03464,1.37163 2.88077,2.34109 4.71499,2.16948 1.06574,-0.15033 1.93983,-0.78597 2.56853,-1.56975 0.72863,-0.83538 1.43558,-1.6852 2.22605,-2.47649 0.0287,-0.57043 0.90205,-0.40146 1.24134,-0.81784 0.29587,-0.38587 0.64957,-0.44514 1.08824,-0.19153 1.38539,0.8397 2.8674,1.88257 4.6342,1.74817 1.23627,-0.0275 2.42084,-0.35382 3.62742,-0.5243 1.21894,0.002 2.5053,0.0926 3.58553,-0.53453 0.40979,-0.32597 0.95243,-0.42581 1.41077,-0.63917 1.47446,-1.29792 2.46157,-2.99883 3.01157,-4.79524 0.20686,-0.82053 0.35218,-1.65554 0.65992,-2.44141 0.43018,-0.62786 0.93458,-1.36497 1.83137,-1.39854 1.16708,-0.20167 2.23247,-0.64995 3.21019,-1.26514 0.91457,-0.40568 1.86289,-0.82409 2.49664,-1.57949 0.93451,-0.48148 1.23236,-1.48093 1.8688,-2.2074 0.66047,-0.79181 0.83364,-1.80466 1.32336,-2.6754 0.17522,-0.48152 0.75526,-0.18879 1.15002,-0.47385 0.62864,-0.18697 1.22412,-0.0636 1.87301,0.0254 0.84283,0.32651 1.76003,0.52686 2.67846,0.44656 0.50118,0.23008 1.1883,-0.31684 1.76829,-0.41181 1.06251,-0.63258 1.8757,-1.63685 3.0136,-2.21874 1.05608,-0.85044 2.39344,-1.32205 3.69529,-1.73939 0.62262,-0.16251 1.26754,-0.20682 1.85821,-0.46996 0.34156,-0.0198 0.60522,0.36796 0.94919,0.45046 0.4692,1.2107 0.45313,2.49111 0.10147,3.73814 -0.14569,0.72606 -0.31493,1.57934 -0.43125,2.19959 -0.26053,1.35184 -0.47489,2.75843 0.0846,4.07355 0.53336,1.08235 1.57444,1.93647 1.85205,3.14253 0.32201,0.88543 0.42987,1.81529 0.35497,2.73085 0.32698,1.01504 -0.14399,2.07949 0.19238,3.09075 0.0608,1.69861 0.39876,3.44993 1.09083,5.05243 0.3089,1.40409 1.29709,2.62312 2.44168,3.56264 -1.02901,0.27151 -0.75418,0.56674 0.0968,0.87247 1.17132,0.63018 2.43968,1.12263 3.48643,1.91798 1.31644,0.69895 2.6763,1.53336 4.25973,1.55805 0.86909,0.14106 1.74161,-0.0601 2.58543,-0.16771 1.20917,0.0885 2.39261,0.18882 3.64678,0.25186 0.54883,-0.12161 0.76486,0.59211 1.30635,0.68414 0.65602,0.60075 1.57638,0.89316 2.28736,1.4274 0.31532,0.45234 0.78684,0.78977 0.93439,1.3338 0.67752,1.3182 1.28392,2.70274 2.33809,3.80249 0.3319,0.46948 0.74164,0.8909 1.00839,1.404 0.68353,0.87326 1.42139,1.73177 2.37826,2.37704 0.92711,0.77359 2.02143,1.33036 3.15622,1.7979 0.73524,0.32133 1.24482,0.88958 1.41849,1.62434 0.2925,0.96822 0.26239,1.99767 0.45664,2.99715 0.15878,1.20784 0.42567,2.42188 0.94918,3.54509 0.003,0.52716 0.10235,1.01922 0.50948,1.45079 1.01776,1.41591 2.62973,2.59262 4.46081,2.94035 0.64084,0.0875 1.28433,1e-4 1.90236,0.18355 1.89021,0.25742 3.76322,-0.17087 5.53026,-0.7488 0.85763,-0.29265 1.68079,-0.66475 2.56429,-0.92235 1.6275,-0.78184 3.35672,-1.36794 5.12859,-1.8096 0.44042,-0.23987 1.00469,-0.181 1.46923,-0.38804 1.76437,-0.43552 3.36771,-1.13837 5.02923,-1.81935 0.64516,0.14596 1.17186,0.68855 1.77272,0.80293 0.59076,-0.27948 1.21305,-0.16969 1.83167,-0.31738 0.56003,-0.11589 1.36443,-0.29157 2.01888,-0.5265 1.17615,-0.1326 2.35501,-0.30099 3.5008,-0.56745 1.17303,-0.3871 2.24623,-1.01215 2.99158,-1.95228 0.37063,-0.42182 0.51775,-0.97842 0.84796,-1.4414 0.44693,-0.97073 0.82255,-1.99743 0.98252,-3.05105 0.33874,-0.33209 0.12838,-0.9777 0.23253,-1.44494 0.12691,-0.91174 0.81292,-1.66218 0.9048,-2.58765 0.17597,-0.82365 0.19379,-1.66736 0.27905,-2.50185 -0.25413,-0.48334 -0.16507,-1.1463 -0.12785,-1.69581 0.086,-0.59068 0.33967,-1.12997 0.60139,-1.66404 0.56374,-0.0507 0.25049,-1.04065 0.41646,-1.48706 0.0286,-1.36777 0.38061,-2.72146 0.29174,-4.09187 0.4743,-0.18454 0.0886,-1.16235 0.21352,-1.66919 0.0999,-0.40028 0.54666,-0.6129 0.81178,-0.9321 0.32799,-0.53486 0.62943,-0.68481 1.15725,-0.91222 0.47796,-0.57666 1.00471,-0.18058 1.62478,-0.0862 0.64295,-0.0521 1.22782,0.28696 1.83294,0.43137 1.075,0.72147 2.42296,0.34168 3.64691,0.37194 1.42054,-0.10384 2.92583,-0.39375 3.92538,-1.40001 0.4626,-0.32123 0.87489,-0.64459 1.14157,-1.1271 0.36385,-0.37396 0.52143,-0.88162 0.81803,-1.25465 0.0957,-0.68918 0.42388,-1.30128 0.39329,-2.00574 0.186,-0.8439 0.0824,-1.69409 0.11416,-2.5545 -0.47588,-1.08493 -0.56149,-2.32013 -0.94708,-3.45149 -0.16057,-0.67335 -0.56652,-1.28076 -0.81601,-1.9149 -0.0136,-1.11632 -0.35181,-2.20394 -0.67859,-3.26818 0.0704,-0.96698 0.64694,-1.82745 0.79909,-2.7846 0.41542,-0.92632 0.31382,-2.032 0.0246,-3.0004 -0.21719,-0.52633 -0.28384,-1.05021 -0.36919,-1.60938 -0.0922,-0.99747 -0.1,-2.07334 -0.7399,-2.9289 -0.37696,-0.51615 -0.13824,-1.20487 -0.39778,-1.7768 -0.42734,-1.46071 -1.55777,-2.66802 -2.96528,-3.40074 -0.51866,-0.30692 -0.22687,-1.00222 -0.33435,-1.48559 0.19022,-0.93747 0.86536,-1.49109 1.65887,-2.05009 0.50645,-0.35613 1.02134,-0.70679 1.37262,-1.20251 0.64969,0.0688 1.08804,-0.20664 1.60665,-0.49139 1.30086,-0.58072 2.61572,-1.24308 3.41948,-2.40065 0.33288,-0.4445 0.69085,-0.88079 1.11507,-1.23051 0.35402,-0.70256 0.83871,-1.36361 0.90269,-2.16423 0.29007,-1.28123 0.47899,-2.59212 0.56922,-3.89253 -0.0804,-1.11714 -0.39155,-2.23021 -0.67069,-3.28346 0.28451,-0.22914 0.24373,-0.95298 0.71158,-1.30226 0.41356,-0.51276 1.33993,-0.1738 1.36583,-0.77584 -0.53799,-0.77776 0.48617,-0.63582 0.42345,-1.1897 -0.045,-0.61898 -0.0249,-1.20662 0.36685,-1.71637 0.68078,-1.18828 1.74791,-2.34958 1.4808,-3.79471 0.29615,-0.99759 1.16711,-1.75093 1.51152,-2.73194 0.1556,-0.49798 0.73479,-0.79056 0.54753,-1.36695 0.0566,-0.52725 0.39148,-0.88738 0.89211,-1.1271 0.9836,-0.47109 1.98422,-0.98543 2.82643,-1.64384 0.3227,-0.25389 0.65391,-0.50742 1.02853,-0.63731 0.46482,-0.59095 0.95325,-1.114 1.16371,-1.82749 0.52334,-0.90808 0.54827,-1.98962 0.88153,-2.97179 -0.0818,-0.80256 1.00677,-0.81672 1.60877,-0.80925 0.1254,0.3115 0.65089,0.27391 0.75893,0.64544 0.63895,0.99644 1.07126,2.07123 1.09505,3.23115 0.0958,0.75377 0.58426,1.39231 1.19328,1.80417 1.36667,0.84669 3.1206,0.49428 4.58219,0.0386 0.63939,-0.10485 1.01614,0.61114 1.22174,1.10206 0.63739,1.34756 1.62859,2.56256 1.96802,4.01138 0.39036,1.12206 1.05227,2.14546 1.65556,3.18769 0.3206,0.45213 -0.16395,0.98842 -0.57966,1.14464 -0.68159,0.70354 -1.39593,1.42683 -1.86313,2.26453 -0.66938,0.5672 -1.04813,1.32813 -1.16371,2.15416 -0.24481,0.92802 0.0115,2.01006 0.64073,2.73822 0.95028,0.60974 1.64662,1.48549 2.43314,2.23914 1.44186,0.97835 3.45198,1.82913 5.17923,0.95453 1.54639,-0.83285 2.92445,-1.9272 4.32909,-2.94118 0.75033,-0.69518 1.13532,-1.64152 1.76117,-2.40429 0.21649,-0.83052 0.57876,-1.65681 0.68325,-2.4837 -0.29589,-0.6449 -0.0772,-1.39463 -0.005,-2.06757 -0.0168,-0.50811 0.50767,-0.82997 0.62588,-1.27478 0.39248,-0.49796 0.75038,-0.52891 1.04855,0.1092 0.97901,1.58511 2.68025,2.68735 4.57049,3.16874 1.40756,0.3694 3.05584,0.0878 4.06151,-0.94194 0.6992,-0.69144 0.92415,-1.69513 1.15408,-2.59156 -0.0386,-0.83736 -0.18641,-1.71661 -0.90163,-2.29857 -0.66104,-0.36786 -0.84161,-1.18087 -1.41988,-1.66567 -0.47179,-0.4333 -1.23307,-0.93549 -0.95923,-1.56829 0.0717,-0.88143 0.71732,-1.66266 0.86466,-2.48701 -0.32619,-0.456 -0.21888,-1.03885 0.029,-1.48658 0.29142,-0.60993 1.46152,0.0813 1.25996,-0.69966 -0.0394,-1.2763 0.17892,-2.51119 0.0909,-3.78923 0.0565,-0.46851 -0.41443,-0.757 -0.47989,-1.21289 -0.36741,-0.51458 -0.79802,-1.03037 -1.08862,-1.57506 -0.41925,-0.29485 -0.71977,-0.6588 -0.9387,-1.11789 -0.41434,-0.20811 -0.57887,-0.69213 -1.10564,-0.8307 -0.64056,-0.36206 -1.14463,-0.83917 -1.66795,-1.32015 -0.45167,-0.57043 -0.76544,-1.20045 -0.98936,-1.88174 -0.32566,-0.6193 0.16181,-0.45174 0.67139,-0.31045 0.81396,0.16977 1.74409,0.1685 2.56287,0.0496 0.57276,-0.0911 0.96709,-0.22811 1.38909,-0.64393 0.54896,-0.14714 0.9009,-0.515 1.41215,-0.702 0.32307,-0.42943 0.75008,-1.0302 1.39947,-0.9048 0.25348,-0.80386 0.64998,-1.50425 1.09463,-2.1985 0.16764,-0.84808 0.48783,-1.66947 0.46128,-2.53413 0.0812,-0.76081 0.14805,-1.54565 -0.0676,-2.2932 -0.0156,-0.22308 -0.0966,-0.82988 -0.0677,-1.17975 -0.24538,-0.48237 -0.0563,-1.09846 0.0779,-1.5996 0.18519,-0.97469 -0.12276,-1.98357 -0.54084,-2.85809 -0.15229,-0.61288 -0.36875,-1.23562 -0.43126,-1.82909 -0.15801,-0.40695 -0.41324,-0.80277 -0.42279,-1.2636 -0.49311,-0.53381 0.42847,-0.96747 0.65413,-1.43603 0.161,-0.38292 1.24264,-1.15551 0.82531,-1.29364 -1.27465,-0.0775 -2.54914,-0.15941 -3.82389,-0.23433 -0.35048,-0.69642 -0.66199,-1.19944 -0.65401,-0.11704 -0.26375,0.19166 -0.88417,-0.0169 -1.28665,0.0156 -2.77804,-0.13146 -5.69345,-0.29908 -8.37147,-0.43094 -6.48384,-0.33371 -13.00797,-0.67847 -19.5106,-1.0164 -2.62271,-0.12238 -5.26898,-0.35049 -7.906,-0.4149 -3.45033,-0.22498 -6.90511,-0.42496 -10.3547,-0.67754 -5.28265,-0.36399 -10.61939,-0.69295 -15.86748,-1.09696 0.23461,-3.39249 0.49897,-6.68729 0.7319,-10.07418 0.11217,-1.58753 0.23017,-3.15746 0.34413,-4.76138 -1.64326,-0.11351 -3.2851,-0.23329 -4.92776,-0.3471 0.65206,-8.55323 1.32073,-17.13692 2.02733,-25.72434 4.29173,0.32462 8.67829,0.6689 12.99332,0.98872 0.53414,-0.11187 1.72681,0.48308 1.64757,-0.28712 0.27483,-3.18356 0.46747,-6.366 0.69837,-9.55653 0.0236,-0.30019 0.0624,-0.88508 0.0951,-1.32406 0.19774,-2.6292 0.32872,-5.26424 0.61516,-7.88773 -1.52929,-0.0633 -3.0625,-0.0674 -4.5874,-0.1989 -0.61313,-0.0452 -1.5865,-0.1115 -2.32963,-0.17159 -2.23,-0.16593 -4.46123,-0.31827 -6.69084,-0.4875 0.0592,-1.61889 0.16761,-3.23573 0.25367,-4.85354 -2.05237,-0.0297 -4.02586,-0.14079 -6.08623,-0.30225 -2.37273,-0.0364 -4.87403,-0.40987 -7.15381,-0.50895 -0.65263,-0.0469 -1.30648,-0.0856 -1.95968,-0.1287 0.2558,-2.80338 0.39457,-5.61049 0.6046,-8.41618 0.12286,-1.81949 0.28173,-3.73297 0.40589,-5.45024 0.0908,-1.19338 0.16604,-2.22072 0.25827,-3.43683 0.17561,-2.36648 0.34743,-4.73591 0.53872,-7.13019 -1.63756,-0.12514 -3.27615,-0.2488 -4.90874,-0.37831 0.15634,-2.17482 0.29809,-4.55209 0.47329,-6.81556 0.24029,-2.6993 0.31465,-5.40232 0.43785,-8.10775 -2.39844,-0.0628 -4.83624,-0.28064 -7.13268,-0.4134 -0.86481,-0.0641 -1.72912,-0.12462 -2.59388,-0.1911 0.33296,-4.04644 0.67029,-8.11549 0.97245,-12.18357 0.29504,-0.44161 -0.0795,-0.96653 0.11415,-1.4664 0.17264,-1.45794 0.34529,-2.91589 0.51793,-4.37384 -1.5567,1.00283 -3.11227,2.00717 -4.66984,3.00884 -6.24469,-0.43531 -12.48523,-0.78027 -18.73547,-1.08343 -5.6054,-0.35123 -11.27447,-0.7151 -16.93239,-1.12478 -0.41955,-0.0756 -0.9538,0.009 -1.28716,-0.12593 0.0209,-0.72705 0.0949,-1.45169 0.13319,-2.17815 0.95446,0.32752 0.69967,-0.60309 0.79553,-1.16885 0.22064,-2.33096 0.32178,-4.67269 0.47499,-7.01333 0.0757,-0.9214 0.13364,-2.09012 0.21351,-3.11219 0.17841,-2.63297 0.33267,-5.38746 0.49679,-7.96963 0.21395,-3.25185 0.36711,-6.59365 0.54542,-9.87868 -5.25391,-0.40691 -10.52096,-0.59368 -15.77475,-0.93795 -1.10319,-0.0673 -2.44503,-0.16225 -3.62553,-0.234 -1.93332,-0.12169 -3.91569,-0.2332 -5.87272,-0.33345 -0.31278,-0.28846 -1.27174,-0.0358 -1.82735,-0.1209 -3.52653,-0.1412 -7.07926,-0.39059 -10.64953,-0.5187 -2.90007,-0.10608 -5.61023,-0.26378 -8.51735,-0.38025 -0.87362,-0.0644 -2.00912,-0.0341 -2.9608,-0.174 -0.41154,-0.26303 -0.7289,-0.0942 -1.13192,-0.0405 -1.34128,-0.14842 -2.66359,-0.18183 -3.96166,-0.31186 -0.5816,0.0465 -1.40706,-0.52208 -1.73332,0.0994 -0.0466,0.0565 -0.0931,0.11304 -0.13969,0.16954 z m 49.69827,36.09053 c -0.51371,0.38414 -1.02741,0.76829 -1.54112,1.15244 0.0543,-0.8957 0.10852,-1.7914 0.16278,-2.68709 0.45944,0.51155 0.91889,1.0231 1.37834,1.53465 z m 53.3724,30.94838 c -0.009,0.004 -0.0476,-0.009 0,0 z m 14.61838,90.25359 c 0.0151,0.0106 -0.052,-0.008 0,0 z m -31.86447,135.7509 c -0.0197,0.003 0.01,-0.006 0,0 z" />
    <path
       id="Region5"
       style="fill:#ff00ff;fill-opacity:0;stroke:#ff00ff;stroke-width:15.71584753;stroke-miterlimit:4;stroke-dasharray:15.71584753,15.71584753;stroke-opacity:1;stroke-dashoffset:0"
       d="m 119.3692,291.17989 c -8.35316,0.0103 -16.7072,0.075 -25.06033,0.12286 -7.251024,-0.0142 -14.502332,-0.0827 -21.754429,-0.10725 -0.009,7.6009 -0.0026,15.15939 -0.0061,22.76893 -0.0058,4.57523 -0.05484,9.15006 -0.04673,13.72523 -0.260301,0.34462 0.02809,1.1727 -0.02998,1.6955 0.0073,7.60614 -0.240536,15.21988 -0.151627,22.82999 -0.01732,4.19826 0.09739,8.32532 0.04783,12.52327 -0.04027,4.61562 -0.110741,9.23132 -0.210807,13.84614 -0.06197,2.79343 -0.102727,5.77053 -0.17718,8.63337 -0.166095,7.38668 -0.309847,14.77294 -0.416849,22.16117 -0.14746,6.4587 -0.234616,12.91717 -0.310768,19.37689 -0.0392,2.44304 -0.04439,5.09056 -0.08456,7.40609 -0.08887,6.35436 -0.190801,12.7028 -0.175463,19.0573 -0.0036,5.8396 -0.02617,11.68579 -0.0417,17.5172 -0.01531,7.59538 -0.06833,15.18727 -0.08433,22.78023 -0.04011,3.41606 -0.0286,6.83259 -0.126899,10.24136 -0.04645,3.84528 -0.09054,7.69187 -0.171983,11.53737 -0.03938,4.0151 -0.171838,8.16201 -0.192009,12.23271 -0.05338,2.6215 -0.01695,5.24119 -0.05744,7.86395 -0.220844,0.41333 0.0084,1.12551 -0.03805,1.65554 -0.02094,1.1602 -1.76e-4,2.33842 -0.07389,3.48916 0.03292,0.742 0.09225,1.54461 0.03828,2.31695 -0.04648,4.62084 0.07401,9.25847 -0.02358,13.86155 0.06085,3.65453 -0.01471,7.30889 0.01057,10.96483 1.249825,-0.56917 2.393892,-1.37359 3.75871,-1.67115 0.657837,-0.23568 1.119051,-0.76648 1.852079,-0.84906 1.495671,-0.33048 2.824047,-1.2542 3.463903,-2.55038 0.768646,-1.11428 1.311163,-2.37366 2.412835,-3.25785 1.242164,-0.0191 2.214633,0.95701 2.759792,1.89489 0.52743,0.7135 1.007159,1.48608 1.485146,2.18841 0.555247,0.86475 1.1023,1.73489 1.686976,2.57594 1.035518,1.20319 2.814582,1.66729 4.414059,1.62044 1.057684,0.37768 1.467763,1.51722 2.246227,2.12513 0.566439,0.45732 0.942444,1.20168 1.746864,1.32713 0.581797,0.003 0.829682,0.58742 1.461951,0.44258 1.004843,0.23046 2.070179,0.14961 3.088592,0.0611 0.73845,-0.10766 1.36121,-0.49996 1.9846,-0.81676 1.36662,-0.40804 2.97318,-0.52408 3.91897,-1.65481 0.57766,-0.49895 1.03254,-1.10287 1.41633,-1.73983 0.81519,0.52202 1.6296,1.12961 2.67469,1.15041 2.05729,0.009 4.166,-0.80691 5.40716,-2.36525 0.69291,-0.66051 0.82583,-1.70747 1.64259,-2.30295 0.47002,-0.55681 1.22041,-0.17553 1.50035,0.32752 0.34528,0.50547 0.73203,1.09684 0.8906,1.70828 -0.18005,0.78139 -0.2196,1.62775 -0.006,2.39459 0.0933,0.53693 0.0899,1.05181 0.10569,1.58925 0.0317,0.33282 0.0575,1.0198 0.20295,1.47225 0.17365,0.80383 0.17817,1.60512 0.71665,2.28344 0.60325,1.13328 1.95851,1.54311 3.01458,2.2152 0.83295,0.36039 1.77416,0.42459 2.66056,0.41733 0.57701,0.13854 1.17515,0.4348 1.75806,0.12323 0.89114,0.12936 1.81859,0.27141 2.69502,0.51633 1.20403,0.45303 2.37388,1.01344 3.34437,1.82715 0.54584,0.50437 0.98784,1.09216 1.52226,1.60838 0.81154,1.00961 1.36755,2.20932 1.58533,3.43626 -0.0683,0.98688 0.19599,1.95734 0.21075,2.92425 0.22188,1.4698 0.87906,2.83445 1.62633,4.13279 0.56363,0.82504 1.13843,1.6494 1.83761,2.37427 0.46444,0.42107 0.71643,0.97966 1.05395,1.48599 0.36279,0.41192 0.42585,0.99697 0.98553,1.25653 0.6952,1.25322 1.34024,2.53586 2.16571,3.70841 0.67129,0.68293 0.55578,1.69741 0.63746,2.55887 0.043,1.63065 -0.32476,3.18628 -0.21039,4.81257 0.0596,1.48132 0.17856,3.02996 0.62097,4.40278 0.50392,1.28338 1.09902,2.57755 2.21017,3.52297 0.48845,0.72732 1.35989,1.09055 2.14424,1.48494 1.86286,0.63985 3.86326,0.70515 5.7797,1.17975 1.33309,0.21228 2.57235,0.73424 3.81451,1.19369 0.93997,0.40456 1.86969,0.85493 2.68804,1.40446 0.92103,0.3039 1.82486,0.66022 2.70993,1.01948 1.08148,0.10568 2.10433,0.54753 3.16875,0.69817 0.88756,-0.21314 1.79901,-0.0873 2.69377,-0.17595 0.50406,-0.22016 1.47811,-0.0455 1.67258,-0.52587 0.34991,-2.59554 0.53401,-5.22869 0.81561,-7.75967 0.22593,-2.28706 0.45213,-4.49196 0.69552,-6.83278 0.0488,-0.50989 0.13908,-1.31238 0.21139,-1.9422 0.17778,-0.48742 0.0516,-1.11198 0.17815,-1.65151 0.11751,-0.9937 0.24022,-2.17567 0.30808,-3.01677 0.27889,-3.43497 0.62244,-6.87774 1.0105,-10.28428 0.0373,-0.32835 0.1236,-0.99926 0.15431,-1.4664 0.14998,-1.60452 0.26395,-3.21536 0.44606,-4.81259 0.19997,-0.45649 0.0348,-1.06115 0.18392,-1.5717 0.42447,-3.56168 0.75332,-7.12985 1.15002,-10.65283 0.12288,-0.95522 0.18795,-1.94383 0.3171,-2.86063 0.31294,-2.31547 0.44914,-4.52946 0.723,-6.82109 0.14842,-0.92102 0.22601,-1.88026 0.3171,-2.82165 0.15342,-0.53348 0.0569,-1.18306 0.16918,-1.76287 0.29539,-3.18903 0.62265,-6.31084 0.83916,-9.52666 0.0753,-1.91672 0.10791,-3.83585 0.26218,-5.74953 5.23487,0.35922 10.73623,0.75811 16.08127,1.11735 0.10489,0.65516 -0.0559,1.55228 -0.0516,2.2966 0.14799,0.45253 -0.44424,1.53372 0.25139,1.52112 1.73696,0.0783 3.50035,0.089 5.20914,0.21502 0.45022,-0.0789 0.87623,-0.4657 1.35594,-0.63195 0.7654,-0.40191 1.02525,-1.21916 1.67042,-1.74611 0.3666,-0.44657 0.12396,-1.28171 0.98415,-1.26896 0.19011,-0.45929 0.0125,-1.1051 0.21201,-1.62141 0.38847,-0.49527 0.59512,-1.07211 0.93018,-1.59765 0.23314,-0.40021 0.038,-0.94472 0.60511,-1.15029 3.50728,-2.74706 7.04626,-5.43955 10.51247,-8.20774 4.57952,-3.5665 9.12936,-7.16143 13.84605,-10.58147 0.6564,-0.30175 0.28754,-1.1057 0.44414,-1.65186 0.48004,-6.73942 0.83504,-13.48544 1.34225,-20.22239 0.23162,-2.96901 0.43182,-5.95949 0.64544,-8.93879 -3.90348,-0.31413 -7.80164,-0.68672 -11.7053,-0.93498 -0.6575,0.11489 -0.31867,-0.54923 -0.34034,-0.93312 0.11637,-1.82974 0.28852,-3.64561 0.4355,-5.49703 0.13485,-1.23866 0.15948,-2.57504 0.28523,-3.83281 0.33869,-4.74897 0.78728,-9.49132 1.12797,-14.24052 0.13013,-1.58522 0.27441,-3.16021 0.36173,-4.74689 0.11041,-1.37542 0.21663,-2.75116 0.32427,-4.12677 2.46734,0.17843 4.91986,0.60384 7.40115,0.52259 0.68918,-2.86591 1.3628,-5.73444 1.97855,-8.61332 0.71126,-3.23549 1.37546,-6.48298 2.24313,-9.68934 0.41441,-1.94516 0.88699,-3.87871 1.4233,-5.79233 1.05879,-2.49743 1.57537,-5.15786 2.22013,-7.76512 0.83641,-3.87665 2.0615,-7.66482 2.89391,-11.54131 0.2544,-0.67589 0.37249,-1.25663 -0.62417,-1.05932 -0.42264,-0.24004 0.0375,-1.181 -0.0321,-1.70132 0.33616,-3.83773 0.83012,-7.65627 1.08464,-11.50125 5.12055,0.0892 10.24191,0.1073 15.36251,0.19694 1.52388,0.0364 3.28959,0.0289 4.90436,0.0607 3.58658,0.0377 7.11512,0.10555 10.67494,0.24326 4.13074,0.0776 8.20242,0.17895 12.25375,0.32194 0.008,-4.08299 0.0875,-8.16633 -0.038,-12.24792 -0.0691,-4.1674 -0.18191,-8.48771 -0.24108,-12.71395 -0.005,-0.74166 -0.01,-1.48331 -0.0147,-2.22497 -3.28913,-0.14506 -6.58278,-0.095 -9.87454,-0.11699 -0.0703,-2.17307 -0.0238,-4.41436 -0.0592,-6.61673 -0.0141,-6.43321 -0.0633,-12.86786 0.006,-19.30456 0.0223,-1.15751 0.019,-2.49589 0.0655,-3.7167 3.41058,0.24585 6.84671,0.62325 10.27223,0.75046 2.50445,0.12388 5.21237,0.29465 7.6715,0.36689 2.04649,0.11741 4.14591,0.21215 6.20249,0.30225 0.28472,0.0208 1.11829,0.0512 1.4188,0.0653 1.26313,0.0589 2.52656,0.11304 3.79012,0.16478 0.0755,-2.99904 0.30845,-5.99129 0.49046,-8.98558 1.76264,-0.22607 3.67351,-0.49896 5.26599,-0.70784 0.77696,-0.11015 1.5603,-0.18375 2.34021,-0.27885 0.11204,-5.73152 0.0452,-11.46583 0.0973,-17.19896 -8.4e-4,-2.95699 0.0319,-5.91448 0.0317,-8.86858 1.14613,-0.021 2.55188,-0.0615 3.56211,-0.0839 3.02266,-0.034 6.04675,-0.11101 9.07122,-0.0878 -0.025,-1.80288 0.042,-3.5337 0.11416,-5.31373 0.0224,-2.89351 0.13142,-5.78765 0.0486,-8.68139 -2.61849,0.0428 -5.23697,0.065 -7.85566,0.0858 -0.51252,-0.14871 -1.17543,0.10066 -1.75041,0.0351 -1.53388,0.002 -3.33337,-0.0108 -4.68253,0.1482 -1.96365,0.11253 -3.94,-0.0342 -5.90782,0.0585 -3.25481,0.0501 -6.51322,-0.01 -9.76545,0.0624 -0.43346,-0.22473 -1.26107,0.0352 -1.83919,-0.0117 -2.8946,0.0198 -5.79109,0.0413 -8.68647,0.0838 -1.95011,0.0209 -3.9492,0.0932 -5.92134,0.0643 -2.47528,-0.0118 -4.8343,-0.0461 -7.32504,-0.0156 -2.72659,-0.004 -5.4524,0.062 -8.17911,0.0449 -0.0303,0.81883 0.0549,1.75011 -0.0317,2.51354 -4.92514,-0.048 -9.85115,0.0218 -14.77693,-0.008 -0.11845,3.10613 0.0245,6.21427 -0.0507,9.32098 -0.055,3.06693 -0.1133,6.28853 0.0208,9.41296 0.0853,2.05546 0.16191,4.11176 0.24763,6.16555 0.0403,1.05023 0.12372,2.44026 0.18366,3.63761 0.0419,0.80953 0.0849,1.61904 0.12287,2.42884 -3.0132,0.0659 -6.02866,0.10359 -9.04161,0.15015 0.40066,-0.87208 -0.40582,-0.79462 -1.10828,-0.79898 -3.44836,-0.22296 -6.87574,-0.65356 -10.31796,-0.92092 -2.96975,-0.24689 -5.84463,-0.56017 -8.78704,-0.72596 -3.16154,-0.29307 -6.45364,-0.5179 -9.59227,-0.75378 -5.44188,-0.44819 -10.79602,-0.88049 -16.22083,-1.29261 -0.93319,0.19758 -0.44806,-0.83387 -0.57441,-1.33544 -0.0178,-5.87719 -0.0636,-11.76009 -0.008,-17.6409 0.19384,-0.77751 -1.02704,-0.25387 -1.51403,-0.40521 -6.92826,-4e-4 -13.85534,0.13131 -20.78326,0.10919 -1.60386,0.0494 -3.16575,0.0317 -4.71504,0.0743 -0.79365,0.0204 -1.58742,0.0349 -2.38169,0.0446 -0.015,-0.8461 -0.0236,-1.69262 -0.0359,-2.53889 -2.58512,0.0906 -5.17,0.10241 -7.75208,0.16575 -1.34874,0.0275 -2.94943,0.0329 -4.3908,0.0312 -0.77236,-0.0845 -1.71115,0.27932 -2.27255,-0.3642 -0.63663,-0.2387 -0.2937,-0.91639 -0.38687,-1.3986 0.011,-1.04445 -0.003,-2.09039 0.002,-3.13559 -3.35277,-0.0396 -6.6819,-0.005 -10.02886,0.0292 -3.37079,0.008 -6.74313,-0.004 -10.11127,0.12008 -3.31505,-10e-4 -6.72115,0.10049 -9.97817,0.009 -0.0246,-1.93811 0.0379,-3.89081 -0.0463,-5.81871 -0.26606,-0.49903 -0.36196,-1.22894 -0.74685,-1.56885 -0.46916,0.004 -0.93834,0.008 -1.4075,0.0127 z M 70.326275,542.09754 c -0.0024,-0.0251 0.03049,-0.0788 0,0 z" />
    <path
       id="Region3"
       style="fill:#0000ff;fill-opacity:0;stroke:#0000ff;stroke-width:15.71584809;stroke-miterlimit:4;stroke-dasharray:15.71584809, 15.71584808999999971;stroke-opacity:1;stroke-dashoffset:0"
       d="m 429.43106,301.37838 c -3.02418,0.0157 -6.02114,0.0846 -9.05641,0.0312 -4.87236,0.0536 -9.73024,0.0737 -14.59724,0.15209 -0.041,5.72562 0.008,11.44823 0.0486,17.17361 -4.96921,0.75718 -9.8753,1.46743 -14.87278,2.19113 -1.71017,0.26465 -3.40687,0.55416 -5.14689,0.43997 -6.78548,-0.004 -13.57077,0.024 -20.3537,0.13985 -4.04007,0.0206 -8.06378,0.0507 -12.08832,0.012 -0.69537,-0.0105 -1.39074,-0.021 -2.08611,-0.0315 0.0338,3.01615 -0.19582,6.03607 0.16489,9.04408 0.92319,-0.35223 1.02702,0.11959 0.85003,0.87384 -0.16035,3.04511 -0.42927,6.10959 -0.5041,9.12147 -0.11001,1.81096 -0.19995,3.53381 -0.25925,5.34725 -0.21028,3.36969 -0.41018,6.86611 -0.61096,10.25503 -3.5485,-0.18976 -6.97769,-0.43915 -10.54468,-0.62985 -6.45623,-0.3808 -12.97435,-0.78655 -19.50594,-1.17454 -0.72371,-0.0466 -1.44742,-0.0932 -2.17112,-0.13976 0.20819,-3.2161 0.4217,-6.43211 0.62575,-9.64857 -2.6987,-0.16163 -5.3705,-0.29742 -8.00933,-0.46848 -0.77112,-0.0474 -1.54226,-0.0946 -2.31338,-0.14187 -0.33531,0.28149 -1.17061,-0.0238 -1.70182,0.0228 -0.76077,0.15004 -0.47292,-0.54178 -0.47006,-1.00636 -0.10671,-0.48522 0.38081,-1.46141 -0.10762,-1.63122 -1.5744,-0.0682 -3.36165,-0.15468 -4.81301,-0.21463 -3.62711,-0.17284 -7.25665,-0.3367 -10.88667,-0.5096 -2.68085,-0.17257 -5.35568,-0.20932 -8.04322,-0.50134 -3.26744,-0.2452 -6.56716,-0.52505 -9.87772,-0.76356 -0.0447,4.94083 -0.17779,9.87952 -0.14869,14.82074 -0.004,5.77436 0.0244,11.54683 0.0543,17.32117 -0.0209,1.94894 0.14095,3.73902 0.13673,5.65178 0.22002,0.43321 1.28249,0.0599 1.84391,0.16624 2.65416,-0.0228 5.30884,0.002 7.96292,0.0123 0.10362,5.6247 0.26491,11.24801 0.30231,16.87331 1.34035,0.13276 2.66975,0.39156 4.02084,0.39975 0.0725,0.48436 1.21618,0.0761 1.70855,0.2106 1.92388,0.0103 3.84034,0.21377 5.76688,0.24857 3.34577,0.16934 6.67894,0.29832 10.03069,0.45148 0.36527,0.74161 1.13133,-0.0611 1.76308,0.0819 1.49259,0.0868 3.13331,0.17328 4.68909,0.25975 1.31479,0.0744 2.6167,0.21214 3.93185,0.3233 0.0665,-0.25691 0.6907,-0.0147 0.98512,-0.0663 1.05258,0.0739 2.15007,0.11567 3.10971,0.17744 3.26486,0.1985 6.43626,0.42397 9.72089,0.59542 2.28417,0.12496 4.5628,0.25136 6.84872,0.37178 -0.20158,4.16266 -0.50579,8.46886 -0.73779,12.55798 -0.12817,1.7778 -0.25583,3.63165 -0.36149,5.32543 -0.1144,1.14131 -0.11698,2.29136 -0.20294,3.44369 -0.95397,-0.3294 -0.71347,0.5957 -0.81055,1.16624 -0.30769,3.11489 -0.32077,6.2209 -0.72675,9.3463 -0.38718,0.9885 0.41402,0.54796 1.04132,0.31652 0.83681,-0.24229 1.62951,-0.74739 2.53177,-0.55063 3.82696,0.25652 7.71389,0.55317 11.56997,0.80535 0.53368,-0.0121 1.42443,0.72392 1.66584,0.0995 6.15179,0.44726 12.32877,0.65189 18.49971,1.0569 1.02067,0.0717 2.33177,0.1437 3.42047,0.2145 0.89324,0.0813 1.70995,0.0968 2.56006,0.18914 -0.23726,3.22159 -0.51093,6.51365 -0.77796,9.67198 -0.19976,0.90836 -0.1736,1.95893 -0.23677,2.92694 -0.008,0.68106 -0.0309,1.36243 -0.0444,2.0436 1.68684,0.10003 3.18362,0.24077 4.87936,0.37191 1.62096,0.12996 3.24295,0.22792 4.86622,0.33399 -0.15283,3.33124 -0.4753,6.62652 -0.66651,9.94928 -0.0986,0.88951 -0.0497,1.82212 -0.25292,2.71768 -0.28826,0.70987 -0.57653,1.41973 -0.86479,2.12961 1.87566,0.12575 3.84657,0.28207 5.66131,0.3978 -0.24419,3.55884 -0.57,7.20516 -0.79909,10.70352 -0.12779,1.72269 -0.26825,3.44707 -0.35727,5.17139 -0.34337,0.29389 -0.0466,1.17825 -0.14587,1.69728 -0.15364,2.31326 -0.313,4.62853 -0.52004,6.93925 2.82291,0.11018 5.60059,0.34348 8.37969,0.52718 2.20273,0.23049 4.41715,0.347 6.62766,0.47512 0.57591,0.0462 0.10542,0.94745 0.23424,1.36217 -0.0373,1.05539 -0.0805,2.1106 -0.12642,3.16572 2.23501,0.52054 4.48044,0.49306 6.75934,0.70568 2.21662,0.16073 4.43355,0.32167 6.64983,0.48382 -0.17042,2.45049 -0.34816,4.87148 -0.5137,7.27348 -0.15496,1.23018 -0.0717,2.64063 -0.34671,3.77129 -2.28917,-0.17756 -4.51644,-0.34751 -6.87067,-0.52894 -2.50521,-0.18893 -5.06129,-0.38253 -7.61876,-0.58061 -0.22367,2.85452 -0.45535,5.57599 -0.6798,8.44177 -0.22791,2.86019 -0.46116,5.72115 -0.69218,8.5778 -0.0502,0.69952 -0.13033,1.66772 -0.18941,2.47858 -0.33677,4.38946 -0.66647,8.70349 -1.00608,13.13435 -0.12648,0.69098 -0.2045,1.34329 0.78006,1.14752 1.35995,0.0917 2.71936,0.1874 4.079,0.28251 -0.24573,3.40715 -0.50022,6.78018 -0.74413,10.19262 -0.102,0.6875 -0.0855,1.61224 -0.16278,2.24835 -0.0605,0.81315 -0.1212,1.62629 -0.1818,2.43945 8.91175,0.60485 17.75916,1.20361 26.65978,1.80764 1.95784,0.0783 4.00882,0.28528 6.01859,0.32955 1.999,0.0764 4.00106,0.25319 5.98899,0.37635 1.74571,-0.003 3.64243,0.18929 5.31462,0.24374 5.38402,0.27655 10.82345,0.56544 16.10665,0.83851 1.5113,0.0614 2.82378,0.15645 4.31128,0.22896 1.94062,0.0791 3.81327,0.18979 5.7662,0.29949 0.23538,-0.48945 0.0702,-1.27134 0.59403,-1.55025 1.66809,-0.46902 2.66926,-2.10966 2.75487,-3.65545 0.0574,-0.53155 0.19769,-1.27942 0.91083,-1.30729 0.95304,-0.186 2.01282,-0.28959 2.80953,-0.89505 1.30117,-0.7799 2.07326,-2.27882 1.69754,-3.69913 0.002,-0.81724 -0.57363,-1.49025 -0.67225,-2.2815 0.0865,-0.45639 -0.0669,-0.89609 0.36384,-1.22249 0.10561,-0.40095 0.28918,-0.74344 0.63608,-1.03171 0.57355,-0.57414 1.52721,-0.30407 2.25565,-0.57525 0.60126,-0.002 1.19681,-0.0561 1.76943,0.14625 1.08256,0.1375 2.13754,0.68538 3.25134,0.3822 0.5187,-0.094 1.04688,-0.50108 1.53396,-0.10323 0.60598,0.22164 1.0077,0.78669 1.68568,0.89298 0.8261,0.10937 1.64004,0.43846 2.47467,0.39242 0.66914,-0.21997 1.58678,-0.0998 1.88478,-0.82273 0.47275,-0.57868 0.91326,-1.16651 0.98642,-1.89522 0.27213,-0.91394 0.136,-1.7287 0.18015,-2.66762 -0.0468,-1.78154 0.4942,-3.43712 0.63844,-5.18583 0.1192,-0.91844 -0.17649,-1.98243 0.39254,-2.78599 0.60967,-0.68834 1.06756,-1.54051 2.04203,-1.83229 0.36467,-0.20937 0.36813,-0.69757 0.89557,-0.75184 1.51349,-0.84284 2.92035,-1.88952 4.14567,-3.04444 1.12612,-1.19801 2.2778,-2.39556 3.11585,-3.78476 0.47941,-0.48413 1.14425,-0.94124 1.8366,-1.10939 1.16717,0.1953 1.95701,1.12406 2.75456,1.85833 0.38295,0.50273 0.58955,1.10587 0.70607,1.69455 0.33759,1.43549 0.73549,2.86485 1.12677,4.28999 0.4898,1.26185 1.39266,2.48552 2.66957,3.16075 1.04961,0.55349 2.33391,0.44298 3.49489,0.29855 2.1476,-0.0621 4.12868,-1.102 5.48585,-2.61689 1.294,-0.7095 2.45529,-1.59591 3.54309,-2.55645 0.9777,-0.84579 2.53719,-0.79007 3.40266,-1.78942 0.3735,-0.67199 1.28095,-0.23405 1.88447,-0.60323 0.54463,-0.12403 1.10692,-0.67412 1.69759,-0.25385 1.20803,0.56658 2.73137,0.81505 3.90666,0.0491 0.51403,-0.31655 1.09738,-0.713 1.42484,-1.15089 0.24998,-0.74748 0.63411,-1.50062 0.55175,-2.32011 -0.13897,-0.60548 0.40343,-1.14872 0.87076,-1.47769 0.55394,-0.78709 1.24515,-1.4925 1.78571,-2.29982 0.39742,-0.2313 0.16557,-0.88328 0.76401,-0.99803 0.66809,-0.26419 1.26014,-0.72903 2.02189,-0.73875 1.00753,-0.22505 2.16178,0.0646 3.04539,-0.52484 0.70413,-0.21315 1.10241,-0.78418 1.59396,-1.2519 0.58705,-0.0492 0.46487,-1.17531 1.07688,-1.18755 0.11086,-0.66548 0.65003,-0.77169 0.80165,-1.38363 0.56265,-0.90223 0.8285,-2.10156 1.51022,-3.0409 0.15212,-0.45061 0.44772,-0.86794 0.68285,-1.26878 0.54887,-0.69899 1.04176,-1.54535 1.8206,-2.07444 0.43008,-0.42752 0.70812,-1.00354 1.17071,-1.42843 0.27216,-0.59191 0.68942,-1.0892 1.27133,-1.45263 0.55308,-0.46908 1.05465,-0.93398 1.51705,-1.49186 0.53429,-0.33928 0.54958,-1.07524 1.19864,-1.33965 0.88066,-0.76287 1.9716,-1.38098 2.53118,-2.38081 0.17257,-0.84893 1.3055,-1.02086 1.75604,-1.71418 0.44904,-0.498 1.15883,-0.69553 1.61087,-1.2051 0.82111,-0.68389 1.29068,-1.61976 2.17082,-2.2607 0.51355,-0.48436 0.87179,-1.08942 1.49793,-1.47185 1.29187,-1.12804 2.80943,-2.08952 3.8677,-3.33813 0.47869,-0.0495 0.62232,-0.75269 1.19095,-0.47756 0.44916,-0.10508 0.97513,-0.21574 1.46752,-0.0412 1.19257,0.37015 2.51379,0.27731 3.59054,-0.33927 0.55157,-0.35691 1.39824,-0.35897 1.55461,-1.07204 0.35389,-0.66197 0.78609,-1.22601 0.91667,-1.96654 0.12007,-0.55903 0.35299,-1.08334 0.53478,-1.60078 0.12894,-0.77469 0.15406,-1.51399 0.55816,-2.21878 0.14521,-1.03636 0.21343,-2.08515 0.24523,-3.12194 -0.18242,-0.89074 0.0462,-1.81896 -0.0163,-2.69264 -0.18061,-0.46784 0.61115,-0.67891 1.00565,-0.6867 0.52349,-0.25628 1.15114,-0.11967 1.51953,-0.61514 0.53352,-0.33575 1.11589,-0.60632 1.38015,-1.19115 0.57556,-0.88179 0.7606,-1.98799 0.67048,-3.00157 -0.29197,-0.70676 -0.25846,-1.6138 -1.00797,-2.11853 -0.31481,-0.49498 -0.61356,-0.98535 -0.87098,-1.51515 0.0635,-0.48498 -0.43359,-0.97445 -0.71454,-1.40009 -0.64759,-0.8285 -1.79382,-1.20806 -2.24046,-2.19517 -0.32629,-0.51031 0.19334,-0.83145 0.1032,-1.37527 0.74052,0.0792 1.28247,0.026 1.37054,-0.80513 0.16705,-0.55073 0.89325,-0.69337 1.26986,-1.11951 1.02252,-0.50372 1.50525,-1.53634 2.34232,-2.23275 0.417,-1.02909 0.48416,-2.12511 0.78219,-3.18435 -0.22297,-0.70623 -0.0337,-1.49373 -0.0634,-2.10989 -0.0254,-0.65408 -0.11681,-1.29604 -0.408,-1.88565 0.33518,-0.49646 -0.40546,-1.03365 0.2257,-1.3924 0.9423,-0.98276 1.88462,-1.96553 2.82693,-2.94829 -5.38358,-0.15771 -10.69726,-0.32996 -16.00807,-0.69791 -3.89024,-0.25251 -7.83021,-0.52297 -11.71717,-0.74314 -0.0451,-0.56291 -1.20918,-0.18239 -1.72028,-0.35242 -2.47251,-0.13396 -4.97875,-0.28746 -7.31955,-0.39876 -1.73634,-0.0789 -3.47333,-0.15434 -5.21071,-0.21991 -0.24863,-0.40648 -1.27869,-0.13049 -1.83729,-0.26624 -4.15103,-0.18978 -8.19437,-0.28713 -12.34349,-0.42795 0.0804,-3.74381 0.21709,-7.43813 0.32979,-11.16958 0.12228,-1.8456 0.073,-3.75557 0.18449,-5.62181 0.082,-3.23885 0.18104,-6.46839 0.28905,-9.68956 0.0275,-0.55498 0.053,-1.35379 0.059,-1.98922 0.16416,-6.30598 0.3464,-12.61318 0.54136,-18.91278 3.15908,0.0691 6.47653,0.17134 9.69486,0.22815 0.53211,-0.12258 0.7327,0.0772 0.7824,0.40974 5.35398,0.29095 10.75813,0.59321 16.17407,0.83826 0.61186,0.0337 1.31964,0.0467 1.7702,0.0751 3.12346,0.17235 6.30145,0.24655 9.45157,0.44507 2.16036,0.0771 4.30806,0.25435 6.47037,0.19939 -0.0353,-1.65114 0.0551,-3.30014 0.12263,-4.94909 0.014,-0.21314 0.0353,-0.77981 0.0465,-1.0023 0.18368,-3.57249 0.24779,-7.06993 0.41013,-10.61967 0.13863,-2.80265 0.25927,-5.60651 0.3784,-8.40838 -0.0678,-0.42091 0.19281,-1.11491 0.0423,-1.57365 0.1617,-3.48195 0.28709,-6.78857 0.38899,-10.26673 -0.21189,-0.48501 0.63903,-0.16811 0.53411,-0.64809 0.16709,-2.34338 0.218,-4.80949 0.2692,-7.06609 0.027,-1.34232 0.0738,-2.52949 0.18393,-3.89024 -1.59033,-0.14317 -3.24312,-0.26048 -4.80092,-0.2535 -0.65041,-0.3432 -1.30082,-0.6864 -1.95124,-1.0296 -0.1743,0.47102 -0.13858,1.22092 -0.89978,0.94695 -4.79213,-0.17725 -9.59024,-0.21935 -14.37899,-0.49056 -2.78418,-0.0804 -5.56759,-0.16248 -8.34951,-0.29063 -0.0544,-0.56273 -1.21143,-0.17736 -1.72495,-0.3453 -1.31174,-0.0678 -2.70088,-0.15382 -4.06466,-0.16937 -4.33561,-0.16725 -8.6717,-0.25882 -13.00606,-0.44279 0.13891,0.59092 -0.69493,0.20506 -1.08872,0.27106 -2.1163,-0.13363 -4.23663,-0.19719 -6.35894,-0.15015 -0.0865,3.5722 -0.16747,7.18943 -0.32137,10.70194 -0.008,1.26593 -0.0915,2.57472 -0.12469,3.82942 -0.0961,2.48604 -0.15846,4.99997 -0.25156,7.45093 -2.55227,-0.0572 -5.10225,-0.0564 -7.65061,-0.21644 -0.0719,3.31542 -0.21695,6.67359 -0.30441,9.95472 -0.10272,1.76152 -0.0446,3.58922 -0.16278,5.31179 -3.23201,-0.10499 -6.59259,-0.19925 -9.73713,-0.30615 -1.36332,-0.0455 -2.71626,-0.0941 -4.09061,-0.15209 -0.28607,-0.017 -0.89604,-0.0469 -1.27687,-0.0527 -1.84081,-0.0189 -3.78697,-0.15196 -5.55561,-0.19109 -1.40283,-0.0442 -2.79036,-0.0685 -4.11386,-0.14236 -2.52513,-0.0294 -5.04018,-0.14227 -7.58719,-0.23204 0.1119,-2.76541 0.19187,-5.53019 0.32556,-8.31283 0.067,-2.74264 0.20179,-5.6297 0.20295,-8.42594 -0.002,-0.47737 0.004,-0.97427 0.1918,-1.39068 -0.26934,-0.90663 0.006,-1.87725 -0.0438,-2.80961 0.0268,-1.29813 0.17698,-2.58984 0.28117,-3.88439 -4.18949,-0.11977 -8.37424,-0.29926 -12.54453,-0.47385 0.0847,-2.8569 0.21986,-5.65781 0.29173,-8.51953 1.63724,0.0495 3.35934,0.0704 5.06939,0.0956 0.1788,-3.3889 0.19892,-6.78588 0.33713,-10.15713 -0.01,-1.71289 0.16953,-3.3353 0.13959,-5.02583 0.11912,-5.79986 0.27028,-11.60791 0.56549,-17.37612 0.51637,-0.21689 1.58816,-0.0223 1.74208,-0.50769 -0.0589,-2.18916 -0.18008,-4.5678 -0.13755,-6.64489 -0.0254,-0.80392 -0.0818,-1.60674 -0.12049,-2.4102 -2.56915,-0.004 -5.13752,-0.0455 -7.70557,0.0254 -2.62751,0.0115 -5.25797,-0.0731 -7.88315,0.01 -5.39261,0.0652 -10.86533,0.0595 -16.28713,0.13509 -2.04004,0.045 -4.07167,0.11658 -6.10764,-10e-4 -2.17387,-0.0494 -4.27471,-0.15343 -6.42976,-0.10636 -2.84605,-0.0428 -5.69126,-0.0535 -8.53678,-0.10676 -0.42741,0.0136 -0.85602,-0.0362 -1.27857,-0.0219 z m -45.34128,127.91191 c -0.55036,0.4771 -1.1007,0.95419 -1.65104,1.4313 -0.57009,-0.5616 -1.14016,-1.1232 -1.71024,-1.6848 0.54964,-0.4745 1.09928,-0.949 1.64893,-1.4235 0.57078,0.559 1.14156,1.118 1.71235,1.677 z m 93.91701,111.5846 c -0.0234,0.003 0.0324,-0.0725 0,0 z m -36.82394,13.61097 c -0.008,10e-4 -0.031,-0.006 0,0 z" />
  </g>
</svg>
