<?xml version="1.0" encoding="UTF-8" standalone="no"?>
<svg
   xmlns:dc="http://purl.org/dc/elements/1.1/"
   xmlns:cc="http://creativecommons.org/ns#"
   xmlns:rdf="http://www.w3.org/1999/02/22-rdf-syntax-ns#"
   xmlns:svg="http://www.w3.org/2000/svg"
   xmlns="http://www.w3.org/2000/svg"
   xmlns:sodipodi="http://sodipodi.sourceforge.net/DTD/sodipodi-0.dtd"
   xmlns:inkscape="http://www.inkscape.org/namespaces/inkscape"
   version="1.0"
   width="800.76239"
   height="1000.67889"
   id="map"
   sodipodi:version="0.32"
   inkscape:version="1.0.1 (3bc2e813f5, 2020-09-07)"
   sodipodi:docname="map4.svg">
  <metadata
     id="metadata276">
    <rdf:RDF>
      <cc:Work
         rdf:about="">
        <dc:format>image/svg+xml</dc:format>
        <dc:type
           rdf:resource="http://purl.org/dc/dcmitype/StillImage" />
        <dc:title></dc:title>
      </cc:Work>
    </rdf:RDF>
  </metadata>
  <sodipodi:namedview
     inkscape:window-height="1032"
     inkscape:window-width="1886"
     inkscape:pageshadow="2"
     inkscape:pageopacity="0.0"
     guidetolerance="10.0"
     gridtolerance="10.0"
     objecttolerance="10.0"
     borderopacity="1.0"
     bordercolor="#666666"
     pagecolor="#ffffff"
     id="base"
     inkscape:zoom="0.95303929"
     inkscape:cx="323.71332"
     inkscape:cy="341.42843"
     inkscape:window-x="0"
     inkscape:window-y="0"
     inkscape:current-layer="layer1"
     inkscape:document-rotation="0"
     showgrid="false"
     inkscape:window-maximized="1" />
  <defs
     id="defs4" />
  <g
     id="Territories"
     transform="translate(-27.068721,-169.4788)">
    <path
       id="Abilene"
       style="fill:#000000;fill-opacity:1;fill-rule:evenodd;stroke:#ffffff;stroke-width:1px;stroke-linecap:butt;stroke-linejoin:miter;stroke-opacity:1"
       d="m 687.8512,803.54912 c -11.09676,0.74467 -22.1937,1.48681 -33.29036,2.23307 0.005,0.39872 -0.73694,0.14719 -1.05195,0.26737 -17.09119,1.28325 -34.18237,2.56671 -51.27357,3.84982 0.2467,3.67325 0.4958,7.34635 0.74349,11.01953 -13.93186,0.59754 -27.86369,1.19604 -41.79557,1.79297 0.75916,14.75699 1.51953,29.51385 2.27864,44.27085 14.17052,-0.5948 28.34116,-1.1864 42.51172,-1.78 -0.004,0.43727 0.70931,0.0517 1.01205,0.137 17.99514,-1.228 35.99025,-2.4564 53.98535,-3.68513 0.0117,-0.37747 0.74157,-0.12087 1.05324,-0.23347 6.1064,-0.34513 12.21268,-0.69226 18.31916,-1.03606 -0.72066,-1.50427 -1.49827,-3.02114 -1.69256,-4.7028 -0.43177,-2.66647 0.34985,-5.48014 2.08785,-7.54667 1.12511,-1.43453 2.99963,-2.5586 4.86961,-2.07473 0.47636,0.0998 0.95274,0.1996 1.4291,0.29946 -0.0936,-1.87673 -0.1869,-3.75353 -0.28124,-5.6302 -0.42401,-0.61973 -0.66773,-1.39906 -1.3483,-1.7912 -0.38445,-0.37253 -1.03229,-0.5706 -1.05821,-1.1806 -0.009,-0.3748 -0.43162,-0.86953 -0.12359,-1.15213 0.42879,-0.35307 0.80892,-0.8306 1.26734,-1.10787 0.45484,-0.0502 0.97637,0.10127 1.38802,-0.0795 2.29452,-1.7024 4.58853,-3.40547 6.88386,-5.10674 -0.85586,-1.0882 -1.71106,-2.177 -2.5664,-3.2656 -0.68033,-7.86158 -1.36286,-15.72296 -2.04168,-23.58465 -0.43534,0.0291 -0.87066,0.0582 -1.306,0.0872 z"
       name="Abilene"
       region="4" />
    <path
       id="Alpine"
       style="fill:#000000;fill-opacity:1;fill-rule:evenodd;stroke:#ffffff;stroke-width:1px;stroke-linecap:butt;stroke-linejoin:miter;stroke-opacity:1"
       d="m 695.69235,707.47881 c -15.42231,1.22386 -30.84457,2.4485 -46.26693,3.67187 0.50321,16.34548 1.00511,32.69101 1.50912,49.03646 3.46783,-0.12123 6.93577,-0.23942 10.40364,-0.35937 0.35876,5.50172 0.71527,11.00358 1.07552,16.5052 0.58507,-0.23665 0.37511,0.4706 0.45926,0.82869 0.80509,9.93903 1.6079,19.87824 2.41444,29.81715 7.31598,-0.29773 14.63195,-0.59549 21.94792,-0.89323 0.51534,7.37629 1.02952,14.75266 1.54558,22.12889 0.88712,1.2082 1.77278,2.4174 2.65885,3.62633 1.01433,-0.13473 2.02867,-0.26993 3.04293,-0.40493 0.977,0.50953 1.954,1.01906 2.931,1.5286 -0.049,0.46573 -0.0981,0.93146 -0.14713,1.39713 -1.3112,0.11373 -2.62233,0.22827 -3.9336,0.34113 -0.37773,1.27954 -0.68167,2.599 -1.10313,3.85427 -0.53147,0.62953 -1.16007,1.21387 -1.6328,1.8706 -0.137,0.95847 -0.2736,1.91693 -0.40987,2.8754 0.91927,0.15273 1.83853,0.30553 2.7578,0.45833 0.40493,0.86407 0.9012,1.69674 1.25013,2.58 0.0561,0.5222 0.36854,1.06227 0.0697,1.55974 -0.39953,1.27626 -1.01147,2.498 -1.1524,3.84066 -0.16173,0.96447 -0.3234,1.92887 -0.48513,2.89334 1.02233,-0.954 2.11153,-1.84554 3.09233,-2.83827 1.1984,-1.52527 2.3968,-3.05053 3.5952,-4.5758 0.36127,-0.22927 0.742,-0.27173 1.14307,-0.12073 1.28913,0.25766 2.57826,0.51513 3.86733,0.77306 0.2432,-1.13193 0.4862,-2.26386 0.7292,-3.3958 1.89793,-1.90253 3.84507,-3.77766 5.49373,-5.90606 0.525,-0.6068 0.76194,-1.3872 0.75627,-2.1812 0.27907,-3.80687 0.41493,-7.6652 1.39113,-11.37424 0.5978,-1.71932 1.223,-3.4755 1.22014,-5.321 0.0347,-0.94726 -0.27947,-1.85363 -0.2732,-2.79977 -0.25154,-3.63203 -0.4942,-7.30829 -0.61934,-10.96463 0.0171,-1.04667 -0.1788,-2.28519 0.28267,-3.3239 0.7064,-1.72157 1.92347,-3.17198 3.12433,-4.56061 1.49214,-3.52055 1.1032,-7.75579 -0.99966,-10.94998 -1.71587,-2.7896 -3.50874,-5.55367 -4.856,-8.54647 -0.60074,-1.37743 -0.71874,-2.89862 -1.10387,-4.34084 -0.3344,-1.50202 -0.6832,-3.00111 -1.023,-4.50216 -0.51567,0.17602 -0.33467,-0.58422 -0.49307,-0.88829 -1.4896,-7.21327 -2.83386,-14.47207 -3.54626,-21.80831 -0.4018,-4.64815 -0.513,-9.43388 -2.2578,-13.82752 -1.17754,-3.07112 -2.52687,-6.10306 -3.171,-9.34658 -0.19147,-0.86152 -0.34707,-1.66892 -0.48647,-2.49487 -0.41447,-2.32036 -0.70233,-4.66131 -0.94253,-7.00552 -0.0509,-0.58987 -0.12334,-1.28931 -0.1724,-1.91432 -0.14674,-1.68069 -0.2368,-3.36557 -0.3172,-5.05053 -0.45614,0.036 -0.91234,0.072 -1.36847,0.10808 z"
       name="Alpine"
       region="1" />
    <path
       id="Amarillo"
       style="fill:#000000;fill-opacity:1;fill-rule:evenodd;stroke:#ffffff;stroke-width:1px;stroke-linecap:butt;stroke-linejoin:miter;stroke-opacity:1"
       d="m 665.82647,662.84339 c -0.52569,0.28954 -1.02508,0.66558 -1.56659,0.90306 -1.2942,0.065 -2.5885,0.12804 -3.88263,0.1946 -0.34921,0.58301 -0.69874,1.16582 -1.04818,1.7487 -0.94184,0 -1.88368,0 -2.82552,0 -0.78675,2.01707 -1.74333,4.10108 -3.46003,5.49642 -0.87292,0.75291 -2.08276,0.58576 -3.12778,0.87244 -1.67496,0.33702 -3.27941,0.95036 -4.82972,1.65292 -1.76141,0.55585 -3.51764,1.20342 -5.3546,1.45348 -0.91787,-0.14751 -1.78186,-0.49927 -2.64714,-0.82422 -0.65395,0.95904 -1.35947,1.8925 -1.98208,2.86703 -0.50075,1.52565 -1.01642,3.1198 -2.06506,4.36631 -0.77185,0.59268 -1.78248,0.76183 -2.70677,1.00364 -0.99021,0.21676 -1.99825,0.33198 -2.99869,0.48958 0.36004,1.32024 0.71893,2.64081 1.07942,3.96094 0.3684,0.20112 0.73692,0.40202 1.10547,0.60286 -1.36998,1.72458 -2.67824,3.52902 -4.32161,5.00781 -0.84837,0.16289 -1.49743,0.9079 -1.63329,1.75682 -0.17411,0.80925 -0.13694,1.64669 -0.0607,2.46584 -0.71005,0.65583 -1.42028,1.31147 -2.1302,1.96745 -0.33039,1.42951 -0.59258,2.88893 -0.9635,4.30014 -0.79034,1.09487 -1.58112,2.1894 -2.37114,3.28449 0.0546,0.43808 0.0279,0.82337 -0.48746,0.89086 -0.46838,0.23331 -0.94152,0.44637 -1.47805,0.38948 -1.46201,0.0637 -2.92402,0.12761 -4.38605,0.19101 -0.0747,1.20706 -0.1501,2.41408 -0.22526,3.6211 -1.39314,1.71331 -2.84799,3.38079 -4.20336,5.12216 -1.02091,1.50678 -2.00028,3.05197 -3.04696,4.53493 -1.18534,0.94753 -2.72106,1.4894 -4.24479,1.2907 -0.32781,0.0671 -1.06758,-0.28189 -0.89013,0.29553 0.50173,15.87592 1.00524,31.75179 1.50503,47.62778 7.77947,-0.33611 15.55901,-0.67048 23.33854,-1.00522 0,-0.47482 0,-0.94965 0,-1.42448 3.09505,-0.11896 6.19012,-0.23742 9.28516,-0.35676 0,-3.70009 0,-7.40018 0,-11.10026 6.79817,-0.41762 13.59639,-0.83454 20.39453,-1.25261 -0.4162,-13.97879 -0.83622,-27.95745 -1.2539,-41.9362 14.74608,-0.90465 29.49224,-1.80816 44.23828,-2.71354 -0.75266,-6.04961 -1.56333,-12.10665 -2.93146,-18.05297 -0.458,-1.70762 -0.82214,-3.51589 -1.86007,-4.98394 -1.12107,-1.50901 -2.17467,-3.08949 -3.13459,-4.64858 -1.07658,-1.74912 -2.08002,-3.54584 -2.94238,-5.41086 -0.10296,-0.23193 -0.32132,-0.70583 -0.4517,-1.039 -0.9736,-2.74786 -3.2563,-4.74884 -5.59228,-6.3574 -2.7246,-1.86817 -5.73759,-3.25164 -8.76608,-4.54446 -1.14617,-0.56618 -2.3711,-1.14132 -3.19384,-2.15159 -0.2092,-0.4362 -0.4184,-0.8724 -0.6276,-1.30859 -0.41841,0.25086 -0.83681,0.50173 -1.25521,0.7526 z"
       name="Amarillo"
       region="1" />
    <path
       id="Austin"
       style="fill:#000000;fill-opacity:1;fill-rule:evenodd;stroke:#ffffff;stroke-width:1px;stroke-linecap:butt;stroke-linejoin:miter;stroke-opacity:1"
       d="m 651.97881,753.01266 c -7.28037,0.38006 -14.56086,0.75771 -21.84115,1.13933 0.1191,3.62499 0.23783,7.25 0.35678,10.875 -3.1033,0.11939 -6.20662,0.23829 -9.3099,0.35806 0.0238,0.4757 0.0479,0.95138 0.0716,1.42709 -13.7652,0.53579 -27.53034,1.07345 -41.29558,1.60807 0.56249,18.375 1.12408,36.75003 1.6875,55.125 8.04775,-0.066 16.09548,-0.13386 24.14323,-0.20052 -0.24077,-3.7213 -0.47995,-7.44271 -0.72005,-11.16406 7.01779,-0.53518 14.0356,-1.07018 21.05338,-1.60547 -0.20596,-0.57077 0.51122,-0.32955 0.84587,-0.4248 13.59955,-1.05024 27.19911,-2.10049 40.79867,-3.15072 -1.31798,-16.63413 -2.63631,-33.26823 -3.95443,-49.90235 -3.43709,0.0576 -6.87413,0.11824 -10.3112,0.17709 -0.0598,-1.44358 -0.11947,-2.88717 -0.17969,-4.33073 -0.44835,0.023 -0.8967,0.046 -1.34505,0.069 z"
       name="Austin"
       region="2" />
    <path
       id="CollegeStation"
       style="fill:#000000;fill-opacity:1;fill-rule:evenodd;stroke:#ffffff;stroke-width:1px;stroke-linecap:butt;stroke-linejoin:miter;stroke-opacity:1"
       d="m 580.77438,612.63636 c -14.46571,0.3069 -28.93142,0.61343 -43.39713,0.92057 0.44126,14.84771 0.8849,29.69536 1.32943,44.54297 5.97269,-0.13689 11.9453,-0.27714 17.91796,-0.41537 0.17338,12.79299 0.35457,25.56764 0.5612,38.36198 -5.80902,0 -11.61806,0 -17.42708,0 -0.0598,0.65492 -0.11986,1.30982 -0.17839,1.96485 -6.95443,0 -13.90885,0 -20.86328,0 0.37813,14.99959 0.75754,29.99916 1.13802,44.99869 7.78255,-0.0682 15.56511,-0.13375 23.34766,-0.20182 0,-0.88888 0,-1.77778 0,-2.66666 5.78342,0 11.56684,0 17.35026,0 -0.0765,-3.62372 -0.15552,-7.2474 -0.23307,-10.8711 2.69097,0.0451 5.38194,0.0903 8.07291,0.13542 0,1.73741 0,3.47482 0,5.21224 6.68273,-0.0589 13.36545,-0.119 20.04818,-0.17838 0.0586,1.64886 0.11703,3.29774 0.17578,4.94661 4.51043,0.14761 9.02091,0.29384 13.53125,0.44401 -0.0686,-5.64366 -0.13523,-11.28734 -0.20442,-16.93099 -1.29158,-0.81742 -2.55317,-1.69357 -3.86459,-2.47266 -3.1196,-1.23771 -6.22885,-2.50094 -9.33333,-3.77604 -0.18984,0.40258 -0.48084,0.56883 -0.87398,0.29339 -2.1431,-0.96176 -3.9993,-2.44485 -5.83175,-3.89104 -1.62301,-1.33316 -2.83315,-3.31709 -2.76599,-5.47134 0.0296,-1.92193 0.81375,-3.76994 1.94958,-5.2969 0.17476,-5.04562 0.35267,-10.09113 0.52865,-15.13671 0.81163,-0.48698 1.62326,-0.97396 2.43489,-1.46094 0.18689,-1.552 0.37233,-3.10417 0.5586,-4.65625 0.96484,-0.96441 1.92968,-1.92882 2.89453,-2.89323 2.41374,-0.15518 4.8243,-0.39731 7.2401,-0.49609 1.87483,0 3.74965,0 5.62448,0 0.0114,-1.31305 0.0364,-2.62721 0.16537,-3.9349 0.0258,-0.24125 0.0701,-0.73446 0.11925,-1.07691 -0.005,-0.43429 0.13417,-0.85432 0.53712,-1.07353 1.64099,-1.11907 3.61531,-1.59716 5.5155,-2.08133 0.74723,-0.17384 1.50119,-0.31461 2.25391,-0.46224 0.0203,-1.05171 -0.0404,-2.12256 0.0298,-3.1625 0.51057,-1.06073 1.08954,-2.10263 1.55849,-3.17481 0.22011,-2.93574 0.43919,-5.87156 0.66041,-8.80722 -9.27346,0.22252 -18.54688,0.44627 -27.82032,0.66927 -0.47763,-13.97613 -0.95715,-27.95221 -1.43359,-41.92839 -0.4388,0.009 -0.87761,0.0182 -1.31641,0.0273 z"
       name="College Station"
       region="3" />
    <path
       id="CorpusChristi"
       style="fill:#000000;fill-opacity:1;fill-rule:evenodd;stroke:#ffffff;stroke-width:1px;stroke-linecap:butt;stroke-linejoin:miter;stroke-opacity:1"
       d="m 620.39157,526.94105 c -14.79037,0.55196 -29.5807,1.10486 -44.37109,1.65624 0.59462,15.56275 1.21936,31.12441 1.79248,46.68794 0.44672,13.29673 0.89392,26.59345 1.34033,39.89019 0.56927,-0.18783 0.27911,0.53433 0.36611,0.85715 0.41186,13.58321 0.82335,27.16642 1.23545,40.74962 10.13369,-0.25931 20.26737,-0.51901 30.40105,-0.77864 0.22741,-3.3533 0.45236,-6.74004 1.31277,-10.0015 0.17279,-0.66901 0.45395,-1.32655 1.02947,-1.74612 0.76456,-0.72882 1.55597,-1.42904 2.36739,-2.10525 0.92491,0.0842 1.84983,0.16841 2.77474,0.25261 0.31245,0.43635 0.62484,0.87276 0.9362,1.30989 0.84592,0 1.69184,0 2.53776,0 0.29918,-2.02725 0.69207,-4.17706 2.01562,-5.8125 1.53784,-1.51022 3.63151,-2.27786 5.66737,-2.85939 0.39728,-0.12393 0.0976,-0.76964 0.1907,-1.12134 0.0162,-2.11632 -0.0323,-4.24478 0.0242,-6.35354 0.43645,-1.12206 0.87228,-2.24436 1.30918,-3.36625 -0.30662,-0.98301 -0.68779,-1.95623 -0.95162,-2.94405 0.26904,-3.2986 0.538,-6.5972 0.80709,-9.89579 -0.49558,0.0907 -0.12754,-0.67801 -0.21689,-0.99155 0.14825,-4.14778 0.2965,-8.29557 0.44475,-12.44335 0.58011,-1.08101 1.22969,-2.13977 1.76789,-3.23421 0.19541,-1.61267 0.32906,-3.2433 0.5614,-4.84495 0.39545,-0.79089 0.79089,-1.58177 1.18634,-2.37266 -0.7262,-0.76273 -1.5362,-1.46308 -2.21038,-2.26451 -0.30004,-0.63596 -0.75005,-1.23124 -0.95322,-1.89348 -0.11904,-3.34491 -0.23843,-6.6898 -0.35724,-10.03472 -0.53518,-0.64646 -1.17281,-1.22918 -1.64319,-1.9155 -0.20099,-0.60275 -0.54867,-1.1773 -0.66019,-1.79726 0,-1.0007 0,-2.00139 0,-3.00208 -2.34394,-0.61633 -4.42087,-1.92158 -6.49406,-3.1323 -1.4585,-0.94697 -3.15023,-1.70837 -4.11887,-3.22522 -1.53869,-2.3411 -1.77343,-5.2657 -1.64976,-7.99388 0.0549,-1.04888 0.18031,-2.09412 0.37337,-3.12647 0.67491,-0.72005 1.34982,-1.4401 2.02474,-2.16015 0.57693,0.0265 1.1865,-0.0521 1.74374,0.0378 0.94036,0.60957 1.8207,1.32658 2.80016,1.86622 1.6168,0.68228 3.19429,1.46634 4.83687,2.08188 2.22731,0.74236 4.45455,1.48491 6.68173,2.22768 -1.47734,-2.58445 -2.95413,-5.1692 -4.431,-7.75391 -0.0832,-1.15383 -0.0778,-2.33477 -0.21444,-3.47225 -0.6634,-1.11226 -1.37954,-2.20276 -2.01044,-3.32832 -0.25096,-1.06866 -0.50222,-2.13724 -0.75298,-3.20594 -1.29936,-1.07478 -2.65583,-2.10287 -3.92,-3.20632 -0.9099,-1.75546 -1.82,-3.5108 -2.72974,-5.26634 -0.28125,0.0109 -0.5625,0.0217 -0.84375,0.0326 z"
       name="Corpus Christi"
       region="2" />
    <path
       id="Dallas"
       style="fill:#000000;fill-opacity:1;fill-rule:evenodd;stroke:#ffffff;stroke-width:1px;stroke-linecap:butt;stroke-linejoin:miter;stroke-opacity:1"
       d="m 549.79392,478.55172 c -1.84896,0.15365 -3.69781,0.30862 -5.54688,0.46094 0.53498,16.97175 1.06752,33.94358 1.60156,50.91537 -3.50824,0.15403 -7.01648,0.30854 -10.52474,0.46224 0.3797,14.57119 0.75972,29.14238 1.14063,43.71354 14.70576,-0.37904 29.41145,-0.7605 44.11719,-1.14063 -0.59808,-13.95437 -1.19337,-27.90886 -1.79037,-41.86328 14.86978,-0.72765 29.73966,-1.45337 44.60937,-2.18229 -1.31663,-1.35676 -2.85765,-2.53252 -3.90316,-4.12726 -0.0362,-0.28634 0.51377,-0.44837 0.73791,-0.63536 0.38355,-0.21174 0.78877,-0.38098 1.18218,-0.57332 0,-1.59114 0,-3.18229 0,-4.77344 -1.16961,-0.48156 -2.33941,-0.96267 -3.50911,-1.44401 -1.84366,-2.58209 -3.68811,-5.16363 -5.53125,-7.74609 -1.06771,0 -2.13542,0 -3.20313,0 -0.28941,0.32254 -0.51295,0.64036 -0.76458,0.17838 -1.29245,0 -2.5849,0 -3.87734,0 -0.30314,0.20299 -0.51899,0.72134 -0.87934,0.71762 -0.63208,-0.20446 -1.34014,-0.24136 -1.92303,-0.55424 -3.92909,-2.72513 -7.85878,-5.4494 -11.78748,-8.1751 -0.34157,0.4783 -0.6831,0.95664 -1.02474,1.4349 0.19254,-0.5926 -0.39714,-0.47114 -0.79669,-0.52326 -1.3238,-0.12067 -2.6477,-0.24052 -3.97154,-0.36085 -2.29756,-1.71377 -4.56778,-3.46832 -6.69515,-5.39154 -1.62179,-1.3495 -3.37275,-2.74604 -5.49433,-3.15966 -1.09334,-0.16255 -2.19923,0.067 -3.29984,0.0167 -1.75095,0.0111 -3.50154,-0.0381 -5.25156,-0.0892 -0.43572,0.32645 -0.87152,0.65278 -1.3073,0.97917 -0.62676,-0.20263 -1.37417,-0.14976 -1.85759,-0.65596 -0.4692,-0.39057 -1.01397,-0.72139 -1.43667,-1.14873 -0.49961,-1.13967 -0.79652,-2.36491 -0.81771,-3.61068 -0.41769,-1.68585 -1.5263,-3.0832 -2.48644,-4.49355 -1.57676,-2.17285 -3.28111,-4.25038 -5.02789,-6.2877 -0.22699,0.0191 -0.45399,0.0382 -0.68098,0.0573 z"
       name="Dallas"
       region="4" />
    <path
       id="Denton"
       style="fill:#000000;fill-opacity:1;fill-rule:evenodd;stroke:#ffffff;stroke-width:1px;stroke-linecap:butt;stroke-linejoin:miter;stroke-opacity:1"
       d="m 578.96709,570.15459 c -13.89607,0.4744 -27.79151,0.9755 -41.68798,1.4332 -13.91434,0.18231 -27.82866,0.36552 -41.74301,0.54726 0,14.23351 0,28.46702 0,42.70053 -0.0446,0.77193 0.0249,1.65705 0,2.47265 0.0818,1.12802 0.0585,2.36329 0.0999,3.53254 0.27401,12.87544 0.54787,25.75088 0.82197,38.62632 14.93797,-0.44188 29.87592,-0.88462 44.8138,-1.32943 -0.35678,-13.98567 -0.71354,-27.97135 -1.07031,-41.95703 13.87239,-0.29638 27.74478,-0.59325 41.61719,-0.88932 -0.50636,-15.06119 -1.01324,-30.12236 -1.51824,-45.1836 -0.44444,0.0156 -0.88888,0.0312 -1.33333,0.0469 z"
       name="Denton"
       region="4" />
    <path
       id="ElCampo"
       style="fill:#000000;fill-opacity:1;fill-rule:evenodd;stroke:#ffffff;stroke-width:1px;stroke-linecap:butt;stroke-linejoin:miter;stroke-opacity:1"
       d="m 536.6598,530.15329 c -10.72439,0.24836 -21.4488,0.49587 -32.17318,0.74479 -0.0603,3.50172 -0.11882,7.00347 -0.17838,10.50521 -12.66783,-0.0128 -25.33528,0.11277 -38.00293,0.16615 -0.35923,-0.0405 -0.99585,0.20256 -0.80971,-0.39553 -0.0574,-3.42962 -0.11338,-6.85926 -0.17174,-10.28886 -5.5703,-0.0724 -11.14064,-0.14222 -16.71094,-0.21484 0.4247,4.41564 0.87023,8.83208 1.27995,13.2474 -0.25633,2.68308 -0.25077,5.38457 -0.35026,8.07682 -0.0662,2.71428 -0.0768,5.37955 -0.45579,8.08686 -0.27984,2.14274 -0.73497,4.36251 -1.29421,6.3845 -0.80647,2.95556 -1.91773,5.8283 -3.36874,8.5283 -0.40968,0.50545 -0.11223,0.57505 0.41301,0.50425 1.47613,0 2.95226,0 4.42839,0 0.26215,0.89366 0.52555,1.78696 0.78646,2.68099 1.43671,0.64209 2.93865,1.15492 4.26187,2.02252 0.83092,0.48458 1.66218,0.96856 2.49334,1.45274 0.31193,-1.95105 0.62488,-3.90193 0.9375,-5.85287 0.34284,-0.24723 0.64703,-0.60862 1.11378,-0.48995 12.29324,-0.11272 24.58647,-0.22545 36.8797,-0.33817 0.77092,0.0235 1.69823,-0.0145 2.48048,-0.0404 13.63714,-0.35897 27.2743,-0.71768 40.91145,-1.07682 -0.37851,-14.57774 -0.75972,-29.1554 -1.14062,-43.73307 -0.44315,0.01 -0.88629,0.02 -1.32943,0.0299 z"
       name="El Campo"
       region="3" />
    <path
       id="ElPaso"
       style="fill:#000000;fill-opacity:1;fill-rule:evenodd;stroke:#ffffff;stroke-width:1px;stroke-linecap:butt;stroke-linejoin:miter;stroke-opacity:1"
       d="m 496.93714,572.20146 c -13.0473,0.0426 -26.09462,0.0849 -39.14192,0.12761 -0.82108,0.50582 -1.64206,1.01178 -2.46354,1.51692 -0.37162,2.0889 -0.80945,4.17198 -1.14063,6.26433 0.0812,11.56206 0.16233,23.12413 0.24349,34.68619 -0.34473,0.0618 -0.0585,0.75214 -0.1495,1.06666 0.0612,14.45999 0.12401,28.91997 0.18466,43.37996 14.82378,0.0622 29.64756,0.12818 44.47135,0.1901 -0.25392,-14.8789 -0.50726,-29.7578 -0.76042,-44.63672 -0.0677,-0.74002 -0.005,-1.61003 -0.0228,-2.39998 0.0401,-13.39966 0.0805,-26.79932 0.12041,-40.19898 -0.44705,10e-4 -0.8941,0.003 -1.34115,0.004 z"
       name="El Paso"
       region="1" />
    <path
       id="FortWorth"
       style="fill:#000000;fill-opacity:1;fill-rule:evenodd;stroke:#ffffff;stroke-width:1px;stroke-linecap:butt;stroke-linejoin:miter;stroke-opacity:1"
       d="m 557.92933,655.51136 c -13.42838,0.12345 -26.85678,0.24536 -40.28515,0.36979 0.18193,0.56579 -0.18389,0.60287 -0.65232,0.5409 -13.58421,0.11708 -27.16843,0.23354 -40.75263,0.35103 0.12753,14.81509 0.25259,29.63021 0.38021,44.44531 14.94228,-0.062 29.88454,-0.12706 44.82682,-0.1888 -0.0647,-0.46596 -0.0659,-0.86928 0.51899,-0.69332 6.72197,0.058 13.44394,0.11559 20.16591,0.17378 0,-0.76822 0,-1.53645 0,-2.30468 5.89887,0.11878 11.79772,0.2388 17.69661,0.35677 -0.19063,-14.35417 -0.37983,-28.70835 -0.57161,-43.0625 -0.44228,0.004 -0.88456,0.008 -1.32683,0.0117 z"
       name="Fort Worth"
       region="4" />
    <path
       id="Houston"
       style="fill:#000000;fill-opacity:1;fill-rule:evenodd;stroke:#ffffff;stroke-width:1px;stroke-linecap:butt;stroke-linejoin:miter;stroke-opacity:1"
       d="m 394.54261,657.11813 c -0.44271,0.002 -0.88541,0.003 -1.32812,0.005 0,15.11719 0,30.23437 0,45.35156 14.82335,-0.1273 29.64671,-0.25282 44.47005,-0.38021 0.0273,-0.38189 0.74606,-0.0883 1.06402,-0.18629 13.51034,-0.11681 27.02069,-0.23292 40.53103,-0.35017 -0.0619,-14.81163 -0.12689,-29.62326 -0.1888,-44.43489 -14.87717,-0.0547 -29.75433,-0.14159 -44.6315,-0.17783 -13.30556,0.0575 -26.61112,0.11508 -39.91668,0.17262 z"
       name="Houston"
       region="3" />
    <path
       id="Laredo"
       style="fill:#000000;fill-opacity:1;fill-rule:evenodd;stroke:#ffffff;stroke-width:1px;stroke-linecap:butt;stroke-linejoin:miter;stroke-opacity:1"
       d="m 359.30042,700.42672 c 0.13879,1.31129 -0.4284,2.56899 -0.87987,3.77019 -1.76244,4.11835 -4.20111,7.9016 -6.66309,11.6286 -0.8725,1.30201 -1.76882,2.58791 -2.6875,3.85772 0.22332,2.70666 0.67253,5.40234 1.39695,8.02042 1.1553,3.56981 2.91982,6.90402 4.63091,10.22656 0.21207,0.84953 0.42413,1.69906 0.6362,2.5486 -0.40782,0.001 0.13684,0.70189 0.14312,1.00721 2.70963,8.06053 5.43248,16.17513 8.14985,24.25711 2.81567,5.77555 5.63172,11.53577 8.32031,17.35156 0.40036,0.8351 0.72946,1.70832 1.09773,2.5517 0.64019,0.89415 1.86458,0.89273 2.85349,1.03408 4.12631,0.363 8.27534,0.31914 12.41414,0.34165 6.49774,-0.0116 12.99477,-0.13742 19.49011,-0.30764 0,-3.73871 0,-7.47743 0,-11.21614 3.34896,0 6.69791,0 10.04687,0 -0.12565,-3.60413 -0.249,-7.20834 -0.3737,-10.8125 6.77822,-0.0281 13.55642,-0.0572 20.33464,-0.0846 -0.12462,-21.78168 -0.24772,-43.56337 -0.3724,-65.34505 -13.98568,0.0585 -27.97135,0.11908 -41.95702,0.17838 0.174,-0.57749 -0.53678,-0.27452 -0.86666,-0.3506 -11.97892,-0.0624 -23.95782,-0.12634 -35.93673,-0.18846 0.0742,0.51042 0.14843,1.02084 0.22265,1.53125 z"
       name="Laredo"
       region="2" />
    <path
       id="Lubbock"
       style="fill:#000000;fill-opacity:1;fill-rule:evenodd;stroke:#ffffff;stroke-width:1px;stroke-linecap:butt;stroke-linejoin:miter;stroke-opacity:1"
       d="m 520.05563,698.18975 c -13.54079,0.28906 -27.08159,0.57812 -40.62239,0.86718 -0.0529,-0.36306 -0.75094,-0.0649 -1.06923,-0.15592 -14.27771,0.12418 -28.55541,0.24763 -42.83311,0.37207 0.0585,13.92448 0.11907,27.84895 0.17838,41.77343 -0.37562,0.0377 -0.0784,0.74818 -0.17318,1.06667 0,7.56068 0,15.12135 0,22.68203 7.44445,-0.0588 14.88889,-0.11902 22.33334,-0.17838 0.0596,7.08376 0.11782,14.16754 0.17838,21.2513 15.00954,-0.12808 30.0191,-0.25401 45.02865,-0.38151 -0.54201,-14.1028 -1.08047,-28.20574 -1.6211,-42.30859 6.96094,0 13.92188,0 20.88281,0 -0.31646,-15.00564 -0.63174,-30.01131 -0.94922,-45.01693 -0.44444,0.01 -0.88888,0.0191 -1.33333,0.0286 z"
       name="Lubbock"
       region="1" />
    <path
       id="Nacogdoches"
       style="fill:#000000;fill-opacity:1;fill-rule:evenodd;stroke:#ffffff;stroke-width:1px;stroke-linecap:butt;stroke-linejoin:miter;stroke-opacity:1"
       d="m 459.17412,761.93975 c -14.67361,0.18405 -29.34722,0.36786 -44.02083,0.55208 0.0667,3.42884 0.13553,6.85764 0.20313,10.28646 -3.34679,-0.1178 -6.69364,-0.23356 -10.04037,-0.35287 0.11756,3.99961 0.23801,7.99913 0.35677,11.9987 -11.0395,-0.12256 -22.079,-0.24375 -33.11849,-0.36719 0.93211,1.82471 1.88297,3.65505 2.43908,5.63764 1.49603,5.02587 2.08206,10.26589 2.53618,15.47304 0.53297,6.78618 0.66546,13.60457 0.53812,20.4549 -0.0231,0.85399 -0.0451,1.70802 -0.0668,2.56202 0.46166,-0.0561 0.13157,0.69407 0.23904,0.9986 0.0602,9.66574 -0.44341,19.3776 -2.25166,28.8886 -0.62758,3.18374 -1.37466,6.35847 -2.51472,9.40187 -0.56373,-0.17833 -0.42053,0.49953 -0.54686,0.851 -1.15385,6.1388 -2.79584,12.27113 -5.76318,17.80333 -0.90433,1.68527 -1.99353,3.27507 -3.33822,4.641 -0.41498,0.45927 -0.82998,0.91854 -1.24497,1.37787 4.97352,-0.0679 9.94705,-0.13453 14.92057,-0.20187 0,6.90407 0,13.8082 0,20.71227 14.8212,-0.18893 29.64236,-0.3796 44.46355,-0.569 -0.11987,-14.02607 -0.23769,-28.05213 -0.35677,-42.07813 6.36892,-0.0175 12.73784,-0.0342 19.10677,-0.0521 -0.12047,-13.89887 -0.24041,-27.7978 -0.36068,-41.69667 6.96658,-0.0293 13.93315,-0.06 20.89974,-0.0885 -0.24958,-22.0833 -0.49509,-44.16667 -0.74479,-66.24999 -0.44488,0.006 -0.88976,0.0113 -1.33464,0.0169 z"
       name="Nacogdoches"
       region="3" />
    <path
       id="Odessa"
       style="fill:#000000;fill-opacity:1;fill-rule:evenodd;stroke:#ffffff;stroke-width:1px;stroke-linecap:butt;stroke-linejoin:miter;stroke-opacity:1"
       d="m 501.85251,782.29651 c -14.55165,0.18406 -29.1033,0.36793 -43.65495,0.55209 0.18043,14.17144 0.36113,28.34288 0.54167,42.51432 -7.08333,0.17988 -14.1667,0.35814 -21.25,0.53907 0.12765,14.69268 0.25295,29.38541 0.38021,44.07814 15.18011,-0.19013 30.36024,-0.37906 45.54036,-0.56906 -0.2986,-14.0186 -0.59722,-28.03727 -0.89584,-42.05594 6.89628,-0.0886 13.79254,-0.17706 20.68881,-0.26566 0,-14.93662 0,-29.87325 0,-44.80988 -0.45009,0.006 -0.90017,0.0113 -1.35026,0.0169 z"
       name="Odessa"
       region="1" />
    <path
       id="Ozona"
       style="fill:#000000;fill-opacity:1;fill-rule:evenodd;stroke:#ffffff;stroke-width:1px;stroke-linecap:butt;stroke-linejoin:miter;stroke-opacity:1"
       d="m 461.86423,867.29653 c -14.31728,0.061 -28.63455,0.12347 -42.95183,0.1836 0.17618,13.98827 0.35244,27.97654 0.52865,41.9648 -13.07031,0.0565 -26.14063,0.11287 -39.21094,0.16927 0.0411,-6.66533 0.0835,-13.33073 0.1237,-19.99607 -5.14974,0 -10.29948,0 -15.44922,0 -3.71122,5.62967 -7.49614,11.21134 -11.1458,16.88074 -1.5551,2.38326 -2.93947,4.88533 -3.95207,7.54993 -1.52483,3.824 -3.02672,7.67613 -4.73603,11.44073 -4.0061,8.45174 -10.44651,15.67567 -18.17913,20.90074 -2.2325,1.4898 -4.63705,2.6938 -6.95702,4.03773 4.19266,0.0973 8.38586,0.0517 12.579,0.0199 14.9919,-0.0995 29.98379,-0.199 44.97569,-0.29847 0.0523,0.35373 0.75057,0.0725 1.06532,0.1682 13.61234,0.1236 27.22469,0.24647 40.83702,0.37087 0.0377,-0.45114 0.71889,-0.1362 1.04399,-0.24514 14.6724,-0.34893 29.34482,-0.69713 44.01721,-1.04653 0,-13.13673 0,-26.27347 0,-39.4102 -0.43135,0.0287 -0.11383,-0.7056 -0.22714,-1.00093 -0.35251,-13.89814 -0.70286,-27.79627 -1.05671,-41.69434 -0.4349,0.002 -0.8698,0.003 -1.30469,0.005 z"
       name="Ozona"
       region="2" />
    <path
       id="Pampa"
       style="fill:#000000;fill-opacity:1;fill-rule:evenodd;stroke:#ffffff;stroke-width:1px;stroke-linecap:butt;stroke-linejoin:miter;stroke-opacity:1"
       d="m 565.56866,864.44107 c -17.70227,0.6708 -35.40447,1.34326 -53.10678,2.013 0.41548,14.01126 0.83165,28.0226 1.2474,42.03386 -17.30994,0.446 -34.6198,0.89494 -51.92969,1.34247 0.0643,13.19747 0.12727,26.39493 0.19141,39.5924 14.4744,0.0608 28.94878,0.12353 43.42318,0.18493 0.0586,2.342 0.11769,4.684 0.17578,7.026 14.52432,-0.69693 29.04866,-1.39386 43.57291,-2.0924 -0.54022,-14.85026 -1.07887,-29.70053 -1.61849,-44.5508 7.02822,-0.26413 14.05638,-0.52993 21.08464,-0.793 -0.56933,-14.93573 -1.13892,-29.87153 -1.70834,-44.80726 -0.444,0.0169 -0.88802,0.0339 -1.33202,0.0508 z"
       name="Pampa"
       region="1" />
    <path
       id="SanAngelo"
       style="fill:#000000;fill-opacity:1;fill-rule:evenodd;stroke:#ffffff;stroke-width:1px;stroke-linecap:butt;stroke-linejoin:miter;stroke-opacity:1"
       d="m 523.10251,824.08167 c -14.49609,0.1844 -28.99219,0.36931 -43.48828,0.55338 0.30034,14.10155 0.60069,28.20315 0.90104,42.30468 -6.60807,0 -13.21615,0 -19.82422,0 0.25425,14.94054 0.50745,29.88107 0.76042,44.8216 18.33551,-0.18653 36.67101,-0.37433 55.00651,-0.56246 -0.42181,-14.07774 -0.84564,-28.1554 -1.26823,-42.23307 3.39496,-0.0287 6.78993,-0.0566 10.18489,-0.0859 -0.3171,-14.9384 -0.6324,-29.8768 -0.95052,-44.81512 -0.44054,0.006 -0.88108,0.0113 -1.32161,0.0169 z"
       name="San Angelo"
       region="4" />
    <path
       id="SanAntonio"
       style="fill:#000000;fill-opacity:1;fill-rule:evenodd;stroke:#ffffff;stroke-width:1px;stroke-linecap:butt;stroke-linejoin:miter;stroke-opacity:1"
       d="m 641.77178,902.4788 c -5.61368,0.39187 -11.22228,0.8622 -16.83962,1.19747 -9.04957,0.5182 -18.09903,1.0382 -27.14866,1.55513 0.17792,0.55933 -0.58556,0.26113 -0.91447,0.35873 -17.42477,0.64527 -34.84957,1.29007 -52.27433,1.93554 0.57096,15.59713 1.13749,31.19446 1.70703,46.79166 18.93457,-0.99753 37.86897,-1.99813 56.80338,-2.99866 -0.21739,-0.58267 0.49024,-0.35487 0.84111,-0.4396 9.6667,-0.6778 19.33322,-1.3582 29.00004,-2.0344 0.58565,-0.8224 1.1735,-1.64327 1.76042,-2.4648 -0.78656,-1.4148 -1.69927,-2.7694 -2.83204,-3.931 -0.51003,-1.13227 -0.39804,-2.42874 -0.34244,-3.63934 0.89376,-0.70013 1.86511,-1.3406 2.71099,-2.07753 0.46081,-1.15067 0.92092,-2.3016 1.38145,-3.4524 0.50893,-0.35013 1.03107,-0.6692 1.65645,-0.7456 0.53649,-0.1618 1.13414,-0.22727 1.63315,-0.44793 0.70321,-0.86054 1.40741,-1.72027 2.11014,-2.5812 0.12091,-1.625 0.24128,-3.25 0.36198,-4.875 0.26892,-0.32574 0.46147,-0.77494 0.77688,-1.0254 1.70154,-0.25247 3.40326,-0.50367 5.10463,-0.7572 0.27771,-1.3168 0.55556,-2.63367 0.83333,-3.95047 0.81728,-0.91407 1.63456,-1.82813 2.45183,-2.7422 0.61459,-0.0611 1.22921,-0.122 1.84375,-0.1836 0.93636,-1.21733 1.87232,-2.43493 2.80859,-3.65233 -0.79057,-0.86774 -1.5453,-1.77934 -2.35689,-2.62114 -2.26082,-1.33373 -4.52162,-2.66753 -6.78243,-4.00126 -0.51819,-0.90674 -1.03742,-1.8128 -1.55469,-2.72007 -0.91306,-0.14973 -1.822,-0.42947 -2.73958,-0.4974 z"
       name="San Antonio"
       region="2" />
    <path
       id="Turkey"
       style="fill:#000000;fill-opacity:1;fill-rule:evenodd;stroke:#ffffff;stroke-width:1px;stroke-linecap:butt;stroke-linejoin:miter;stroke-opacity:1"
       d="m 677.8499,858.01393 c -20.13036,1.36367 -40.25935,2.7508 -60.39058,4.09967 -17.74306,0.85667 -35.48612,1.71347 -53.22921,2.56967 0.63467,14.8146 1.26563,29.62933 1.89974,44.444 18.57985,-0.8138 37.15972,-1.6268 55.73959,-2.44014 -0.0794,-0.44966 0.68854,-0.1556 0.98264,-0.27746 4.35542,-0.26967 8.71504,-0.48514 13.06781,-0.7888 2.10731,-0.201 4.21463,-0.402 6.32194,-0.603 1.0029,1.028 1.95027,2.12093 2.98698,3.1094 2.71745,1.83806 5.43501,3.676 8.15235,5.51426 0,-2.0364 0,-4.07286 0,-6.10933 0.53126,-0.25327 1.14135,-0.3968 1.47868,-0.92073 0.5071,-0.5494 1.01421,-1.09887 1.52132,-1.64827 0.61154,0 1.22308,0 1.83463,0 0.16121,-1.37913 0.40982,-2.75427 0.51795,-4.13567 -0.24874,-5.26386 -0.35949,-10.53453 -0.52056,-15.80053 0.86117,-2.76907 2.12238,-5.48987 4.10046,-7.64253 1.52241,-1.45234 3.79043,-1.64327 5.72037,-1.95454 1.99966,-0.30766 4.22535,-0.53293 5.75101,-2.01106 1.29666,-1.26254 2.0587,-2.94927 2.5243,-4.6744 0.28062,-1.08934 0.86538,-2.05187 1.49631,-2.9688 1.07713,-1.90327 1.59934,-4.12467 1.5259,-6.3074 -0.0347,-0.52774 -0.24816,-1.086 -0.76189,-1.3068 -0.21664,-0.2212 -0.43674,-0.1736 -0.71974,-0.14754 z"
       name="Turkey"
       region="1" />
    <path
       id="Tyler"
       style="fill:#000000;fill-opacity:1;fill-rule:evenodd;stroke:#ffffff;stroke-width:1px;stroke-linecap:butt;stroke-linejoin:miter;stroke-opacity:1"
       d="m 581.52048,780.20667 c -13.3303,0.20404 -26.6606,0.40768 -39.99089,0.61198 -0.068,0.34516 0.19157,1.00463 -0.10077,1.13446 -13.5415,0.16728 -27.08298,0.33568 -40.62449,0.50226 -0.22429,14.944 -0.44697,29.88804 -0.67187,44.83203 7.17318,-0.0417 14.34635,-0.0843 21.51953,-0.12633 0.35442,13.74353 0.70677,27.48706 1.0625,41.23046 14.47091,-0.38133 28.94187,-0.76106 43.41276,-1.1432 -0.71601,-14.1476 -1.43231,-28.29513 -2.14844,-42.4427 6.77603,-0.19913 13.55215,-0.39528 20.32813,-0.59636 -0.49331,-14.674 -0.986,-29.34803 -1.47657,-44.02213 -0.43663,0.007 -0.87326,0.013 -1.30989,0.0195 z"
       name="Tyler"
       region="4" />
    <path
       id="Uvalde"
       style="fill:#000000;fill-opacity:1;fill-rule:evenodd;stroke:#ffffff;stroke-width:1px;stroke-linecap:butt;stroke-linejoin:miter;stroke-opacity:1"
       d="m 557.86292,727.98662 c 0,3.12934 0,6.25868 0,9.38802 -5.77387,0.0298 -11.54774,0.0607 -17.32161,0.0898 0,0.81381 0,1.62761 0,2.44141 -13.98524,0.25434 -27.97049,0.50869 -41.95573,0.76302 0.58174,14.82032 1.16502,29.64059 1.7461,44.46094 14.60462,-0.26745 29.20919,-0.53757 43.8138,-0.80599 0.0725,-0.33532 -0.26714,-1.06635 0.30856,-0.91867 12.84246,-0.17712 25.6849,-0.35556 38.52738,-0.53185 -0.11855,-3.97008 -0.23882,-7.94011 -0.35808,-11.91016 6.84592,-0.2679 13.69187,-0.53489 20.53776,-0.80339 -0.35584,-11.04946 -0.71315,-22.09888 -1.0664,-33.14843 -3.61676,0 -7.23351,0 -10.85026,0 -0.1189,-1.72223 -0.23597,-3.44457 -0.35678,-5.16667 -6.64495,-0.0612 -13.28993,-0.1196 -19.93489,-0.17968 -0.0299,-1.67058 -0.06,-3.34115 -0.0898,-5.01172 -4.33333,0 -8.66666,0 -13,0 0,0.44444 0,0.88888 0,1.33333 z"
       name="Uvalde"
       region="2" />
    <path
       id="Victoria"
       style="fill:#000000;fill-opacity:1;fill-rule:evenodd;stroke:#ffffff;stroke-width:1px;stroke-linecap:butt;stroke-linejoin:miter;stroke-opacity:1"
       d="m 376.93714,615.07386 c -0.52604,0.60113 -1.05212,1.20222 -1.57812,1.80339 -0.0193,4.2868 -0.0737,8.57504 -0.20599,12.85935 -0.29805,2.62977 -1.32673,5.10623 -2.31998,7.53679 -2.60469,6.02661 -5.81979,11.76748 -9.1725,17.40468 -0.24161,0.23566 -0.29024,0.84525 -0.6861,0.79194 -0.48962,-0.14742 -0.36987,0.58801 -0.56021,0.87417 -0.12822,0.55284 -0.37188,1.05303 -0.69715,1.51614 0.43773,-0.0206 -0.10362,0.62366 -0.11505,0.8864 -1.38264,3.61092 -3.53519,7.12479 -6.8589,9.2412 -0.79424,0.51767 -1.69028,0.83735 -2.60027,1.08333 0,2.18186 0,4.36372 0,6.54558 1.96899,3.22629 3.81691,6.5687 5.01896,10.16502 0.86211,2.91067 1.16601,5.94974 1.50462,8.95608 0.21148,2.09365 0.38074,4.32259 0.51557,6.4744 0.063,0.37487 0.75344,0.0821 1.07828,0.17832 11.81242,0.0618 23.62484,0.12488 35.43726,0.18581 0.0585,-13.95269 0.11908,-27.90538 0.17838,-41.85807 6.49306,-0.16798 12.98612,-0.33586 19.47917,-0.50391 0.0705,-0.33027 0.75325,-0.0537 1.06537,-0.14453 13.51076,0 27.02152,0 40.53229,0 0,-14.75954 0,-29.5191 0,-44.27864 -13.93099,0.0584 -27.86198,0.11909 -41.79297,0.17838 -0.0484,-0.36574 -0.75013,-0.0764 -1.06796,-0.17194 -12.25122,-0.0606 -24.50243,-0.12233 -36.75366,-0.18222 -0.13368,0.15277 -0.26736,0.30555 -0.40104,0.45833 z"
       name="Victoria"
       region="3" />
    <path
       id="Waco"
       style="fill:#000000;fill-opacity:1;fill-rule:evenodd;stroke:#ffffff;stroke-width:1.5px;stroke-linecap:butt;stroke-linejoin:miter;stroke-opacity:1"
       d="m 622.97852,555.08984 c -0.66861,0.19076 -1.33724,0.38151 -2.00586,0.57227 -0.8462,0.28351 -1.78731,0.4272 -2.57422,0.79883 -1.34565,1.75993 -2.68591,3.52349 -4.0293,5.28515 -1.19791,0.0834 -2.44789,-0.18411 -3.60742,0.16797 -2.20239,0.95226 -3.53334,3.11654 -4.74414,5.08008 -2.21376,3.72258 -3.47525,7.89733 -5.36719,11.77344 -0.57063,1.07709 -1.80853,1.53232 -2.61133,2.41015 -2.34525,2.21334 -4.53548,4.63131 -6.30273,7.33594 -1.40067,2.06994 -1.8274,4.56361 -2.26172,6.97266 -0.7632,3.61321 -2.81005,6.7805 -4.8125,9.82226 -0.48426,0.23358 -1.19744,0.0284 -1.76758,0.0977 h -1.93945 c -1.2962,-1.97412 -3.11093,-3.78715 -5.49805,-4.29883 -2.84152,-0.77448 -6.19379,0.15109 -7.89453,2.64649 -1.88208,2.69283 -3.13806,5.75621 -4.40625,8.76953 -0.64142,-0.009 -1.26726,-0.0546 -1.66992,-0.6211 -0.65345,-0.49231 -1.18458,-1.23023 -1.91406,-1.56836 -1.30464,-0.2599 -2.60952,-0.52284 -3.91407,-0.7832 -1.29012,1.00422 -2.58063,2.00794 -3.87109,3.01172 -0.28634,8.2358 -0.58044,16.47131 -0.86914,24.70703 -0.88542,1.76952 -1.77083,3.53906 -2.65625,5.30859 -1.78059,-0.0847 -3.56122,-0.16852 -5.3418,-0.2539 -0.83472,0.97842 -1.57596,2.09662 -2.4668,2.98828 -2.06509,0.51542 -4.11058,1.09509 -6.08593,1.89453 -2.25453,0.82596 -4.50883,1.65343 -6.76367,2.47852 0.13125,3.57834 0.16881,7.17673 0.36132,10.74218 1.32371,3.18003 2.66585,6.33759 3.875,9.50586 0.78546,1.82538 0.22724,3.86764 -0.16992,5.72071 -0.28614,1.3068 -0.90921,2.52751 -0.91211,3.88672 -0.21747,2.06829 -0.43466,4.13681 -0.65234,6.20507 h 54.5957 c 0.0378,0.58716 1.11829,0.12756 1.59961,0.26953 21.69584,-0.0918 43.39206,-0.18653 65.08789,-0.27734 -0.0932,-18.93229 -0.18924,-37.86458 -0.28125,-56.79687 -1.2772,-0.99027 -2.50609,-2.07126 -3.81445,-3.00391 -1.09619,-0.34101 -2.19129,-0.68519 -3.28711,-1.02734 -0.19736,-1.97396 -0.395,-3.94788 -0.5918,-5.92188 -3.19069,0.1356 -6.38151,0.2682 -9.57226,0.40234 -0.68144,1.52477 -1.27583,3.11005 -2.01368,4.59571 -1.65413,1.60917 -3.40237,3.14088 -4.99804,4.79883 -1.46241,2.24875 -2.92406,4.4975 -4.38672,6.74609 0.66016,0.66017 1.32032,1.3203 1.98047,1.98047 -0.51564,0.52152 -0.9357,1.25007 -1.50977,1.64453 -0.70762,-0.0412 -1.47037,0.0812 -2.14453,-0.0606 -0.4951,-0.36901 -1.27944,-0.70301 -0.46875,-1.22461 0.42434,-0.58051 1.02854,-1.09565 1.3457,-1.71484 v -5.03516 c 1.07118,-1.32402 1.96275,-2.81435 3.3418,-3.85156 1.31624,-1.17042 2.63327,-2.34097 3.94922,-3.51172 0.40473,-1.79139 0.97309,-3.56234 1.28125,-5.36523 0.0254,-4.00794 -0.003,-8.01907 0.1875,-12.02344 0.68016,-0.24043 1.41001,-0.28217 2.11328,-0.42773 0.44846,-1.79105 0.89701,-3.58207 1.3457,-5.37305 -1.43269,-2.00603 -2.86688,-4.01101 -4.29882,-6.01758 -2.35976,1.44251 -4.71974,2.88464 -7.08008,4.32617 -0.70389,2.62698 -1.52212,5.23117 -2.16016,7.8711 -0.13845,1.01886 -0.18903,2.065 -0.29101,3.07617 -1.04391,1.48021 -2.42041,2.68043 -3.71485,3.93359 0.4071,1.42311 0.81173,2.84695 1.22071,4.26953 0.71025,0.10965 1.42047,0.21935 2.13086,0.32813 -2.35607,4.95897 -4.3207,10.0889 -6.45508,15.14453 -0.35027,0.95052 -0.70052,1.90104 -1.05078,2.85156 -0.49232,-0.35055 -1.2867,-0.4845 -1.22266,-1.23242 -0.37973,-2.02206 -0.92094,-4.02128 -0.97656,-6.08789 -0.22065,-2.99778 -0.53374,-5.99573 -0.95899,-8.9668 0.29108,-2.22874 1.42634,-4.23714 2.4961,-6.17773 1.05273,-0.73632 2.10553,-1.47258 3.1582,-2.20899 0.1038,-4.99737 0.20375,-9.9948 0.30664,-14.99218 -0.32927,-0.42641 -1.05947,-0.86853 -1.14453,-1.28516 0.84336,-0.56437 0.93873,-1.67986 1.40625,-2.52148 0.41298,-0.97025 0.74043,-1.99309 1.55664,-2.71094 1.09477,-1.2635 2.19178,-2.52632 3.28516,-3.79102 -1.48262,-3.97207 -3.26966,-7.81983 -5.11133,-11.63476 -0.5267,-1.25435 -0.82228,-2.90876 0.18359,-4.01172 1.83003,-0.27573 3.6606,-0.54783 5.49024,-0.82617 1.56463,-1.6809 3.12486,-3.36593 4.68945,-5.04688 -0.78123,-3.25602 -1.56228,-6.51208 -2.3457,-9.76758 z m -60.91993,12.94141 -7.23242,1.875 0.26758,8.03516 3.48242,4.01953 4.01758,5.08789 3.48242,-1.60742 -0.80469,-3.75 -1.33789,-1.60547 1.33789,-3.21485 v -6.69726 z m -11.51953,19.28516 -5.35547,0.26953 -2.67968,2.94531 -0.80274,6.69727 5.08789,-0.26758 3.48242,-1.875 1.875,-4.55469 z"
       transform="matrix(0.66666667,0,0,0.66666667,22.878547,160.12073)"
       name="Waco"
       region="3" />
    <path
       id="WichitaFalls"
       style="fill:#000000;fill-opacity:1;fill-rule:evenodd;stroke:#ffffff;stroke-width:1.5px;stroke-linecap:butt;stroke-linejoin:miter;stroke-opacity:1"
       d="m 717.30664,448.50391 c -0.38086,0.30402 -0.76173,0.60807 -1.14258,0.91211 -1.41297,1.13059 -2.82616,2.26091 -4.23828,3.39257 0.77069,0.96497 1.54147,1.92986 2.3125,2.89453 -0.69432,0.70026 -1.31759,1.51174 -2.05664,2.14258 -0.76843,0.18324 -1.52114,0.65554 -2.29883,0.66016 -3.09619,-0.66489 -6.17861,-1.41925 -9.2832,-2.0293 -4.56473,-0.34386 -9.1265,-0.77455 -13.69336,-1.06445 -2.12643,0.003 -4.25246,0.005 -6.37891,0.008 2.71085,1.74662 5.31244,3.67481 8.19532,5.13672 1.29984,0.74816 2.71289,1.33194 3.77343,2.42578 l 1.41211,1.20703 c -0.4134,1.08362 -0.6505,2.26364 -1.50586,3.10547 -1.28596,1.59998 -2.4517,3.30943 -3.81445,4.83985 -1.55916,1.41567 -3.0135,2.95936 -4.63867,4.29296 -1.89741,1.31405 -3.84188,2.57784 -5.71094,3.92383 -3.8032,4.56233 -6.3084,10.41425 -6.1914,16.41602 0.0754,4.54167 1.91564,8.91145 4.70312,12.45117 2.23203,2.94675 4.25771,6.07949 6.8457,8.73437 1.12029,1.17247 2.72649,1.72629 4.32813,1.70508 2.67895,0.15522 5.40143,1.21834 8.06836,0.39063 0.65169,0.0824 1.26562,0.62648 1.90234,0.88867 0.63648,0.23796 1.14638,0.53653 0.74024,1.26172 0.0687,0.73561 -0.68733,0.85839 -1.17774,1.17969 -1.32723,0.67311 -2.54092,1.63107 -4.04101,1.87695 -3.25824,0.8091 -6.49134,1.79431 -9.82227,2.25391 -1.70681,0.1131 -3.41908,0.0665 -5.12695,0.004 -0.0968,-0.88263 -0.18992,-1.76564 -0.28516,-2.64844 -3.95646,0.92022 -7.93255,1.78652 -11.87695,2.74024 -2.41212,1.18972 -4.89614,2.28746 -7.26563,3.53125 -1.65859,1.98859 -3.31484,3.97751 -4.97265,5.9668 h -4.42383 c -2.93955,2.83974 -5.88093,5.67764 -8.82031,8.51757 -0.78909,4.63575 -1.58255,9.27076 -2.37305,13.90625 7.18423,0.18212 14.3685,0.36322 21.55273,0.54493 0.0891,5.1888 0.17895,10.37759 0.26758,15.5664 22.04816,0.19164 44.09636,0.38016 66.14453,0.57031 -0.0919,-5.37498 -0.18221,-10.74999 -0.27344,-16.125 20.81445,-0.44965 41.62897,-0.89569 62.44336,-1.34765 -0.80575,-25.60995 -1.60639,-51.22006 -2.41015,-76.83008 h 6.96289 c -1.15244,-2.07221 -2.30293,-4.14551 -3.45703,-6.2168 -2.33531,-0.42987 -4.6958,-0.77386 -7.01563,-1.25586 -3.97447,-1.57186 -8.21089,-2.63441 -12.4414,-2.90234 -0.23739,-0.15422 -1.19243,-0.17165 -1.70704,-0.27344 -2.19448,-0.25009 -4.375,-0.70953 -6.59374,-0.58398 -0.56955,0.0521 -1.22368,-0.0983 -1.74415,0.0723 -0.85338,0.85338 -1.70716,1.7052 -2.56054,2.5586 -7.86956,-5.32349 -15.72546,-10.6763 -23.8125,-15.66602 -1.57821,-0.97179 -3.19274,-1.89601 -4.93946,-2.52929 -1.93467,-0.95796 -3.60934,-2.35848 -5.15429,-3.84961 -1.08644,-0.25299 -2.25264,-0.3025 -3.28906,-0.67774 -1.03811,-0.69243 -2.07652,-1.38659 -3.11524,-2.07812 z m -98.99805,9.70703 -1.875,1.07031 -0.53711,9.10742 -2.14257,1.875 -1.875,3.75 -0.26758,7.5 -2.41016,5.08985 0.53516,2.94531 4.28515,2.67969 h 7.23243 l 1.33984,-3.75 4.82031,-3.75 -0.26758,-8.30469 -1.60742,-1.875 -0.26758,-8.57031 -2.67773,-4.82227 z m 60.03125,75.47656 c -0.49536,0.38359 -0.92651,1.02556 -1.46093,1.25 -0.90002,-0.1374 -1.01639,-0.34357 -0.0977,-0.64062 0.50914,-0.15605 1.05101,-0.67903 1.55859,-0.60938 z"
       transform="matrix(0.66666667,0,0,0.66666667,22.878547,160.12073)"
       name="Wichita Falls"
       region="4" />
    <path
       id="Topeka"
       style="fill:#000000;fill-opacity:1;fill-rule:evenodd;stroke:#ffffff;stroke-width:1.5px;stroke-linecap:butt;stroke-linejoin:miter;stroke-opacity:1"
       d="m 578.66406,370.08594 0.26953,51.16015 h 3.21289 l 4.01758,-3.48242 2.14453,2.67774 h 4.28516 l 2.14258,1.07226 h 9.64258 c 0,0 10.17856,-15.53598 13.125,-18.48242 2.94642,-2.94643 7.7673,-5.89286 9.91015,-5.625 2.14286,0.26786 2.94727,2.14258 2.94727,2.14258 l 3.48242,-2.94531 2.67773,-0.53711 1.60743,3.21484 h 3.75 l 2.14257,-1.60742 h 1.60743 l 5.89257,4.55469 6.96485,1.07031 3.21484,2.67969 6.96289,-0.80469 4.55469,2.14258 6.96484,2.67968 c 0,0 6.42831,2.94587 15.26758,11.78516 6.08426,6.08426 5.9364,6.5643 5.26172,6.28516 l 6.52344,3.625 2.67773,4.55468 2.94727,2.41016 6.42773,3.75 h 3.75 l 2.67969,-2.67773 -2.41016,-4.55469 -0.80468,-4.55274 2.14257,-2.67968 -2.94531,-3.48047 c 0,0 -0.26814,-4.01843 2.14258,-5.08985 2.41071,-1.07143 4.01758,-2.14257 4.01758,-2.14257 l 0.26758,-11.25 2.94726,-2.67969 4.82031,4.01758 1.875,1.33984 7.23243,-0.26758 2.94726,4.82227 -0.80469,5.89258 2.67969,-1.60743 0.26758,-3.21484 2.67773,-0.26758 0.53711,2.41016 2.94532,2.14258 1.60742,-1.60547 h 1.07226 l 1.07032,2.94531 6.42968,4.82227 6.16016,-4.28711 10.17773,-0.26758 0.80469,-1.07031 9.64258,-0.53711 0.26758,-1.875 5.35742,-0.53516 v -2.41016 l -15,-0.26757 v -13.92969 l -16.33984,-1.07031 -0.26758,-13.92969 -94.55274,1.07226 0.80274,-15 z m 122.04883,57.98047 -0.70898,-0.39258 c 0,0 0.40348,0.26618 0.70898,0.39258 z m 32.77344,4.96484 -0.26758,5.625 2.14258,4.01758 3.75,2.41211 2.67773,3.75 1.875,0.80273 3.75,3.21485 4.82227,5.625 0.26758,2.94531 12.32226,0.53711 2.41016,-1.875 1.875,-4.01953 1.33984,-1.875 -4.28711,-2.41016 -4.28515,-4.28516 -0.80274,3.48243 -4.55469,-1.07227 c 0,0 -4.01645,-2.94531 -5.08789,-2.94531 -1.07142,0 -8.03711,-0.80469 -8.03711,-0.80469 l -3.21289,-2.94531 -4.28711,-8.83985 z"
       transform="matrix(0.66666667,0,0,0.66666667,22.878547,160.12073)"
       name="Topeka"
       region="6" />
    <path
       d="m 460.97666,345.2369 1.78571,-1.25 5.71429,0.17857 h 8.03571 l 3.21429,-1.42857 4.10714,0.53572 -3.03571,3.21428 -2.5,4.82143 -0.17857,17.5 1.42857,0.89286 -3.21429,2.14285 -0.17857,3.03572 1.42857,2.32143 3.03572,0.89285 3.75,-0.35714 1.42857,-1.25 1.25,0.35714 0.35714,1.60715 5,0.71428 2.85714,2.85715 2.32143,-0.71429 4.28572,-1.25 4.82143,-3.21429 5,0.17858 1.25,3.21428 c 0,0 3.39285,4.64286 5.17857,3.92857 1.78571,-0.71428 4.46428,-2.14285 4.46428,-2.14285 h 3.03572 l 0.17857,-4.28572 c 0,0 1.07143,-2.14286 3.21429,-2.85714 2.14285,-0.71429 4.28571,-1.78572 4.28571,-1.78572 l 3.39286,1.07143 4.10714,0.89286 2.14286,-1.25 2.67857,-4.10714 3.39286,0.35714 1.25,1.07143 h 3.57142 l 1.25,3.39286 -1.78571,3.03571 -1.25,7.14286 1.60714,5.53571 1.60715,3.57143 1.07142,1.78571 -1.07142,1.07143 -0.17858,5.17857 1.60715,1.42858 -0.71429,2.67857 -2.32143,1.42857 -2.85714,-0.71429 -3.92857,0.35715 -2.5,1.96428 -0.17857,3.39286 1.42857,2.85714 h 2.5 l 2.5,-3.03571 2.5,0.17857 1.96428,1.25 1.60715,2.14286 2.14285,1.60714 3.21429,-0.17857 1.07143,1.25 -1.07143,1.42857 -2.14286,1.60714 0.53572,3.21429 4.64285,5.17857 4.82143,0.71428 2.67857,1.96429 3.39286,1.60714 2.14286,-1.96428 0.35714,-1.42857 1.96429,0.53571 1.96428,2.5 2.32143,-1.07143 v -5.17857 l -2.5,-0.53571 -2.14286,-3.21429 -1.07142,-2.67857 3.39285,-0.17857 2.5,1.96428 3.21429,0.17857 1.60714,-2.14285 h 7.67857 l 2.32143,1.07143 1.25,1.60714 1.25,1.96428 1.78572,1.96429 0.35714,2.5 1.60714,1.78571 1.96429,1.07143 2.14285,0.35715 -0.17857,3.39285 -1.96428,4.10715 -2.5,3.03571 h -4.28572 l -3.92857,-1.78571 -2.67857,-1.60715 -1.25,0.71429 h -6.96429 l -2.32142,1.25 -3.75,-1.60714 -2.85715,-2.14286 c 0,0 -3.03571,-0.89286 -3.75,-0.35714 -0.71428,0.53571 -3.03571,1.42857 -3.03571,1.42857 l -2.32143,-1.42857 h -2.14286 l -1.07143,0.89285 -5.17857,-0.71428 -4.10714,-0.89286 -0.35714,-1.60715 -9.64286,-0.35714 -0.35714,-9.46428 -11.07143,-0.71429 v -9.10714 l -63.03572,0.17857 0.35715,-9.64286 -11.42858,0.17858 z"
       style="fill:#000000;fill-opacity:1;fill-rule:evenodd;stroke:#ffffff;stroke-width:1px;stroke-linecap:butt;stroke-linejoin:miter;stroke-opacity:1"
       id="Lincoln"
       name="Lincoln"
       region="6" />
    <path
       id="Lansing"
       style="fill:#000000;fill-opacity:1;fill-rule:evenodd;stroke:#ffffff;stroke-width:1px;stroke-linecap:butt;stroke-linejoin:miter;stroke-opacity:1"
       d="m 460.45147,343.83297 c -7.05389,3.01283 -14.08957,6.05122 -21.15235,9.02865 -2.3346,0.77646 -4.83607,0.74438 -7.26874,0.78204 -3.10454,-0.0362 -6.20944,-0.0793 -9.31347,-0.13812 -2.37295,-0.0881 -4.74084,-0.37746 -7.06362,-0.85226 -2.83681,-0.0707 -5.6736,-0.14199 -8.51042,-0.21224 0.18304,0.60214 -0.50267,0.33552 -0.86667,0.39063 -1.80286,0.0149 -3.61578,-0.0296 -5.41241,0.022 -1.57027,0.53787 -3.11044,1.1763 -4.74468,1.49952 -2.47249,0.62332 -4.96399,1.18048 -7.42462,1.8451 -0.45147,0.32662 -0.70519,-0.041 -0.96139,-0.39986 -0.37771,-0.45291 -0.75537,-0.90586 -1.1332,-1.35868 -1.44097,0 -2.88194,0 -4.32291,0 -2.76097,2.3041 -5.49195,4.64904 -8.27038,6.92912 -3.12873,1.95716 -6.23852,3.95498 -9.37906,5.88676 -1.35487,0.41619 -2.7017,0.89854 -4.06161,1.27338 -1.1298,-0.0209 -2.36645,-0.14009 -3.38661,0.43418 -1.23312,1.0201 -2.2141,2.30907 -3.29884,3.47993 -1.88575,2.14601 -3.7434,4.31656 -5.59439,6.49273 -0.32295,-0.25835 -0.15817,-0.79074 -0.26953,-1.16798 -0.0491,-0.44227 -0.0981,-0.88454 -0.14713,-1.32682 -0.82596,0.0924 -1.65192,0.18481 -2.47787,0.27734 0.26583,-0.35772 0.65175,-0.67104 0.84635,-1.05494 0,-1.63576 0,-3.27153 0,-4.9073 -0.91492,-0.91492 -1.82986,-1.82986 -2.74478,-2.74478 -1.26074,0.0261 -2.53076,-0.0535 -3.78563,0.0412 -1.23285,0.35294 -1.89122,1.58048 -2.53859,2.58904 -0.17206,0.39608 -0.61723,0.75265 -0.37593,1.2081 0.40882,1.74352 0.8408,3.48653 1.24311,5.22836 0,0.97908 0,1.95816 0,2.93724 -0.52974,-0.7829 -1.20957,-1.44998 -1.80338,-2.18359 -2.14584,0 -4.29167,0 -6.4375,0 -0.50408,1.06135 -1.0986,2.08961 -1.54558,3.17187 -0.15104,0.64236 -0.30208,1.28472 -0.45312,1.92708 -0.95486,-0.0707 -1.90972,-0.14149 -2.86458,-0.21224 -0.38282,-0.87128 -0.69192,-1.79779 -1.11984,-2.6353 -0.81343,-0.64914 -1.62571,-1.29972 -2.43876,-1.94933 -0.71919,0.0846 -1.43836,0.16927 -2.15755,0.25391 -0.065,-1.1279 -0.052,-2.27734 -0.1643,-3.3921 -0.53619,-0.94958 -1.00481,-1.96154 -1.58445,-2.87187 -1.1035,-0.71053 -2.20787,-1.41969 -3.31114,-2.13057 -1.21752,0.48682 -2.4347,0.97446 -3.65235,1.46094 -0.36877,0.47529 -0.73874,0.94964 -1.10807,1.42448 -0.77934,0.08 -1.59413,0.0664 -2.35141,0.20421 -1.45393,1.09252 -2.90945,2.18293 -4.36474,3.27366 0,13.99435 0,27.98871 0,41.98307 14.81727,0.18968 29.63454,0.38004 44.45183,0.56901 0,-7.2487 0,-14.49739 0,-21.74609 7.1506,0.29766 14.30119,0.59596 21.45182,0.89322 -0.1176,-6.97918 -0.23805,-13.95832 -0.35678,-20.9375 12.97223,0.11155 25.94445,0.2231 38.91667,0.33464 0,10.05686 0,20.11372 0,30.17058 18.26736,0.25076 36.53472,0.50118 54.80209,0.7513 0.12558,-21.78082 0.25082,-43.56164 0.3763,-65.34245 -0.62326,0.26693 -1.24653,0.53385 -1.86979,0.80078 z"
       name="Lansing"
       region="6" />
    <path
       d="m 358.65523,466.30833 0.17857,-17.14286 h -3.21428 l 0.71428,-31.42857 h -10.71428 v -21.60714 l 21.42857,0.35714 -0.35714,-20.53571 41.96428,0.35714 0.17857,64.82143 -1.78571,0.17857 -2.5,1.25 -0.71429,3.21429 1.25,0.89285 -7.85714,-3.39285 -5.53571,-1.78572 -6.96429,0.35714 -4.10714,0.17858 -0.35715,-0.53572 h -1.25 l -0.71428,1.78572 h -3.57143 l -5,5.71428 v 6.60714 l -1.42857,1.42858 -0.53572,4.46428 -1.07142,1.07143 h -4.46429 l -1.42857,3.03571 z"
       style="fill:#000000;fill-opacity:1;fill-rule:evenodd;stroke:#ffffff;stroke-width:1px;stroke-linecap:butt;stroke-linejoin:miter;stroke-opacity:1"
       id="DesMoines"
       name="Des Moines" 
       region="6" />
    <path
       id="OklahomaCity"
       style="fill:#000000;fill-opacity:1;fill-rule:evenodd;stroke:#ffffff;stroke-width:1px;stroke-linecap:butt;stroke-linejoin:miter;stroke-opacity:1"
       d="m 291.60772,417.20146 c 0,6.53429 0,13.06858 0,19.60286 -2.80165,0.0903 -5.60331,0.18056 -8.40495,0.27084 -0.1575,-0.26068 -0.78854,-0.0557 -1.13318,-0.13243 -7.47557,-0.12814 -14.95115,-0.25599 -22.42672,-0.3845 0,3.46051 0,6.92101 0,10.38151 -2.07943,0 -4.15886,0 -6.23828,0 -0.0608,7.08332 -0.11872,14.16667 -0.17839,21.25 -4.50694,0 -9.01389,0 -13.52083,0 1.48065,1.6194 3.01377,3.19601 4.46126,4.84246 0.33713,0.47222 0.67426,0.94444 1.0114,1.41666 -0.42699,0.52248 -1.143,0.68384 -1.69698,1.04765 -0.70276,0.37483 -1.40529,0.75008 -2.10771,1.12552 0.70124,1.46349 1.36147,2.95351 2.09034,4.39951 0.69012,0.79798 1.38173,1.59468 2.07242,2.39216 -0.0216,0.74709 0.0432,1.51657 -0.0324,2.2497 -0.22358,0.3312 -0.30266,0.85292 -0.79688,0.82729 -1.49569,0.35601 -2.99135,0.71213 -4.48718,1.06754 0.69433,1.24112 1.3402,2.52 2.06485,3.73767 0.52265,0.47639 1.04625,0.95172 1.56927,1.4277 -0.25174,2.01302 -0.50348,4.02604 -0.75521,6.03906 -1.04957,1.13449 -2.05315,2.31942 -3.13143,3.42241 -0.5842,0.4378 -1.16823,0.87582 -1.75268,1.31327 0,1.77387 0,3.54774 0,5.32161 -0.67666,1.21875 -1.35334,2.43748 -2.02996,3.65625 0.76925,1.05805 1.53896,2.11577 2.3073,3.17448 2.66064,0.10952 5.32042,0.25696 7.98437,0.20573 0.99175,0 1.98351,0 2.97527,0 1.11934,-1.2982 2.20392,-2.63809 3.34751,-3.90802 0.36544,-0.12365 0.71588,-0.64278 1.09297,-0.45933 0.38405,0.1556 0.73586,0.34598 0.87962,0.7608 0.28658,0.53013 0.68406,1.03488 0.90304,1.58049 -0.11614,1.0499 -0.1515,2.12762 -0.31789,3.1602 -1.1575,1.81903 -2.36641,3.61597 -3.49202,5.4487 -0.60943,2.338 -1.18147,4.6905 -1.81527,7.01918 -0.70796,1.35187 -1.41635,2.70351 -2.12401,4.05553 0.4558,1.36615 0.91201,2.73217 1.36589,4.09896 1.3097,1.18044 2.74501,2.23191 3.88426,3.5877 0.36598,0.41004 0.82678,0.76704 0.87692,1.3538 0.24639,0.86235 0.49288,1.72467 0.73882,2.58715 2.29818,0 4.59635,0 6.89453,0 0.13746,-1.98609 0.27429,-3.97222 0.41145,-5.95834 4.30117,-4.73396 8.61942,-9.45942 12.67025,-14.41174 1.37775,-1.7357 2.86418,-3.55643 3.29981,-5.78748 0.0515,-0.42277 0.0485,-0.8539 -0.0586,-1.26822 0.59774,-0.68915 1.29916,-1.3106 1.83256,-2.04179 0.5432,-1.23361 1.04196,-2.49441 1.61246,-3.71125 1.52864,-1.83502 3.05821,-3.66926 4.58624,-5.50478 0.0799,-1.49826 0.0882,-3.01602 0.21547,-4.50194 1.72549,-3.34267 3.45097,-6.68534 5.17646,-10.02801 0.3664,-0.0561 0.41951,-0.64575 0.6599,-0.91645 1.45756,-2.57814 2.85887,-5.19001 4.35196,-7.74685 0.96914,-1.47681 1.88914,-3.0006 2.88889,-4.44815 1.94092,-1.34971 3.81611,-2.79909 5.8695,-3.97829 1.42079,-0.87066 2.8413,-1.74176 4.2623,-2.61208 -0.0602,-3.8468 -0.12163,-7.69358 -0.18229,-11.54036 0.81032,-1.03603 1.62066,-2.07206 2.43098,-3.10808 0.44884,-0.0277 0.31314,0.49262 0.45206,0.77094 0.42726,1.5837 1.05724,3.11587 1.5693,4.66283 -0.17667,3.47781 -0.35459,6.95557 -0.53047,10.43342 0.5872,1.85507 1.17297,3.71059 1.75781,5.56641 1.86943,-1.63442 3.73789,-3.26992 5.60678,-4.90495 1.5787,-0.51155 3.19143,-0.93065 4.749,-1.49959 0.98384,-0.42159 1.96745,-0.84369 2.95152,-1.26474 0.24885,-1.86499 0.49738,-3.73003 0.74609,-5.59505 1.52375,-1.28052 3.04865,-2.55968 4.57161,-3.84115 -0.10702,-2.4332 -0.21629,-4.86631 -0.32422,-7.29947 0.38294,0.0599 0.866,-0.12209 1.18417,0.0942 0.60721,0.55649 1.12782,1.22919 1.79109,1.71045 0.91453,0.46451 1.80847,1.02925 2.7357,1.4318 0.63572,-0.0546 1.2717,-0.10635 1.90754,-0.15967 0.71594,0.62696 1.43214,1.25365 2.14843,1.88021 0.55869,-0.86843 1.17651,-1.71038 1.69985,-2.5946 0.24856,-0.9008 0.41652,-1.84592 0.71481,-2.71912 1.20032,-1.25046 2.40065,-2.50092 3.60097,-3.75138 0.42814,0.0386 0.93124,-0.0751 1.3154,0.0528 0.34125,0.49018 0.79576,0.94182 1.06871,1.45525 0,0.91527 0,1.83055 0,2.74583 -0.55939,0.70722 -1.20416,1.3738 -1.71147,2.1059 -0.161,0.86015 -0.3226,1.72019 -0.48384,2.5803 -0.40361,0.3293 -1.01948,0.48368 -1.12068,1.06154 -0.25096,0.51644 -0.4015,1.13488 -0.7134,1.58942 -0.38297,0.19698 -0.76377,0.34242 -1.12482,0.0196 -0.44546,-0.18492 -0.88082,-0.51355 -1.33218,-0.61291 -0.79178,0.26531 -1.58382,0.52989 -2.37559,0.79523 -0.12261,1.74056 -0.24838,3.4809 -0.37239,5.22136 -0.81902,0.52604 -1.63804,1.05206 -2.45704,1.57812 -0.16608,1.21431 -0.33066,2.42883 -0.49609,3.64323 -0.83897,0.21007 -1.67801,0.41992 -2.51693,0.63021 -0.54873,0.91399 -1.09771,1.82783 -1.64583,2.74219 0.32311,1.21077 0.64637,2.4215 0.96745,3.63281 1.93162,1.65932 3.945,3.21718 5.95964,4.77344 1.48667,0.31754 2.97308,0.63628 4.45963,0.95442 -0.0627,-2.21964 -0.12755,-4.43924 -0.19141,-6.65885 0.79688,-0.0495 1.59374,-0.0991 2.39063,-0.14844 0.51194,-1.19794 1.02611,-2.39493 1.53906,-3.59245 -0.0977,-0.73926 -0.19712,-1.47828 -0.29557,-2.21744 0.34106,-0.0671 0.65714,0.46518 0.98818,0.63856 0.38418,0.30707 0.76829,0.61423 1.15244,0.92133 1.01222,-1.19533 2.02561,-2.38967 3.03516,-3.58724 0.14474,-0.82027 0.28904,-1.64063 0.43359,-2.46093 1.48264,-0.2474 2.96528,-0.49479 4.44792,-0.74219 0.13607,-6.7626 0.27451,-13.52515 0.41015,-20.28776 -1.19184,0.11923 -2.38368,0.23865 -3.57552,0.35807 0.17683,-10.36415 0.35578,-20.72827 0.53126,-31.09245 -21.90798,-0.24929 -43.81599,-0.49567 -65.72396,-0.74479 0,0.44966 0,0.8993 0,1.34896 z"
       name="Oklahoma City" 
       region="6" />
    <path
       d="m 227.76237,325.05833 3.39286,0.35714 4.82143,1.07143 h 4.46428 l 2.32143,1.78572 h 3.75 l 2.67857,0.89285 3.75,2.32143 0.89286,4.46429 3.75,-0.17857 1.60714,0.89285 3.39286,2.32143 3.39286,3.39286 v 5.35714 l 4.28571,4.64286 1.07143,3.21428 1.42857,2.14286 2.14286,1.42857 1.42857,1.60715 v 1.78571 l 5.35715,1.25 v 6.25 c 0,0 -0.53572,6.42857 8.03571,7.32143 8.57143,0.89286 8.92857,-1.07143 8.92857,-1.07143 l 3.39286,-0.17857 1.78571,1.60714 0.17857,39.64286 -11.25,-0.35714 0.17858,21.42857 -31.42858,-0.35715 0.53572,-32.14285 -42.14286,-0.35715 1.60714,-52.5 h 10.17857 v -10.17857 h -4.10714 z"
       style="fill:#000000;fill-opacity:1;fill-rule:evenodd;stroke:#ffffff;stroke-width:1px;stroke-linecap:butt;stroke-linejoin:miter;stroke-opacity:1"
       id="LittleRock"
       name="Little Rock" 
       region="5" />
    <path
       id="Sacramento"
       style="fill:#000000;fill-opacity:1;fill-rule:evenodd;stroke:#ffffff;stroke-width:1px;stroke-linecap:butt;stroke-linejoin:miter;stroke-opacity:1"
       d="m 146.42933,382.3551 c -0.24263,13.21224 -0.48522,26.42448 -0.72786,39.63672 4.69107,3.29734 9.38276,6.59382 14.07421,9.89063 1.72442,0.20641 3.46047,0.35357 5.17768,0.59655 1.87322,0.53576 3.73661,1.10984 5.65292,1.47464 0.58354,-0.0594 0.25003,0.4089 0.16697,0.73186 -0.26139,0.45232 -0.17412,0.7436 0.36229,0.82741 1.97897,0.82422 3.95789,1.64857 5.93702,2.47241 0.66361,-1.12581 1.32563,-2.25255 1.98828,-3.37891 0.76825,-0.0224 1.55916,0.0441 2.31372,-0.0319 0.64995,-0.32942 1.27939,-0.74911 1.94297,-1.01958 0.81808,0.0389 1.63616,0.0778 2.45424,0.11663 0.3529,0.88237 0.70602,1.76464 1.0586,2.64714 0.85335,0.0966 1.75017,0.0918 2.57622,0.25353 0.95156,0.83262 1.90337,1.66496 2.85477,2.49777 1.40885,0 2.81771,0 4.22656,0 0.39287,-0.35414 0.78639,-0.70754 1.17969,-1.0612 1.14201,1.30068 2.41245,2.47889 3.6237,3.71354 1.53731,0.074 3.07468,0.14703 4.61198,0.22136 0.50347,-0.25174 1.00694,-0.50347 1.51041,-0.75521 0.25637,0.3116 0.47455,0.68021 0.92194,0.70272 1.0159,0.31451 2.02856,0.6437 3.09425,0.73542 0.67605,0.12675 1.39624,0.15876 2.0455,0.34296 1.03772,0.91571 2.07403,1.83302 3.11279,2.74754 0.74139,-0.0563 1.48265,-0.11454 2.22396,-0.17187 0.38529,0.29245 0.49627,0.62919 0.19058,1.03319 -0.31619,0.73718 -0.63234,1.47437 -0.94839,2.2116 0.8952,0.57148 1.79482,1.1381 2.6875,1.71224 -1.89274,2.25959 -3.78607,4.5187 -5.67839,6.77864 1.96571,1.96572 3.93143,3.93143 5.89714,5.89714 1.46571,0 2.93142,0 4.39713,0 0.7582,-0.5824 1.5156,-1.16584 2.27344,-1.7487 0.59652,-0.1466 0.3662,0.46739 0.40495,0.83386 0,0.75069 0,1.50139 0,2.25208 1.50967,0.6165 3.00521,1.30336 4.5237,1.8763 1.52595,0 3.05191,0 4.57786,0 1.24267,1.5016 2.50362,2.98738 3.76433,4.47396 4.99694,-0.0696 9.99392,-0.13685 14.99088,-0.20573 -0.0605,-7.02993 -0.11876,-14.05989 -0.17838,-21.08984 2.12803,-0.059 4.25608,-0.11789 6.38411,-0.17709 0.37999,-14.91925 0.7595,-29.83852 1.13802,-44.75781 -13.93838,-0.178 -27.87673,-0.35777 -41.81511,-0.53645 0.12538,-7.01694 0.25122,-14.03386 0.37631,-21.05079 -25.11455,-0.68081 -50.22918,-1.35806 -75.34375,-2.03776 -0.008,0.44835 -0.0165,0.89671 -0.0247,1.34505 z"
       name="Sacramento"
       region="5" />
    <path
       d="m 227.40523,324.87976 -1.07143,-0.89286 -4.46429,-0.17857 -0.71428,1.25 -4.46429,-0.35714 0.17857,-1.25 3.75,-3.75 v -1.42857 h -1.96428 l -5.35714,3.57142 -4.82143,3.21429 -6.07143,6.25 h -2.32143 l -0.89286,2.85714 -3.57143,5 -3.03571,-0.35714 -1.42857,-4.82143 0.71428,-6.60714 2.32143,-6.42857 h -8.57143 v 10.35714 h -10.71428 l -1.25,51.60714 46.96428,1.25 0.89286,-31.07143 10.17857,-0.17857 0.17857,-9.82143 -4.64285,-0.53571 z"
       style="fill:#000000;fill-opacity:1;fill-rule:evenodd;stroke:#ffffff;stroke-width:1px;stroke-linecap:butt;stroke-linejoin:miter;stroke-opacity:1"
       id="Atlanta"
       name="Atlanta"
       region="5" />
    <path
       id="SaintPaul"
       style="fill:#000000;fill-opacity:1;fill-rule:evenodd;stroke:#ffffff;stroke-width:1.5px;stroke-linecap:butt;stroke-linejoin:miter;stroke-opacity:1"
       d="m 264.47852,14.787109 -1.70313,1.705079 h -3.97851 l -2.83985,3.220703 -2.46289,-1.326172 -5.68164,-0.947266 -3.41016,3.21875 -7.38672,3.978516 -2.84179,3.408203 -3.59766,0.568359 -5.49219,3.220703 -3.5996,5.302735 -5.49219,0.568359 -5.68164,3.220703 c 0,0 -4.16816,3.029345 -4.92578,3.21875 -0.75761,0.189405 -6.06076,1.326268 -6.81836,1.705078 -0.75762,0.378795 -25,12.121094 -25,12.121094 l -3.41016,1.705078 -2.65234,3.789063 c 0,0 -0.56662,2.460937 -1.32422,2.460937 -0.75762,0 -2.65235,1.326172 -2.65235,1.326172 l 0.18946,2.462891 3.4082,3.029297 3.41016,1.326171 1.51562,3.220704 8.52344,0.568359 16.09961,-7.386719 10.98437,-5.49414 -7.95508,0.757812 -0.18945,-3.21875 4.73438,-3.789062 5.87304,-2.650391 9.08985,-3.978516 13.44922,-3.976562 9.84765,-5.871094 4.92578,-5.115234 0.37891,-3.597657 8.90039,-7.197265 6.82031,-6.628906 3.59766,-0.757813 v -4.167969 z m 70.80273,128.298831 c -7.35246,0.0105 -14.70846,-0.0213 -22.05859,0.0176 l -0.0645,0.01 c -3.89157,0.62259 -7.77025,1.34537 -11.66992,1.9043 -3.04557,0.26845 -6.09109,0.53872 -9.13672,0.80664 -1.89216,1.48206 -3.73739,3.0474 -5.65625,4.48047 -2.82861,0.99811 -5.69408,1.90754 -8.5,2.95898 -5.65453,2.91848 -11.31076,5.83652 -16.96484,8.75586 -2.08203,2.98412 -4.08647,6.03107 -6.21485,8.97656 l -4.75976,4.75977 c -0.53661,0.1569 -0.75468,0.9558 -1.27539,1.27539 -0.78866,0.78866 -1.57658,1.57659 -2.36524,2.36523 0.99743,-0.18417 0.7256,0.26287 0.2168,0.82813 -0.65043,1.18795 -1.91931,1.76187 -2.93555,2.58594 -1.40695,0.99399 -2.76783,2.08863 -4.20312,3.01953 -3.3066,0.71499 -6.61335,1.42936 -9.91992,2.14453 -3.11078,2.84916 -6.28843,5.63164 -9.35352,8.52734 -1.3549,1.42991 -2.70956,2.85916 -4.06445,4.28907 -1.25262,0.17967 -2.50518,0.35964 -3.75781,0.53906 -1.45281,1.51849 -2.85266,3.10987 -4.3418,4.58008 -1.63554,0.81777 -3.2707,1.63535 -4.90625,2.45312 -1.57377,2.48354 -3.19887,4.9416 -4.73633,7.44336 -0.75312,2.13588 -1.59159,4.25497 -2.29492,6.40039 -0.65351,16.99209 -1.30596,33.98453 -1.96094,50.97656 2.97129,0.0927 5.94271,0.18098 8.91406,0.27149 v 10.99414 c -5.51626,-0.17877 -11.03265,-0.35354 -16.54882,-0.53516 -0.48627,16.86323 -0.96854,33.72656 -1.45313,50.58985 14.37377,0.58797 28.74742,1.17946 43.12109,1.76953 0.53681,-25.74152 1.07146,-51.48308 1.60743,-77.22461 h 15.8125 c 0.0914,-5.44595 0.1795,-10.89193 0.26953,-16.33789 h 13.85547 c 0.0945,-1.75122 0.18659,-3.5026 0.27929,-5.25391 0.67056,-0.10725 1.42561,-0.0402 2.04493,-0.25195 1.65399,-1.79051 3.37982,-3.53074 4.99023,-5.35156 1.13685,-2.40344 2.33559,-4.78627 3.43359,-7.20313 0.47514,-2.28477 0.94614,-4.57041 1.41993,-6.85547 1.67238,-0.6709 3.3463,-1.33804 5.01757,-2.01172 1.4948,-2.72403 3.05149,-5.41882 4.50586,-8.16211 h 5.10157 c 0.18568,-3.68547 0.36838,-7.37111 0.55273,-11.05664 1.85017,-0.45519 3.71618,-0.86654 5.60156,-1.11914 2.19077,-0.89697 3.59753,-2.93076 5.17383,-4.59765 3.44499,-3.8049 6.84913,-7.64646 10.40234,-11.35157 h 3.59961 c 1.63866,-1.28982 3.13876,-2.77797 5.00977,-3.73632 2.8044,-1.66491 5.60927,-3.32989 8.41406,-4.99415 -1.06171,-2.21392 -2.28312,-4.35478 -3.20898,-6.63085 1.1098,-0.39077 2.1808,-0.97916 3.31445,-1.2461 2.08463,0.0299 4.19857,-0.0595 6.26563,0.0449 0.772,0.40295 1.53106,0.84476 2.42968,0.82813 2.12451,0.18868 4.36163,0.61077 6.40235,-0.24024 1.39554,-0.38049 2.62826,-1.19198 3.94531,-1.72851 2.78505,-0.1068 5.57045,-0.21264 8.35547,-0.32031 v -8.34375 c -1.83603,-1.90193 -3.60636,-3.89772 -5.48047,-5.74414 -2.52239,-1.0029 -4.954,-2.25985 -7.58984,-2.94922 -1.54844,-0.42978 -3.07146,-1.01846 -4.63477,-1.34961 z"
       transform="matrix(0.66666667,0,0,0.66666667,22.878547,160.12073)"
       name="Saint Paul"
       region="5" />
    <path
       id="Denver"
       style="fill:#000000;fill-opacity:1;fill-rule:evenodd;stroke:#ffffff;stroke-width:1px;stroke-linecap:butt;stroke-linejoin:miter;stroke-opacity:1"
       d="m 154.33167,307.70797 c -2.09722,1.43489 -4.19444,2.86979 -6.29166,4.30469 -0.92621,-0.2318 -1.85254,-0.46314 -2.77865,-0.69532 -1.17625,0.63832 -2.35335,1.2751 -3.52995,1.91276 -0.22438,-0.4503 -0.44945,-0.90027 -0.67448,-1.35026 -1.29772,0.0928 -2.59538,0.18636 -3.89323,0.27735 -3.09977,3.16237 -6.20154,6.32277 -9.30208,9.48437 -4.77951,2.36112 -9.55903,4.72222 -14.33854,7.08334 -2.78109,0.0132 -5.57009,-0.0263 -8.3463,0.0195 -1.28165,0.39585 -2.55259,0.8346 -3.88656,1.01979 -1.778279,0.33846 -3.556566,0.67692 -5.334853,1.01538 -0.999026,-0.76445 -1.999226,-1.52738 -2.997393,-2.29296 -2.108733,0.2897 -4.233087,0.51174 -6.332031,0.84374 -1.522184,0.52984 -3.076901,0.98087 -4.578892,1.55964 -1.583664,0.80776 -3.201012,1.56878 -4.763821,2.40548 -1.862534,1.83246 -3.643169,3.7518 -5.641255,5.44046 -2.578839,2.2766 -5.131528,4.59183 -7.726706,6.84428 -1.199624,0.56388 -2.350445,1.24808 -3.582323,1.73242 -4.818364,1.51585 -9.624027,3.07686 -14.450332,4.56447 -3.608617,0.90021 -7.236973,1.75375 -10.833331,2.68293 -2.450832,1.47104 -4.902253,2.94111 -7.353028,4.41225 0.868757,2.08706 1.738004,4.17391 2.608073,6.26042 1.701481,-0.16878 3.402737,-0.33982 5.104167,-0.50911 0.254269,-0.31126 0.508631,-0.62244 0.763021,-0.9336 0.207919,1.09114 0.416111,2.18223 0.623698,3.27344 1.008729,0.22374 2.017366,0.4479 3.026041,0.67188 0,0.60937 10e-7,1.21874 0,1.82812 1.101121,-0.23572 2.20225,-0.47139 3.303386,-0.70703 1.592881,1.98563 3.172597,4.00167 4.882075,5.87938 0.943458,2.86791 1.543776,5.83509 2.23363,8.77112 0.477056,2.10704 0.929492,4.21953 1.379086,6.33257 28.240883,9.17228 56.480828,18.34744 84.721358,27.52084 3.88066,2.11628 7.76104,4.23307 11.64192,6.34895 0.20697,-10.48193 0.38126,-20.96479 0.60876,-31.44613 0.50845,-13.32612 1.0169,-26.65223 1.52536,-39.97835 3.70703,0 7.41406,0 11.12109,0 0,-3.99479 0,-7.98958 0,-11.98437 -2.00791,-0.23532 -4.01562,-0.47226 -6.02343,-0.70834 0.43548,-11.12716 0.86961,-22.25438 1.30598,-33.3815 -0.7296,0.49912 -1.4592,0.99826 -2.1888,1.49739 z"
       name="Denver"
       region="5" />
  </g>
    <foreignobject
     x="00"
     y="400"
     width="300"
     height="150">
    <body>
      <div style="font-size:32px;"><b id="map-county-info">Texas, USA</b><br/></div>
      <div
         color="white" id="map-owner-info"></div>
         <br/>
      <div class="action-container">
      <button id="attack-button" class="disp-button" disabled="">Attack</button>
      <button id="defend-button" class="disp-button" disabled="">Defend</button>
      <button id="visit-button" class="disp-button" disabled="">History</button>
      <button id="hover-button" class="hover-button disp-button" onclick="returnHover();" disabled="">Hover</button></div>
    </body>
  </foreignobject>
</svg>
